<?xml version="1.0" encoding="utf-8"?>
<svg xmlns="http://www.w3.org/2000/svg" xmlns:xlink="http://www.w3.org/1999/xlink" width="600" height="400" viewBox="0 0 2400 1600">
<defs>
  <clipPath id="clip930">
    <rect x="0" y="0" width="2400" height="1600"/>
  </clipPath>
</defs>
<path clip-path="url(#clip930)" d="M0 1600 L2400 1600 L2400 0 L0 0  Z" fill="#ffffff" fill-rule="evenodd" fill-opacity="1"/>
<defs>
  <clipPath id="clip931">
    <rect x="175" y="123" width="2178" height="1301"/>
  </clipPath>
</defs>
<path clip-path="url(#clip930)" d="M175.445 1423.18 L2352.76 1423.18 L2352.76 123.472 L175.445 123.472  Z" fill="#ffffff" fill-rule="evenodd" fill-opacity="1"/>
<polyline clip-path="url(#clip931)" style="stroke:#000000; stroke-linecap:round; stroke-linejoin:round; stroke-width:2; stroke-opacity:0.1; fill:none" points="579.412,1423.18 579.412,123.472 "/>
<polyline clip-path="url(#clip931)" style="stroke:#000000; stroke-linecap:round; stroke-linejoin:round; stroke-width:2; stroke-opacity:0.1; fill:none" points="1007.34,1423.18 1007.34,123.472 "/>
<polyline clip-path="url(#clip931)" style="stroke:#000000; stroke-linecap:round; stroke-linejoin:round; stroke-width:2; stroke-opacity:0.1; fill:none" points="1435.27,1423.18 1435.27,123.472 "/>
<polyline clip-path="url(#clip931)" style="stroke:#000000; stroke-linecap:round; stroke-linejoin:round; stroke-width:2; stroke-opacity:0.1; fill:none" points="1863.2,1423.18 1863.2,123.472 "/>
<polyline clip-path="url(#clip931)" style="stroke:#000000; stroke-linecap:round; stroke-linejoin:round; stroke-width:2; stroke-opacity:0.1; fill:none" points="2291.13,1423.18 2291.13,123.472 "/>
<polyline clip-path="url(#clip931)" style="stroke:#000000; stroke-linecap:round; stroke-linejoin:round; stroke-width:2; stroke-opacity:0.1; fill:none" points="175.445,1274.59 2352.76,1274.59 "/>
<polyline clip-path="url(#clip931)" style="stroke:#000000; stroke-linecap:round; stroke-linejoin:round; stroke-width:2; stroke-opacity:0.1; fill:none" points="175.445,1014.09 2352.76,1014.09 "/>
<polyline clip-path="url(#clip931)" style="stroke:#000000; stroke-linecap:round; stroke-linejoin:round; stroke-width:2; stroke-opacity:0.1; fill:none" points="175.445,753.586 2352.76,753.586 "/>
<polyline clip-path="url(#clip931)" style="stroke:#000000; stroke-linecap:round; stroke-linejoin:round; stroke-width:2; stroke-opacity:0.1; fill:none" points="175.445,493.085 2352.76,493.085 "/>
<polyline clip-path="url(#clip931)" style="stroke:#000000; stroke-linecap:round; stroke-linejoin:round; stroke-width:2; stroke-opacity:0.1; fill:none" points="175.445,232.585 2352.76,232.585 "/>
<polyline clip-path="url(#clip930)" style="stroke:#000000; stroke-linecap:round; stroke-linejoin:round; stroke-width:4; stroke-opacity:1; fill:none" points="175.445,1423.18 2352.76,1423.18 "/>
<polyline clip-path="url(#clip930)" style="stroke:#000000; stroke-linecap:round; stroke-linejoin:round; stroke-width:4; stroke-opacity:1; fill:none" points="579.412,1423.18 579.412,1404.28 "/>
<polyline clip-path="url(#clip930)" style="stroke:#000000; stroke-linecap:round; stroke-linejoin:round; stroke-width:4; stroke-opacity:1; fill:none" points="1007.34,1423.18 1007.34,1404.28 "/>
<polyline clip-path="url(#clip930)" style="stroke:#000000; stroke-linecap:round; stroke-linejoin:round; stroke-width:4; stroke-opacity:1; fill:none" points="1435.27,1423.18 1435.27,1404.28 "/>
<polyline clip-path="url(#clip930)" style="stroke:#000000; stroke-linecap:round; stroke-linejoin:round; stroke-width:4; stroke-opacity:1; fill:none" points="1863.2,1423.18 1863.2,1404.28 "/>
<polyline clip-path="url(#clip930)" style="stroke:#000000; stroke-linecap:round; stroke-linejoin:round; stroke-width:4; stroke-opacity:1; fill:none" points="2291.13,1423.18 2291.13,1404.28 "/>
<path clip-path="url(#clip930)" d="M557.294 1454.1 Q553.683 1454.1 551.854 1457.66 Q550.048 1461.2 550.048 1468.33 Q550.048 1475.44 551.854 1479.01 Q553.683 1482.55 557.294 1482.55 Q560.928 1482.55 562.734 1479.01 Q564.562 1475.44 564.562 1468.33 Q564.562 1461.2 562.734 1457.66 Q560.928 1454.1 557.294 1454.1 M557.294 1450.39 Q563.104 1450.39 566.159 1455 Q569.238 1459.58 569.238 1468.33 Q569.238 1477.06 566.159 1481.67 Q563.104 1486.25 557.294 1486.25 Q551.484 1486.25 548.405 1481.67 Q545.349 1477.06 545.349 1468.33 Q545.349 1459.58 548.405 1455 Q551.484 1450.39 557.294 1450.39 Z" fill="#000000" fill-rule="nonzero" fill-opacity="1" /><path clip-path="url(#clip930)" d="M577.456 1479.7 L582.34 1479.7 L582.34 1485.58 L577.456 1485.58 L577.456 1479.7 Z" fill="#000000" fill-rule="nonzero" fill-opacity="1" /><path clip-path="url(#clip930)" d="M592.571 1451.02 L610.928 1451.02 L610.928 1454.96 L596.854 1454.96 L596.854 1463.43 Q597.872 1463.08 598.891 1462.92 Q599.909 1462.73 600.928 1462.73 Q606.715 1462.73 610.094 1465.9 Q613.474 1469.08 613.474 1474.49 Q613.474 1480.07 610.002 1483.17 Q606.53 1486.25 600.21 1486.25 Q598.034 1486.25 595.766 1485.88 Q593.52 1485.51 591.113 1484.77 L591.113 1480.07 Q593.196 1481.2 595.419 1481.76 Q597.641 1482.32 600.118 1482.32 Q604.122 1482.32 606.46 1480.21 Q608.798 1478.1 608.798 1474.49 Q608.798 1470.88 606.46 1468.77 Q604.122 1466.67 600.118 1466.67 Q598.243 1466.67 596.368 1467.08 Q594.516 1467.5 592.571 1468.38 L592.571 1451.02 Z" fill="#000000" fill-rule="nonzero" fill-opacity="1" /><path clip-path="url(#clip930)" d="M974.495 1481.64 L982.134 1481.64 L982.134 1455.28 L973.824 1456.95 L973.824 1452.69 L982.088 1451.02 L986.764 1451.02 L986.764 1481.64 L994.402 1481.64 L994.402 1485.58 L974.495 1485.58 L974.495 1481.64 Z" fill="#000000" fill-rule="nonzero" fill-opacity="1" /><path clip-path="url(#clip930)" d="M1003.85 1479.7 L1008.73 1479.7 L1008.73 1485.58 L1003.85 1485.58 L1003.85 1479.7 Z" fill="#000000" fill-rule="nonzero" fill-opacity="1" /><path clip-path="url(#clip930)" d="M1028.92 1454.1 Q1025.31 1454.1 1023.48 1457.66 Q1021.67 1461.2 1021.67 1468.33 Q1021.67 1475.44 1023.48 1479.01 Q1025.31 1482.55 1028.92 1482.55 Q1032.55 1482.55 1034.36 1479.01 Q1036.18 1475.44 1036.18 1468.33 Q1036.18 1461.2 1034.36 1457.66 Q1032.55 1454.1 1028.92 1454.1 M1028.92 1450.39 Q1034.73 1450.39 1037.78 1455 Q1040.86 1459.58 1040.86 1468.33 Q1040.86 1477.06 1037.78 1481.67 Q1034.73 1486.25 1028.92 1486.25 Q1023.11 1486.25 1020.03 1481.67 Q1016.97 1477.06 1016.97 1468.33 Q1016.97 1459.58 1020.03 1455 Q1023.11 1450.39 1028.92 1450.39 Z" fill="#000000" fill-rule="nonzero" fill-opacity="1" /><path clip-path="url(#clip930)" d="M1402.92 1481.64 L1410.56 1481.64 L1410.56 1455.28 L1402.25 1456.95 L1402.25 1452.69 L1410.52 1451.02 L1415.19 1451.02 L1415.19 1481.64 L1422.83 1481.64 L1422.83 1485.58 L1402.92 1485.58 L1402.92 1481.64 Z" fill="#000000" fill-rule="nonzero" fill-opacity="1" /><path clip-path="url(#clip930)" d="M1432.28 1479.7 L1437.16 1479.7 L1437.16 1485.58 L1432.28 1485.58 L1432.28 1479.7 Z" fill="#000000" fill-rule="nonzero" fill-opacity="1" /><path clip-path="url(#clip930)" d="M1447.39 1451.02 L1465.75 1451.02 L1465.75 1454.96 L1451.67 1454.96 L1451.67 1463.43 Q1452.69 1463.08 1453.71 1462.92 Q1454.73 1462.73 1455.75 1462.73 Q1461.53 1462.73 1464.91 1465.9 Q1468.29 1469.08 1468.29 1474.49 Q1468.29 1480.07 1464.82 1483.17 Q1461.35 1486.25 1455.03 1486.25 Q1452.85 1486.25 1450.59 1485.88 Q1448.34 1485.51 1445.93 1484.77 L1445.93 1480.07 Q1448.02 1481.2 1450.24 1481.76 Q1452.46 1482.32 1454.94 1482.32 Q1458.94 1482.32 1461.28 1480.21 Q1463.62 1478.1 1463.62 1474.49 Q1463.62 1470.88 1461.28 1468.77 Q1458.94 1466.67 1454.94 1466.67 Q1453.06 1466.67 1451.19 1467.08 Q1449.34 1467.5 1447.39 1468.38 L1447.39 1451.02 Z" fill="#000000" fill-rule="nonzero" fill-opacity="1" /><path clip-path="url(#clip930)" d="M1834.44 1481.64 L1850.76 1481.64 L1850.76 1485.58 L1828.82 1485.58 L1828.82 1481.64 Q1831.48 1478.89 1836.06 1474.26 Q1840.67 1469.61 1841.85 1468.27 Q1844.09 1465.74 1844.97 1464.01 Q1845.88 1462.25 1845.88 1460.56 Q1845.88 1457.8 1843.93 1456.07 Q1842.01 1454.33 1838.91 1454.33 Q1836.71 1454.33 1834.26 1455.09 Q1831.83 1455.86 1829.05 1457.41 L1829.05 1452.69 Q1831.87 1451.55 1834.33 1450.97 Q1836.78 1450.39 1838.82 1450.39 Q1844.19 1450.39 1847.38 1453.08 Q1850.58 1455.77 1850.58 1460.26 Q1850.58 1462.39 1849.77 1464.31 Q1848.98 1466.2 1846.87 1468.8 Q1846.29 1469.47 1843.19 1472.69 Q1840.09 1475.88 1834.44 1481.64 Z" fill="#000000" fill-rule="nonzero" fill-opacity="1" /><path clip-path="url(#clip930)" d="M1860.58 1479.7 L1865.46 1479.7 L1865.46 1485.58 L1860.58 1485.58 L1860.58 1479.7 Z" fill="#000000" fill-rule="nonzero" fill-opacity="1" /><path clip-path="url(#clip930)" d="M1885.65 1454.1 Q1882.03 1454.1 1880.21 1457.66 Q1878.4 1461.2 1878.4 1468.33 Q1878.4 1475.44 1880.21 1479.01 Q1882.03 1482.55 1885.65 1482.55 Q1889.28 1482.55 1891.09 1479.01 Q1892.91 1475.44 1892.91 1468.33 Q1892.91 1461.2 1891.09 1457.66 Q1889.28 1454.1 1885.65 1454.1 M1885.65 1450.39 Q1891.46 1450.39 1894.51 1455 Q1897.59 1459.58 1897.59 1468.33 Q1897.59 1477.06 1894.51 1481.67 Q1891.46 1486.25 1885.65 1486.25 Q1879.84 1486.25 1876.76 1481.67 Q1873.7 1477.06 1873.7 1468.33 Q1873.7 1459.58 1876.76 1455 Q1879.84 1450.39 1885.65 1450.39 Z" fill="#000000" fill-rule="nonzero" fill-opacity="1" /><path clip-path="url(#clip930)" d="M2262.87 1481.64 L2279.19 1481.64 L2279.19 1485.58 L2257.25 1485.58 L2257.25 1481.64 Q2259.91 1478.89 2264.49 1474.26 Q2269.1 1469.61 2270.28 1468.27 Q2272.52 1465.74 2273.4 1464.01 Q2274.31 1462.25 2274.31 1460.56 Q2274.31 1457.8 2272.36 1456.07 Q2270.44 1454.33 2267.34 1454.33 Q2265.14 1454.33 2262.68 1455.09 Q2260.25 1455.86 2257.48 1457.41 L2257.48 1452.69 Q2260.3 1451.55 2262.75 1450.97 Q2265.21 1450.39 2267.25 1450.39 Q2272.62 1450.39 2275.81 1453.08 Q2279 1455.77 2279 1460.26 Q2279 1462.39 2278.19 1464.31 Q2277.41 1466.2 2275.3 1468.8 Q2274.72 1469.47 2271.62 1472.69 Q2268.52 1475.88 2262.87 1481.64 Z" fill="#000000" fill-rule="nonzero" fill-opacity="1" /><path clip-path="url(#clip930)" d="M2289 1479.7 L2293.89 1479.7 L2293.89 1485.58 L2289 1485.58 L2289 1479.7 Z" fill="#000000" fill-rule="nonzero" fill-opacity="1" /><path clip-path="url(#clip930)" d="M2304.12 1451.02 L2322.48 1451.02 L2322.48 1454.96 L2308.4 1454.96 L2308.4 1463.43 Q2309.42 1463.08 2310.44 1462.92 Q2311.46 1462.73 2312.48 1462.73 Q2318.26 1462.73 2321.64 1465.9 Q2325.02 1469.08 2325.02 1474.49 Q2325.02 1480.07 2321.55 1483.17 Q2318.08 1486.25 2311.76 1486.25 Q2309.58 1486.25 2307.31 1485.88 Q2305.07 1485.51 2302.66 1484.77 L2302.66 1480.07 Q2304.74 1481.2 2306.97 1481.76 Q2309.19 1482.32 2311.67 1482.32 Q2315.67 1482.32 2318.01 1480.21 Q2320.35 1478.1 2320.35 1474.49 Q2320.35 1470.88 2318.01 1468.77 Q2315.67 1466.67 2311.67 1466.67 Q2309.79 1466.67 2307.92 1467.08 Q2306.06 1467.5 2304.12 1468.38 L2304.12 1451.02 Z" fill="#000000" fill-rule="nonzero" fill-opacity="1" /><path clip-path="url(#clip930)" d="M1274.17 1537.81 L1274.17 1518.52 L1280.03 1518.52 L1280.03 1568.04 L1274.17 1568.04 L1274.17 1562.7 Q1272.33 1565.88 1269.5 1567.44 Q1266.69 1568.97 1262.75 1568.97 Q1256.29 1568.97 1252.21 1563.81 Q1248.17 1558.65 1248.17 1550.25 Q1248.17 1541.85 1252.21 1536.69 Q1256.29 1531.54 1262.75 1531.54 Q1266.69 1531.54 1269.5 1533.1 Q1272.33 1534.62 1274.17 1537.81 M1254.22 1550.25 Q1254.22 1556.71 1256.86 1560.4 Q1259.53 1564.07 1264.18 1564.07 Q1268.83 1564.07 1271.5 1560.4 Q1274.17 1556.71 1274.17 1550.25 Q1274.17 1543.79 1271.5 1540.13 Q1268.83 1536.44 1264.18 1536.44 Q1259.53 1536.44 1256.86 1540.13 Q1254.22 1543.79 1254.22 1550.25 Z" fill="#000000" fill-rule="nonzero" fill-opacity="1" /><polyline clip-path="url(#clip930)" style="stroke:#000000; stroke-linecap:round; stroke-linejoin:round; stroke-width:4; stroke-opacity:1; fill:none" points="175.445,1423.18 175.445,123.472 "/>
<polyline clip-path="url(#clip930)" style="stroke:#000000; stroke-linecap:round; stroke-linejoin:round; stroke-width:4; stroke-opacity:1; fill:none" points="175.445,1274.59 194.343,1274.59 "/>
<polyline clip-path="url(#clip930)" style="stroke:#000000; stroke-linecap:round; stroke-linejoin:round; stroke-width:4; stroke-opacity:1; fill:none" points="175.445,1014.09 194.343,1014.09 "/>
<polyline clip-path="url(#clip930)" style="stroke:#000000; stroke-linecap:round; stroke-linejoin:round; stroke-width:4; stroke-opacity:1; fill:none" points="175.445,753.586 194.343,753.586 "/>
<polyline clip-path="url(#clip930)" style="stroke:#000000; stroke-linecap:round; stroke-linejoin:round; stroke-width:4; stroke-opacity:1; fill:none" points="175.445,493.085 194.343,493.085 "/>
<polyline clip-path="url(#clip930)" style="stroke:#000000; stroke-linecap:round; stroke-linejoin:round; stroke-width:4; stroke-opacity:1; fill:none" points="175.445,232.585 194.343,232.585 "/>
<path clip-path="url(#clip930)" d="M123.126 1287.93 L139.445 1287.93 L139.445 1291.87 L117.501 1291.87 L117.501 1287.93 Q120.163 1285.18 124.746 1280.55 Q129.353 1275.9 130.533 1274.55 Q132.779 1272.03 133.658 1270.29 Q134.561 1268.53 134.561 1266.84 Q134.561 1264.09 132.617 1262.35 Q130.695 1260.62 127.593 1260.62 Q125.394 1260.62 122.941 1261.38 Q120.51 1262.15 117.732 1263.7 L117.732 1258.97 Q120.556 1257.84 123.01 1257.26 Q125.464 1256.68 127.501 1256.68 Q132.871 1256.68 136.066 1259.37 Q139.26 1262.05 139.26 1266.54 Q139.26 1268.67 138.45 1270.59 Q137.663 1272.49 135.556 1275.09 Q134.978 1275.76 131.876 1278.97 Q128.774 1282.17 123.126 1287.93 Z" fill="#000000" fill-rule="nonzero" fill-opacity="1" /><path clip-path="url(#clip930)" d="M132.316 1012.73 Q135.672 1013.45 137.547 1015.72 Q139.445 1017.99 139.445 1021.32 Q139.445 1026.44 135.927 1029.24 Q132.408 1032.04 125.927 1032.04 Q123.751 1032.04 121.436 1031.6 Q119.144 1031.18 116.691 1030.33 L116.691 1025.81 Q118.635 1026.95 120.95 1027.52 Q123.265 1028.1 125.788 1028.1 Q130.186 1028.1 132.478 1026.37 Q134.792 1024.63 134.792 1021.32 Q134.792 1018.27 132.64 1016.55 Q130.51 1014.82 126.691 1014.82 L122.663 1014.82 L122.663 1010.97 L126.876 1010.97 Q130.325 1010.97 132.154 1009.61 Q133.982 1008.22 133.982 1005.63 Q133.982 1002.96 132.084 1001.55 Q130.209 1000.12 126.691 1000.12 Q124.769 1000.12 122.57 1000.53 Q120.371 1000.95 117.732 1001.83 L117.732 997.663 Q120.394 996.923 122.709 996.552 Q125.047 996.182 127.107 996.182 Q132.431 996.182 135.533 998.613 Q138.635 1001.02 138.635 1005.14 Q138.635 1008.01 136.992 1010 Q135.348 1011.97 132.316 1012.73 Z" fill="#000000" fill-rule="nonzero" fill-opacity="1" /><path clip-path="url(#clip930)" d="M129.862 740.38 L118.056 758.829 L129.862 758.829 L129.862 740.38 M128.635 736.306 L134.515 736.306 L134.515 758.829 L139.445 758.829 L139.445 762.718 L134.515 762.718 L134.515 770.866 L129.862 770.866 L129.862 762.718 L114.26 762.718 L114.26 758.204 L128.635 736.306 Z" fill="#000000" fill-rule="nonzero" fill-opacity="1" /><path clip-path="url(#clip930)" d="M118.543 475.805 L136.899 475.805 L136.899 479.741 L122.825 479.741 L122.825 488.213 Q123.843 487.866 124.862 487.703 Q125.88 487.518 126.899 487.518 Q132.686 487.518 136.066 490.69 Q139.445 493.861 139.445 499.277 Q139.445 504.856 135.973 507.958 Q132.501 511.037 126.181 511.037 Q124.005 511.037 121.737 510.666 Q119.492 510.296 117.084 509.555 L117.084 504.856 Q119.168 505.99 121.39 506.546 Q123.612 507.102 126.089 507.102 Q130.093 507.102 132.431 504.995 Q134.769 502.889 134.769 499.277 Q134.769 495.666 132.431 493.56 Q130.093 491.453 126.089 491.453 Q124.214 491.453 122.339 491.87 Q120.487 492.287 118.543 493.166 L118.543 475.805 Z" fill="#000000" fill-rule="nonzero" fill-opacity="1" /><path clip-path="url(#clip930)" d="M127.917 230.721 Q124.769 230.721 122.918 232.874 Q121.089 235.027 121.089 238.777 Q121.089 242.504 122.918 244.679 Q124.769 246.832 127.917 246.832 Q131.066 246.832 132.894 244.679 Q134.746 242.504 134.746 238.777 Q134.746 235.027 132.894 232.874 Q131.066 230.721 127.917 230.721 M137.2 216.068 L137.2 220.328 Q135.441 219.494 133.635 219.055 Q131.853 218.615 130.093 218.615 Q125.464 218.615 123.01 221.74 Q120.58 224.865 120.232 231.184 Q121.598 229.17 123.658 228.105 Q125.718 227.018 128.195 227.018 Q133.404 227.018 136.413 230.189 Q139.445 233.337 139.445 238.777 Q139.445 244.101 136.297 247.318 Q133.149 250.536 127.917 250.536 Q121.922 250.536 118.751 245.953 Q115.58 241.346 115.58 232.619 Q115.58 224.425 119.468 219.564 Q123.357 214.68 129.908 214.68 Q131.667 214.68 133.45 215.027 Q135.255 215.374 137.2 216.068 Z" fill="#000000" fill-rule="nonzero" fill-opacity="1" /><path clip-path="url(#clip930)" d="M46.0847 769.952 Q46.0847 777.05 47.7079 779.787 Q49.3312 782.524 53.2461 782.524 Q56.3653 782.524 58.2114 780.487 Q60.0256 778.419 60.0256 774.886 Q60.0256 770.016 56.5881 767.088 Q53.1188 764.128 47.3897 764.128 L46.0847 764.128 L46.0847 769.952 M43.6657 758.271 L64.0042 758.271 L64.0042 764.128 L58.5933 764.128 Q61.8398 766.133 63.3994 769.125 Q64.9272 772.116 64.9272 776.445 Q64.9272 781.92 61.8716 785.166 Q58.7843 788.381 53.6281 788.381 Q47.6125 788.381 44.5569 784.37 Q41.5014 780.328 41.5014 772.339 L41.5014 764.128 L40.9285 764.128 Q36.8862 764.128 34.6901 766.801 Q32.4621 769.443 32.4621 774.249 Q32.4621 777.305 33.1941 780.201 Q33.9262 783.097 35.3903 785.771 L29.9795 785.771 Q28.7381 782.556 28.1334 779.533 Q27.4968 776.509 27.4968 773.644 Q27.4968 765.91 31.5072 762.091 Q35.5176 758.271 43.6657 758.271 Z" fill="#000000" fill-rule="nonzero" fill-opacity="1" /><path clip-path="url(#clip930)" d="M1021.67 12.096 L1029.86 12.096 L1029.86 36.8875 L1059.59 36.8875 L1059.59 12.096 L1067.77 12.096 L1067.77 72.576 L1059.59 72.576 L1059.59 43.7741 L1029.86 43.7741 L1029.86 72.576 L1021.67 72.576 L1021.67 12.096 Z" fill="#000000" fill-rule="nonzero" fill-opacity="1" /><path clip-path="url(#clip930)" d="M1101.31 32.4315 Q1095.32 32.4315 1091.84 37.1306 Q1088.35 41.7891 1088.35 49.9314 Q1088.35 58.0738 1091.8 62.7728 Q1095.28 67.4314 1101.31 67.4314 Q1107.27 67.4314 1110.75 62.7323 Q1114.24 58.0333 1114.24 49.9314 Q1114.24 41.8701 1110.75 37.1711 Q1107.27 32.4315 1101.31 32.4315 M1101.31 26.1121 Q1111.04 26.1121 1116.59 32.4315 Q1122.14 38.7509 1122.14 49.9314 Q1122.14 61.0714 1116.59 67.4314 Q1111.04 73.7508 1101.31 73.7508 Q1091.55 73.7508 1086 67.4314 Q1080.49 61.0714 1080.49 49.9314 Q1080.49 38.7509 1086 32.4315 Q1091.55 26.1121 1101.31 26.1121 Z" fill="#000000" fill-rule="nonzero" fill-opacity="1" /><path clip-path="url(#clip930)" d="M1141.7 65.7705 L1141.7 89.8329 L1134.21 89.8329 L1134.21 27.2059 L1141.7 27.2059 L1141.7 34.0924 Q1144.05 30.0415 1147.62 28.0971 Q1151.22 26.1121 1156.2 26.1121 Q1164.47 26.1121 1169.61 32.6746 Q1174.8 39.2371 1174.8 49.9314 Q1174.8 60.6258 1169.61 67.1883 Q1164.47 73.7508 1156.2 73.7508 Q1151.22 73.7508 1147.62 71.8063 Q1144.05 69.8214 1141.7 65.7705 M1167.06 49.9314 Q1167.06 41.7081 1163.66 37.0496 Q1160.3 32.3505 1154.38 32.3505 Q1148.47 32.3505 1145.06 37.0496 Q1141.7 41.7081 1141.7 49.9314 Q1141.7 58.1548 1145.06 62.8538 Q1148.47 67.5124 1154.38 67.5124 Q1160.3 67.5124 1163.66 62.8538 Q1167.06 58.1548 1167.06 49.9314 Z" fill="#000000" fill-rule="nonzero" fill-opacity="1" /><path clip-path="url(#clip930)" d="M1210.12 9.54393 L1210.12 15.7418 L1202.99 15.7418 Q1198.98 15.7418 1197.4 17.3622 Q1195.86 18.9825 1195.86 23.1955 L1195.86 27.2059 L1208.14 27.2059 L1208.14 32.9987 L1195.86 32.9987 L1195.86 72.576 L1188.37 72.576 L1188.37 32.9987 L1181.24 32.9987 L1181.24 27.2059 L1188.37 27.2059 L1188.37 24.0462 Q1188.37 16.471 1191.89 13.0277 Q1195.42 9.54393 1203.07 9.54393 L1210.12 9.54393 Z" fill="#000000" fill-rule="nonzero" fill-opacity="1" /><path clip-path="url(#clip930)" d="M1275.38 28.9478 L1275.38 35.9153 Q1272.22 34.1734 1269.02 33.3227 Q1265.86 32.4315 1262.62 32.4315 Q1255.37 32.4315 1251.36 37.0496 Q1247.35 41.6271 1247.35 49.9314 Q1247.35 58.2358 1251.36 62.8538 Q1255.37 67.4314 1262.62 67.4314 Q1265.86 67.4314 1269.02 66.5807 Q1272.22 65.6895 1275.38 63.9476 L1275.38 70.8341 Q1272.26 72.2924 1268.9 73.0216 Q1265.58 73.7508 1261.81 73.7508 Q1251.56 73.7508 1245.53 67.3098 Q1239.49 60.8689 1239.49 49.9314 Q1239.49 38.832 1245.57 32.472 Q1251.68 26.1121 1262.3 26.1121 Q1265.74 26.1121 1269.02 26.8413 Q1272.3 27.5299 1275.38 28.9478 Z" fill="#000000" fill-rule="nonzero" fill-opacity="1" /><path clip-path="url(#clip930)" d="M1287.58 54.671 L1287.58 27.2059 L1295.03 27.2059 L1295.03 54.3874 Q1295.03 60.8284 1297.54 64.0691 Q1300.05 67.2693 1305.08 67.2693 Q1311.11 67.2693 1314.6 63.421 Q1318.12 59.5726 1318.12 52.9291 L1318.12 27.2059 L1325.57 27.2059 L1325.57 72.576 L1318.12 72.576 L1318.12 65.6084 Q1315.41 69.7404 1311.8 71.7658 Q1308.24 73.7508 1303.5 73.7508 Q1295.68 73.7508 1291.63 68.8897 Q1287.58 64.0286 1287.58 54.671 M1306.33 26.1121 L1306.33 26.1121 Z" fill="#000000" fill-rule="nonzero" fill-opacity="1" /><path clip-path="url(#clip930)" d="M1367.22 34.1734 Q1365.96 33.4443 1364.46 33.1202 Q1363 32.7556 1361.22 32.7556 Q1354.9 32.7556 1351.5 36.8875 Q1348.14 40.9789 1348.14 48.6757 L1348.14 72.576 L1340.64 72.576 L1340.64 27.2059 L1348.14 27.2059 L1348.14 34.2544 Q1350.49 30.1225 1354.25 28.1376 Q1358.02 26.1121 1363.41 26.1121 Q1364.18 26.1121 1365.11 26.2337 Q1366.04 26.3147 1367.18 26.5172 L1367.22 34.1734 Z" fill="#000000" fill-rule="nonzero" fill-opacity="1" /><path clip-path="url(#clip930)" d="M1369.69 27.2059 L1377.59 27.2059 L1391.76 65.2844 L1405.94 27.2059 L1413.84 27.2059 L1396.83 72.576 L1386.7 72.576 L1369.69 27.2059 Z" fill="#000000" fill-rule="nonzero" fill-opacity="1" /><path clip-path="url(#clip930)" d="M1462.94 48.0275 L1462.94 51.6733 L1428.67 51.6733 Q1429.15 59.3701 1433.29 63.421 Q1437.46 67.4314 1444.87 67.4314 Q1449.17 67.4314 1453.18 66.3781 Q1457.23 65.3249 1461.2 63.2184 L1461.2 70.267 Q1457.19 71.9684 1452.97 72.8596 Q1448.76 73.7508 1444.43 73.7508 Q1433.57 73.7508 1427.21 67.4314 Q1420.89 61.1119 1420.89 50.3365 Q1420.89 39.1965 1426.89 32.6746 Q1432.92 26.1121 1443.13 26.1121 Q1452.29 26.1121 1457.59 32.0264 Q1462.94 37.9003 1462.94 48.0275 M1455.49 45.84 Q1455.4 39.7232 1452.04 36.0774 Q1448.72 32.4315 1443.21 32.4315 Q1436.97 32.4315 1433.21 35.9558 Q1429.48 39.4801 1428.91 45.8805 L1455.49 45.84 Z" fill="#000000" fill-rule="nonzero" fill-opacity="1" /><path clip-path="url(#clip930)" d="M1504.1 28.5427 L1504.1 35.5912 Q1500.94 33.9709 1497.53 33.1607 Q1494.13 32.3505 1490.49 32.3505 Q1484.94 32.3505 1482.14 34.0519 Q1479.39 35.7533 1479.39 39.156 Q1479.39 41.7486 1481.37 43.2475 Q1483.36 44.7058 1489.35 46.0426 L1491.9 46.6097 Q1499.84 48.3111 1503.16 51.4303 Q1506.53 54.509 1506.53 60.0587 Q1506.53 66.3781 1501.5 70.0644 Q1496.52 73.7508 1487.77 73.7508 Q1484.13 73.7508 1480.16 73.0216 Q1476.23 72.3329 1471.85 70.9151 L1471.85 63.2184 Q1475.98 65.3654 1479.99 66.4591 Q1484 67.5124 1487.93 67.5124 Q1493.2 67.5124 1496.04 65.73 Q1498.87 63.9071 1498.87 60.6258 Q1498.87 57.5877 1496.8 55.9673 Q1494.78 54.3469 1487.85 52.8481 L1485.26 52.2405 Q1478.33 50.7821 1475.25 47.7845 Q1472.18 44.7463 1472.18 39.4801 Q1472.18 33.0797 1476.71 29.5959 Q1481.25 26.1121 1489.59 26.1121 Q1493.73 26.1121 1497.37 26.7198 Q1501.02 27.3274 1504.1 28.5427 Z" fill="#000000" fill-rule="nonzero" fill-opacity="1" /><polyline clip-path="url(#clip931)" style="stroke:#009af9; stroke-linecap:round; stroke-linejoin:round; stroke-width:4; stroke-opacity:1; fill:none" points="237.067,1386.4 411.14,1386.4 617.943,1386.4 755.812,1386.4 847.725,1386.4 909,1386.4 949.85,1386.4 977.083,1386.4 995.239,1386.4 1007.34,1386.4 1019.45,1386.4 1037.6,1386.4 1064.83,1386.4 1105.68,1386.4 1166.96,1386.4 1258.87,1386.4 1396.74,1386.4 1603.54,1386.4 1845.62,1386.4 2087.69,1386.4 2291.13,1386.4 "/>
<polyline clip-path="url(#clip931)" style="stroke:#e26f46; stroke-linecap:round; stroke-linejoin:round; stroke-width:4; stroke-opacity:1; fill:none" points="237.067,1369.66 364.979,1344.07 558.417,1304.16 697.865,1274.52 798.39,1252.74 869.024,1237.23 918.654,1226.23 953.526,1218.46 978.029,1212.97 995.245,1209.11 1007.34,1206.39 1019.44,1203.66 1036.66,1199.77 1061.16,1194.23 1096.03,1186.3 1144.41,1175.25 1211.51,1159.8 1302.29,1138.71 1362.2,1124.66 1380.65,1120.32 1383.22,1119.72 1385.99,1119.06 1389.15,1118.32 1389.57,1118.22 1390.11,1118.09 1390.41,1118.02 1390.75,1117.94 1391.19,1117.84 1391.81,1117.69 1392.67,1117.49 1392.79,1117.46 1392.96,1117.42 "/>
<polyline clip-path="url(#clip931)" style="stroke:#3da44d; stroke-linecap:round; stroke-linejoin:round; stroke-width:4; stroke-opacity:1; fill:none" points="237.067,1317.65 407.293,1168.3 584.945,998.334 712.934,869.169 805.161,773.361 871.627,703.117 919.532,651.94 954.061,614.789 978.321,588.564 995.366,570.08 1007.34,557.064 1019.32,544.027 1036.36,525.434 1060.62,498.9 1095.13,460.994 1143.01,408.148 1209.42,334.374 1297.06,236.246 1326.7,202.885 1344.18,183.163 1353.27,172.905 1362.42,162.565 1362.81,162.117 1363.38,161.478 1363.52,161.316 1363.68,161.14 1363.87,160.919 1364.14,160.611 1364.46,160.256 "/>
</svg>
