<?xml version="1.0" encoding="utf-8"?>
<svg xmlns="http://www.w3.org/2000/svg" xmlns:xlink="http://www.w3.org/1999/xlink" width="600" height="400" viewBox="0 0 2400 1600">
<defs>
  <clipPath id="clip360">
    <rect x="0" y="0" width="2400" height="1600"/>
  </clipPath>
</defs>
<path clip-path="url(#clip360)" d="M0 1600 L2400 1600 L2400 0 L0 0  Z" fill="#ffffff" fill-rule="evenodd" fill-opacity="1"/>
<defs>
  <clipPath id="clip361">
    <rect x="175" y="123" width="2178" height="1301"/>
  </clipPath>
</defs>
<path clip-path="url(#clip360)" d="M175.445 1423.18 L2352.76 1423.18 L2352.76 123.472 L175.445 123.472  Z" fill="#ffffff" fill-rule="evenodd" fill-opacity="1"/>
<polyline clip-path="url(#clip361)" style="stroke:#000000; stroke-linecap:round; stroke-linejoin:round; stroke-width:2; stroke-opacity:0.1; fill:none" points="579.412,1423.18 579.412,123.472 "/>
<polyline clip-path="url(#clip361)" style="stroke:#000000; stroke-linecap:round; stroke-linejoin:round; stroke-width:2; stroke-opacity:0.1; fill:none" points="1007.34,1423.18 1007.34,123.472 "/>
<polyline clip-path="url(#clip361)" style="stroke:#000000; stroke-linecap:round; stroke-linejoin:round; stroke-width:2; stroke-opacity:0.1; fill:none" points="1435.27,1423.18 1435.27,123.472 "/>
<polyline clip-path="url(#clip361)" style="stroke:#000000; stroke-linecap:round; stroke-linejoin:round; stroke-width:2; stroke-opacity:0.1; fill:none" points="1863.2,1423.18 1863.2,123.472 "/>
<polyline clip-path="url(#clip361)" style="stroke:#000000; stroke-linecap:round; stroke-linejoin:round; stroke-width:2; stroke-opacity:0.1; fill:none" points="2291.13,1423.18 2291.13,123.472 "/>
<polyline clip-path="url(#clip361)" style="stroke:#000000; stroke-linecap:round; stroke-linejoin:round; stroke-width:2; stroke-opacity:0.1; fill:none" points="175.445,1277.98 2352.76,1277.98 "/>
<polyline clip-path="url(#clip361)" style="stroke:#000000; stroke-linecap:round; stroke-linejoin:round; stroke-width:2; stroke-opacity:0.1; fill:none" points="175.445,1025.38 2352.76,1025.38 "/>
<polyline clip-path="url(#clip361)" style="stroke:#000000; stroke-linecap:round; stroke-linejoin:round; stroke-width:2; stroke-opacity:0.1; fill:none" points="175.445,772.788 2352.76,772.788 "/>
<polyline clip-path="url(#clip361)" style="stroke:#000000; stroke-linecap:round; stroke-linejoin:round; stroke-width:2; stroke-opacity:0.1; fill:none" points="175.445,520.192 2352.76,520.192 "/>
<polyline clip-path="url(#clip361)" style="stroke:#000000; stroke-linecap:round; stroke-linejoin:round; stroke-width:2; stroke-opacity:0.1; fill:none" points="175.445,267.596 2352.76,267.596 "/>
<polyline clip-path="url(#clip360)" style="stroke:#000000; stroke-linecap:round; stroke-linejoin:round; stroke-width:4; stroke-opacity:1; fill:none" points="175.445,1423.18 2352.76,1423.18 "/>
<polyline clip-path="url(#clip360)" style="stroke:#000000; stroke-linecap:round; stroke-linejoin:round; stroke-width:4; stroke-opacity:1; fill:none" points="579.412,1423.18 579.412,1404.28 "/>
<polyline clip-path="url(#clip360)" style="stroke:#000000; stroke-linecap:round; stroke-linejoin:round; stroke-width:4; stroke-opacity:1; fill:none" points="1007.34,1423.18 1007.34,1404.28 "/>
<polyline clip-path="url(#clip360)" style="stroke:#000000; stroke-linecap:round; stroke-linejoin:round; stroke-width:4; stroke-opacity:1; fill:none" points="1435.27,1423.18 1435.27,1404.28 "/>
<polyline clip-path="url(#clip360)" style="stroke:#000000; stroke-linecap:round; stroke-linejoin:round; stroke-width:4; stroke-opacity:1; fill:none" points="1863.2,1423.18 1863.2,1404.28 "/>
<polyline clip-path="url(#clip360)" style="stroke:#000000; stroke-linecap:round; stroke-linejoin:round; stroke-width:4; stroke-opacity:1; fill:none" points="2291.13,1423.18 2291.13,1404.28 "/>
<path clip-path="url(#clip360)" d="M557.294 1454.1 Q553.683 1454.1 551.854 1457.66 Q550.048 1461.2 550.048 1468.33 Q550.048 1475.44 551.854 1479.01 Q553.683 1482.55 557.294 1482.55 Q560.928 1482.55 562.734 1479.01 Q564.562 1475.44 564.562 1468.33 Q564.562 1461.2 562.734 1457.66 Q560.928 1454.1 557.294 1454.1 M557.294 1450.39 Q563.104 1450.39 566.159 1455 Q569.238 1459.58 569.238 1468.33 Q569.238 1477.06 566.159 1481.67 Q563.104 1486.25 557.294 1486.25 Q551.484 1486.25 548.405 1481.67 Q545.349 1477.06 545.349 1468.33 Q545.349 1459.58 548.405 1455 Q551.484 1450.39 557.294 1450.39 Z" fill="#000000" fill-rule="nonzero" fill-opacity="1" /><path clip-path="url(#clip360)" d="M577.456 1479.7 L582.34 1479.7 L582.34 1485.58 L577.456 1485.58 L577.456 1479.7 Z" fill="#000000" fill-rule="nonzero" fill-opacity="1" /><path clip-path="url(#clip360)" d="M592.571 1451.02 L610.928 1451.02 L610.928 1454.96 L596.854 1454.96 L596.854 1463.43 Q597.872 1463.08 598.891 1462.92 Q599.909 1462.73 600.928 1462.73 Q606.715 1462.73 610.094 1465.9 Q613.474 1469.08 613.474 1474.49 Q613.474 1480.07 610.002 1483.17 Q606.53 1486.25 600.21 1486.25 Q598.034 1486.25 595.766 1485.88 Q593.52 1485.51 591.113 1484.77 L591.113 1480.07 Q593.196 1481.2 595.419 1481.76 Q597.641 1482.32 600.118 1482.32 Q604.122 1482.32 606.46 1480.21 Q608.798 1478.1 608.798 1474.49 Q608.798 1470.88 606.46 1468.77 Q604.122 1466.67 600.118 1466.67 Q598.243 1466.67 596.368 1467.08 Q594.516 1467.5 592.571 1468.38 L592.571 1451.02 Z" fill="#000000" fill-rule="nonzero" fill-opacity="1" /><path clip-path="url(#clip360)" d="M974.495 1481.64 L982.134 1481.64 L982.134 1455.28 L973.824 1456.95 L973.824 1452.69 L982.088 1451.02 L986.764 1451.02 L986.764 1481.64 L994.402 1481.64 L994.402 1485.58 L974.495 1485.58 L974.495 1481.64 Z" fill="#000000" fill-rule="nonzero" fill-opacity="1" /><path clip-path="url(#clip360)" d="M1003.85 1479.7 L1008.73 1479.7 L1008.73 1485.58 L1003.85 1485.58 L1003.85 1479.7 Z" fill="#000000" fill-rule="nonzero" fill-opacity="1" /><path clip-path="url(#clip360)" d="M1028.92 1454.1 Q1025.31 1454.1 1023.48 1457.66 Q1021.67 1461.2 1021.67 1468.33 Q1021.67 1475.44 1023.48 1479.01 Q1025.31 1482.55 1028.92 1482.55 Q1032.55 1482.55 1034.36 1479.01 Q1036.18 1475.44 1036.18 1468.33 Q1036.18 1461.2 1034.36 1457.66 Q1032.55 1454.1 1028.92 1454.1 M1028.92 1450.39 Q1034.73 1450.39 1037.78 1455 Q1040.86 1459.58 1040.86 1468.33 Q1040.86 1477.06 1037.78 1481.67 Q1034.73 1486.25 1028.92 1486.25 Q1023.11 1486.25 1020.03 1481.67 Q1016.97 1477.06 1016.97 1468.33 Q1016.97 1459.58 1020.03 1455 Q1023.11 1450.39 1028.92 1450.39 Z" fill="#000000" fill-rule="nonzero" fill-opacity="1" /><path clip-path="url(#clip360)" d="M1402.92 1481.64 L1410.56 1481.64 L1410.56 1455.28 L1402.25 1456.95 L1402.25 1452.69 L1410.52 1451.02 L1415.19 1451.02 L1415.19 1481.64 L1422.83 1481.64 L1422.83 1485.58 L1402.92 1485.58 L1402.92 1481.64 Z" fill="#000000" fill-rule="nonzero" fill-opacity="1" /><path clip-path="url(#clip360)" d="M1432.28 1479.7 L1437.16 1479.7 L1437.16 1485.58 L1432.28 1485.58 L1432.28 1479.7 Z" fill="#000000" fill-rule="nonzero" fill-opacity="1" /><path clip-path="url(#clip360)" d="M1447.39 1451.02 L1465.75 1451.02 L1465.75 1454.96 L1451.67 1454.96 L1451.67 1463.43 Q1452.69 1463.08 1453.71 1462.92 Q1454.73 1462.73 1455.75 1462.73 Q1461.53 1462.73 1464.91 1465.9 Q1468.29 1469.08 1468.29 1474.49 Q1468.29 1480.07 1464.82 1483.17 Q1461.35 1486.25 1455.03 1486.25 Q1452.85 1486.25 1450.59 1485.88 Q1448.34 1485.51 1445.93 1484.77 L1445.93 1480.07 Q1448.02 1481.2 1450.24 1481.76 Q1452.46 1482.32 1454.94 1482.32 Q1458.94 1482.32 1461.28 1480.21 Q1463.62 1478.1 1463.62 1474.49 Q1463.62 1470.88 1461.28 1468.77 Q1458.94 1466.67 1454.94 1466.67 Q1453.06 1466.67 1451.19 1467.08 Q1449.34 1467.5 1447.39 1468.38 L1447.39 1451.02 Z" fill="#000000" fill-rule="nonzero" fill-opacity="1" /><path clip-path="url(#clip360)" d="M1834.44 1481.64 L1850.76 1481.64 L1850.76 1485.58 L1828.82 1485.58 L1828.82 1481.64 Q1831.48 1478.89 1836.06 1474.26 Q1840.67 1469.61 1841.85 1468.27 Q1844.09 1465.74 1844.97 1464.01 Q1845.88 1462.25 1845.88 1460.56 Q1845.88 1457.8 1843.93 1456.07 Q1842.01 1454.33 1838.91 1454.33 Q1836.71 1454.33 1834.26 1455.09 Q1831.83 1455.86 1829.05 1457.41 L1829.05 1452.69 Q1831.87 1451.55 1834.33 1450.97 Q1836.78 1450.39 1838.82 1450.39 Q1844.19 1450.39 1847.38 1453.08 Q1850.58 1455.77 1850.58 1460.26 Q1850.58 1462.39 1849.77 1464.31 Q1848.98 1466.2 1846.87 1468.8 Q1846.29 1469.47 1843.19 1472.69 Q1840.09 1475.88 1834.44 1481.64 Z" fill="#000000" fill-rule="nonzero" fill-opacity="1" /><path clip-path="url(#clip360)" d="M1860.58 1479.7 L1865.46 1479.7 L1865.46 1485.58 L1860.58 1485.58 L1860.58 1479.7 Z" fill="#000000" fill-rule="nonzero" fill-opacity="1" /><path clip-path="url(#clip360)" d="M1885.65 1454.1 Q1882.03 1454.1 1880.21 1457.66 Q1878.4 1461.2 1878.4 1468.33 Q1878.4 1475.44 1880.21 1479.01 Q1882.03 1482.55 1885.65 1482.55 Q1889.28 1482.55 1891.09 1479.01 Q1892.91 1475.44 1892.91 1468.33 Q1892.91 1461.2 1891.09 1457.66 Q1889.28 1454.1 1885.65 1454.1 M1885.65 1450.39 Q1891.46 1450.39 1894.51 1455 Q1897.59 1459.58 1897.59 1468.33 Q1897.59 1477.06 1894.51 1481.67 Q1891.46 1486.25 1885.65 1486.25 Q1879.84 1486.25 1876.76 1481.67 Q1873.7 1477.06 1873.7 1468.33 Q1873.7 1459.58 1876.76 1455 Q1879.84 1450.39 1885.65 1450.39 Z" fill="#000000" fill-rule="nonzero" fill-opacity="1" /><path clip-path="url(#clip360)" d="M2262.87 1481.64 L2279.19 1481.64 L2279.19 1485.58 L2257.25 1485.58 L2257.25 1481.64 Q2259.91 1478.89 2264.49 1474.26 Q2269.1 1469.61 2270.28 1468.27 Q2272.52 1465.74 2273.4 1464.01 Q2274.31 1462.25 2274.31 1460.56 Q2274.31 1457.8 2272.36 1456.07 Q2270.44 1454.33 2267.34 1454.33 Q2265.14 1454.33 2262.68 1455.09 Q2260.25 1455.86 2257.48 1457.41 L2257.48 1452.69 Q2260.3 1451.55 2262.75 1450.97 Q2265.21 1450.39 2267.25 1450.39 Q2272.62 1450.39 2275.81 1453.08 Q2279 1455.77 2279 1460.26 Q2279 1462.39 2278.19 1464.31 Q2277.41 1466.2 2275.3 1468.8 Q2274.72 1469.47 2271.62 1472.69 Q2268.52 1475.88 2262.87 1481.64 Z" fill="#000000" fill-rule="nonzero" fill-opacity="1" /><path clip-path="url(#clip360)" d="M2289 1479.7 L2293.89 1479.7 L2293.89 1485.58 L2289 1485.58 L2289 1479.7 Z" fill="#000000" fill-rule="nonzero" fill-opacity="1" /><path clip-path="url(#clip360)" d="M2304.12 1451.02 L2322.48 1451.02 L2322.48 1454.96 L2308.4 1454.96 L2308.4 1463.43 Q2309.42 1463.08 2310.44 1462.92 Q2311.46 1462.73 2312.48 1462.73 Q2318.26 1462.73 2321.64 1465.9 Q2325.02 1469.08 2325.02 1474.49 Q2325.02 1480.07 2321.55 1483.17 Q2318.08 1486.25 2311.76 1486.25 Q2309.58 1486.25 2307.31 1485.88 Q2305.07 1485.51 2302.66 1484.77 L2302.66 1480.07 Q2304.74 1481.2 2306.97 1481.76 Q2309.19 1482.32 2311.67 1482.32 Q2315.67 1482.32 2318.01 1480.21 Q2320.35 1478.1 2320.35 1474.49 Q2320.35 1470.88 2318.01 1468.77 Q2315.67 1466.67 2311.67 1466.67 Q2309.79 1466.67 2307.92 1467.08 Q2306.06 1467.5 2304.12 1468.38 L2304.12 1451.02 Z" fill="#000000" fill-rule="nonzero" fill-opacity="1" /><path clip-path="url(#clip360)" d="M1274.17 1537.81 L1274.17 1518.52 L1280.03 1518.52 L1280.03 1568.04 L1274.17 1568.04 L1274.17 1562.7 Q1272.33 1565.88 1269.5 1567.44 Q1266.69 1568.97 1262.75 1568.97 Q1256.29 1568.97 1252.21 1563.81 Q1248.17 1558.65 1248.17 1550.25 Q1248.17 1541.85 1252.21 1536.69 Q1256.29 1531.54 1262.75 1531.54 Q1266.69 1531.54 1269.5 1533.1 Q1272.33 1534.62 1274.17 1537.81 M1254.22 1550.25 Q1254.22 1556.71 1256.86 1560.4 Q1259.53 1564.07 1264.18 1564.07 Q1268.83 1564.07 1271.5 1560.4 Q1274.17 1556.71 1274.17 1550.25 Q1274.17 1543.79 1271.5 1540.13 Q1268.83 1536.44 1264.18 1536.44 Q1259.53 1536.44 1256.86 1540.13 Q1254.22 1543.79 1254.22 1550.25 Z" fill="#000000" fill-rule="nonzero" fill-opacity="1" /><polyline clip-path="url(#clip360)" style="stroke:#000000; stroke-linecap:round; stroke-linejoin:round; stroke-width:4; stroke-opacity:1; fill:none" points="175.445,1423.18 175.445,123.472 "/>
<polyline clip-path="url(#clip360)" style="stroke:#000000; stroke-linecap:round; stroke-linejoin:round; stroke-width:4; stroke-opacity:1; fill:none" points="175.445,1277.98 194.343,1277.98 "/>
<polyline clip-path="url(#clip360)" style="stroke:#000000; stroke-linecap:round; stroke-linejoin:round; stroke-width:4; stroke-opacity:1; fill:none" points="175.445,1025.38 194.343,1025.38 "/>
<polyline clip-path="url(#clip360)" style="stroke:#000000; stroke-linecap:round; stroke-linejoin:round; stroke-width:4; stroke-opacity:1; fill:none" points="175.445,772.788 194.343,772.788 "/>
<polyline clip-path="url(#clip360)" style="stroke:#000000; stroke-linecap:round; stroke-linejoin:round; stroke-width:4; stroke-opacity:1; fill:none" points="175.445,520.192 194.343,520.192 "/>
<polyline clip-path="url(#clip360)" style="stroke:#000000; stroke-linecap:round; stroke-linejoin:round; stroke-width:4; stroke-opacity:1; fill:none" points="175.445,267.596 194.343,267.596 "/>
<path clip-path="url(#clip360)" d="M123.126 1291.33 L139.445 1291.33 L139.445 1295.26 L117.501 1295.26 L117.501 1291.33 Q120.163 1288.57 124.746 1283.94 Q129.353 1279.29 130.533 1277.95 Q132.779 1275.42 133.658 1273.69 Q134.561 1271.93 134.561 1270.24 Q134.561 1267.48 132.617 1265.75 Q130.695 1264.01 127.593 1264.01 Q125.394 1264.01 122.941 1264.77 Q120.51 1265.54 117.732 1267.09 L117.732 1262.37 Q120.556 1261.23 123.01 1260.65 Q125.464 1260.08 127.501 1260.08 Q132.871 1260.08 136.066 1262.76 Q139.26 1265.45 139.26 1269.94 Q139.26 1272.07 138.45 1273.99 Q137.663 1275.89 135.556 1278.48 Q134.978 1279.15 131.876 1282.37 Q128.774 1285.56 123.126 1291.33 Z" fill="#000000" fill-rule="nonzero" fill-opacity="1" /><path clip-path="url(#clip360)" d="M132.316 1024.03 Q135.672 1024.75 137.547 1027.02 Q139.445 1029.28 139.445 1032.62 Q139.445 1037.73 135.927 1040.53 Q132.408 1043.34 125.927 1043.34 Q123.751 1043.34 121.436 1042.9 Q119.144 1042.48 116.691 1041.62 L116.691 1037.11 Q118.635 1038.24 120.95 1038.82 Q123.265 1039.4 125.788 1039.4 Q130.186 1039.4 132.478 1037.66 Q134.792 1035.93 134.792 1032.62 Q134.792 1029.56 132.64 1027.85 Q130.51 1026.11 126.691 1026.11 L122.663 1026.11 L122.663 1022.27 L126.876 1022.27 Q130.325 1022.27 132.154 1020.91 Q133.982 1019.52 133.982 1016.92 Q133.982 1014.26 132.084 1012.85 Q130.209 1011.41 126.691 1011.41 Q124.769 1011.41 122.57 1011.83 Q120.371 1012.25 117.732 1013.13 L117.732 1008.96 Q120.394 1008.22 122.709 1007.85 Q125.047 1007.48 127.107 1007.48 Q132.431 1007.48 135.533 1009.91 Q138.635 1012.32 138.635 1016.44 Q138.635 1019.31 136.992 1021.3 Q135.348 1023.27 132.316 1024.03 Z" fill="#000000" fill-rule="nonzero" fill-opacity="1" /><path clip-path="url(#clip360)" d="M129.862 759.582 L118.056 778.031 L129.862 778.031 L129.862 759.582 M128.635 755.508 L134.515 755.508 L134.515 778.031 L139.445 778.031 L139.445 781.92 L134.515 781.92 L134.515 790.068 L129.862 790.068 L129.862 781.92 L114.26 781.92 L114.26 777.406 L128.635 755.508 Z" fill="#000000" fill-rule="nonzero" fill-opacity="1" /><path clip-path="url(#clip360)" d="M118.543 502.912 L136.899 502.912 L136.899 506.847 L122.825 506.847 L122.825 515.319 Q123.843 514.972 124.862 514.81 Q125.88 514.625 126.899 514.625 Q132.686 514.625 136.066 517.796 Q139.445 520.967 139.445 526.384 Q139.445 531.963 135.973 535.065 Q132.501 538.143 126.181 538.143 Q124.005 538.143 121.737 537.773 Q119.492 537.403 117.084 536.662 L117.084 531.963 Q119.168 533.097 121.39 533.653 Q123.612 534.208 126.089 534.208 Q130.093 534.208 132.431 532.102 Q134.769 529.995 134.769 526.384 Q134.769 522.773 132.431 520.667 Q130.093 518.56 126.089 518.56 Q124.214 518.56 122.339 518.977 Q120.487 519.393 118.543 520.273 L118.543 502.912 Z" fill="#000000" fill-rule="nonzero" fill-opacity="1" /><path clip-path="url(#clip360)" d="M127.917 265.732 Q124.769 265.732 122.918 267.885 Q121.089 270.038 121.089 273.788 Q121.089 277.515 122.918 279.691 Q124.769 281.843 127.917 281.843 Q131.066 281.843 132.894 279.691 Q134.746 277.515 134.746 273.788 Q134.746 270.038 132.894 267.885 Q131.066 265.732 127.917 265.732 M137.2 251.08 L137.2 255.339 Q135.441 254.506 133.635 254.066 Q131.853 253.626 130.093 253.626 Q125.464 253.626 123.01 256.751 Q120.58 259.876 120.232 266.195 Q121.598 264.182 123.658 263.117 Q125.718 262.029 128.195 262.029 Q133.404 262.029 136.413 265.2 Q139.445 268.348 139.445 273.788 Q139.445 279.112 136.297 282.33 Q133.149 285.547 127.917 285.547 Q121.922 285.547 118.751 280.964 Q115.58 276.357 115.58 267.631 Q115.58 259.436 119.468 254.575 Q123.357 249.691 129.908 249.691 Q131.667 249.691 133.45 250.038 Q135.255 250.385 137.2 251.08 Z" fill="#000000" fill-rule="nonzero" fill-opacity="1" /><path clip-path="url(#clip360)" d="M46.0847 769.952 Q46.0847 777.05 47.7079 779.787 Q49.3312 782.524 53.2461 782.524 Q56.3653 782.524 58.2114 780.487 Q60.0256 778.419 60.0256 774.886 Q60.0256 770.016 56.5881 767.088 Q53.1188 764.128 47.3897 764.128 L46.0847 764.128 L46.0847 769.952 M43.6657 758.271 L64.0042 758.271 L64.0042 764.128 L58.5933 764.128 Q61.8398 766.133 63.3994 769.125 Q64.9272 772.116 64.9272 776.445 Q64.9272 781.92 61.8716 785.166 Q58.7843 788.381 53.6281 788.381 Q47.6125 788.381 44.5569 784.37 Q41.5014 780.328 41.5014 772.339 L41.5014 764.128 L40.9285 764.128 Q36.8862 764.128 34.6901 766.801 Q32.4621 769.443 32.4621 774.249 Q32.4621 777.305 33.1941 780.201 Q33.9262 783.097 35.3903 785.771 L29.9795 785.771 Q28.7381 782.556 28.1334 779.533 Q27.4968 776.509 27.4968 773.644 Q27.4968 765.91 31.5072 762.091 Q35.5176 758.271 43.6657 758.271 Z" fill="#000000" fill-rule="nonzero" fill-opacity="1" /><path clip-path="url(#clip360)" d="M1021.67 12.096 L1029.86 12.096 L1029.86 36.8875 L1059.59 36.8875 L1059.59 12.096 L1067.77 12.096 L1067.77 72.576 L1059.59 72.576 L1059.59 43.7741 L1029.86 43.7741 L1029.86 72.576 L1021.67 72.576 L1021.67 12.096 Z" fill="#000000" fill-rule="nonzero" fill-opacity="1" /><path clip-path="url(#clip360)" d="M1101.31 32.4315 Q1095.32 32.4315 1091.84 37.1306 Q1088.35 41.7891 1088.35 49.9314 Q1088.35 58.0738 1091.8 62.7728 Q1095.28 67.4314 1101.31 67.4314 Q1107.27 67.4314 1110.75 62.7323 Q1114.24 58.0333 1114.24 49.9314 Q1114.24 41.8701 1110.75 37.1711 Q1107.27 32.4315 1101.31 32.4315 M1101.31 26.1121 Q1111.04 26.1121 1116.59 32.4315 Q1122.14 38.7509 1122.14 49.9314 Q1122.14 61.0714 1116.59 67.4314 Q1111.04 73.7508 1101.31 73.7508 Q1091.55 73.7508 1086 67.4314 Q1080.49 61.0714 1080.49 49.9314 Q1080.49 38.7509 1086 32.4315 Q1091.55 26.1121 1101.31 26.1121 Z" fill="#000000" fill-rule="nonzero" fill-opacity="1" /><path clip-path="url(#clip360)" d="M1141.7 65.7705 L1141.7 89.8329 L1134.21 89.8329 L1134.21 27.2059 L1141.7 27.2059 L1141.7 34.0924 Q1144.05 30.0415 1147.62 28.0971 Q1151.22 26.1121 1156.2 26.1121 Q1164.47 26.1121 1169.61 32.6746 Q1174.8 39.2371 1174.8 49.9314 Q1174.8 60.6258 1169.61 67.1883 Q1164.47 73.7508 1156.2 73.7508 Q1151.22 73.7508 1147.62 71.8063 Q1144.05 69.8214 1141.7 65.7705 M1167.06 49.9314 Q1167.06 41.7081 1163.66 37.0496 Q1160.3 32.3505 1154.38 32.3505 Q1148.47 32.3505 1145.06 37.0496 Q1141.7 41.7081 1141.7 49.9314 Q1141.7 58.1548 1145.06 62.8538 Q1148.47 67.5124 1154.38 67.5124 Q1160.3 67.5124 1163.66 62.8538 Q1167.06 58.1548 1167.06 49.9314 Z" fill="#000000" fill-rule="nonzero" fill-opacity="1" /><path clip-path="url(#clip360)" d="M1210.12 9.54393 L1210.12 15.7418 L1202.99 15.7418 Q1198.98 15.7418 1197.4 17.3622 Q1195.86 18.9825 1195.86 23.1955 L1195.86 27.2059 L1208.14 27.2059 L1208.14 32.9987 L1195.86 32.9987 L1195.86 72.576 L1188.37 72.576 L1188.37 32.9987 L1181.24 32.9987 L1181.24 27.2059 L1188.37 27.2059 L1188.37 24.0462 Q1188.37 16.471 1191.89 13.0277 Q1195.42 9.54393 1203.07 9.54393 L1210.12 9.54393 Z" fill="#000000" fill-rule="nonzero" fill-opacity="1" /><path clip-path="url(#clip360)" d="M1275.38 28.9478 L1275.38 35.9153 Q1272.22 34.1734 1269.02 33.3227 Q1265.86 32.4315 1262.62 32.4315 Q1255.37 32.4315 1251.36 37.0496 Q1247.35 41.6271 1247.35 49.9314 Q1247.35 58.2358 1251.36 62.8538 Q1255.37 67.4314 1262.62 67.4314 Q1265.86 67.4314 1269.02 66.5807 Q1272.22 65.6895 1275.38 63.9476 L1275.38 70.8341 Q1272.26 72.2924 1268.9 73.0216 Q1265.58 73.7508 1261.81 73.7508 Q1251.56 73.7508 1245.53 67.3098 Q1239.49 60.8689 1239.49 49.9314 Q1239.49 38.832 1245.57 32.472 Q1251.68 26.1121 1262.3 26.1121 Q1265.74 26.1121 1269.02 26.8413 Q1272.3 27.5299 1275.38 28.9478 Z" fill="#000000" fill-rule="nonzero" fill-opacity="1" /><path clip-path="url(#clip360)" d="M1287.58 54.671 L1287.58 27.2059 L1295.03 27.2059 L1295.03 54.3874 Q1295.03 60.8284 1297.54 64.0691 Q1300.05 67.2693 1305.08 67.2693 Q1311.11 67.2693 1314.6 63.421 Q1318.12 59.5726 1318.12 52.9291 L1318.12 27.2059 L1325.57 27.2059 L1325.57 72.576 L1318.12 72.576 L1318.12 65.6084 Q1315.41 69.7404 1311.8 71.7658 Q1308.24 73.7508 1303.5 73.7508 Q1295.68 73.7508 1291.63 68.8897 Q1287.58 64.0286 1287.58 54.671 M1306.33 26.1121 L1306.33 26.1121 Z" fill="#000000" fill-rule="nonzero" fill-opacity="1" /><path clip-path="url(#clip360)" d="M1367.22 34.1734 Q1365.96 33.4443 1364.46 33.1202 Q1363 32.7556 1361.22 32.7556 Q1354.9 32.7556 1351.5 36.8875 Q1348.14 40.9789 1348.14 48.6757 L1348.14 72.576 L1340.64 72.576 L1340.64 27.2059 L1348.14 27.2059 L1348.14 34.2544 Q1350.49 30.1225 1354.25 28.1376 Q1358.02 26.1121 1363.41 26.1121 Q1364.18 26.1121 1365.11 26.2337 Q1366.04 26.3147 1367.18 26.5172 L1367.22 34.1734 Z" fill="#000000" fill-rule="nonzero" fill-opacity="1" /><path clip-path="url(#clip360)" d="M1369.69 27.2059 L1377.59 27.2059 L1391.76 65.2844 L1405.94 27.2059 L1413.84 27.2059 L1396.83 72.576 L1386.7 72.576 L1369.69 27.2059 Z" fill="#000000" fill-rule="nonzero" fill-opacity="1" /><path clip-path="url(#clip360)" d="M1462.94 48.0275 L1462.94 51.6733 L1428.67 51.6733 Q1429.15 59.3701 1433.29 63.421 Q1437.46 67.4314 1444.87 67.4314 Q1449.17 67.4314 1453.18 66.3781 Q1457.23 65.3249 1461.2 63.2184 L1461.2 70.267 Q1457.19 71.9684 1452.97 72.8596 Q1448.76 73.7508 1444.43 73.7508 Q1433.57 73.7508 1427.21 67.4314 Q1420.89 61.1119 1420.89 50.3365 Q1420.89 39.1965 1426.89 32.6746 Q1432.92 26.1121 1443.13 26.1121 Q1452.29 26.1121 1457.59 32.0264 Q1462.94 37.9003 1462.94 48.0275 M1455.49 45.84 Q1455.4 39.7232 1452.04 36.0774 Q1448.72 32.4315 1443.21 32.4315 Q1436.97 32.4315 1433.21 35.9558 Q1429.48 39.4801 1428.91 45.8805 L1455.49 45.84 Z" fill="#000000" fill-rule="nonzero" fill-opacity="1" /><path clip-path="url(#clip360)" d="M1504.1 28.5427 L1504.1 35.5912 Q1500.94 33.9709 1497.53 33.1607 Q1494.13 32.3505 1490.49 32.3505 Q1484.94 32.3505 1482.14 34.0519 Q1479.39 35.7533 1479.39 39.156 Q1479.39 41.7486 1481.37 43.2475 Q1483.36 44.7058 1489.35 46.0426 L1491.9 46.6097 Q1499.84 48.3111 1503.16 51.4303 Q1506.53 54.509 1506.53 60.0587 Q1506.53 66.3781 1501.5 70.0644 Q1496.52 73.7508 1487.77 73.7508 Q1484.13 73.7508 1480.16 73.0216 Q1476.23 72.3329 1471.85 70.9151 L1471.85 63.2184 Q1475.98 65.3654 1479.99 66.4591 Q1484 67.5124 1487.93 67.5124 Q1493.2 67.5124 1496.04 65.73 Q1498.87 63.9071 1498.87 60.6258 Q1498.87 57.5877 1496.8 55.9673 Q1494.78 54.3469 1487.85 52.8481 L1485.26 52.2405 Q1478.33 50.7821 1475.25 47.7845 Q1472.18 44.7463 1472.18 39.4801 Q1472.18 33.0797 1476.71 29.5959 Q1481.25 26.1121 1489.59 26.1121 Q1493.73 26.1121 1497.37 26.7198 Q1501.02 27.3274 1504.1 28.5427 Z" fill="#000000" fill-rule="nonzero" fill-opacity="1" /><circle clip-path="url(#clip361)" cx="818.029" cy="778.847" r="10.8" fill="#a52a2a" fill-rule="evenodd" fill-opacity="1" stroke="none"/>
<polyline clip-path="url(#clip361)" style="stroke:#e26f46; stroke-linecap:round; stroke-linejoin:round; stroke-width:4; stroke-opacity:1; fill:none" points="237.067,1386.4 411.14,1386.4 617.943,1386.4 755.812,1386.4 847.725,1386.4 909,1386.4 949.85,1386.4 977.083,1386.4 995.239,1386.4 1007.34,1386.4 1019.45,1386.4 1037.6,1386.4 1064.83,1386.4 1105.68,1386.4 1166.96,1386.4 1258.87,1386.4 1396.74,1386.4 1603.54,1386.4 1845.62,1386.4 2087.69,1386.4 2291.13,1386.4 "/>
<polyline clip-path="url(#clip361)" style="stroke:#3da44d; stroke-linecap:round; stroke-linejoin:round; stroke-width:4; stroke-opacity:1; fill:none" points="237.067,1370.16 364.979,1345.36 558.417,1306.66 697.865,1277.92 798.39,1256.79 869.024,1241.75 918.654,1231.09 953.526,1223.55 978.029,1218.23 995.245,1214.49 1007.34,1211.85 1019.44,1209.21 1036.66,1205.44 1061.16,1200.06 1096.03,1192.37 1145.66,1181.38 1214.51,1166.01 1310.01,1144.47 1340.08,1137.65 1372.09,1130.35 1409.12,1121.88 1418.65,1119.69 1419.24,1119.56 1419.43,1119.51 "/>
<polyline clip-path="url(#clip361)" style="stroke:#c271d2; stroke-linecap:round; stroke-linejoin:round; stroke-width:4; stroke-opacity:1; fill:none" points="237.067,1319.74 420.18,1163.38 597.824,997.726 725.807,872.02 818.029,778.847 838.396,758.018 919.532,674.226 954.061,638.203 978.321,612.773 995.366,594.85 1007.34,582.23 1019.32,569.588 1036.36,551.559 1060.62,525.83 1095.13,489.074 1143.01,437.832 1209.42,366.296 1301.52,266.282 1296.54,271.71 1317.1,249.283 1338.46,225.935 1361.89,200.28 1367.76,193.838 1373.94,187.064 1381.23,179.066 1388.52,171.057 1396.96,161.786 1398.35,160.256 "/>
<circle clip-path="url(#clip361)" cx="818.029" cy="778.847" r="10.8" fill="#a52a2a" fill-rule="evenodd" fill-opacity="1" stroke="none"/>
<circle clip-path="url(#clip361)" cx="838.396" cy="758.018" r="10.8" fill="#a52a2a" fill-rule="evenodd" fill-opacity="1" stroke="none"/>
<circle clip-path="url(#clip361)" cx="1301.52" cy="266.282" r="10.8" fill="#a52a2a" fill-rule="evenodd" fill-opacity="1" stroke="none"/>
<circle clip-path="url(#clip361)" cx="1296.54" cy="271.71" r="10.8" fill="#a52a2a" fill-rule="evenodd" fill-opacity="1" stroke="none"/>
<path clip-path="url(#clip360)" d="M2008.95 270.476 L2280.18 270.476 L2280.18 166.796 L2008.95 166.796  Z" fill="#ffffff" fill-rule="evenodd" fill-opacity="1"/>
<polyline clip-path="url(#clip360)" style="stroke:#000000; stroke-linecap:round; stroke-linejoin:round; stroke-width:4; stroke-opacity:1; fill:none" points="2008.95,270.476 2280.18,270.476 2280.18,166.796 2008.95,166.796 2008.95,270.476 "/>
<circle clip-path="url(#clip360)" cx="2105.72" cy="218.636" r="23.04" fill="#a52a2a" fill-rule="evenodd" fill-opacity="1" stroke="none"/>
<path clip-path="url(#clip360)" d="M2221.4 222.652 Q2221.4 218.022 2219.48 215.476 Q2217.58 212.93 2214.13 212.93 Q2210.71 212.93 2208.79 215.476 Q2206.89 218.022 2206.89 222.652 Q2206.89 227.258 2208.79 229.805 Q2210.71 232.351 2214.13 232.351 Q2217.58 232.351 2219.48 229.805 Q2221.4 227.258 2221.4 222.652 M2225.66 232.698 Q2225.66 239.318 2222.72 242.536 Q2219.78 245.777 2213.72 245.777 Q2211.47 245.777 2209.48 245.43 Q2207.49 245.105 2205.62 244.411 L2205.62 240.268 Q2207.49 241.286 2209.32 241.772 Q2211.15 242.258 2213.05 242.258 Q2217.24 242.258 2219.32 240.059 Q2221.4 237.883 2221.4 233.462 L2221.4 231.356 Q2220.08 233.647 2218.02 234.781 Q2215.96 235.916 2213.09 235.916 Q2208.32 235.916 2205.41 232.281 Q2202.49 228.647 2202.49 222.652 Q2202.49 216.633 2205.41 212.999 Q2208.32 209.365 2213.09 209.365 Q2215.96 209.365 2218.02 210.499 Q2220.08 211.633 2221.4 213.925 L2221.4 209.99 L2225.66 209.99 L2225.66 232.698 Z" fill="#000000" fill-rule="nonzero" fill-opacity="1" /><path clip-path="url(#clip360)" d="M2255.99 220.268 L2255.99 235.916 L2251.73 235.916 L2251.73 220.407 Q2251.73 216.726 2250.29 214.897 Q2248.86 213.069 2245.99 213.069 Q2242.54 213.069 2240.55 215.268 Q2238.56 217.467 2238.56 221.263 L2238.56 235.916 L2234.27 235.916 L2234.27 199.897 L2238.56 199.897 L2238.56 214.018 Q2240.08 211.68 2242.14 210.522 Q2244.23 209.365 2246.94 209.365 Q2251.4 209.365 2253.69 212.143 Q2255.99 214.897 2255.99 220.268 Z" fill="#000000" fill-rule="nonzero" fill-opacity="1" /></svg>
