<?xml version="1.0" encoding="utf-8"?>
<svg xmlns="http://www.w3.org/2000/svg" xmlns:xlink="http://www.w3.org/1999/xlink" width="600" height="400" viewBox="0 0 2400 1600">
<defs>
  <clipPath id="clip400">
    <rect x="0" y="0" width="2400" height="1600"/>
  </clipPath>
</defs>
<path clip-path="url(#clip400)" d="M0 1600 L2400 1600 L2400 0 L0 0  Z" fill="#ffffff" fill-rule="evenodd" fill-opacity="1"/>
<defs>
  <clipPath id="clip401">
    <rect x="203" y="47" width="2150" height="1377"/>
  </clipPath>
</defs>
<path clip-path="url(#clip400)" d="M203.964 1423.18 L2352.76 1423.18 L2352.76 47.2441 L203.964 47.2441  Z" fill="#ffffff" fill-rule="evenodd" fill-opacity="1"/>
<polyline clip-path="url(#clip401)" style="stroke:#000000; stroke-linecap:round; stroke-linejoin:round; stroke-width:2; stroke-opacity:0.1; fill:none" points="264.782,1423.18 264.782,47.2441 "/>
<polyline clip-path="url(#clip401)" style="stroke:#000000; stroke-linecap:round; stroke-linejoin:round; stroke-width:2; stroke-opacity:0.1; fill:none" points="746.267,1423.18 746.267,47.2441 "/>
<polyline clip-path="url(#clip401)" style="stroke:#000000; stroke-linecap:round; stroke-linejoin:round; stroke-width:2; stroke-opacity:0.1; fill:none" points="1227.75,1423.18 1227.75,47.2441 "/>
<polyline clip-path="url(#clip401)" style="stroke:#000000; stroke-linecap:round; stroke-linejoin:round; stroke-width:2; stroke-opacity:0.1; fill:none" points="1709.24,1423.18 1709.24,47.2441 "/>
<polyline clip-path="url(#clip401)" style="stroke:#000000; stroke-linecap:round; stroke-linejoin:round; stroke-width:2; stroke-opacity:0.1; fill:none" points="2190.72,1423.18 2190.72,47.2441 "/>
<polyline clip-path="url(#clip401)" style="stroke:#000000; stroke-linecap:round; stroke-linejoin:round; stroke-width:2; stroke-opacity:0.1; fill:none" points="203.964,1256.71 2352.76,1256.71 "/>
<polyline clip-path="url(#clip401)" style="stroke:#000000; stroke-linecap:round; stroke-linejoin:round; stroke-width:2; stroke-opacity:0.1; fill:none" points="203.964,1069.32 2352.76,1069.32 "/>
<polyline clip-path="url(#clip401)" style="stroke:#000000; stroke-linecap:round; stroke-linejoin:round; stroke-width:2; stroke-opacity:0.1; fill:none" points="203.964,881.931 2352.76,881.931 "/>
<polyline clip-path="url(#clip401)" style="stroke:#000000; stroke-linecap:round; stroke-linejoin:round; stroke-width:2; stroke-opacity:0.1; fill:none" points="203.964,694.542 2352.76,694.542 "/>
<polyline clip-path="url(#clip401)" style="stroke:#000000; stroke-linecap:round; stroke-linejoin:round; stroke-width:2; stroke-opacity:0.1; fill:none" points="203.964,507.153 2352.76,507.153 "/>
<polyline clip-path="url(#clip401)" style="stroke:#000000; stroke-linecap:round; stroke-linejoin:round; stroke-width:2; stroke-opacity:0.1; fill:none" points="203.964,319.764 2352.76,319.764 "/>
<polyline clip-path="url(#clip401)" style="stroke:#000000; stroke-linecap:round; stroke-linejoin:round; stroke-width:2; stroke-opacity:0.1; fill:none" points="203.964,132.375 2352.76,132.375 "/>
<polyline clip-path="url(#clip400)" style="stroke:#000000; stroke-linecap:round; stroke-linejoin:round; stroke-width:4; stroke-opacity:1; fill:none" points="203.964,1423.18 2352.76,1423.18 "/>
<polyline clip-path="url(#clip400)" style="stroke:#000000; stroke-linecap:round; stroke-linejoin:round; stroke-width:4; stroke-opacity:1; fill:none" points="264.782,1423.18 264.782,1404.28 "/>
<polyline clip-path="url(#clip400)" style="stroke:#000000; stroke-linecap:round; stroke-linejoin:round; stroke-width:4; stroke-opacity:1; fill:none" points="746.267,1423.18 746.267,1404.28 "/>
<polyline clip-path="url(#clip400)" style="stroke:#000000; stroke-linecap:round; stroke-linejoin:round; stroke-width:4; stroke-opacity:1; fill:none" points="1227.75,1423.18 1227.75,1404.28 "/>
<polyline clip-path="url(#clip400)" style="stroke:#000000; stroke-linecap:round; stroke-linejoin:round; stroke-width:4; stroke-opacity:1; fill:none" points="1709.24,1423.18 1709.24,1404.28 "/>
<polyline clip-path="url(#clip400)" style="stroke:#000000; stroke-linecap:round; stroke-linejoin:round; stroke-width:4; stroke-opacity:1; fill:none" points="2190.72,1423.18 2190.72,1404.28 "/>
<path clip-path="url(#clip400)" d="M242.167 1454.1 Q238.555 1454.1 236.727 1457.66 Q234.921 1461.2 234.921 1468.33 Q234.921 1475.44 236.727 1479.01 Q238.555 1482.55 242.167 1482.55 Q245.801 1482.55 247.606 1479.01 Q249.435 1475.44 249.435 1468.33 Q249.435 1461.2 247.606 1457.66 Q245.801 1454.1 242.167 1454.1 M242.167 1450.39 Q247.977 1450.39 251.032 1455 Q254.111 1459.58 254.111 1468.33 Q254.111 1477.06 251.032 1481.67 Q247.977 1486.25 242.167 1486.25 Q236.356 1486.25 233.278 1481.67 Q230.222 1477.06 230.222 1468.33 Q230.222 1459.58 233.278 1455 Q236.356 1450.39 242.167 1450.39 Z" fill="#000000" fill-rule="nonzero" fill-opacity="1" /><path clip-path="url(#clip400)" d="M262.328 1479.7 L267.213 1479.7 L267.213 1485.58 L262.328 1485.58 L262.328 1479.7 Z" fill="#000000" fill-rule="nonzero" fill-opacity="1" /><path clip-path="url(#clip400)" d="M287.398 1454.1 Q283.787 1454.1 281.958 1457.66 Q280.152 1461.2 280.152 1468.33 Q280.152 1475.44 281.958 1479.01 Q283.787 1482.55 287.398 1482.55 Q291.032 1482.55 292.838 1479.01 Q294.666 1475.44 294.666 1468.33 Q294.666 1461.2 292.838 1457.66 Q291.032 1454.1 287.398 1454.1 M287.398 1450.39 Q293.208 1450.39 296.263 1455 Q299.342 1459.58 299.342 1468.33 Q299.342 1477.06 296.263 1481.67 Q293.208 1486.25 287.398 1486.25 Q281.588 1486.25 278.509 1481.67 Q275.453 1477.06 275.453 1468.33 Q275.453 1459.58 278.509 1455 Q281.588 1450.39 287.398 1450.39 Z" fill="#000000" fill-rule="nonzero" fill-opacity="1" /><path clip-path="url(#clip400)" d="M724.149 1454.1 Q720.538 1454.1 718.709 1457.66 Q716.904 1461.2 716.904 1468.33 Q716.904 1475.44 718.709 1479.01 Q720.538 1482.55 724.149 1482.55 Q727.783 1482.55 729.589 1479.01 Q731.417 1475.44 731.417 1468.33 Q731.417 1461.2 729.589 1457.66 Q727.783 1454.1 724.149 1454.1 M724.149 1450.39 Q729.959 1450.39 733.015 1455 Q736.093 1459.58 736.093 1468.33 Q736.093 1477.06 733.015 1481.67 Q729.959 1486.25 724.149 1486.25 Q718.339 1486.25 715.26 1481.67 Q712.204 1477.06 712.204 1468.33 Q712.204 1459.58 715.26 1455 Q718.339 1450.39 724.149 1450.39 Z" fill="#000000" fill-rule="nonzero" fill-opacity="1" /><path clip-path="url(#clip400)" d="M744.311 1479.7 L749.195 1479.7 L749.195 1485.58 L744.311 1485.58 L744.311 1479.7 Z" fill="#000000" fill-rule="nonzero" fill-opacity="1" /><path clip-path="url(#clip400)" d="M759.426 1451.02 L777.783 1451.02 L777.783 1454.96 L763.709 1454.96 L763.709 1463.43 Q764.727 1463.08 765.746 1462.92 Q766.764 1462.73 767.783 1462.73 Q773.57 1462.73 776.949 1465.9 Q780.329 1469.08 780.329 1474.49 Q780.329 1480.07 776.857 1483.17 Q773.385 1486.25 767.065 1486.25 Q764.889 1486.25 762.621 1485.88 Q760.375 1485.51 757.968 1484.77 L757.968 1480.07 Q760.051 1481.2 762.274 1481.76 Q764.496 1482.32 766.973 1482.32 Q770.977 1482.32 773.315 1480.21 Q775.653 1478.1 775.653 1474.49 Q775.653 1470.88 773.315 1468.77 Q770.977 1466.67 766.973 1466.67 Q765.098 1466.67 763.223 1467.08 Q761.371 1467.5 759.426 1468.38 L759.426 1451.02 Z" fill="#000000" fill-rule="nonzero" fill-opacity="1" /><path clip-path="url(#clip400)" d="M1194.9 1481.64 L1202.54 1481.64 L1202.54 1455.28 L1194.23 1456.95 L1194.23 1452.69 L1202.5 1451.02 L1207.17 1451.02 L1207.17 1481.64 L1214.81 1481.64 L1214.81 1485.58 L1194.9 1485.58 L1194.9 1481.64 Z" fill="#000000" fill-rule="nonzero" fill-opacity="1" /><path clip-path="url(#clip400)" d="M1224.26 1479.7 L1229.14 1479.7 L1229.14 1485.58 L1224.26 1485.58 L1224.26 1479.7 Z" fill="#000000" fill-rule="nonzero" fill-opacity="1" /><path clip-path="url(#clip400)" d="M1249.33 1454.1 Q1245.71 1454.1 1243.89 1457.66 Q1242.08 1461.2 1242.08 1468.33 Q1242.08 1475.44 1243.89 1479.01 Q1245.71 1482.55 1249.33 1482.55 Q1252.96 1482.55 1254.77 1479.01 Q1256.59 1475.44 1256.59 1468.33 Q1256.59 1461.2 1254.77 1457.66 Q1252.96 1454.1 1249.33 1454.1 M1249.33 1450.39 Q1255.14 1450.39 1258.19 1455 Q1261.27 1459.58 1261.27 1468.33 Q1261.27 1477.06 1258.19 1481.67 Q1255.14 1486.25 1249.33 1486.25 Q1243.52 1486.25 1240.44 1481.67 Q1237.38 1477.06 1237.38 1468.33 Q1237.38 1459.58 1240.44 1455 Q1243.52 1450.39 1249.33 1450.39 Z" fill="#000000" fill-rule="nonzero" fill-opacity="1" /><path clip-path="url(#clip400)" d="M1676.89 1481.64 L1684.53 1481.64 L1684.53 1455.28 L1676.22 1456.95 L1676.22 1452.69 L1684.48 1451.02 L1689.16 1451.02 L1689.16 1481.64 L1696.79 1481.64 L1696.79 1485.58 L1676.89 1485.58 L1676.89 1481.64 Z" fill="#000000" fill-rule="nonzero" fill-opacity="1" /><path clip-path="url(#clip400)" d="M1706.24 1479.7 L1711.12 1479.7 L1711.12 1485.58 L1706.24 1485.58 L1706.24 1479.7 Z" fill="#000000" fill-rule="nonzero" fill-opacity="1" /><path clip-path="url(#clip400)" d="M1721.35 1451.02 L1739.71 1451.02 L1739.71 1454.96 L1725.64 1454.96 L1725.64 1463.43 Q1726.65 1463.08 1727.67 1462.92 Q1728.69 1462.73 1729.71 1462.73 Q1735.5 1462.73 1738.88 1465.9 Q1742.26 1469.08 1742.26 1474.49 Q1742.26 1480.07 1738.78 1483.17 Q1735.31 1486.25 1728.99 1486.25 Q1726.82 1486.25 1724.55 1485.88 Q1722.3 1485.51 1719.9 1484.77 L1719.9 1480.07 Q1721.98 1481.2 1724.2 1481.76 Q1726.42 1482.32 1728.9 1482.32 Q1732.9 1482.32 1735.24 1480.21 Q1737.58 1478.1 1737.58 1474.49 Q1737.58 1470.88 1735.24 1468.77 Q1732.9 1466.67 1728.9 1466.67 Q1727.03 1466.67 1725.15 1467.08 Q1723.3 1467.5 1721.35 1468.38 L1721.35 1451.02 Z" fill="#000000" fill-rule="nonzero" fill-opacity="1" /><path clip-path="url(#clip400)" d="M2161.96 1481.64 L2178.28 1481.64 L2178.28 1485.58 L2156.33 1485.58 L2156.33 1481.64 Q2159 1478.89 2163.58 1474.26 Q2168.19 1469.61 2169.37 1468.27 Q2171.61 1465.74 2172.49 1464.01 Q2173.39 1462.25 2173.39 1460.56 Q2173.39 1457.8 2171.45 1456.07 Q2169.53 1454.33 2166.43 1454.33 Q2164.23 1454.33 2161.77 1455.09 Q2159.34 1455.86 2156.57 1457.41 L2156.57 1452.69 Q2159.39 1451.55 2161.84 1450.97 Q2164.3 1450.39 2166.33 1450.39 Q2171.7 1450.39 2174.9 1453.08 Q2178.09 1455.77 2178.09 1460.26 Q2178.09 1462.39 2177.28 1464.31 Q2176.5 1466.2 2174.39 1468.8 Q2173.81 1469.47 2170.71 1472.69 Q2167.61 1475.88 2161.96 1481.64 Z" fill="#000000" fill-rule="nonzero" fill-opacity="1" /><path clip-path="url(#clip400)" d="M2188.09 1479.7 L2192.98 1479.7 L2192.98 1485.58 L2188.09 1485.58 L2188.09 1479.7 Z" fill="#000000" fill-rule="nonzero" fill-opacity="1" /><path clip-path="url(#clip400)" d="M2213.16 1454.1 Q2209.55 1454.1 2207.72 1457.66 Q2205.92 1461.2 2205.92 1468.33 Q2205.92 1475.44 2207.72 1479.01 Q2209.55 1482.55 2213.16 1482.55 Q2216.8 1482.55 2218.6 1479.01 Q2220.43 1475.44 2220.43 1468.33 Q2220.43 1461.2 2218.6 1457.66 Q2216.8 1454.1 2213.16 1454.1 M2213.16 1450.39 Q2218.97 1450.39 2222.03 1455 Q2225.11 1459.58 2225.11 1468.33 Q2225.11 1477.06 2222.03 1481.67 Q2218.97 1486.25 2213.16 1486.25 Q2207.35 1486.25 2204.27 1481.67 Q2201.22 1477.06 2201.22 1468.33 Q2201.22 1459.58 2204.27 1455 Q2207.35 1450.39 2213.16 1450.39 Z" fill="#000000" fill-rule="nonzero" fill-opacity="1" /><path clip-path="url(#clip400)" d="M1240.31 1550.12 Q1233.21 1550.12 1230.47 1551.75 Q1227.74 1553.37 1227.74 1557.29 Q1227.74 1560.4 1229.77 1562.25 Q1231.84 1564.07 1235.38 1564.07 Q1240.25 1564.07 1243.17 1560.63 Q1246.13 1557.16 1246.13 1551.43 L1246.13 1550.12 L1240.31 1550.12 M1251.99 1547.71 L1251.99 1568.04 L1246.13 1568.04 L1246.13 1562.63 Q1244.13 1565.88 1241.14 1567.44 Q1238.14 1568.97 1233.82 1568.97 Q1228.34 1568.97 1225.09 1565.91 Q1221.88 1562.82 1221.88 1557.67 Q1221.88 1551.65 1225.89 1548.6 Q1229.93 1545.54 1237.92 1545.54 L1246.13 1545.54 L1246.13 1544.97 Q1246.13 1540.93 1243.46 1538.73 Q1240.82 1536.5 1236.01 1536.5 Q1232.96 1536.5 1230.06 1537.23 Q1227.16 1537.97 1224.49 1539.43 L1224.49 1534.02 Q1227.7 1532.78 1230.73 1532.17 Q1233.75 1531.54 1236.62 1531.54 Q1244.35 1531.54 1248.17 1535.55 Q1251.99 1539.56 1251.99 1547.71 Z" fill="#000000" fill-rule="nonzero" fill-opacity="1" /><path clip-path="url(#clip400)" d="M1270.42 1562.63 L1292.86 1562.63 L1292.86 1568.04 L1262.68 1568.04 L1262.68 1562.63 Q1266.34 1558.85 1272.65 1552.48 Q1278.98 1546.08 1280.6 1544.24 Q1283.69 1540.77 1284.9 1538.38 Q1286.14 1535.96 1286.14 1533.64 Q1286.14 1529.85 1283.47 1527.46 Q1280.83 1525.08 1276.56 1525.08 Q1273.54 1525.08 1270.16 1526.13 Q1266.82 1527.18 1263 1529.31 L1263 1522.82 Q1266.89 1521.26 1270.26 1520.46 Q1273.63 1519.66 1276.43 1519.66 Q1283.82 1519.66 1288.21 1523.36 Q1292.6 1527.05 1292.6 1533.22 Q1292.6 1536.15 1291.49 1538.79 Q1290.41 1541.4 1287.51 1544.97 Q1286.71 1545.89 1282.45 1550.32 Q1278.18 1554.71 1270.42 1562.63 Z" fill="#000000" fill-rule="nonzero" fill-opacity="1" /><path clip-path="url(#clip400)" d="M1307.47 1562.63 L1317.97 1562.63 L1317.97 1526.38 L1306.54 1528.67 L1306.54 1522.82 L1317.91 1520.52 L1324.34 1520.52 L1324.34 1562.63 L1334.84 1562.63 L1334.84 1568.04 L1307.47 1568.04 L1307.47 1562.63 Z" fill="#000000" fill-rule="nonzero" fill-opacity="1" /><polyline clip-path="url(#clip400)" style="stroke:#000000; stroke-linecap:round; stroke-linejoin:round; stroke-width:4; stroke-opacity:1; fill:none" points="203.964,1423.18 203.964,47.2441 "/>
<polyline clip-path="url(#clip400)" style="stroke:#000000; stroke-linecap:round; stroke-linejoin:round; stroke-width:4; stroke-opacity:1; fill:none" points="203.964,1256.71 222.861,1256.71 "/>
<polyline clip-path="url(#clip400)" style="stroke:#000000; stroke-linecap:round; stroke-linejoin:round; stroke-width:4; stroke-opacity:1; fill:none" points="203.964,1069.32 222.861,1069.32 "/>
<polyline clip-path="url(#clip400)" style="stroke:#000000; stroke-linecap:round; stroke-linejoin:round; stroke-width:4; stroke-opacity:1; fill:none" points="203.964,881.931 222.861,881.931 "/>
<polyline clip-path="url(#clip400)" style="stroke:#000000; stroke-linecap:round; stroke-linejoin:round; stroke-width:4; stroke-opacity:1; fill:none" points="203.964,694.542 222.861,694.542 "/>
<polyline clip-path="url(#clip400)" style="stroke:#000000; stroke-linecap:round; stroke-linejoin:round; stroke-width:4; stroke-opacity:1; fill:none" points="203.964,507.153 222.861,507.153 "/>
<polyline clip-path="url(#clip400)" style="stroke:#000000; stroke-linecap:round; stroke-linejoin:round; stroke-width:4; stroke-opacity:1; fill:none" points="203.964,319.764 222.861,319.764 "/>
<polyline clip-path="url(#clip400)" style="stroke:#000000; stroke-linecap:round; stroke-linejoin:round; stroke-width:4; stroke-opacity:1; fill:none" points="203.964,132.375 222.861,132.375 "/>
<path clip-path="url(#clip400)" d="M147.061 1239.43 L165.417 1239.43 L165.417 1243.36 L151.343 1243.36 L151.343 1251.84 Q152.362 1251.49 153.38 1251.33 Q154.399 1251.14 155.417 1251.14 Q161.204 1251.14 164.584 1254.31 Q167.964 1257.48 167.964 1262.9 Q167.964 1268.48 164.491 1271.58 Q161.019 1274.66 154.7 1274.66 Q152.524 1274.66 150.255 1274.29 Q148.01 1273.92 145.603 1273.18 L145.603 1268.48 Q147.686 1269.61 149.908 1270.17 Q152.13 1270.73 154.607 1270.73 Q158.612 1270.73 160.95 1268.62 Q163.288 1266.51 163.288 1262.9 Q163.288 1259.29 160.95 1257.18 Q158.612 1255.08 154.607 1255.08 Q152.732 1255.08 150.857 1255.49 Q149.005 1255.91 147.061 1256.79 L147.061 1239.43 Z" fill="#000000" fill-rule="nonzero" fill-opacity="1" /><path clip-path="url(#clip400)" d="M116.668 1082.66 L124.306 1082.66 L124.306 1056.3 L115.996 1057.97 L115.996 1053.71 L124.26 1052.04 L128.936 1052.04 L128.936 1082.66 L136.575 1082.66 L136.575 1086.6 L116.668 1086.6 L116.668 1082.66 Z" fill="#000000" fill-rule="nonzero" fill-opacity="1" /><path clip-path="url(#clip400)" d="M156.019 1055.12 Q152.408 1055.12 150.579 1058.68 Q148.774 1062.23 148.774 1069.35 Q148.774 1076.46 150.579 1080.03 Q152.408 1083.57 156.019 1083.57 Q159.653 1083.57 161.459 1080.03 Q163.288 1076.46 163.288 1069.35 Q163.288 1062.23 161.459 1058.68 Q159.653 1055.12 156.019 1055.12 M156.019 1051.42 Q161.829 1051.42 164.885 1056.02 Q167.964 1060.6 167.964 1069.35 Q167.964 1078.08 164.885 1082.69 Q161.829 1087.27 156.019 1087.27 Q150.209 1087.27 147.13 1082.69 Q144.075 1078.08 144.075 1069.35 Q144.075 1060.6 147.13 1056.02 Q150.209 1051.42 156.019 1051.42 Z" fill="#000000" fill-rule="nonzero" fill-opacity="1" /><path clip-path="url(#clip400)" d="M117.663 895.276 L125.302 895.276 L125.302 868.91 L116.992 870.577 L116.992 866.318 L125.255 864.651 L129.931 864.651 L129.931 895.276 L137.57 895.276 L137.57 899.211 L117.663 899.211 L117.663 895.276 Z" fill="#000000" fill-rule="nonzero" fill-opacity="1" /><path clip-path="url(#clip400)" d="M147.061 864.651 L165.417 864.651 L165.417 868.586 L151.343 868.586 L151.343 877.058 Q152.362 876.711 153.38 876.549 Q154.399 876.364 155.417 876.364 Q161.204 876.364 164.584 879.535 Q167.964 882.707 167.964 888.123 Q167.964 893.702 164.491 896.804 Q161.019 899.882 154.7 899.882 Q152.524 899.882 150.255 899.512 Q148.01 899.142 145.603 898.401 L145.603 893.702 Q147.686 894.836 149.908 895.392 Q152.13 895.947 154.607 895.947 Q158.612 895.947 160.95 893.841 Q163.288 891.734 163.288 888.123 Q163.288 884.512 160.95 882.406 Q158.612 880.299 154.607 880.299 Q152.732 880.299 150.857 880.716 Q149.005 881.133 147.061 882.012 L147.061 864.651 Z" fill="#000000" fill-rule="nonzero" fill-opacity="1" /><path clip-path="url(#clip400)" d="M119.885 707.887 L136.204 707.887 L136.204 711.822 L114.26 711.822 L114.26 707.887 Q116.922 705.132 121.505 700.503 Q126.112 695.85 127.292 694.507 Q129.538 691.984 130.417 690.248 Q131.32 688.489 131.32 686.799 Q131.32 684.044 129.376 682.308 Q127.455 680.572 124.353 680.572 Q122.154 680.572 119.7 681.336 Q117.269 682.1 114.492 683.651 L114.492 678.929 Q117.316 677.795 119.769 677.216 Q122.223 676.637 124.26 676.637 Q129.63 676.637 132.825 679.322 Q136.019 682.007 136.019 686.498 Q136.019 688.628 135.209 690.549 Q134.422 692.447 132.316 695.04 Q131.737 695.711 128.635 698.929 Q125.533 702.123 119.885 707.887 Z" fill="#000000" fill-rule="nonzero" fill-opacity="1" /><path clip-path="url(#clip400)" d="M156.019 680.341 Q152.408 680.341 150.579 683.906 Q148.774 687.447 148.774 694.577 Q148.774 701.683 150.579 705.248 Q152.408 708.79 156.019 708.79 Q159.653 708.79 161.459 705.248 Q163.288 701.683 163.288 694.577 Q163.288 687.447 161.459 683.906 Q159.653 680.341 156.019 680.341 M156.019 676.637 Q161.829 676.637 164.885 681.244 Q167.964 685.827 167.964 694.577 Q167.964 703.304 164.885 707.91 Q161.829 712.493 156.019 712.493 Q150.209 712.493 147.13 707.91 Q144.075 703.304 144.075 694.577 Q144.075 685.827 147.13 681.244 Q150.209 676.637 156.019 676.637 Z" fill="#000000" fill-rule="nonzero" fill-opacity="1" /><path clip-path="url(#clip400)" d="M120.88 520.498 L137.2 520.498 L137.2 524.433 L115.256 524.433 L115.256 520.498 Q117.918 517.743 122.501 513.114 Q127.107 508.461 128.288 507.118 Q130.533 504.595 131.413 502.859 Q132.316 501.1 132.316 499.41 Q132.316 496.655 130.371 494.919 Q128.45 493.183 125.348 493.183 Q123.149 493.183 120.695 493.947 Q118.265 494.711 115.487 496.262 L115.487 491.54 Q118.311 490.405 120.765 489.827 Q123.218 489.248 125.255 489.248 Q130.626 489.248 133.82 491.933 Q137.015 494.618 137.015 499.109 Q137.015 501.239 136.204 503.16 Q135.417 505.058 133.311 507.651 Q132.732 508.322 129.63 511.54 Q126.529 514.734 120.88 520.498 Z" fill="#000000" fill-rule="nonzero" fill-opacity="1" /><path clip-path="url(#clip400)" d="M147.061 489.873 L165.417 489.873 L165.417 493.808 L151.343 493.808 L151.343 502.28 Q152.362 501.933 153.38 501.771 Q154.399 501.586 155.417 501.586 Q161.204 501.586 164.584 504.757 Q167.964 507.929 167.964 513.345 Q167.964 518.924 164.491 522.026 Q161.019 525.104 154.7 525.104 Q152.524 525.104 150.255 524.734 Q148.01 524.364 145.603 523.623 L145.603 518.924 Q147.686 520.058 149.908 520.614 Q152.13 521.169 154.607 521.169 Q158.612 521.169 160.95 519.063 Q163.288 516.956 163.288 513.345 Q163.288 509.734 160.95 507.628 Q158.612 505.521 154.607 505.521 Q152.732 505.521 150.857 505.938 Q149.005 506.354 147.061 507.234 L147.061 489.873 Z" fill="#000000" fill-rule="nonzero" fill-opacity="1" /><path clip-path="url(#clip400)" d="M130.024 318.41 Q133.38 319.127 135.255 321.396 Q137.154 323.664 137.154 326.998 Q137.154 332.114 133.635 334.914 Q130.117 337.715 123.635 337.715 Q121.459 337.715 119.144 337.276 Q116.853 336.859 114.399 336.002 L114.399 331.489 Q116.343 332.623 118.658 333.201 Q120.973 333.78 123.496 333.78 Q127.894 333.78 130.186 332.044 Q132.501 330.308 132.501 326.998 Q132.501 323.942 130.348 322.229 Q128.218 320.493 124.399 320.493 L120.371 320.493 L120.371 316.651 L124.584 316.651 Q128.033 316.651 129.862 315.285 Q131.691 313.896 131.691 311.303 Q131.691 308.641 129.792 307.229 Q127.917 305.794 124.399 305.794 Q122.478 305.794 120.279 306.211 Q118.08 306.628 115.441 307.507 L115.441 303.341 Q118.103 302.6 120.418 302.229 Q122.755 301.859 124.816 301.859 Q130.14 301.859 133.242 304.29 Q136.343 306.697 136.343 310.817 Q136.343 313.688 134.7 315.678 Q133.056 317.646 130.024 318.41 Z" fill="#000000" fill-rule="nonzero" fill-opacity="1" /><path clip-path="url(#clip400)" d="M156.019 305.563 Q152.408 305.563 150.579 309.128 Q148.774 312.669 148.774 319.799 Q148.774 326.905 150.579 330.47 Q152.408 334.012 156.019 334.012 Q159.653 334.012 161.459 330.47 Q163.288 326.905 163.288 319.799 Q163.288 312.669 161.459 309.128 Q159.653 305.563 156.019 305.563 M156.019 301.859 Q161.829 301.859 164.885 306.465 Q167.964 311.049 167.964 319.799 Q167.964 328.526 164.885 333.132 Q161.829 337.715 156.019 337.715 Q150.209 337.715 147.13 333.132 Q144.075 328.526 144.075 319.799 Q144.075 311.049 147.13 306.465 Q150.209 301.859 156.019 301.859 Z" fill="#000000" fill-rule="nonzero" fill-opacity="1" /><path clip-path="url(#clip400)" d="M131.019 131.021 Q134.376 131.738 136.251 134.007 Q138.149 136.275 138.149 139.609 Q138.149 144.724 134.63 147.525 Q131.112 150.326 124.63 150.326 Q122.455 150.326 120.14 149.886 Q117.848 149.47 115.394 148.613 L115.394 144.099 Q117.339 145.234 119.654 145.812 Q121.968 146.391 124.492 146.391 Q128.89 146.391 131.181 144.655 Q133.496 142.919 133.496 139.609 Q133.496 136.553 131.343 134.84 Q129.214 133.104 125.394 133.104 L121.367 133.104 L121.367 129.262 L125.58 129.262 Q129.029 129.262 130.857 127.896 Q132.686 126.507 132.686 123.914 Q132.686 121.252 130.788 119.84 Q128.913 118.405 125.394 118.405 Q123.473 118.405 121.274 118.822 Q119.075 119.238 116.436 120.118 L116.436 115.951 Q119.098 115.211 121.413 114.84 Q123.751 114.47 125.811 114.47 Q131.135 114.47 134.237 116.901 Q137.339 119.308 137.339 123.428 Q137.339 126.299 135.695 128.289 Q134.052 130.257 131.019 131.021 Z" fill="#000000" fill-rule="nonzero" fill-opacity="1" /><path clip-path="url(#clip400)" d="M147.061 115.095 L165.417 115.095 L165.417 119.03 L151.343 119.03 L151.343 127.502 Q152.362 127.155 153.38 126.993 Q154.399 126.808 155.417 126.808 Q161.204 126.808 164.584 129.979 Q167.964 133.15 167.964 138.567 Q167.964 144.146 164.491 147.248 Q161.019 150.326 154.7 150.326 Q152.524 150.326 150.255 149.956 Q148.01 149.586 145.603 148.845 L145.603 144.146 Q147.686 145.28 149.908 145.836 Q152.13 146.391 154.607 146.391 Q158.612 146.391 160.95 144.285 Q163.288 142.178 163.288 138.567 Q163.288 134.956 160.95 132.85 Q158.612 130.743 154.607 130.743 Q152.732 130.743 150.857 131.16 Q149.005 131.576 147.061 132.456 L147.061 115.095 Z" fill="#000000" fill-rule="nonzero" fill-opacity="1" /><path clip-path="url(#clip400)" d="M57.5111 748.198 Q59.0389 747.052 59.0389 743.615 L59.0389 740.782 L64.0042 740.782 L64.0042 744.315 Q64.0042 750.044 60.9486 752.654 Q57.8294 755.264 51.0818 755.264 L34.2127 755.264 L34.2127 768.632 L28.3562 768.632 L28.3562 735.753 L34.2127 735.753 L34.2127 749.28 L51.4319 749.28 Q56.047 749.28 57.5111 748.198 Z" fill="#000000" fill-rule="nonzero" fill-opacity="1" /><path clip-path="url(#clip400)" d="M29.4065 703.702 L34.9447 703.702 Q33.6716 706.184 33.035 708.858 Q32.3984 711.532 32.3984 714.396 Q32.3984 718.757 33.7352 720.953 Q35.072 723.117 37.7456 723.117 Q39.7826 723.117 40.9603 721.558 Q42.1061 719.998 43.1565 715.287 L43.6021 713.282 Q44.9389 707.044 47.3897 704.434 Q49.8086 701.792 54.1691 701.792 Q59.1344 701.792 62.0308 705.739 Q64.9272 709.654 64.9272 716.529 Q64.9272 719.393 64.3543 722.512 Q63.8132 725.6 62.6992 729.037 L56.6518 729.037 Q58.3387 725.791 59.198 722.64 Q60.0256 719.489 60.0256 716.401 Q60.0256 712.264 58.6251 710.036 Q57.1929 707.808 54.6147 707.808 Q52.2276 707.808 50.9545 709.431 Q49.6813 711.022 48.5037 716.465 L48.0262 718.502 Q46.8804 723.945 44.5251 726.364 Q42.138 728.783 38.0002 728.783 Q32.9713 728.783 30.2341 725.218 Q27.4968 721.653 27.4968 715.096 Q27.4968 711.85 27.9743 708.985 Q28.4517 706.121 29.4065 703.702 Z" fill="#000000" fill-rule="nonzero" fill-opacity="1" /><circle clip-path="url(#clip401)" cx="264.782" cy="1353.44" r="10.8" fill="#ff00ff" fill-rule="evenodd" fill-opacity="1" stroke="none"/>
<circle clip-path="url(#clip401)" cx="264.782" cy="1353.43" r="10.8" fill="#008000" fill-rule="evenodd" fill-opacity="1" stroke="none"/>
<circle clip-path="url(#clip401)" cx="1889.76" cy="906.608" r="10.8" fill="#a52a2a" fill-rule="evenodd" fill-opacity="1" stroke="none"/>
<polyline clip-path="url(#clip401)" style="stroke:#c271d2; stroke-linecap:round; stroke-linejoin:round; stroke-width:4; stroke-opacity:1; fill:none" points="746.267,1384.24 719.779,1383.81 682.194,1383.15 629.658,1382.13 577.573,1380.98 526.144,1379.64 475.702,1378.07 426.81,1376.18 380.474,1373.87 338.501,1370.97 303.861,1367.33 279.955,1362.96 267.771,1358.1 264.782,1353.44 264.782,1353.43 267.382,1348.32 273.721,1343.1 282.221,1337.82 291.882,1332.47 302.062,1327.05 312.346,1321.56 322.469,1316.02 332.263,1310.41 341.629,1304.76 350.513,1299.06 358.891,1293.32 366.759,1287.54 374.128,1281.74 381.018,1275.91 387.452,1270.06 393.457,1264.19 399.06,1258.3 404.29,1252.4 409.172,1246.49 413.732,1240.57 417.995,1234.63 421.983,1228.69 425.718,1222.75 429.217,1216.8 432.5,1210.84 435.582,1204.88 438.48,1198.92 441.205,1192.95 443.772,1186.98 446.192,1181 448.475,1175.03 450.631,1169.05 452.67,1163.07 454.598,1157.09 456.425,1151.11 458.156,1145.12 459.799,1139.14 461.358,1133.15 462.84,1127.16 464.25,1121.18 464.402,1120.51 465.736,1114.52 467.007,1108.53 468.218,1102.54 469.374,1096.55 470.477,1090.56 471.53,1084.57 472.537,1078.58 473.501,1072.59 474.423,1066.6 475.306,1060.6 476.152,1054.61 476.963,1048.62 477.741,1042.63 478.488,1036.63 479.205,1030.64 479.894,1024.64 480.557,1018.65 481.194,1012.66 481.807,1006.66 482.398,1000.67 482.967,994.674 483.515,988.679 484.043,982.684 484.553,976.69 485.045,970.695 485.519,964.7 485.978,958.705 486.421,952.709 486.849,946.714 487.263,940.719 487.663,934.723 488.05,928.728 488.425,922.733 488.788,916.737 489.139,910.742 489.48,904.746 489.81,898.75 490.13,892.755 490.44,886.759 490.741,880.763 491.033,874.767 491.317,868.772 491.592,862.776 491.626,862.039 491.892,856.043 492.151,850.047 492.403,844.051 492.647,838.055 492.885,832.059 493.116,826.063 493.341,820.067 493.56,814.071 493.773,808.075 493.981,802.079 494.183,796.083 494.38,790.087 494.571,784.091 494.758,778.095 494.94,772.099 495.118,766.102 495.291,760.106 495.459,754.11 495.624,748.114 495.785,742.118 495.941,736.122 496.094,730.125 496.244,724.129 496.39,718.133 496.532,712.137 496.671,706.141 496.807,700.144 496.94,694.148 497.07,688.152 497.197,682.156 497.321,676.159 497.442,670.163 497.561,664.167 497.677,658.17 497.79,652.174 497.901,646.178 498.01,640.182 498.117,634.185 498.221,628.189 498.323,622.193 498.423,616.196 498.52,610.2 498.616,604.204 498.634,603.044 498.728,597.048 498.819,591.052 498.909,585.055 498.997,579.059 499.083,573.063 499.168,567.066 499.251,561.07 499.332,555.074 499.412,549.077 499.49,543.081 499.567,537.085 499.642,531.088 499.716,525.092 499.788,519.095 499.859,513.099 499.929,507.103 499.997,501.106 500.065,495.11 500.131,489.114 500.195,483.117 500.259,477.121 500.322,471.124 500.383,465.128 500.443,459.132 500.503,453.135 500.561,447.139 500.618,441.142 500.674,435.146 500.73,429.15 500.784,423.153 500.838,417.157 500.89,411.161 500.942,405.164 500.993,399.168 501.042,393.171 501.092,387.175 501.14,381.179 501.188,375.182 501.234,369.186 501.28,363.189 501.326,357.193 501.37,351.196 501.414,345.2 501.423,344.032 501.466,338.035 501.508,332.039 501.55,326.043 501.591,320.046 501.631,314.05 501.671,308.053 501.71,302.057 501.749,296.061 501.787,290.064 501.824,284.068 501.861,278.071 501.897,272.075 501.933,266.078 501.969,260.082 502.003,254.086 502.038,248.089 502.071,242.093 502.105,236.096 502.137,230.1 502.17,224.104 502.202,218.107 502.233,212.111 502.264,206.114 502.294,200.118 502.325,194.121 502.354,188.125 502.384,182.129 502.412,176.132 502.441,170.136 502.469,164.139 502.497,158.143 502.524,152.146 502.551,146.15 502.578,140.154 502.604,134.157 502.63,128.161 502.655,122.164 502.68,116.168 502.705,110.171 502.73,104.175 502.754,98.1785 502.778,92.1821 502.802,86.1857 "/>
<circle clip-path="url(#clip401)" cx="264.782" cy="1353.44" r="10.8" fill="#ff00ff" fill-rule="evenodd" fill-opacity="1" stroke="none"/>
<circle clip-path="url(#clip401)" cx="264.782" cy="1353.43" r="10.8" fill="#008000" fill-rule="evenodd" fill-opacity="1" stroke="none"/>
<circle clip-path="url(#clip401)" cx="464.402" cy="1120.51" r="10.8" fill="#008000" fill-rule="evenodd" fill-opacity="1" stroke="none"/>
<circle clip-path="url(#clip401)" cx="491.626" cy="862.039" r="10.8" fill="#008000" fill-rule="evenodd" fill-opacity="1" stroke="none"/>
<circle clip-path="url(#clip401)" cx="498.634" cy="603.044" r="10.8" fill="#008000" fill-rule="evenodd" fill-opacity="1" stroke="none"/>
<circle clip-path="url(#clip401)" cx="501.423" cy="344.032" r="10.8" fill="#008000" fill-rule="evenodd" fill-opacity="1" stroke="none"/>
<polyline clip-path="url(#clip401)" style="stroke:#00a9ad; stroke-linecap:round; stroke-linejoin:round; stroke-width:4; stroke-opacity:1; fill:none" points="2291.94,429.761 2287.52,444.743 2282.89,459.725 2278.03,474.706 2272.93,489.686 2267.57,504.664 2261.94,519.642 2256.01,534.618 2249.76,549.592 2243.18,564.564 2236.23,579.535 2228.9,594.503 2221.14,609.468 2212.93,624.43 2204.23,639.389 2195,654.344 2185.21,669.294 2174.79,684.239 2163.71,699.178 2151.9,714.111 2139.29,729.035 2125.82,743.949 2111.4,758.853 2095.96,773.744 2079.38,788.62 2061.56,803.478 2042.38,818.315 2021.7,833.128 1999.37,847.91 1975.21,862.658 1949.04,877.363 1920.63,892.018 1889.76,906.608 1889.75,906.612 1856.15,921.128 1856.14,921.132 1819.51,935.557 1819.5,935.562 1779.52,949.883 1735.84,964.071 1688.1,978.1 1635.92,991.934 1578.89,1005.53 1516.62,1018.85 1448.75,1031.83 1374.97,1044.41 1295.01,1056.51 1208.7,1068.07 1115.94,1079 1016.77,1089.2 936.157,1096.48 875.737,1101.37 830.977,1104.69 798.081,1106.97 774.648,1108.5 758.025,1109.55 746.267,1110.27 734.443,1110.97 717.5,1111.95 693.151,1113.27 658.912,1114.99 610.502,1117.11 541.538,1119.37 462.653,1120.52 337.4,1115.69 272.373,1097.44 264.778,1082.46 264.918,1078.93 269.304,1064.36 277.252,1049.7 286.754,1034.99 296.813,1020.23 306.904,1005.45 316.746,990.625 326.19,975.781 335.165,960.915 343.64,946.032 351.615,931.134 359.1,916.223 366.117,901.301 372.691,886.371 378.85,871.433 381.774,863.979 387.36,849.031 392.597,834.078 397.511,819.121 402.123,804.159 406.458,789.195 410.535,774.227 414.372,759.257 417.987,744.284 421.397,729.31 424.615,714.334 427.656,699.356 430.531,684.377 433.252,669.397 435.83,654.416 438.275,639.434 440.594,624.451 442.797,609.467 443.052,607.684 445.133,592.699 447.113,577.714 448.998,562.729 450.794,547.743 452.506,532.757 454.139,517.77 455.699,502.783 457.189,487.795 458.614,472.808 459.977,457.82 461.282,442.832 462.531,427.843 "/>
<circle clip-path="url(#clip401)" cx="1889.76" cy="906.608" r="10.8" fill="#a52a2a" fill-rule="evenodd" fill-opacity="1" stroke="none"/>
<circle clip-path="url(#clip401)" cx="1889.75" cy="906.612" r="10.8" fill="#a52a2a" fill-rule="evenodd" fill-opacity="1" stroke="none"/>
<circle clip-path="url(#clip401)" cx="1856.15" cy="921.128" r="10.8" fill="#a52a2a" fill-rule="evenodd" fill-opacity="1" stroke="none"/>
<circle clip-path="url(#clip401)" cx="1856.14" cy="921.132" r="10.8" fill="#a52a2a" fill-rule="evenodd" fill-opacity="1" stroke="none"/>
<circle clip-path="url(#clip401)" cx="1819.51" cy="935.557" r="10.8" fill="#a52a2a" fill-rule="evenodd" fill-opacity="1" stroke="none"/>
<circle clip-path="url(#clip401)" cx="462.653" cy="1120.52" r="10.8" fill="#008000" fill-rule="evenodd" fill-opacity="1" stroke="none"/>
<circle clip-path="url(#clip401)" cx="264.918" cy="1078.93" r="10.8" fill="#a52a2a" fill-rule="evenodd" fill-opacity="1" stroke="none"/>
<circle clip-path="url(#clip401)" cx="381.774" cy="863.979" r="10.8" fill="#008000" fill-rule="evenodd" fill-opacity="1" stroke="none"/>
<circle clip-path="url(#clip401)" cx="443.052" cy="607.684" r="10.8" fill="#008000" fill-rule="evenodd" fill-opacity="1" stroke="none"/>
<path clip-path="url(#clip400)" d="M1144.17 300.469 L1412.55 300.469 L1412.55 93.1086 L1144.17 93.1086  Z" fill="#ffffff" fill-rule="evenodd" fill-opacity="1"/>
<polyline clip-path="url(#clip400)" style="stroke:#000000; stroke-linecap:round; stroke-linejoin:round; stroke-width:4; stroke-opacity:1; fill:none" points="1144.17,300.469 1412.55,300.469 1412.55,93.1086 1144.17,93.1086 1144.17,300.469 "/>
<circle clip-path="url(#clip400)" cx="1239.67" cy="144.949" r="23.04" fill="#ff00ff" fill-rule="evenodd" fill-opacity="1" stroke="none"/>
<path clip-path="url(#clip400)" d="M1356.89 146.581 L1356.89 162.229 L1352.63 162.229 L1352.63 146.719 Q1352.63 143.039 1351.19 141.21 Q1349.76 139.382 1346.89 139.382 Q1343.44 139.382 1341.45 141.581 Q1339.46 143.78 1339.46 147.576 L1339.46 162.229 L1335.18 162.229 L1335.18 136.303 L1339.46 136.303 L1339.46 140.331 Q1340.99 137.993 1343.05 136.835 Q1345.13 135.678 1347.84 135.678 Q1352.31 135.678 1354.6 138.456 Q1356.89 141.21 1356.89 146.581 Z" fill="#000000" fill-rule="nonzero" fill-opacity="1" /><path clip-path="url(#clip400)" d="M1382.44 140.238 L1382.44 126.21 L1386.7 126.21 L1386.7 162.229 L1382.44 162.229 L1382.44 158.34 Q1381.1 160.655 1379.04 161.789 Q1377 162.9 1374.13 162.9 Q1369.44 162.9 1366.47 159.15 Q1363.53 155.4 1363.53 149.289 Q1363.53 143.178 1366.47 139.428 Q1369.44 135.678 1374.13 135.678 Q1377 135.678 1379.04 136.812 Q1381.1 137.923 1382.44 140.238 M1367.93 149.289 Q1367.93 153.988 1369.85 156.673 Q1371.8 159.335 1375.18 159.335 Q1378.56 159.335 1380.5 156.673 Q1382.44 153.988 1382.44 149.289 Q1382.44 144.59 1380.5 141.928 Q1378.56 139.243 1375.18 139.243 Q1371.8 139.243 1369.85 141.928 Q1367.93 144.59 1367.93 149.289 Z" fill="#000000" fill-rule="nonzero" fill-opacity="1" /><circle clip-path="url(#clip400)" cx="1239.67" cy="196.789" r="23.04" fill="#008000" fill-rule="evenodd" fill-opacity="1" stroke="none"/>
<path clip-path="url(#clip400)" d="M1356.89 198.421 L1356.89 214.069 L1352.63 214.069 L1352.63 198.559 Q1352.63 194.879 1351.19 193.05 Q1349.76 191.222 1346.89 191.222 Q1343.44 191.222 1341.45 193.421 Q1339.46 195.62 1339.46 199.416 L1339.46 214.069 L1335.18 214.069 L1335.18 178.05 L1339.46 178.05 L1339.46 192.171 Q1340.99 189.833 1343.05 188.675 Q1345.13 187.518 1347.84 187.518 Q1352.31 187.518 1354.6 190.296 Q1356.89 193.05 1356.89 198.421 Z" fill="#000000" fill-rule="nonzero" fill-opacity="1" /><path clip-path="url(#clip400)" d="M1386.94 198.421 L1386.94 214.069 L1382.68 214.069 L1382.68 198.559 Q1382.68 194.879 1381.24 193.05 Q1379.81 191.222 1376.94 191.222 Q1373.49 191.222 1371.5 193.421 Q1369.5 195.62 1369.5 199.416 L1369.5 214.069 L1365.22 214.069 L1365.22 178.05 L1369.5 178.05 L1369.5 192.171 Q1371.03 189.833 1373.09 188.675 Q1375.18 187.518 1377.88 187.518 Q1382.35 187.518 1384.64 190.296 Q1386.94 193.05 1386.94 198.421 Z" fill="#000000" fill-rule="nonzero" fill-opacity="1" /><circle clip-path="url(#clip400)" cx="1239.67" cy="248.629" r="23.04" fill="#a52a2a" fill-rule="evenodd" fill-opacity="1" stroke="none"/>
<path clip-path="url(#clip400)" d="M1354.09 252.645 Q1354.09 248.015 1352.17 245.469 Q1350.27 242.923 1346.82 242.923 Q1343.39 242.923 1341.47 245.469 Q1339.57 248.015 1339.57 252.645 Q1339.57 257.251 1341.47 259.798 Q1343.39 262.344 1346.82 262.344 Q1350.27 262.344 1352.17 259.798 Q1354.09 257.251 1354.09 252.645 M1358.35 262.691 Q1358.35 269.311 1355.41 272.529 Q1352.47 275.77 1346.4 275.77 Q1344.16 275.77 1342.17 275.422 Q1340.18 275.098 1338.3 274.404 L1338.3 270.26 Q1340.18 271.279 1342.01 271.765 Q1343.83 272.251 1345.73 272.251 Q1349.92 272.251 1352 270.052 Q1354.09 267.876 1354.09 263.455 L1354.09 261.348 Q1352.77 263.64 1350.71 264.774 Q1348.65 265.909 1345.78 265.909 Q1341.01 265.909 1338.09 262.274 Q1335.18 258.64 1335.18 252.645 Q1335.18 246.626 1338.09 242.992 Q1341.01 239.358 1345.78 239.358 Q1348.65 239.358 1350.71 240.492 Q1352.77 241.626 1354.09 243.918 L1354.09 239.983 L1358.35 239.983 L1358.35 262.691 Z" fill="#000000" fill-rule="nonzero" fill-opacity="1" /><path clip-path="url(#clip400)" d="M1388.67 250.261 L1388.67 265.909 L1384.41 265.909 L1384.41 250.399 Q1384.41 246.719 1382.98 244.89 Q1381.54 243.062 1378.67 243.062 Q1375.22 243.062 1373.23 245.261 Q1371.24 247.46 1371.24 251.256 L1371.24 265.909 L1366.96 265.909 L1366.96 229.89 L1371.24 229.89 L1371.24 244.011 Q1372.77 241.673 1374.83 240.515 Q1376.91 239.358 1379.62 239.358 Q1384.09 239.358 1386.38 242.136 Q1388.67 244.89 1388.67 250.261 Z" fill="#000000" fill-rule="nonzero" fill-opacity="1" /></svg>
