<?xml version="1.0" encoding="utf-8"?>
<svg xmlns="http://www.w3.org/2000/svg" xmlns:xlink="http://www.w3.org/1999/xlink" width="600" height="400" viewBox="0 0 2400 1600">
<defs>
  <clipPath id="clip320">
    <rect x="0" y="0" width="2400" height="1600"/>
  </clipPath>
</defs>
<path clip-path="url(#clip320)" d="M0 1600 L2400 1600 L2400 0 L0 0  Z" fill="#ffffff" fill-rule="evenodd" fill-opacity="1"/>
<defs>
  <clipPath id="clip321">
    <rect x="203" y="47" width="2150" height="1377"/>
  </clipPath>
</defs>
<path clip-path="url(#clip320)" d="M203.964 1423.18 L2352.76 1423.18 L2352.76 47.2441 L203.964 47.2441  Z" fill="#ffffff" fill-rule="evenodd" fill-opacity="1"/>
<polyline clip-path="url(#clip321)" style="stroke:#000000; stroke-linecap:round; stroke-linejoin:round; stroke-width:2; stroke-opacity:0.1; fill:none" points="264.783,1423.18 264.783,47.2441 "/>
<polyline clip-path="url(#clip321)" style="stroke:#000000; stroke-linecap:round; stroke-linejoin:round; stroke-width:2; stroke-opacity:0.1; fill:none" points="744.502,1423.18 744.502,47.2441 "/>
<polyline clip-path="url(#clip321)" style="stroke:#000000; stroke-linecap:round; stroke-linejoin:round; stroke-width:2; stroke-opacity:0.1; fill:none" points="1224.22,1423.18 1224.22,47.2441 "/>
<polyline clip-path="url(#clip321)" style="stroke:#000000; stroke-linecap:round; stroke-linejoin:round; stroke-width:2; stroke-opacity:0.1; fill:none" points="1703.94,1423.18 1703.94,47.2441 "/>
<polyline clip-path="url(#clip321)" style="stroke:#000000; stroke-linecap:round; stroke-linejoin:round; stroke-width:2; stroke-opacity:0.1; fill:none" points="2183.66,1423.18 2183.66,47.2441 "/>
<polyline clip-path="url(#clip321)" style="stroke:#000000; stroke-linecap:round; stroke-linejoin:round; stroke-width:2; stroke-opacity:0.1; fill:none" points="203.964,1256.71 2352.76,1256.71 "/>
<polyline clip-path="url(#clip321)" style="stroke:#000000; stroke-linecap:round; stroke-linejoin:round; stroke-width:2; stroke-opacity:0.1; fill:none" points="203.964,1069.32 2352.76,1069.32 "/>
<polyline clip-path="url(#clip321)" style="stroke:#000000; stroke-linecap:round; stroke-linejoin:round; stroke-width:2; stroke-opacity:0.1; fill:none" points="203.964,881.931 2352.76,881.931 "/>
<polyline clip-path="url(#clip321)" style="stroke:#000000; stroke-linecap:round; stroke-linejoin:round; stroke-width:2; stroke-opacity:0.1; fill:none" points="203.964,694.542 2352.76,694.542 "/>
<polyline clip-path="url(#clip321)" style="stroke:#000000; stroke-linecap:round; stroke-linejoin:round; stroke-width:2; stroke-opacity:0.1; fill:none" points="203.964,507.153 2352.76,507.153 "/>
<polyline clip-path="url(#clip321)" style="stroke:#000000; stroke-linecap:round; stroke-linejoin:round; stroke-width:2; stroke-opacity:0.1; fill:none" points="203.964,319.764 2352.76,319.764 "/>
<polyline clip-path="url(#clip321)" style="stroke:#000000; stroke-linecap:round; stroke-linejoin:round; stroke-width:2; stroke-opacity:0.1; fill:none" points="203.964,132.375 2352.76,132.375 "/>
<polyline clip-path="url(#clip320)" style="stroke:#000000; stroke-linecap:round; stroke-linejoin:round; stroke-width:4; stroke-opacity:1; fill:none" points="203.964,1423.18 2352.76,1423.18 "/>
<polyline clip-path="url(#clip320)" style="stroke:#000000; stroke-linecap:round; stroke-linejoin:round; stroke-width:4; stroke-opacity:1; fill:none" points="264.783,1423.18 264.783,1404.28 "/>
<polyline clip-path="url(#clip320)" style="stroke:#000000; stroke-linecap:round; stroke-linejoin:round; stroke-width:4; stroke-opacity:1; fill:none" points="744.502,1423.18 744.502,1404.28 "/>
<polyline clip-path="url(#clip320)" style="stroke:#000000; stroke-linecap:round; stroke-linejoin:round; stroke-width:4; stroke-opacity:1; fill:none" points="1224.22,1423.18 1224.22,1404.28 "/>
<polyline clip-path="url(#clip320)" style="stroke:#000000; stroke-linecap:round; stroke-linejoin:round; stroke-width:4; stroke-opacity:1; fill:none" points="1703.94,1423.18 1703.94,1404.28 "/>
<polyline clip-path="url(#clip320)" style="stroke:#000000; stroke-linecap:round; stroke-linejoin:round; stroke-width:4; stroke-opacity:1; fill:none" points="2183.66,1423.18 2183.66,1404.28 "/>
<path clip-path="url(#clip320)" d="M242.167 1454.1 Q238.556 1454.1 236.728 1457.66 Q234.922 1461.2 234.922 1468.33 Q234.922 1475.44 236.728 1479.01 Q238.556 1482.55 242.167 1482.55 Q245.802 1482.55 247.607 1479.01 Q249.436 1475.44 249.436 1468.33 Q249.436 1461.2 247.607 1457.66 Q245.802 1454.1 242.167 1454.1 M242.167 1450.39 Q247.977 1450.39 251.033 1455 Q254.112 1459.58 254.112 1468.33 Q254.112 1477.06 251.033 1481.67 Q247.977 1486.25 242.167 1486.25 Q236.357 1486.25 233.278 1481.67 Q230.223 1477.06 230.223 1468.33 Q230.223 1459.58 233.278 1455 Q236.357 1450.39 242.167 1450.39 Z" fill="#000000" fill-rule="nonzero" fill-opacity="1" /><path clip-path="url(#clip320)" d="M262.329 1479.7 L267.214 1479.7 L267.214 1485.58 L262.329 1485.58 L262.329 1479.7 Z" fill="#000000" fill-rule="nonzero" fill-opacity="1" /><path clip-path="url(#clip320)" d="M287.399 1454.1 Q283.787 1454.1 281.959 1457.66 Q280.153 1461.2 280.153 1468.33 Q280.153 1475.44 281.959 1479.01 Q283.787 1482.55 287.399 1482.55 Q291.033 1482.55 292.838 1479.01 Q294.667 1475.44 294.667 1468.33 Q294.667 1461.2 292.838 1457.66 Q291.033 1454.1 287.399 1454.1 M287.399 1450.39 Q293.209 1450.39 296.264 1455 Q299.343 1459.58 299.343 1468.33 Q299.343 1477.06 296.264 1481.67 Q293.209 1486.25 287.399 1486.25 Q281.588 1486.25 278.51 1481.67 Q275.454 1477.06 275.454 1468.33 Q275.454 1459.58 278.51 1455 Q281.588 1450.39 287.399 1450.39 Z" fill="#000000" fill-rule="nonzero" fill-opacity="1" /><path clip-path="url(#clip320)" d="M722.384 1454.1 Q718.773 1454.1 716.944 1457.66 Q715.139 1461.2 715.139 1468.33 Q715.139 1475.44 716.944 1479.01 Q718.773 1482.55 722.384 1482.55 Q726.018 1482.55 727.824 1479.01 Q729.652 1475.44 729.652 1468.33 Q729.652 1461.2 727.824 1457.66 Q726.018 1454.1 722.384 1454.1 M722.384 1450.39 Q728.194 1450.39 731.25 1455 Q734.328 1459.58 734.328 1468.33 Q734.328 1477.06 731.25 1481.67 Q728.194 1486.25 722.384 1486.25 Q716.574 1486.25 713.495 1481.67 Q710.44 1477.06 710.44 1468.33 Q710.44 1459.58 713.495 1455 Q716.574 1450.39 722.384 1450.39 Z" fill="#000000" fill-rule="nonzero" fill-opacity="1" /><path clip-path="url(#clip320)" d="M742.546 1479.7 L747.43 1479.7 L747.43 1485.58 L742.546 1485.58 L742.546 1479.7 Z" fill="#000000" fill-rule="nonzero" fill-opacity="1" /><path clip-path="url(#clip320)" d="M757.661 1451.02 L776.018 1451.02 L776.018 1454.96 L761.944 1454.96 L761.944 1463.43 Q762.962 1463.08 763.981 1462.92 Q764.999 1462.73 766.018 1462.73 Q771.805 1462.73 775.185 1465.9 Q778.564 1469.08 778.564 1474.49 Q778.564 1480.07 775.092 1483.17 Q771.62 1486.25 765.3 1486.25 Q763.124 1486.25 760.856 1485.88 Q758.611 1485.51 756.203 1484.77 L756.203 1480.07 Q758.286 1481.2 760.509 1481.76 Q762.731 1482.32 765.208 1482.32 Q769.212 1482.32 771.55 1480.21 Q773.888 1478.1 773.888 1474.49 Q773.888 1470.88 771.55 1468.77 Q769.212 1466.67 765.208 1466.67 Q763.333 1466.67 761.458 1467.08 Q759.606 1467.5 757.661 1468.38 L757.661 1451.02 Z" fill="#000000" fill-rule="nonzero" fill-opacity="1" /><path clip-path="url(#clip320)" d="M1191.37 1481.64 L1199.01 1481.64 L1199.01 1455.28 L1190.7 1456.95 L1190.7 1452.69 L1198.97 1451.02 L1203.64 1451.02 L1203.64 1481.64 L1211.28 1481.64 L1211.28 1485.58 L1191.37 1485.58 L1191.37 1481.64 Z" fill="#000000" fill-rule="nonzero" fill-opacity="1" /><path clip-path="url(#clip320)" d="M1220.73 1479.7 L1225.61 1479.7 L1225.61 1485.58 L1220.73 1485.58 L1220.73 1479.7 Z" fill="#000000" fill-rule="nonzero" fill-opacity="1" /><path clip-path="url(#clip320)" d="M1245.79 1454.1 Q1242.18 1454.1 1240.35 1457.66 Q1238.55 1461.2 1238.55 1468.33 Q1238.55 1475.44 1240.35 1479.01 Q1242.18 1482.55 1245.79 1482.55 Q1249.43 1482.55 1251.23 1479.01 Q1253.06 1475.44 1253.06 1468.33 Q1253.06 1461.2 1251.23 1457.66 Q1249.43 1454.1 1245.79 1454.1 M1245.79 1450.39 Q1251.6 1450.39 1254.66 1455 Q1257.74 1459.58 1257.74 1468.33 Q1257.74 1477.06 1254.66 1481.67 Q1251.6 1486.25 1245.79 1486.25 Q1239.98 1486.25 1236.91 1481.67 Q1233.85 1477.06 1233.85 1468.33 Q1233.85 1459.58 1236.91 1455 Q1239.98 1450.39 1245.79 1450.39 Z" fill="#000000" fill-rule="nonzero" fill-opacity="1" /><path clip-path="url(#clip320)" d="M1671.59 1481.64 L1679.23 1481.64 L1679.23 1455.28 L1670.92 1456.95 L1670.92 1452.69 L1679.18 1451.02 L1683.86 1451.02 L1683.86 1481.64 L1691.5 1481.64 L1691.5 1485.58 L1671.59 1485.58 L1671.59 1481.64 Z" fill="#000000" fill-rule="nonzero" fill-opacity="1" /><path clip-path="url(#clip320)" d="M1700.94 1479.7 L1705.83 1479.7 L1705.83 1485.58 L1700.94 1485.58 L1700.94 1479.7 Z" fill="#000000" fill-rule="nonzero" fill-opacity="1" /><path clip-path="url(#clip320)" d="M1716.06 1451.02 L1734.41 1451.02 L1734.41 1454.96 L1720.34 1454.96 L1720.34 1463.43 Q1721.36 1463.08 1722.38 1462.92 Q1723.4 1462.73 1724.41 1462.73 Q1730.2 1462.73 1733.58 1465.9 Q1736.96 1469.08 1736.96 1474.49 Q1736.96 1480.07 1733.49 1483.17 Q1730.02 1486.25 1723.7 1486.25 Q1721.52 1486.25 1719.25 1485.88 Q1717.01 1485.51 1714.6 1484.77 L1714.6 1480.07 Q1716.68 1481.2 1718.9 1481.76 Q1721.13 1482.32 1723.6 1482.32 Q1727.61 1482.32 1729.95 1480.21 Q1732.28 1478.1 1732.28 1474.49 Q1732.28 1470.88 1729.95 1468.77 Q1727.61 1466.67 1723.6 1466.67 Q1721.73 1466.67 1719.85 1467.08 Q1718 1467.5 1716.06 1468.38 L1716.06 1451.02 Z" fill="#000000" fill-rule="nonzero" fill-opacity="1" /><path clip-path="url(#clip320)" d="M2154.9 1481.64 L2171.22 1481.64 L2171.22 1485.58 L2149.27 1485.58 L2149.27 1481.64 Q2151.93 1478.89 2156.52 1474.26 Q2161.12 1469.61 2162.3 1468.27 Q2164.55 1465.74 2165.43 1464.01 Q2166.33 1462.25 2166.33 1460.56 Q2166.33 1457.8 2164.39 1456.07 Q2162.47 1454.33 2159.36 1454.33 Q2157.17 1454.33 2154.71 1455.09 Q2152.28 1455.86 2149.5 1457.41 L2149.5 1452.69 Q2152.33 1451.55 2154.78 1450.97 Q2157.23 1450.39 2159.27 1450.39 Q2164.64 1450.39 2167.84 1453.08 Q2171.03 1455.77 2171.03 1460.26 Q2171.03 1462.39 2170.22 1464.31 Q2169.43 1466.2 2167.33 1468.8 Q2166.75 1469.47 2163.65 1472.69 Q2160.55 1475.88 2154.9 1481.64 Z" fill="#000000" fill-rule="nonzero" fill-opacity="1" /><path clip-path="url(#clip320)" d="M2181.03 1479.7 L2185.92 1479.7 L2185.92 1485.58 L2181.03 1485.58 L2181.03 1479.7 Z" fill="#000000" fill-rule="nonzero" fill-opacity="1" /><path clip-path="url(#clip320)" d="M2206.1 1454.1 Q2202.49 1454.1 2200.66 1457.66 Q2198.86 1461.2 2198.86 1468.33 Q2198.86 1475.44 2200.66 1479.01 Q2202.49 1482.55 2206.1 1482.55 Q2209.73 1482.55 2211.54 1479.01 Q2213.37 1475.44 2213.37 1468.33 Q2213.37 1461.2 2211.54 1457.66 Q2209.73 1454.1 2206.1 1454.1 M2206.1 1450.39 Q2211.91 1450.39 2214.97 1455 Q2218.04 1459.58 2218.04 1468.33 Q2218.04 1477.06 2214.97 1481.67 Q2211.91 1486.25 2206.1 1486.25 Q2200.29 1486.25 2197.21 1481.67 Q2194.16 1477.06 2194.16 1468.33 Q2194.16 1459.58 2197.21 1455 Q2200.29 1450.39 2206.1 1450.39 Z" fill="#000000" fill-rule="nonzero" fill-opacity="1" /><path clip-path="url(#clip320)" d="M1240.31 1550.12 Q1233.21 1550.12 1230.47 1551.75 Q1227.74 1553.37 1227.74 1557.29 Q1227.74 1560.4 1229.77 1562.25 Q1231.84 1564.07 1235.38 1564.07 Q1240.25 1564.07 1243.17 1560.63 Q1246.13 1557.16 1246.13 1551.43 L1246.13 1550.12 L1240.31 1550.12 M1251.99 1547.71 L1251.99 1568.04 L1246.13 1568.04 L1246.13 1562.63 Q1244.13 1565.88 1241.14 1567.44 Q1238.14 1568.97 1233.82 1568.97 Q1228.34 1568.97 1225.09 1565.91 Q1221.88 1562.82 1221.88 1557.67 Q1221.88 1551.65 1225.89 1548.6 Q1229.93 1545.54 1237.92 1545.54 L1246.13 1545.54 L1246.13 1544.97 Q1246.13 1540.93 1243.46 1538.73 Q1240.82 1536.5 1236.01 1536.5 Q1232.96 1536.5 1230.06 1537.23 Q1227.16 1537.97 1224.49 1539.43 L1224.49 1534.02 Q1227.7 1532.78 1230.73 1532.17 Q1233.75 1531.54 1236.62 1531.54 Q1244.35 1531.54 1248.17 1535.55 Q1251.99 1539.56 1251.99 1547.71 Z" fill="#000000" fill-rule="nonzero" fill-opacity="1" /><path clip-path="url(#clip320)" d="M1270.42 1562.63 L1292.86 1562.63 L1292.86 1568.04 L1262.68 1568.04 L1262.68 1562.63 Q1266.34 1558.85 1272.65 1552.48 Q1278.98 1546.08 1280.6 1544.24 Q1283.69 1540.77 1284.9 1538.38 Q1286.14 1535.96 1286.14 1533.64 Q1286.14 1529.85 1283.47 1527.46 Q1280.83 1525.08 1276.56 1525.08 Q1273.54 1525.08 1270.16 1526.13 Q1266.82 1527.18 1263 1529.31 L1263 1522.82 Q1266.89 1521.26 1270.26 1520.46 Q1273.63 1519.66 1276.43 1519.66 Q1283.82 1519.66 1288.21 1523.36 Q1292.6 1527.05 1292.6 1533.22 Q1292.6 1536.15 1291.49 1538.79 Q1290.41 1541.4 1287.51 1544.97 Q1286.71 1545.89 1282.45 1550.32 Q1278.18 1554.71 1270.42 1562.63 Z" fill="#000000" fill-rule="nonzero" fill-opacity="1" /><path clip-path="url(#clip320)" d="M1307.47 1562.63 L1317.97 1562.63 L1317.97 1526.38 L1306.54 1528.67 L1306.54 1522.82 L1317.91 1520.52 L1324.34 1520.52 L1324.34 1562.63 L1334.84 1562.63 L1334.84 1568.04 L1307.47 1568.04 L1307.47 1562.63 Z" fill="#000000" fill-rule="nonzero" fill-opacity="1" /><polyline clip-path="url(#clip320)" style="stroke:#000000; stroke-linecap:round; stroke-linejoin:round; stroke-width:4; stroke-opacity:1; fill:none" points="203.964,1423.18 203.964,47.2441 "/>
<polyline clip-path="url(#clip320)" style="stroke:#000000; stroke-linecap:round; stroke-linejoin:round; stroke-width:4; stroke-opacity:1; fill:none" points="203.964,1256.71 222.861,1256.71 "/>
<polyline clip-path="url(#clip320)" style="stroke:#000000; stroke-linecap:round; stroke-linejoin:round; stroke-width:4; stroke-opacity:1; fill:none" points="203.964,1069.32 222.861,1069.32 "/>
<polyline clip-path="url(#clip320)" style="stroke:#000000; stroke-linecap:round; stroke-linejoin:round; stroke-width:4; stroke-opacity:1; fill:none" points="203.964,881.931 222.861,881.931 "/>
<polyline clip-path="url(#clip320)" style="stroke:#000000; stroke-linecap:round; stroke-linejoin:round; stroke-width:4; stroke-opacity:1; fill:none" points="203.964,694.542 222.861,694.542 "/>
<polyline clip-path="url(#clip320)" style="stroke:#000000; stroke-linecap:round; stroke-linejoin:round; stroke-width:4; stroke-opacity:1; fill:none" points="203.964,507.153 222.861,507.153 "/>
<polyline clip-path="url(#clip320)" style="stroke:#000000; stroke-linecap:round; stroke-linejoin:round; stroke-width:4; stroke-opacity:1; fill:none" points="203.964,319.764 222.861,319.764 "/>
<polyline clip-path="url(#clip320)" style="stroke:#000000; stroke-linecap:round; stroke-linejoin:round; stroke-width:4; stroke-opacity:1; fill:none" points="203.964,132.375 222.861,132.375 "/>
<path clip-path="url(#clip320)" d="M147.061 1239.43 L165.417 1239.43 L165.417 1243.36 L151.343 1243.36 L151.343 1251.84 Q152.362 1251.49 153.38 1251.33 Q154.399 1251.14 155.417 1251.14 Q161.204 1251.14 164.584 1254.31 Q167.964 1257.48 167.964 1262.9 Q167.964 1268.48 164.491 1271.58 Q161.019 1274.66 154.7 1274.66 Q152.524 1274.66 150.255 1274.29 Q148.01 1273.92 145.603 1273.18 L145.603 1268.48 Q147.686 1269.61 149.908 1270.17 Q152.13 1270.73 154.607 1270.73 Q158.612 1270.73 160.95 1268.62 Q163.288 1266.51 163.288 1262.9 Q163.288 1259.29 160.95 1257.18 Q158.612 1255.08 154.607 1255.08 Q152.732 1255.08 150.857 1255.49 Q149.005 1255.91 147.061 1256.79 L147.061 1239.43 Z" fill="#000000" fill-rule="nonzero" fill-opacity="1" /><path clip-path="url(#clip320)" d="M116.668 1082.66 L124.306 1082.66 L124.306 1056.3 L115.996 1057.97 L115.996 1053.71 L124.26 1052.04 L128.936 1052.04 L128.936 1082.66 L136.575 1082.66 L136.575 1086.6 L116.668 1086.6 L116.668 1082.66 Z" fill="#000000" fill-rule="nonzero" fill-opacity="1" /><path clip-path="url(#clip320)" d="M156.019 1055.12 Q152.408 1055.12 150.579 1058.68 Q148.774 1062.23 148.774 1069.35 Q148.774 1076.46 150.579 1080.03 Q152.408 1083.57 156.019 1083.57 Q159.653 1083.57 161.459 1080.03 Q163.288 1076.46 163.288 1069.35 Q163.288 1062.23 161.459 1058.68 Q159.653 1055.12 156.019 1055.12 M156.019 1051.42 Q161.829 1051.42 164.885 1056.02 Q167.964 1060.6 167.964 1069.35 Q167.964 1078.08 164.885 1082.69 Q161.829 1087.27 156.019 1087.27 Q150.209 1087.27 147.13 1082.69 Q144.075 1078.08 144.075 1069.35 Q144.075 1060.6 147.13 1056.02 Q150.209 1051.42 156.019 1051.42 Z" fill="#000000" fill-rule="nonzero" fill-opacity="1" /><path clip-path="url(#clip320)" d="M117.663 895.276 L125.302 895.276 L125.302 868.91 L116.992 870.577 L116.992 866.318 L125.255 864.651 L129.931 864.651 L129.931 895.276 L137.57 895.276 L137.57 899.211 L117.663 899.211 L117.663 895.276 Z" fill="#000000" fill-rule="nonzero" fill-opacity="1" /><path clip-path="url(#clip320)" d="M147.061 864.651 L165.417 864.651 L165.417 868.586 L151.343 868.586 L151.343 877.058 Q152.362 876.711 153.38 876.549 Q154.399 876.364 155.417 876.364 Q161.204 876.364 164.584 879.535 Q167.964 882.707 167.964 888.123 Q167.964 893.702 164.491 896.804 Q161.019 899.882 154.7 899.882 Q152.524 899.882 150.255 899.512 Q148.01 899.142 145.603 898.401 L145.603 893.702 Q147.686 894.836 149.908 895.392 Q152.13 895.947 154.607 895.947 Q158.612 895.947 160.95 893.841 Q163.288 891.734 163.288 888.123 Q163.288 884.512 160.95 882.406 Q158.612 880.299 154.607 880.299 Q152.732 880.299 150.857 880.716 Q149.005 881.133 147.061 882.012 L147.061 864.651 Z" fill="#000000" fill-rule="nonzero" fill-opacity="1" /><path clip-path="url(#clip320)" d="M119.885 707.887 L136.204 707.887 L136.204 711.822 L114.26 711.822 L114.26 707.887 Q116.922 705.132 121.505 700.503 Q126.112 695.85 127.292 694.507 Q129.538 691.984 130.417 690.248 Q131.32 688.489 131.32 686.799 Q131.32 684.044 129.376 682.308 Q127.455 680.572 124.353 680.572 Q122.154 680.572 119.7 681.336 Q117.269 682.1 114.492 683.651 L114.492 678.929 Q117.316 677.795 119.769 677.216 Q122.223 676.637 124.26 676.637 Q129.63 676.637 132.825 679.322 Q136.019 682.007 136.019 686.498 Q136.019 688.628 135.209 690.549 Q134.422 692.447 132.316 695.04 Q131.737 695.711 128.635 698.929 Q125.533 702.123 119.885 707.887 Z" fill="#000000" fill-rule="nonzero" fill-opacity="1" /><path clip-path="url(#clip320)" d="M156.019 680.341 Q152.408 680.341 150.579 683.906 Q148.774 687.447 148.774 694.577 Q148.774 701.683 150.579 705.248 Q152.408 708.79 156.019 708.79 Q159.653 708.79 161.459 705.248 Q163.288 701.683 163.288 694.577 Q163.288 687.447 161.459 683.906 Q159.653 680.341 156.019 680.341 M156.019 676.637 Q161.829 676.637 164.885 681.244 Q167.964 685.827 167.964 694.577 Q167.964 703.304 164.885 707.91 Q161.829 712.493 156.019 712.493 Q150.209 712.493 147.13 707.91 Q144.075 703.304 144.075 694.577 Q144.075 685.827 147.13 681.244 Q150.209 676.637 156.019 676.637 Z" fill="#000000" fill-rule="nonzero" fill-opacity="1" /><path clip-path="url(#clip320)" d="M120.88 520.498 L137.2 520.498 L137.2 524.433 L115.256 524.433 L115.256 520.498 Q117.918 517.743 122.501 513.114 Q127.107 508.461 128.288 507.118 Q130.533 504.595 131.413 502.859 Q132.316 501.1 132.316 499.41 Q132.316 496.655 130.371 494.919 Q128.45 493.183 125.348 493.183 Q123.149 493.183 120.695 493.947 Q118.265 494.711 115.487 496.262 L115.487 491.54 Q118.311 490.405 120.765 489.827 Q123.218 489.248 125.255 489.248 Q130.626 489.248 133.82 491.933 Q137.015 494.618 137.015 499.109 Q137.015 501.239 136.204 503.16 Q135.417 505.058 133.311 507.651 Q132.732 508.322 129.63 511.54 Q126.529 514.734 120.88 520.498 Z" fill="#000000" fill-rule="nonzero" fill-opacity="1" /><path clip-path="url(#clip320)" d="M147.061 489.873 L165.417 489.873 L165.417 493.808 L151.343 493.808 L151.343 502.28 Q152.362 501.933 153.38 501.771 Q154.399 501.586 155.417 501.586 Q161.204 501.586 164.584 504.757 Q167.964 507.929 167.964 513.345 Q167.964 518.924 164.491 522.026 Q161.019 525.104 154.7 525.104 Q152.524 525.104 150.255 524.734 Q148.01 524.364 145.603 523.623 L145.603 518.924 Q147.686 520.058 149.908 520.614 Q152.13 521.169 154.607 521.169 Q158.612 521.169 160.95 519.063 Q163.288 516.956 163.288 513.345 Q163.288 509.734 160.95 507.628 Q158.612 505.521 154.607 505.521 Q152.732 505.521 150.857 505.938 Q149.005 506.354 147.061 507.234 L147.061 489.873 Z" fill="#000000" fill-rule="nonzero" fill-opacity="1" /><path clip-path="url(#clip320)" d="M130.024 318.41 Q133.38 319.127 135.255 321.396 Q137.154 323.664 137.154 326.998 Q137.154 332.114 133.635 334.914 Q130.117 337.715 123.635 337.715 Q121.459 337.715 119.144 337.276 Q116.853 336.859 114.399 336.002 L114.399 331.489 Q116.343 332.623 118.658 333.201 Q120.973 333.78 123.496 333.78 Q127.894 333.78 130.186 332.044 Q132.501 330.308 132.501 326.998 Q132.501 323.942 130.348 322.229 Q128.218 320.493 124.399 320.493 L120.371 320.493 L120.371 316.651 L124.584 316.651 Q128.033 316.651 129.862 315.285 Q131.691 313.896 131.691 311.303 Q131.691 308.641 129.792 307.229 Q127.917 305.794 124.399 305.794 Q122.478 305.794 120.279 306.211 Q118.08 306.628 115.441 307.507 L115.441 303.341 Q118.103 302.6 120.418 302.229 Q122.755 301.859 124.816 301.859 Q130.14 301.859 133.242 304.29 Q136.343 306.697 136.343 310.817 Q136.343 313.688 134.7 315.678 Q133.056 317.646 130.024 318.41 Z" fill="#000000" fill-rule="nonzero" fill-opacity="1" /><path clip-path="url(#clip320)" d="M156.019 305.563 Q152.408 305.563 150.579 309.128 Q148.774 312.669 148.774 319.799 Q148.774 326.905 150.579 330.47 Q152.408 334.012 156.019 334.012 Q159.653 334.012 161.459 330.47 Q163.288 326.905 163.288 319.799 Q163.288 312.669 161.459 309.128 Q159.653 305.563 156.019 305.563 M156.019 301.859 Q161.829 301.859 164.885 306.465 Q167.964 311.049 167.964 319.799 Q167.964 328.526 164.885 333.132 Q161.829 337.715 156.019 337.715 Q150.209 337.715 147.13 333.132 Q144.075 328.526 144.075 319.799 Q144.075 311.049 147.13 306.465 Q150.209 301.859 156.019 301.859 Z" fill="#000000" fill-rule="nonzero" fill-opacity="1" /><path clip-path="url(#clip320)" d="M131.019 131.021 Q134.376 131.738 136.251 134.007 Q138.149 136.275 138.149 139.609 Q138.149 144.724 134.63 147.525 Q131.112 150.326 124.63 150.326 Q122.455 150.326 120.14 149.886 Q117.848 149.47 115.394 148.613 L115.394 144.099 Q117.339 145.234 119.654 145.812 Q121.968 146.391 124.492 146.391 Q128.89 146.391 131.181 144.655 Q133.496 142.919 133.496 139.609 Q133.496 136.553 131.343 134.84 Q129.214 133.104 125.394 133.104 L121.367 133.104 L121.367 129.262 L125.58 129.262 Q129.029 129.262 130.857 127.896 Q132.686 126.507 132.686 123.914 Q132.686 121.252 130.788 119.84 Q128.913 118.405 125.394 118.405 Q123.473 118.405 121.274 118.822 Q119.075 119.238 116.436 120.118 L116.436 115.951 Q119.098 115.211 121.413 114.84 Q123.751 114.47 125.811 114.47 Q131.135 114.47 134.237 116.901 Q137.339 119.308 137.339 123.428 Q137.339 126.299 135.695 128.289 Q134.052 130.257 131.019 131.021 Z" fill="#000000" fill-rule="nonzero" fill-opacity="1" /><path clip-path="url(#clip320)" d="M147.061 115.095 L165.417 115.095 L165.417 119.03 L151.343 119.03 L151.343 127.502 Q152.362 127.155 153.38 126.993 Q154.399 126.808 155.417 126.808 Q161.204 126.808 164.584 129.979 Q167.964 133.15 167.964 138.567 Q167.964 144.146 164.491 147.248 Q161.019 150.326 154.7 150.326 Q152.524 150.326 150.255 149.956 Q148.01 149.586 145.603 148.845 L145.603 144.146 Q147.686 145.28 149.908 145.836 Q152.13 146.391 154.607 146.391 Q158.612 146.391 160.95 144.285 Q163.288 142.178 163.288 138.567 Q163.288 134.956 160.95 132.85 Q158.612 130.743 154.607 130.743 Q152.732 130.743 150.857 131.16 Q149.005 131.576 147.061 132.456 L147.061 115.095 Z" fill="#000000" fill-rule="nonzero" fill-opacity="1" /><path clip-path="url(#clip320)" d="M57.5111 748.198 Q59.0389 747.052 59.0389 743.615 L59.0389 740.782 L64.0042 740.782 L64.0042 744.315 Q64.0042 750.044 60.9486 752.654 Q57.8294 755.264 51.0818 755.264 L34.2127 755.264 L34.2127 768.632 L28.3562 768.632 L28.3562 735.753 L34.2127 735.753 L34.2127 749.28 L51.4319 749.28 Q56.047 749.28 57.5111 748.198 Z" fill="#000000" fill-rule="nonzero" fill-opacity="1" /><path clip-path="url(#clip320)" d="M29.4065 703.702 L34.9447 703.702 Q33.6716 706.184 33.035 708.858 Q32.3984 711.532 32.3984 714.396 Q32.3984 718.757 33.7352 720.953 Q35.072 723.117 37.7456 723.117 Q39.7826 723.117 40.9603 721.558 Q42.1061 719.998 43.1565 715.287 L43.6021 713.282 Q44.9389 707.044 47.3897 704.434 Q49.8086 701.792 54.1691 701.792 Q59.1344 701.792 62.0308 705.739 Q64.9272 709.654 64.9272 716.529 Q64.9272 719.393 64.3543 722.512 Q63.8132 725.6 62.6992 729.037 L56.6518 729.037 Q58.3387 725.791 59.198 722.64 Q60.0256 719.489 60.0256 716.401 Q60.0256 712.264 58.6251 710.036 Q57.1929 707.808 54.6147 707.808 Q52.2276 707.808 50.9545 709.431 Q49.6813 711.022 48.5037 716.465 L48.0262 718.502 Q46.8804 723.945 44.5251 726.364 Q42.138 728.783 38.0002 728.783 Q32.9713 728.783 30.2341 725.218 Q27.4968 721.653 27.4968 715.096 Q27.4968 711.85 27.9743 708.985 Q28.4517 706.121 29.4065 703.702 Z" fill="#000000" fill-rule="nonzero" fill-opacity="1" /><circle clip-path="url(#clip321)" cx="264.783" cy="1353.44" r="10.8" fill="#ff00ff" fill-rule="evenodd" fill-opacity="1" stroke="none"/>
<circle clip-path="url(#clip321)" cx="264.783" cy="1353.43" r="10.8" fill="#008000" fill-rule="evenodd" fill-opacity="1" stroke="none"/>
<circle clip-path="url(#clip321)" cx="1806.16" cy="938.417" r="10.8" fill="#a52a2a" fill-rule="evenodd" fill-opacity="1" stroke="none"/>
<polyline clip-path="url(#clip321)" style="stroke:#c271d2; stroke-linecap:round; stroke-linejoin:round; stroke-width:4; stroke-opacity:1; fill:none" points="744.502,1384.24 718.111,1383.81 680.664,1383.15 628.321,1382.13 576.427,1380.98 525.186,1379.64 474.929,1378.07 426.217,1376.18 380.051,1373.87 338.232,1370.97 303.718,1367.33 279.9,1362.96 267.761,1358.1 264.783,1353.44 264.783,1353.43 267.373,1348.32 273.689,1343.1 282.158,1337.82 291.784,1332.47 301.926,1327.05 312.172,1321.56 322.258,1316.02 332.016,1310.41 341.348,1304.76 350.199,1299.06 358.546,1293.32 366.386,1287.54 373.728,1281.74 380.593,1275.91 387.003,1270.06 392.986,1264.19 398.569,1258.3 403.779,1252.4 408.643,1246.49 413.187,1240.57 417.434,1234.63 421.408,1228.69 425.128,1222.75 428.615,1216.8 431.886,1210.84 434.957,1204.88 437.843,1198.92 440.559,1192.95 443.117,1186.98 445.527,1181 447.802,1175.03 449.95,1169.05 451.981,1163.07 453.903,1157.09 455.723,1151.11 457.448,1145.12 459.085,1139.14 460.638,1133.15 462.115,1127.16 463.519,1121.18 463.671,1120.51 465,1114.52 466.266,1108.53 467.473,1102.54 468.624,1096.55 469.723,1090.56 470.773,1084.57 471.776,1078.58 472.736,1072.59 473.655,1066.6 474.534,1060.6 475.377,1054.61 476.185,1048.62 476.961,1042.63 477.705,1036.63 478.419,1030.64 479.106,1024.64 479.766,1018.65 480.401,1012.66 481.012,1006.66 481.601,1000.67 482.167,994.674 482.713,988.679 483.24,982.684 483.748,976.69 484.238,970.695 484.711,964.7 485.167,958.705 485.609,952.709 486.035,946.714 486.447,940.719 486.846,934.723 487.232,928.728 487.606,922.733 487.967,916.737 488.317,910.742 488.657,904.746 488.985,898.75 489.304,892.755 489.614,886.759 489.913,880.763 490.205,874.767 490.487,868.772 490.761,862.776 490.795,862.039 491.06,856.043 491.318,850.047 491.569,844.051 491.812,838.055 492.049,832.059 492.28,826.063 492.504,820.067 492.722,814.071 492.934,808.075 493.141,802.079 493.342,796.083 493.538,790.087 493.729,784.091 493.915,778.095 494.097,772.099 494.274,766.102 494.446,760.106 494.614,754.11 494.778,748.114 494.938,742.118 495.095,736.122 495.247,730.125 495.396,724.129 495.541,718.133 495.683,712.137 495.822,706.141 495.957,700.144 496.089,694.148 496.219,688.152 496.345,682.156 496.469,676.159 496.59,670.163 496.708,664.167 496.824,658.17 496.937,652.174 497.047,646.178 497.156,640.182 497.262,634.185 497.365,628.189 497.467,622.193 497.567,616.196 497.664,610.2 497.759,604.204 497.778,603.044 497.871,597.048 497.962,591.052 498.051,585.055 498.139,579.059 498.225,573.063 498.309,567.066 498.392,561.07 498.473,555.074 498.552,549.077 498.63,543.081 498.706,537.085 498.781,531.088 498.855,525.092 498.927,519.095 498.998,513.099 499.067,507.103 499.136,501.106 499.203,495.11 499.268,489.114 499.333,483.117 499.396,477.121 499.459,471.124 499.52,465.128 499.58,459.132 499.639,453.135 499.697,447.139 499.754,441.142 499.81,435.146 499.865,429.15 499.919,423.153 499.973,417.157 500.025,411.161 500.076,405.164 500.127,399.168 500.177,393.171 500.226,387.175 500.274,381.179 500.321,375.182 500.368,369.186 500.414,363.189 500.459,357.193 500.503,351.196 500.547,345.2 500.556,344.032 500.598,338.035 500.641,332.039 500.682,326.043 500.723,320.046 500.763,314.05 500.803,308.053 500.842,302.057 500.881,296.061 500.918,290.064 500.956,284.068 500.993,278.071 501.029,272.075 501.064,266.078 501.1,260.082 501.134,254.086 501.168,248.089 501.202,242.093 501.235,236.096 501.268,230.1 501.3,224.104 501.332,218.107 501.363,212.111 501.394,206.114 501.424,200.118 501.454,194.121 501.484,188.125 501.513,182.129 501.542,176.132 501.57,170.136 501.598,164.139 501.626,158.143 501.653,152.146 501.68,146.15 501.706,140.154 501.732,134.157 501.758,128.161 501.784,122.164 501.809,116.168 501.834,110.171 501.858,104.175 501.882,98.1785 501.906,92.1821 501.93,86.1857 "/>
<circle clip-path="url(#clip321)" cx="264.783" cy="1353.44" r="10.8" fill="#ff00ff" fill-rule="evenodd" fill-opacity="1" stroke="none"/>
<circle clip-path="url(#clip321)" cx="264.783" cy="1353.43" r="10.8" fill="#008000" fill-rule="evenodd" fill-opacity="1" stroke="none"/>
<circle clip-path="url(#clip321)" cx="463.671" cy="1120.51" r="10.8" fill="#008000" fill-rule="evenodd" fill-opacity="1" stroke="none"/>
<circle clip-path="url(#clip321)" cx="490.795" cy="862.039" r="10.8" fill="#008000" fill-rule="evenodd" fill-opacity="1" stroke="none"/>
<circle clip-path="url(#clip321)" cx="497.778" cy="603.044" r="10.8" fill="#008000" fill-rule="evenodd" fill-opacity="1" stroke="none"/>
<circle clip-path="url(#clip321)" cx="500.556" cy="344.032" r="10.8" fill="#008000" fill-rule="evenodd" fill-opacity="1" stroke="none"/>
<polyline clip-path="url(#clip321)" style="stroke:#00a9ad; stroke-linecap:round; stroke-linejoin:round; stroke-width:4; stroke-opacity:1; fill:none" points="2291.94,402.778 2287.89,417.762 2283.65,432.745 2279.2,447.728 2274.54,462.709 2269.66,477.69 2264.53,492.669 2259.13,507.648 2253.46,522.625 2247.49,537.6 2241.21,552.574 2234.58,567.546 2227.58,582.516 2220.19,597.484 2212.37,612.448 2204.1,627.41 2195.33,642.368 2186.03,657.322 2176.15,672.272 2165.65,687.216 2154.46,702.153 2142.54,717.084 2129.81,732.006 2116.21,746.919 2101.65,761.82 2086.05,776.708 2069.29,791.581 2051.28,806.435 2031.89,821.268 2010.97,836.075 1988.37,850.851 1963.91,865.591 1937.41,880.287 1908.63,894.93 1877.35,909.509 1843.29,924.012 1806.16,938.417 1806.04,938.461 1765.49,952.757 1721.19,966.916 1672.76,980.908 1619.83,994.698 1561.98,1008.24 1498.85,1021.5 1430.07,1034.4 1355.33,1046.89 1274.4,1058.89 1187.11,1070.33 1093.39,1081.13 993.283,1091.17 911.969,1098.3 851.051,1103.07 805.934,1106.3 772.781,1108.5 749.17,1109.98 756.217,1109.55 744.502,1110.27 749.467,1109.97 732.721,1110.97 708.652,1112.35 673.919,1114.19 624.783,1116.47 554.711,1118.99 462.862,1120.51 338.085,1115.79 272.463,1097.54 264.778,1082.55 264.853,1079.68 268.952,1065.12 280.162,1044.95 289.885,1030.22 299.96,1015.46 309.957,1000.66 319.646,985.829 328.91,970.977 337.692,956.105 345.975,941.217 353.761,926.315 361.065,911.4 367.911,896.475 374.324,881.542 380.332,866.602 381.37,863.916 386.934,848.969 392.151,834.016 397.045,819.058 401.639,804.097 405.957,789.132 410.017,774.164 413.84,759.194 417.441,744.221 420.837,729.247 424.043,714.271 427.072,699.293 429.936,684.314 432.647,669.334 435.215,654.353 437.649,639.371 439.96,624.388 442.154,609.404 442.4,607.677 444.473,592.693 446.446,577.708 448.324,562.723 450.113,547.737 451.819,532.75 453.446,517.764 455,502.777 456.485,487.789 457.905,472.802 459.263,457.814 460.562,442.825 461.807,427.837 "/>
<circle clip-path="url(#clip321)" cx="1806.16" cy="938.417" r="10.8" fill="#a52a2a" fill-rule="evenodd" fill-opacity="1" stroke="none"/>
<circle clip-path="url(#clip321)" cx="749.17" cy="1109.98" r="10.8" fill="#a52a2a" fill-rule="evenodd" fill-opacity="1" stroke="none"/>
<circle clip-path="url(#clip321)" cx="749.467" cy="1109.97" r="10.8" fill="#a52a2a" fill-rule="evenodd" fill-opacity="1" stroke="none"/>
<circle clip-path="url(#clip321)" cx="462.862" cy="1120.51" r="10.8" fill="#008000" fill-rule="evenodd" fill-opacity="1" stroke="none"/>
<circle clip-path="url(#clip321)" cx="264.853" cy="1079.68" r="10.8" fill="#a52a2a" fill-rule="evenodd" fill-opacity="1" stroke="none"/>
<circle clip-path="url(#clip321)" cx="268.952" cy="1065.12" r="10.8" fill="#a52a2a" fill-rule="evenodd" fill-opacity="1" stroke="none"/>
<circle clip-path="url(#clip321)" cx="280.162" cy="1044.95" r="10.8" fill="#a52a2a" fill-rule="evenodd" fill-opacity="1" stroke="none"/>
<circle clip-path="url(#clip321)" cx="381.37" cy="863.916" r="10.8" fill="#008000" fill-rule="evenodd" fill-opacity="1" stroke="none"/>
<circle clip-path="url(#clip321)" cx="442.4" cy="607.677" r="10.8" fill="#008000" fill-rule="evenodd" fill-opacity="1" stroke="none"/>
<path clip-path="url(#clip320)" d="M1144.17 300.469 L1412.55 300.469 L1412.55 93.1086 L1144.17 93.1086  Z" fill="#ffffff" fill-rule="evenodd" fill-opacity="1"/>
<polyline clip-path="url(#clip320)" style="stroke:#000000; stroke-linecap:round; stroke-linejoin:round; stroke-width:4; stroke-opacity:1; fill:none" points="1144.17,300.469 1412.55,300.469 1412.55,93.1086 1144.17,93.1086 1144.17,300.469 "/>
<circle clip-path="url(#clip320)" cx="1239.67" cy="144.949" r="23.04" fill="#ff00ff" fill-rule="evenodd" fill-opacity="1" stroke="none"/>
<path clip-path="url(#clip320)" d="M1356.89 146.581 L1356.89 162.229 L1352.63 162.229 L1352.63 146.719 Q1352.63 143.039 1351.19 141.21 Q1349.76 139.382 1346.89 139.382 Q1343.44 139.382 1341.45 141.581 Q1339.46 143.78 1339.46 147.576 L1339.46 162.229 L1335.18 162.229 L1335.18 136.303 L1339.46 136.303 L1339.46 140.331 Q1340.99 137.993 1343.05 136.835 Q1345.13 135.678 1347.84 135.678 Q1352.31 135.678 1354.6 138.456 Q1356.89 141.21 1356.89 146.581 Z" fill="#000000" fill-rule="nonzero" fill-opacity="1" /><path clip-path="url(#clip320)" d="M1382.44 140.238 L1382.44 126.21 L1386.7 126.21 L1386.7 162.229 L1382.44 162.229 L1382.44 158.34 Q1381.1 160.655 1379.04 161.789 Q1377 162.9 1374.13 162.9 Q1369.44 162.9 1366.47 159.15 Q1363.53 155.4 1363.53 149.289 Q1363.53 143.178 1366.47 139.428 Q1369.44 135.678 1374.13 135.678 Q1377 135.678 1379.04 136.812 Q1381.1 137.923 1382.44 140.238 M1367.93 149.289 Q1367.93 153.988 1369.85 156.673 Q1371.8 159.335 1375.18 159.335 Q1378.56 159.335 1380.5 156.673 Q1382.44 153.988 1382.44 149.289 Q1382.44 144.59 1380.5 141.928 Q1378.56 139.243 1375.18 139.243 Q1371.8 139.243 1369.85 141.928 Q1367.93 144.59 1367.93 149.289 Z" fill="#000000" fill-rule="nonzero" fill-opacity="1" /><circle clip-path="url(#clip320)" cx="1239.67" cy="196.789" r="23.04" fill="#008000" fill-rule="evenodd" fill-opacity="1" stroke="none"/>
<path clip-path="url(#clip320)" d="M1356.89 198.421 L1356.89 214.069 L1352.63 214.069 L1352.63 198.559 Q1352.63 194.879 1351.19 193.05 Q1349.76 191.222 1346.89 191.222 Q1343.44 191.222 1341.45 193.421 Q1339.46 195.62 1339.46 199.416 L1339.46 214.069 L1335.18 214.069 L1335.18 178.05 L1339.46 178.05 L1339.46 192.171 Q1340.99 189.833 1343.05 188.675 Q1345.13 187.518 1347.84 187.518 Q1352.31 187.518 1354.6 190.296 Q1356.89 193.05 1356.89 198.421 Z" fill="#000000" fill-rule="nonzero" fill-opacity="1" /><path clip-path="url(#clip320)" d="M1386.94 198.421 L1386.94 214.069 L1382.68 214.069 L1382.68 198.559 Q1382.68 194.879 1381.24 193.05 Q1379.81 191.222 1376.94 191.222 Q1373.49 191.222 1371.5 193.421 Q1369.5 195.62 1369.5 199.416 L1369.5 214.069 L1365.22 214.069 L1365.22 178.05 L1369.5 178.05 L1369.5 192.171 Q1371.03 189.833 1373.09 188.675 Q1375.18 187.518 1377.88 187.518 Q1382.35 187.518 1384.64 190.296 Q1386.94 193.05 1386.94 198.421 Z" fill="#000000" fill-rule="nonzero" fill-opacity="1" /><circle clip-path="url(#clip320)" cx="1239.67" cy="248.629" r="23.04" fill="#a52a2a" fill-rule="evenodd" fill-opacity="1" stroke="none"/>
<path clip-path="url(#clip320)" d="M1354.09 252.645 Q1354.09 248.015 1352.17 245.469 Q1350.27 242.923 1346.82 242.923 Q1343.39 242.923 1341.47 245.469 Q1339.57 248.015 1339.57 252.645 Q1339.57 257.251 1341.47 259.798 Q1343.39 262.344 1346.82 262.344 Q1350.27 262.344 1352.17 259.798 Q1354.09 257.251 1354.09 252.645 M1358.35 262.691 Q1358.35 269.311 1355.41 272.529 Q1352.47 275.77 1346.4 275.77 Q1344.16 275.77 1342.17 275.422 Q1340.18 275.098 1338.3 274.404 L1338.3 270.26 Q1340.18 271.279 1342.01 271.765 Q1343.83 272.251 1345.73 272.251 Q1349.92 272.251 1352 270.052 Q1354.09 267.876 1354.09 263.455 L1354.09 261.348 Q1352.77 263.64 1350.71 264.774 Q1348.65 265.909 1345.78 265.909 Q1341.01 265.909 1338.09 262.274 Q1335.18 258.64 1335.18 252.645 Q1335.18 246.626 1338.09 242.992 Q1341.01 239.358 1345.78 239.358 Q1348.65 239.358 1350.71 240.492 Q1352.77 241.626 1354.09 243.918 L1354.09 239.983 L1358.35 239.983 L1358.35 262.691 Z" fill="#000000" fill-rule="nonzero" fill-opacity="1" /><path clip-path="url(#clip320)" d="M1388.67 250.261 L1388.67 265.909 L1384.41 265.909 L1384.41 250.399 Q1384.41 246.719 1382.98 244.89 Q1381.54 243.062 1378.67 243.062 Q1375.22 243.062 1373.23 245.261 Q1371.24 247.46 1371.24 251.256 L1371.24 265.909 L1366.96 265.909 L1366.96 229.89 L1371.24 229.89 L1371.24 244.011 Q1372.77 241.673 1374.83 240.515 Q1376.91 239.358 1379.62 239.358 Q1384.09 239.358 1386.38 242.136 Q1388.67 244.89 1388.67 250.261 Z" fill="#000000" fill-rule="nonzero" fill-opacity="1" /></svg>
