<?xml version="1.0" encoding="utf-8"?>
<svg xmlns="http://www.w3.org/2000/svg" xmlns:xlink="http://www.w3.org/1999/xlink" width="600" height="400" viewBox="0 0 2400 1600">
<defs>
  <clipPath id="clip600">
    <rect x="0" y="0" width="2400" height="1600"/>
  </clipPath>
</defs>
<path clip-path="url(#clip600)" d="M0 1600 L2400 1600 L2400 0 L0 0  Z" fill="#ffffff" fill-rule="evenodd" fill-opacity="1"/>
<defs>
  <clipPath id="clip601">
    <rect x="219" y="47" width="2134" height="1377"/>
  </clipPath>
</defs>
<path clip-path="url(#clip600)" d="M219.866 1423.18 L2352.76 1423.18 L2352.76 47.2441 L219.866 47.2441  Z" fill="#ffffff" fill-rule="evenodd" fill-opacity="1"/>
<polyline clip-path="url(#clip601)" style="stroke:#000000; stroke-linecap:round; stroke-linejoin:round; stroke-width:2; stroke-opacity:0.1; fill:none" points="280.231,1423.18 280.231,47.2441 "/>
<polyline clip-path="url(#clip601)" style="stroke:#000000; stroke-linecap:round; stroke-linejoin:round; stroke-width:2; stroke-opacity:0.1; fill:none" points="682.663,1423.18 682.663,47.2441 "/>
<polyline clip-path="url(#clip601)" style="stroke:#000000; stroke-linecap:round; stroke-linejoin:round; stroke-width:2; stroke-opacity:0.1; fill:none" points="1085.1,1423.18 1085.1,47.2441 "/>
<polyline clip-path="url(#clip601)" style="stroke:#000000; stroke-linecap:round; stroke-linejoin:round; stroke-width:2; stroke-opacity:0.1; fill:none" points="1487.53,1423.18 1487.53,47.2441 "/>
<polyline clip-path="url(#clip601)" style="stroke:#000000; stroke-linecap:round; stroke-linejoin:round; stroke-width:2; stroke-opacity:0.1; fill:none" points="1889.96,1423.18 1889.96,47.2441 "/>
<polyline clip-path="url(#clip601)" style="stroke:#000000; stroke-linecap:round; stroke-linejoin:round; stroke-width:2; stroke-opacity:0.1; fill:none" points="2292.39,1423.18 2292.39,47.2441 "/>
<polyline clip-path="url(#clip601)" style="stroke:#000000; stroke-linecap:round; stroke-linejoin:round; stroke-width:2; stroke-opacity:0.1; fill:none" points="219.866,1384.24 2352.76,1384.24 "/>
<polyline clip-path="url(#clip601)" style="stroke:#000000; stroke-linecap:round; stroke-linejoin:round; stroke-width:2; stroke-opacity:0.1; fill:none" points="219.866,1163.43 2352.76,1163.43 "/>
<polyline clip-path="url(#clip601)" style="stroke:#000000; stroke-linecap:round; stroke-linejoin:round; stroke-width:2; stroke-opacity:0.1; fill:none" points="219.866,942.618 2352.76,942.618 "/>
<polyline clip-path="url(#clip601)" style="stroke:#000000; stroke-linecap:round; stroke-linejoin:round; stroke-width:2; stroke-opacity:0.1; fill:none" points="219.866,721.808 2352.76,721.808 "/>
<polyline clip-path="url(#clip601)" style="stroke:#000000; stroke-linecap:round; stroke-linejoin:round; stroke-width:2; stroke-opacity:0.1; fill:none" points="219.866,500.998 2352.76,500.998 "/>
<polyline clip-path="url(#clip601)" style="stroke:#000000; stroke-linecap:round; stroke-linejoin:round; stroke-width:2; stroke-opacity:0.1; fill:none" points="219.866,280.188 2352.76,280.188 "/>
<polyline clip-path="url(#clip601)" style="stroke:#000000; stroke-linecap:round; stroke-linejoin:round; stroke-width:2; stroke-opacity:0.1; fill:none" points="219.866,59.3776 2352.76,59.3776 "/>
<polyline clip-path="url(#clip600)" style="stroke:#000000; stroke-linecap:round; stroke-linejoin:round; stroke-width:4; stroke-opacity:1; fill:none" points="219.866,1423.18 2352.76,1423.18 "/>
<polyline clip-path="url(#clip600)" style="stroke:#000000; stroke-linecap:round; stroke-linejoin:round; stroke-width:4; stroke-opacity:1; fill:none" points="280.231,1423.18 280.231,1404.28 "/>
<polyline clip-path="url(#clip600)" style="stroke:#000000; stroke-linecap:round; stroke-linejoin:round; stroke-width:4; stroke-opacity:1; fill:none" points="682.663,1423.18 682.663,1404.28 "/>
<polyline clip-path="url(#clip600)" style="stroke:#000000; stroke-linecap:round; stroke-linejoin:round; stroke-width:4; stroke-opacity:1; fill:none" points="1085.1,1423.18 1085.1,1404.28 "/>
<polyline clip-path="url(#clip600)" style="stroke:#000000; stroke-linecap:round; stroke-linejoin:round; stroke-width:4; stroke-opacity:1; fill:none" points="1487.53,1423.18 1487.53,1404.28 "/>
<polyline clip-path="url(#clip600)" style="stroke:#000000; stroke-linecap:round; stroke-linejoin:round; stroke-width:4; stroke-opacity:1; fill:none" points="1889.96,1423.18 1889.96,1404.28 "/>
<polyline clip-path="url(#clip600)" style="stroke:#000000; stroke-linecap:round; stroke-linejoin:round; stroke-width:4; stroke-opacity:1; fill:none" points="2292.39,1423.18 2292.39,1404.28 "/>
<path clip-path="url(#clip600)" d="M258.113 1454.1 Q254.502 1454.1 252.673 1457.66 Q250.868 1461.2 250.868 1468.33 Q250.868 1475.44 252.673 1479.01 Q254.502 1482.55 258.113 1482.55 Q261.747 1482.55 263.553 1479.01 Q265.382 1475.44 265.382 1468.33 Q265.382 1461.2 263.553 1457.66 Q261.747 1454.1 258.113 1454.1 M258.113 1450.39 Q263.923 1450.39 266.979 1455 Q270.058 1459.58 270.058 1468.33 Q270.058 1477.06 266.979 1481.67 Q263.923 1486.25 258.113 1486.25 Q252.303 1486.25 249.224 1481.67 Q246.169 1477.06 246.169 1468.33 Q246.169 1459.58 249.224 1455 Q252.303 1450.39 258.113 1450.39 Z" fill="#000000" fill-rule="nonzero" fill-opacity="1" /><path clip-path="url(#clip600)" d="M278.275 1479.7 L283.159 1479.7 L283.159 1485.58 L278.275 1485.58 L278.275 1479.7 Z" fill="#000000" fill-rule="nonzero" fill-opacity="1" /><path clip-path="url(#clip600)" d="M293.391 1451.02 L311.747 1451.02 L311.747 1454.96 L297.673 1454.96 L297.673 1463.43 Q298.692 1463.08 299.71 1462.92 Q300.729 1462.73 301.747 1462.73 Q307.534 1462.73 310.914 1465.9 Q314.293 1469.08 314.293 1474.49 Q314.293 1480.07 310.821 1483.17 Q307.349 1486.25 301.03 1486.25 Q298.854 1486.25 296.585 1485.88 Q294.34 1485.51 291.932 1484.77 L291.932 1480.07 Q294.016 1481.2 296.238 1481.76 Q298.46 1482.32 300.937 1482.32 Q304.942 1482.32 307.28 1480.21 Q309.617 1478.1 309.617 1474.49 Q309.617 1470.88 307.28 1468.77 Q304.942 1466.67 300.937 1466.67 Q299.062 1466.67 297.187 1467.08 Q295.335 1467.5 293.391 1468.38 L293.391 1451.02 Z" fill="#000000" fill-rule="nonzero" fill-opacity="1" /><path clip-path="url(#clip600)" d="M649.816 1481.64 L657.455 1481.64 L657.455 1455.28 L649.145 1456.95 L649.145 1452.69 L657.409 1451.02 L662.084 1451.02 L662.084 1481.64 L669.723 1481.64 L669.723 1485.58 L649.816 1485.58 L649.816 1481.64 Z" fill="#000000" fill-rule="nonzero" fill-opacity="1" /><path clip-path="url(#clip600)" d="M679.168 1479.7 L684.052 1479.7 L684.052 1485.58 L679.168 1485.58 L679.168 1479.7 Z" fill="#000000" fill-rule="nonzero" fill-opacity="1" /><path clip-path="url(#clip600)" d="M704.237 1454.1 Q700.626 1454.1 698.797 1457.66 Q696.992 1461.2 696.992 1468.33 Q696.992 1475.44 698.797 1479.01 Q700.626 1482.55 704.237 1482.55 Q707.871 1482.55 709.677 1479.01 Q711.506 1475.44 711.506 1468.33 Q711.506 1461.2 709.677 1457.66 Q707.871 1454.1 704.237 1454.1 M704.237 1450.39 Q710.047 1450.39 713.103 1455 Q716.181 1459.58 716.181 1468.33 Q716.181 1477.06 713.103 1481.67 Q710.047 1486.25 704.237 1486.25 Q698.427 1486.25 695.348 1481.67 Q692.293 1477.06 692.293 1468.33 Q692.293 1459.58 695.348 1455 Q698.427 1450.39 704.237 1450.39 Z" fill="#000000" fill-rule="nonzero" fill-opacity="1" /><path clip-path="url(#clip600)" d="M1052.75 1481.64 L1060.38 1481.64 L1060.38 1455.28 L1052.07 1456.95 L1052.07 1452.69 L1060.34 1451.02 L1065.01 1451.02 L1065.01 1481.64 L1072.65 1481.64 L1072.65 1485.58 L1052.75 1485.58 L1052.75 1481.64 Z" fill="#000000" fill-rule="nonzero" fill-opacity="1" /><path clip-path="url(#clip600)" d="M1082.1 1479.7 L1086.98 1479.7 L1086.98 1485.58 L1082.1 1485.58 L1082.1 1479.7 Z" fill="#000000" fill-rule="nonzero" fill-opacity="1" /><path clip-path="url(#clip600)" d="M1097.21 1451.02 L1115.57 1451.02 L1115.57 1454.96 L1101.5 1454.96 L1101.5 1463.43 Q1102.51 1463.08 1103.53 1462.92 Q1104.55 1462.73 1105.57 1462.73 Q1111.36 1462.73 1114.74 1465.9 Q1118.12 1469.08 1118.12 1474.49 Q1118.12 1480.07 1114.64 1483.17 Q1111.17 1486.25 1104.85 1486.25 Q1102.68 1486.25 1100.41 1485.88 Q1098.16 1485.51 1095.75 1484.77 L1095.75 1480.07 Q1097.84 1481.2 1100.06 1481.76 Q1102.28 1482.32 1104.76 1482.32 Q1108.76 1482.32 1111.1 1480.21 Q1113.44 1478.1 1113.44 1474.49 Q1113.44 1470.88 1111.1 1468.77 Q1108.76 1466.67 1104.76 1466.67 Q1102.88 1466.67 1101.01 1467.08 Q1099.16 1467.5 1097.21 1468.38 L1097.21 1451.02 Z" fill="#000000" fill-rule="nonzero" fill-opacity="1" /><path clip-path="url(#clip600)" d="M1458.77 1481.64 L1475.09 1481.64 L1475.09 1485.58 L1453.14 1485.58 L1453.14 1481.64 Q1455.8 1478.89 1460.39 1474.26 Q1464.99 1469.61 1466.17 1468.27 Q1468.42 1465.74 1469.3 1464.01 Q1470.2 1462.25 1470.2 1460.56 Q1470.2 1457.8 1468.26 1456.07 Q1466.34 1454.33 1463.23 1454.33 Q1461.03 1454.33 1458.58 1455.09 Q1456.15 1455.86 1453.37 1457.41 L1453.37 1452.69 Q1456.2 1451.55 1458.65 1450.97 Q1461.1 1450.39 1463.14 1450.39 Q1468.51 1450.39 1471.71 1453.08 Q1474.9 1455.77 1474.9 1460.26 Q1474.9 1462.39 1474.09 1464.31 Q1473.3 1466.2 1471.2 1468.8 Q1470.62 1469.47 1467.52 1472.69 Q1464.41 1475.88 1458.77 1481.64 Z" fill="#000000" fill-rule="nonzero" fill-opacity="1" /><path clip-path="url(#clip600)" d="M1484.9 1479.7 L1489.78 1479.7 L1489.78 1485.58 L1484.9 1485.58 L1484.9 1479.7 Z" fill="#000000" fill-rule="nonzero" fill-opacity="1" /><path clip-path="url(#clip600)" d="M1509.97 1454.1 Q1506.36 1454.1 1504.53 1457.66 Q1502.72 1461.2 1502.72 1468.33 Q1502.72 1475.44 1504.53 1479.01 Q1506.36 1482.55 1509.97 1482.55 Q1513.6 1482.55 1515.41 1479.01 Q1517.24 1475.44 1517.24 1468.33 Q1517.24 1461.2 1515.41 1457.66 Q1513.6 1454.1 1509.97 1454.1 M1509.97 1450.39 Q1515.78 1450.39 1518.83 1455 Q1521.91 1459.58 1521.91 1468.33 Q1521.91 1477.06 1518.83 1481.67 Q1515.78 1486.25 1509.97 1486.25 Q1504.16 1486.25 1501.08 1481.67 Q1498.02 1477.06 1498.02 1468.33 Q1498.02 1459.58 1501.08 1455 Q1504.16 1450.39 1509.97 1450.39 Z" fill="#000000" fill-rule="nonzero" fill-opacity="1" /><path clip-path="url(#clip600)" d="M1861.7 1481.64 L1878.01 1481.64 L1878.01 1485.58 L1856.07 1485.58 L1856.07 1481.64 Q1858.73 1478.89 1863.32 1474.26 Q1867.92 1469.61 1869.1 1468.27 Q1871.35 1465.74 1872.23 1464.01 Q1873.13 1462.25 1873.13 1460.56 Q1873.13 1457.8 1871.19 1456.07 Q1869.26 1454.33 1866.16 1454.33 Q1863.96 1454.33 1861.51 1455.09 Q1859.08 1455.86 1856.3 1457.41 L1856.3 1452.69 Q1859.13 1451.55 1861.58 1450.97 Q1864.03 1450.39 1866.07 1450.39 Q1871.44 1450.39 1874.64 1453.08 Q1877.83 1455.77 1877.83 1460.26 Q1877.83 1462.39 1877.02 1464.31 Q1876.23 1466.2 1874.13 1468.8 Q1873.55 1469.47 1870.45 1472.69 Q1867.34 1475.88 1861.7 1481.64 Z" fill="#000000" fill-rule="nonzero" fill-opacity="1" /><path clip-path="url(#clip600)" d="M1887.83 1479.7 L1892.71 1479.7 L1892.71 1485.58 L1887.83 1485.58 L1887.83 1479.7 Z" fill="#000000" fill-rule="nonzero" fill-opacity="1" /><path clip-path="url(#clip600)" d="M1902.95 1451.02 L1921.3 1451.02 L1921.3 1454.96 L1907.23 1454.96 L1907.23 1463.43 Q1908.25 1463.08 1909.26 1462.92 Q1910.28 1462.73 1911.3 1462.73 Q1917.09 1462.73 1920.47 1465.9 Q1923.85 1469.08 1923.85 1474.49 Q1923.85 1480.07 1920.38 1483.17 Q1916.9 1486.25 1910.58 1486.25 Q1908.41 1486.25 1906.14 1485.88 Q1903.89 1485.51 1901.49 1484.77 L1901.49 1480.07 Q1903.57 1481.2 1905.79 1481.76 Q1908.01 1482.32 1910.49 1482.32 Q1914.5 1482.32 1916.83 1480.21 Q1919.17 1478.1 1919.17 1474.49 Q1919.17 1470.88 1916.83 1468.77 Q1914.5 1466.67 1910.49 1466.67 Q1908.62 1466.67 1906.74 1467.08 Q1904.89 1467.5 1902.95 1468.38 L1902.95 1451.02 Z" fill="#000000" fill-rule="nonzero" fill-opacity="1" /><path clip-path="url(#clip600)" d="M2273.7 1466.95 Q2277.06 1467.66 2278.93 1469.93 Q2280.83 1472.2 2280.83 1475.53 Q2280.83 1480.65 2277.31 1483.45 Q2273.79 1486.25 2267.31 1486.25 Q2265.13 1486.25 2262.82 1485.81 Q2260.53 1485.39 2258.07 1484.54 L2258.07 1480.02 Q2260.02 1481.16 2262.33 1481.74 Q2264.65 1482.32 2267.17 1482.32 Q2271.57 1482.32 2273.86 1480.58 Q2276.18 1478.84 2276.18 1475.53 Q2276.18 1472.48 2274.02 1470.77 Q2271.89 1469.03 2268.07 1469.03 L2264.05 1469.03 L2264.05 1465.19 L2268.26 1465.19 Q2271.71 1465.19 2273.54 1463.82 Q2275.37 1462.43 2275.37 1459.84 Q2275.37 1457.18 2273.47 1455.77 Q2271.59 1454.33 2268.07 1454.33 Q2266.15 1454.33 2263.95 1454.75 Q2261.75 1455.16 2259.12 1456.04 L2259.12 1451.88 Q2261.78 1451.14 2264.09 1450.77 Q2266.43 1450.39 2268.49 1450.39 Q2273.81 1450.39 2276.92 1452.83 Q2280.02 1455.23 2280.02 1459.35 Q2280.02 1462.22 2278.37 1464.21 Q2276.73 1466.18 2273.7 1466.95 Z" fill="#000000" fill-rule="nonzero" fill-opacity="1" /><path clip-path="url(#clip600)" d="M2289.69 1479.7 L2294.58 1479.7 L2294.58 1485.58 L2289.69 1485.58 L2289.69 1479.7 Z" fill="#000000" fill-rule="nonzero" fill-opacity="1" /><path clip-path="url(#clip600)" d="M2314.76 1454.1 Q2311.15 1454.1 2309.32 1457.66 Q2307.52 1461.2 2307.52 1468.33 Q2307.52 1475.44 2309.32 1479.01 Q2311.15 1482.55 2314.76 1482.55 Q2318.4 1482.55 2320.2 1479.01 Q2322.03 1475.44 2322.03 1468.33 Q2322.03 1461.2 2320.2 1457.66 Q2318.4 1454.1 2314.76 1454.1 M2314.76 1450.39 Q2320.57 1450.39 2323.63 1455 Q2326.71 1459.58 2326.71 1468.33 Q2326.71 1477.06 2323.63 1481.67 Q2320.57 1486.25 2314.76 1486.25 Q2308.95 1486.25 2305.87 1481.67 Q2302.82 1477.06 2302.82 1468.33 Q2302.82 1459.58 2305.87 1455 Q2308.95 1450.39 2314.76 1450.39 Z" fill="#000000" fill-rule="nonzero" fill-opacity="1" /><path clip-path="url(#clip600)" d="M1248.26 1550.12 Q1241.16 1550.12 1238.43 1551.75 Q1235.69 1553.37 1235.69 1557.29 Q1235.69 1560.4 1237.72 1562.25 Q1239.79 1564.07 1243.33 1564.07 Q1248.2 1564.07 1251.12 1560.63 Q1254.08 1557.16 1254.08 1551.43 L1254.08 1550.12 L1248.26 1550.12 M1259.94 1547.71 L1259.94 1568.04 L1254.08 1568.04 L1254.08 1562.63 Q1252.08 1565.88 1249.09 1567.44 Q1246.1 1568.97 1241.77 1568.97 Q1236.29 1568.97 1233.05 1565.91 Q1229.83 1562.82 1229.83 1557.67 Q1229.83 1551.65 1233.84 1548.6 Q1237.88 1545.54 1245.87 1545.54 L1254.08 1545.54 L1254.08 1544.97 Q1254.08 1540.93 1251.41 1538.73 Q1248.77 1536.5 1243.96 1536.5 Q1240.91 1536.5 1238.01 1537.23 Q1235.11 1537.97 1232.44 1539.43 L1232.44 1534.02 Q1235.66 1532.78 1238.68 1532.17 Q1241.7 1531.54 1244.57 1531.54 Q1252.3 1531.54 1256.12 1535.55 Q1259.94 1539.56 1259.94 1547.71 Z" fill="#000000" fill-rule="nonzero" fill-opacity="1" /><path clip-path="url(#clip600)" d="M1278.37 1562.63 L1300.81 1562.63 L1300.81 1568.04 L1270.64 1568.04 L1270.64 1562.63 Q1274.3 1558.85 1280.6 1552.48 Q1286.93 1546.08 1288.55 1544.24 Q1291.64 1540.77 1292.85 1538.38 Q1294.09 1535.96 1294.09 1533.64 Q1294.09 1529.85 1291.42 1527.46 Q1288.78 1525.08 1284.51 1525.08 Q1281.49 1525.08 1278.12 1526.13 Q1274.77 1527.18 1270.95 1529.31 L1270.95 1522.82 Q1274.84 1521.26 1278.21 1520.46 Q1281.58 1519.66 1284.39 1519.66 Q1291.77 1519.66 1296.16 1523.36 Q1300.55 1527.05 1300.55 1533.22 Q1300.55 1536.15 1299.44 1538.79 Q1298.36 1541.4 1295.46 1544.97 Q1294.67 1545.89 1290.4 1550.32 Q1286.14 1554.71 1278.37 1562.63 Z" fill="#000000" fill-rule="nonzero" fill-opacity="1" /><path clip-path="url(#clip600)" d="M1315.42 1562.63 L1325.92 1562.63 L1325.92 1526.38 L1314.5 1528.67 L1314.5 1522.82 L1325.86 1520.52 L1332.29 1520.52 L1332.29 1562.63 L1342.79 1562.63 L1342.79 1568.04 L1315.42 1568.04 L1315.42 1562.63 Z" fill="#000000" fill-rule="nonzero" fill-opacity="1" /><polyline clip-path="url(#clip600)" style="stroke:#000000; stroke-linecap:round; stroke-linejoin:round; stroke-width:4; stroke-opacity:1; fill:none" points="219.866,1423.18 219.866,47.2441 "/>
<polyline clip-path="url(#clip600)" style="stroke:#000000; stroke-linecap:round; stroke-linejoin:round; stroke-width:4; stroke-opacity:1; fill:none" points="219.866,1384.24 238.764,1384.24 "/>
<polyline clip-path="url(#clip600)" style="stroke:#000000; stroke-linecap:round; stroke-linejoin:round; stroke-width:4; stroke-opacity:1; fill:none" points="219.866,1163.43 238.764,1163.43 "/>
<polyline clip-path="url(#clip600)" style="stroke:#000000; stroke-linecap:round; stroke-linejoin:round; stroke-width:4; stroke-opacity:1; fill:none" points="219.866,942.618 238.764,942.618 "/>
<polyline clip-path="url(#clip600)" style="stroke:#000000; stroke-linecap:round; stroke-linejoin:round; stroke-width:4; stroke-opacity:1; fill:none" points="219.866,721.808 238.764,721.808 "/>
<polyline clip-path="url(#clip600)" style="stroke:#000000; stroke-linecap:round; stroke-linejoin:round; stroke-width:4; stroke-opacity:1; fill:none" points="219.866,500.998 238.764,500.998 "/>
<polyline clip-path="url(#clip600)" style="stroke:#000000; stroke-linecap:round; stroke-linejoin:round; stroke-width:4; stroke-opacity:1; fill:none" points="219.866,280.188 238.764,280.188 "/>
<polyline clip-path="url(#clip600)" style="stroke:#000000; stroke-linecap:round; stroke-linejoin:round; stroke-width:4; stroke-opacity:1; fill:none" points="219.866,59.3776 238.764,59.3776 "/>
<path clip-path="url(#clip600)" d="M126.691 1370.04 Q123.08 1370.04 121.251 1373.6 Q119.445 1377.14 119.445 1384.27 Q119.445 1391.38 121.251 1394.94 Q123.08 1398.49 126.691 1398.49 Q130.325 1398.49 132.13 1394.94 Q133.959 1391.38 133.959 1384.27 Q133.959 1377.14 132.13 1373.6 Q130.325 1370.04 126.691 1370.04 M126.691 1366.33 Q132.501 1366.33 135.556 1370.94 Q138.635 1375.52 138.635 1384.27 Q138.635 1393 135.556 1397.61 Q132.501 1402.19 126.691 1402.19 Q120.88 1402.19 117.802 1397.61 Q114.746 1393 114.746 1384.27 Q114.746 1375.52 117.802 1370.94 Q120.88 1366.33 126.691 1366.33 Z" fill="#000000" fill-rule="nonzero" fill-opacity="1" /><path clip-path="url(#clip600)" d="M146.853 1395.64 L151.737 1395.64 L151.737 1401.52 L146.853 1401.52 L146.853 1395.64 Z" fill="#000000" fill-rule="nonzero" fill-opacity="1" /><path clip-path="url(#clip600)" d="M171.922 1370.04 Q168.311 1370.04 166.482 1373.6 Q164.677 1377.14 164.677 1384.27 Q164.677 1391.38 166.482 1394.94 Q168.311 1398.49 171.922 1398.49 Q175.556 1398.49 177.362 1394.94 Q179.19 1391.38 179.19 1384.27 Q179.19 1377.14 177.362 1373.6 Q175.556 1370.04 171.922 1370.04 M171.922 1366.33 Q177.732 1366.33 180.788 1370.94 Q183.866 1375.52 183.866 1384.27 Q183.866 1393 180.788 1397.61 Q177.732 1402.19 171.922 1402.19 Q166.112 1402.19 163.033 1397.61 Q159.978 1393 159.978 1384.27 Q159.978 1375.52 163.033 1370.94 Q166.112 1366.33 171.922 1366.33 Z" fill="#000000" fill-rule="nonzero" fill-opacity="1" /><path clip-path="url(#clip600)" d="M127.917 1149.23 Q124.306 1149.23 122.478 1152.79 Q120.672 1156.33 120.672 1163.46 Q120.672 1170.57 122.478 1174.13 Q124.306 1177.68 127.917 1177.68 Q131.552 1177.68 133.357 1174.13 Q135.186 1170.57 135.186 1163.46 Q135.186 1156.33 133.357 1152.79 Q131.552 1149.23 127.917 1149.23 M127.917 1145.52 Q133.728 1145.52 136.783 1150.13 Q139.862 1154.71 139.862 1163.46 Q139.862 1172.19 136.783 1176.8 Q133.728 1181.38 127.917 1181.38 Q122.107 1181.38 119.029 1176.8 Q115.973 1172.19 115.973 1163.46 Q115.973 1154.71 119.029 1150.13 Q122.107 1145.52 127.917 1145.52 Z" fill="#000000" fill-rule="nonzero" fill-opacity="1" /><path clip-path="url(#clip600)" d="M148.079 1174.83 L152.964 1174.83 L152.964 1180.71 L148.079 1180.71 L148.079 1174.83 Z" fill="#000000" fill-rule="nonzero" fill-opacity="1" /><path clip-path="url(#clip600)" d="M163.959 1176.77 L171.598 1176.77 L171.598 1150.41 L163.288 1152.07 L163.288 1147.81 L171.552 1146.15 L176.227 1146.15 L176.227 1176.77 L183.866 1176.77 L183.866 1180.71 L163.959 1180.71 L163.959 1176.77 Z" fill="#000000" fill-rule="nonzero" fill-opacity="1" /><path clip-path="url(#clip600)" d="M128.288 928.417 Q124.677 928.417 122.848 931.982 Q121.043 935.523 121.043 942.653 Q121.043 949.759 122.848 953.324 Q124.677 956.866 128.288 956.866 Q131.922 956.866 133.728 953.324 Q135.556 949.759 135.556 942.653 Q135.556 935.523 133.728 931.982 Q131.922 928.417 128.288 928.417 M128.288 924.713 Q134.098 924.713 137.154 929.319 Q140.232 933.903 140.232 942.653 Q140.232 951.38 137.154 955.986 Q134.098 960.569 128.288 960.569 Q122.478 960.569 119.399 955.986 Q116.343 951.38 116.343 942.653 Q116.343 933.903 119.399 929.319 Q122.478 924.713 128.288 924.713 Z" fill="#000000" fill-rule="nonzero" fill-opacity="1" /><path clip-path="url(#clip600)" d="M148.45 954.018 L153.334 954.018 L153.334 959.898 L148.45 959.898 L148.45 954.018 Z" fill="#000000" fill-rule="nonzero" fill-opacity="1" /><path clip-path="url(#clip600)" d="M167.547 955.963 L183.866 955.963 L183.866 959.898 L161.922 959.898 L161.922 955.963 Q164.584 953.208 169.167 948.579 Q173.774 943.926 174.954 942.583 Q177.2 940.06 178.079 938.324 Q178.982 936.565 178.982 934.875 Q178.982 932.12 177.038 930.384 Q175.116 928.648 172.014 928.648 Q169.815 928.648 167.362 929.412 Q164.931 930.176 162.153 931.727 L162.153 927.005 Q164.977 925.87 167.431 925.292 Q169.885 924.713 171.922 924.713 Q177.292 924.713 180.487 927.398 Q183.681 930.083 183.681 934.574 Q183.681 936.704 182.871 938.625 Q182.084 940.523 179.977 943.116 Q179.399 943.787 176.297 947.005 Q173.195 950.199 167.547 955.963 Z" fill="#000000" fill-rule="nonzero" fill-opacity="1" /><path clip-path="url(#clip600)" d="M127.339 707.607 Q123.728 707.607 121.899 711.171 Q120.093 714.713 120.093 721.843 Q120.093 728.949 121.899 732.514 Q123.728 736.056 127.339 736.056 Q130.973 736.056 132.779 732.514 Q134.607 728.949 134.607 721.843 Q134.607 714.713 132.779 711.171 Q130.973 707.607 127.339 707.607 M127.339 703.903 Q133.149 703.903 136.204 708.509 Q139.283 713.093 139.283 721.843 Q139.283 730.569 136.204 735.176 Q133.149 739.759 127.339 739.759 Q121.529 739.759 118.45 735.176 Q115.394 730.569 115.394 721.843 Q115.394 713.093 118.45 708.509 Q121.529 703.903 127.339 703.903 Z" fill="#000000" fill-rule="nonzero" fill-opacity="1" /><path clip-path="url(#clip600)" d="M147.501 733.208 L152.385 733.208 L152.385 739.088 L147.501 739.088 L147.501 733.208 Z" fill="#000000" fill-rule="nonzero" fill-opacity="1" /><path clip-path="url(#clip600)" d="M176.737 720.454 Q180.093 721.171 181.968 723.44 Q183.866 725.708 183.866 729.042 Q183.866 734.157 180.348 736.958 Q176.829 739.759 170.348 739.759 Q168.172 739.759 165.857 739.319 Q163.565 738.903 161.112 738.046 L161.112 733.532 Q163.056 734.667 165.371 735.245 Q167.686 735.824 170.209 735.824 Q174.607 735.824 176.899 734.088 Q179.214 732.352 179.214 729.042 Q179.214 725.986 177.061 724.273 Q174.931 722.537 171.112 722.537 L167.084 722.537 L167.084 718.695 L171.297 718.695 Q174.746 718.695 176.575 717.329 Q178.403 715.94 178.403 713.347 Q178.403 710.685 176.505 709.273 Q174.63 707.838 171.112 707.838 Q169.19 707.838 166.991 708.255 Q164.792 708.671 162.153 709.551 L162.153 705.384 Q164.815 704.644 167.13 704.273 Q169.468 703.903 171.528 703.903 Q176.852 703.903 179.954 706.333 Q183.056 708.741 183.056 712.861 Q183.056 715.732 181.413 717.722 Q179.769 719.69 176.737 720.454 Z" fill="#000000" fill-rule="nonzero" fill-opacity="1" /><path clip-path="url(#clip600)" d="M126.205 486.796 Q122.593 486.796 120.765 490.361 Q118.959 493.903 118.959 501.033 Q118.959 508.139 120.765 511.704 Q122.593 515.245 126.205 515.245 Q129.839 515.245 131.644 511.704 Q133.473 508.139 133.473 501.033 Q133.473 493.903 131.644 490.361 Q129.839 486.796 126.205 486.796 M126.205 483.093 Q132.015 483.093 135.07 487.699 Q138.149 492.283 138.149 501.033 Q138.149 509.759 135.07 514.366 Q132.015 518.949 126.205 518.949 Q120.394 518.949 117.316 514.366 Q114.26 509.759 114.26 501.033 Q114.26 492.283 117.316 487.699 Q120.394 483.093 126.205 483.093 Z" fill="#000000" fill-rule="nonzero" fill-opacity="1" /><path clip-path="url(#clip600)" d="M146.366 512.398 L151.251 512.398 L151.251 518.278 L146.366 518.278 L146.366 512.398 Z" fill="#000000" fill-rule="nonzero" fill-opacity="1" /><path clip-path="url(#clip600)" d="M174.283 487.792 L162.477 506.241 L174.283 506.241 L174.283 487.792 M173.056 483.718 L178.936 483.718 L178.936 506.241 L183.866 506.241 L183.866 510.13 L178.936 510.13 L178.936 518.278 L174.283 518.278 L174.283 510.13 L158.681 510.13 L158.681 505.616 L173.056 483.718 Z" fill="#000000" fill-rule="nonzero" fill-opacity="1" /><path clip-path="url(#clip600)" d="M127.686 265.986 Q124.075 265.986 122.246 269.551 Q120.441 273.093 120.441 280.222 Q120.441 287.329 122.246 290.894 Q124.075 294.435 127.686 294.435 Q131.32 294.435 133.126 290.894 Q134.954 287.329 134.954 280.222 Q134.954 273.093 133.126 269.551 Q131.32 265.986 127.686 265.986 M127.686 262.283 Q133.496 262.283 136.552 266.889 Q139.63 271.472 139.63 280.222 Q139.63 288.949 136.552 293.556 Q133.496 298.139 127.686 298.139 Q121.876 298.139 118.797 293.556 Q115.742 288.949 115.742 280.222 Q115.742 271.472 118.797 266.889 Q121.876 262.283 127.686 262.283 Z" fill="#000000" fill-rule="nonzero" fill-opacity="1" /><path clip-path="url(#clip600)" d="M147.848 291.588 L152.732 291.588 L152.732 297.468 L147.848 297.468 L147.848 291.588 Z" fill="#000000" fill-rule="nonzero" fill-opacity="1" /><path clip-path="url(#clip600)" d="M162.964 262.908 L181.32 262.908 L181.32 266.843 L167.246 266.843 L167.246 275.315 Q168.264 274.968 169.283 274.806 Q170.302 274.621 171.32 274.621 Q177.107 274.621 180.487 277.792 Q183.866 280.963 183.866 286.38 Q183.866 291.958 180.394 295.06 Q176.922 298.139 170.602 298.139 Q168.427 298.139 166.158 297.769 Q163.913 297.398 161.505 296.658 L161.505 291.958 Q163.589 293.093 165.811 293.648 Q168.033 294.204 170.51 294.204 Q174.514 294.204 176.852 292.097 Q179.19 289.991 179.19 286.38 Q179.19 282.769 176.852 280.662 Q174.514 278.556 170.51 278.556 Q168.635 278.556 166.76 278.972 Q164.908 279.389 162.964 280.269 L162.964 262.908 Z" fill="#000000" fill-rule="nonzero" fill-opacity="1" /><path clip-path="url(#clip600)" d="M126.529 45.1763 Q122.918 45.1763 121.089 48.741 Q119.283 52.2827 119.283 59.4123 Q119.283 66.5187 121.089 70.0835 Q122.918 73.6252 126.529 73.6252 Q130.163 73.6252 131.968 70.0835 Q133.797 66.5187 133.797 59.4123 Q133.797 52.2827 131.968 48.741 Q130.163 45.1763 126.529 45.1763 M126.529 41.4726 Q132.339 41.4726 135.394 46.079 Q138.473 50.6623 138.473 59.4123 Q138.473 68.1391 135.394 72.7455 Q132.339 77.3289 126.529 77.3289 Q120.718 77.3289 117.64 72.7455 Q114.584 68.1391 114.584 59.4123 Q114.584 50.6623 117.64 46.079 Q120.718 41.4726 126.529 41.4726 Z" fill="#000000" fill-rule="nonzero" fill-opacity="1" /><path clip-path="url(#clip600)" d="M146.691 70.778 L151.575 70.778 L151.575 76.6576 L146.691 76.6576 L146.691 70.778 Z" fill="#000000" fill-rule="nonzero" fill-opacity="1" /><path clip-path="url(#clip600)" d="M172.339 57.5141 Q169.19 57.5141 167.339 59.6669 Q165.51 61.8197 165.51 65.5697 Q165.51 69.2965 167.339 71.4724 Q169.19 73.6252 172.339 73.6252 Q175.487 73.6252 177.315 71.4724 Q179.167 69.2965 179.167 65.5697 Q179.167 61.8197 177.315 59.6669 Q175.487 57.5141 172.339 57.5141 M181.621 42.8614 L181.621 47.1207 Q179.862 46.2874 178.056 45.8475 Q176.274 45.4077 174.514 45.4077 Q169.885 45.4077 167.431 48.5327 Q165.001 51.6577 164.653 57.9771 Q166.019 55.9632 168.079 54.8984 Q170.139 53.8105 172.616 53.8105 Q177.825 53.8105 180.834 56.9817 Q183.866 60.1299 183.866 65.5697 Q183.866 70.8937 180.718 74.1113 Q177.57 77.3289 172.339 77.3289 Q166.343 77.3289 163.172 72.7455 Q160.001 68.1391 160.001 59.4123 Q160.001 51.2179 163.89 46.3568 Q167.778 41.4726 174.329 41.4726 Q176.089 41.4726 177.871 41.8198 Q179.676 42.167 181.621 42.8614 Z" fill="#000000" fill-rule="nonzero" fill-opacity="1" /><path clip-path="url(#clip600)" d="M28.3562 718.597 L45.7028 731.488 L64.0042 717.929 L64.0042 724.836 L49.9996 735.212 L64.0042 745.588 L64.0042 752.495 L45.3526 738.649 L28.3562 751.317 L28.3562 744.41 L41.0558 734.957 L28.3562 725.504 L28.3562 718.597 Z" fill="#000000" fill-rule="nonzero" fill-opacity="1" /><circle clip-path="url(#clip601)" cx="529.223" cy="1384.24" r="10.8" fill="#ff0000" fill-rule="evenodd" fill-opacity="1" stroke="none"/>
<circle clip-path="url(#clip601)" cx="1688.76" cy="1384.24" r="10.8" fill="#0000ff" fill-rule="evenodd" fill-opacity="1" stroke="none"/>
<polyline clip-path="url(#clip601)" style="stroke:#3da44d; stroke-linecap:round; stroke-linejoin:round; stroke-width:8; stroke-opacity:1; fill:none" points="280.231,1384.24 394.056,1384.24 "/>
<polyline clip-path="url(#clip601)" style="stroke:#3da44d; stroke-linecap:round; stroke-linejoin:round; stroke-width:8; stroke-opacity:1; fill:none" points="394.056,1384.24 529.223,1384.24 "/>
<polyline clip-path="url(#clip601)" style="stroke:#3da44d; stroke-linecap:round; stroke-linejoin:round; stroke-width:4; stroke-opacity:1; fill:none" stroke-dasharray="2, 4" points="529.223,1384.24 756.873,1384.24 "/>
<polyline clip-path="url(#clip601)" style="stroke:#3da44d; stroke-linecap:round; stroke-linejoin:round; stroke-width:4; stroke-opacity:1; fill:none" stroke-dasharray="2, 4" points="756.873,1384.24 984.523,1384.24 "/>
<polyline clip-path="url(#clip601)" style="stroke:#3da44d; stroke-linecap:round; stroke-linejoin:round; stroke-width:4; stroke-opacity:1; fill:none" stroke-dasharray="2, 4" points="984.523,1384.24 1212.17,1384.24 "/>
<polyline clip-path="url(#clip601)" style="stroke:#3da44d; stroke-linecap:round; stroke-linejoin:round; stroke-width:4; stroke-opacity:1; fill:none" stroke-dasharray="2, 4" points="1212.17,1384.24 1439.82,1384.24 "/>
<polyline clip-path="url(#clip601)" style="stroke:#3da44d; stroke-linecap:round; stroke-linejoin:round; stroke-width:4; stroke-opacity:1; fill:none" stroke-dasharray="2, 4" points="1439.82,1384.24 1667.47,1384.24 "/>
<polyline clip-path="url(#clip601)" style="stroke:#3da44d; stroke-linecap:round; stroke-linejoin:round; stroke-width:4; stroke-opacity:1; fill:none" stroke-dasharray="2, 4" points="1667.47,1384.24 1688.76,1384.24 "/>
<polyline clip-path="url(#clip601)" style="stroke:#3da44d; stroke-linecap:round; stroke-linejoin:round; stroke-width:4; stroke-opacity:1; fill:none" stroke-dasharray="2, 4" points="1688.76,1384.24 1916.41,1384.24 "/>
<polyline clip-path="url(#clip601)" style="stroke:#3da44d; stroke-linecap:round; stroke-linejoin:round; stroke-width:4; stroke-opacity:1; fill:none" stroke-dasharray="2, 4" points="1916.41,1384.24 2144.06,1384.24 "/>
<polyline clip-path="url(#clip601)" style="stroke:#3da44d; stroke-linecap:round; stroke-linejoin:round; stroke-width:4; stroke-opacity:1; fill:none" stroke-dasharray="2, 4" points="2144.06,1384.24 2292.39,1384.24 "/>
<circle clip-path="url(#clip601)" cx="529.223" cy="1384.24" r="10.8" fill="#ff0000" fill-rule="evenodd" fill-opacity="1" stroke="none"/>
<circle clip-path="url(#clip601)" cx="1688.76" cy="1384.24" r="10.8" fill="#0000ff" fill-rule="evenodd" fill-opacity="1" stroke="none"/>
<polyline clip-path="url(#clip601)" style="stroke:#ac8d18; stroke-linecap:round; stroke-linejoin:round; stroke-width:8; stroke-opacity:1; fill:none" points="530.028,1280.34 530.261,1275.81 "/>
<polyline clip-path="url(#clip601)" style="stroke:#ac8d18; stroke-linecap:round; stroke-linejoin:round; stroke-width:8; stroke-opacity:1; fill:none" points="530.261,1275.81 530.608,1269.39 "/>
<polyline clip-path="url(#clip601)" style="stroke:#ac8d18; stroke-linecap:round; stroke-linejoin:round; stroke-width:8; stroke-opacity:1; fill:none" points="530.608,1269.39 531.135,1260.28 "/>
<polyline clip-path="url(#clip601)" style="stroke:#ac8d18; stroke-linecap:round; stroke-linejoin:round; stroke-width:8; stroke-opacity:1; fill:none" points="531.135,1260.28 531.95,1247.39 "/>
<polyline clip-path="url(#clip601)" style="stroke:#ac8d18; stroke-linecap:round; stroke-linejoin:round; stroke-width:8; stroke-opacity:1; fill:none" points="531.95,1247.39 533.241,1229.21 "/>
<polyline clip-path="url(#clip601)" style="stroke:#ac8d18; stroke-linecap:round; stroke-linejoin:round; stroke-width:8; stroke-opacity:1; fill:none" points="533.241,1229.21 535.33,1203.7 "/>
<polyline clip-path="url(#clip601)" style="stroke:#ac8d18; stroke-linecap:round; stroke-linejoin:round; stroke-width:8; stroke-opacity:1; fill:none" points="535.33,1203.7 538.786,1168.19 "/>
<polyline clip-path="url(#clip601)" style="stroke:#ac8d18; stroke-linecap:round; stroke-linejoin:round; stroke-width:8; stroke-opacity:1; fill:none" points="538.786,1168.19 544.595,1119.43 "/>
<polyline clip-path="url(#clip601)" style="stroke:#ac8d18; stroke-linecap:round; stroke-linejoin:round; stroke-width:8; stroke-opacity:1; fill:none" points="544.595,1119.43 554.148,1055.47 "/>
<polyline clip-path="url(#clip601)" style="stroke:#ac8d18; stroke-linecap:round; stroke-linejoin:round; stroke-width:8; stroke-opacity:1; fill:none" points="554.148,1055.47 569.7,973.96 "/>
<polyline clip-path="url(#clip601)" style="stroke:#ac8d18; stroke-linecap:round; stroke-linejoin:round; stroke-width:8; stroke-opacity:1; fill:none" points="569.7,973.96 594.48,873.889 "/>
<polyline clip-path="url(#clip601)" style="stroke:#ac8d18; stroke-linecap:round; stroke-linejoin:round; stroke-width:8; stroke-opacity:1; fill:none" points="594.48,873.889 632.841,756.354 "/>
<polyline clip-path="url(#clip601)" style="stroke:#ac8d18; stroke-linecap:round; stroke-linejoin:round; stroke-width:8; stroke-opacity:1; fill:none" points="632.841,756.354 690.47,624.872 "/>
<polyline clip-path="url(#clip601)" style="stroke:#ac8d18; stroke-linecap:round; stroke-linejoin:round; stroke-width:8; stroke-opacity:1; fill:none" points="690.47,624.872 774.767,485.319 "/>
<polyline clip-path="url(#clip601)" style="stroke:#ac8d18; stroke-linecap:round; stroke-linejoin:round; stroke-width:8; stroke-opacity:1; fill:none" points="774.767,485.319 877.703,362.859 "/>
<polyline clip-path="url(#clip601)" style="stroke:#ac8d18; stroke-linecap:round; stroke-linejoin:round; stroke-width:8; stroke-opacity:1; fill:none" points="877.703,362.859 981.639,272.304 "/>
<polyline clip-path="url(#clip601)" style="stroke:#ac8d18; stroke-linecap:round; stroke-linejoin:round; stroke-width:8; stroke-opacity:1; fill:none" points="981.639,272.304 1085.28,204.431 "/>
<polyline clip-path="url(#clip601)" style="stroke:#ac8d18; stroke-linecap:round; stroke-linejoin:round; stroke-width:8; stroke-opacity:1; fill:none" points="1085.28,204.431 1187.49,155.616 "/>
<polyline clip-path="url(#clip601)" style="stroke:#ac8d18; stroke-linecap:round; stroke-linejoin:round; stroke-width:8; stroke-opacity:1; fill:none" points="1187.49,155.616 1286.78,122.266 "/>
<polyline clip-path="url(#clip601)" style="stroke:#ac8d18; stroke-linecap:round; stroke-linejoin:round; stroke-width:8; stroke-opacity:1; fill:none" points="1286.78,122.266 1380.99,101.836 "/>
<polyline clip-path="url(#clip601)" style="stroke:#ac8d18; stroke-linecap:round; stroke-linejoin:round; stroke-width:8; stroke-opacity:1; fill:none" points="1380.99,101.836 1467.09,90.6923 "/>
<polyline clip-path="url(#clip601)" style="stroke:#ac8d18; stroke-linecap:round; stroke-linejoin:round; stroke-width:8; stroke-opacity:1; fill:none" points="1467.09,90.6923 1541.57,86.1857 "/>
<polyline clip-path="url(#clip601)" style="stroke:#ac8d18; stroke-linecap:round; stroke-linejoin:round; stroke-width:8; stroke-opacity:1; fill:none" points="1541.57,86.1857 1601.93,88.2684 "/>
<polyline clip-path="url(#clip601)" style="stroke:#ac8d18; stroke-linecap:round; stroke-linejoin:round; stroke-width:8; stroke-opacity:1; fill:none" points="1601.93,88.2684 1648.14,94.6727 "/>
<polyline clip-path="url(#clip601)" style="stroke:#ac8d18; stroke-linecap:round; stroke-linejoin:round; stroke-width:8; stroke-opacity:1; fill:none" points="1648.14,94.6727 1682.33,103.745 "/>
<polyline clip-path="url(#clip601)" style="stroke:#ac8d18; stroke-linecap:round; stroke-linejoin:round; stroke-width:8; stroke-opacity:1; fill:none" points="1682.33,103.745 1707.27,113.992 "/>
<polyline clip-path="url(#clip601)" style="stroke:#ac8d18; stroke-linecap:round; stroke-linejoin:round; stroke-width:8; stroke-opacity:1; fill:none" points="1707.27,113.992 1725.39,125.697 "/>
<polyline clip-path="url(#clip601)" style="stroke:#ac8d18; stroke-linecap:round; stroke-linejoin:round; stroke-width:8; stroke-opacity:1; fill:none" points="1725.39,125.697 1738.55,136.839 "/>
<polyline clip-path="url(#clip601)" style="stroke:#ac8d18; stroke-linecap:round; stroke-linejoin:round; stroke-width:8; stroke-opacity:1; fill:none" points="1738.55,136.839 1748.08,148.397 "/>
<polyline clip-path="url(#clip601)" style="stroke:#ac8d18; stroke-linecap:round; stroke-linejoin:round; stroke-width:8; stroke-opacity:1; fill:none" points="1748.08,148.397 1754.96,160.162 "/>
<polyline clip-path="url(#clip601)" style="stroke:#ac8d18; stroke-linecap:round; stroke-linejoin:round; stroke-width:8; stroke-opacity:1; fill:none" points="1754.96,160.162 1759.9,171.914 "/>
<polyline clip-path="url(#clip601)" style="stroke:#ac8d18; stroke-linecap:round; stroke-linejoin:round; stroke-width:8; stroke-opacity:1; fill:none" points="1759.9,171.914 1763.39,183.189 "/>
<polyline clip-path="url(#clip601)" style="stroke:#ac8d18; stroke-linecap:round; stroke-linejoin:round; stroke-width:8; stroke-opacity:1; fill:none" points="1763.39,183.189 1765.83,193.685 "/>
<polyline clip-path="url(#clip601)" style="stroke:#ac8d18; stroke-linecap:round; stroke-linejoin:round; stroke-width:8; stroke-opacity:1; fill:none" points="1765.83,193.685 1767.48,203.865 "/>
<polyline clip-path="url(#clip601)" style="stroke:#ac8d18; stroke-linecap:round; stroke-linejoin:round; stroke-width:8; stroke-opacity:1; fill:none" points="1767.48,203.865 1768.55,213.653 "/>
<polyline clip-path="url(#clip601)" style="stroke:#ac8d18; stroke-linecap:round; stroke-linejoin:round; stroke-width:8; stroke-opacity:1; fill:none" points="1768.55,213.653 1769.21,222.99 "/>
<polyline clip-path="url(#clip601)" style="stroke:#ac8d18; stroke-linecap:round; stroke-linejoin:round; stroke-width:8; stroke-opacity:1; fill:none" points="1769.21,222.99 1769.56,231.835 "/>
<polyline clip-path="url(#clip601)" style="stroke:#ac8d18; stroke-linecap:round; stroke-linejoin:round; stroke-width:8; stroke-opacity:1; fill:none" points="1769.56,231.835 1769.7,240.161 "/>
<polyline clip-path="url(#clip601)" style="stroke:#ac8d18; stroke-linecap:round; stroke-linejoin:round; stroke-width:8; stroke-opacity:1; fill:none" points="1769.7,240.161 1769.71,242.098 "/>
<polyline clip-path="url(#clip601)" style="stroke:#ac8d18; stroke-linecap:round; stroke-linejoin:round; stroke-width:4; stroke-opacity:1; fill:none" stroke-dasharray="2, 4" points="1769.71,242.098 1769.68,249.762 "/>
<polyline clip-path="url(#clip601)" style="stroke:#ac8d18; stroke-linecap:round; stroke-linejoin:round; stroke-width:4; stroke-opacity:1; fill:none" stroke-dasharray="2, 4" points="1769.68,249.762 1769.55,256.891 "/>
<polyline clip-path="url(#clip601)" style="stroke:#ac8d18; stroke-linecap:round; stroke-linejoin:round; stroke-width:4; stroke-opacity:1; fill:none" stroke-dasharray="2, 4" points="1769.55,256.891 1769.37,263.492 "/>
<polyline clip-path="url(#clip601)" style="stroke:#ac8d18; stroke-linecap:round; stroke-linejoin:round; stroke-width:4; stroke-opacity:1; fill:none" stroke-dasharray="2, 4" points="1769.37,263.492 1769.16,269.58 "/>
<polyline clip-path="url(#clip601)" style="stroke:#ac8d18; stroke-linecap:round; stroke-linejoin:round; stroke-width:4; stroke-opacity:1; fill:none" stroke-dasharray="2, 4" points="1769.16,269.58 1768.93,275.174 "/>
<polyline clip-path="url(#clip601)" style="stroke:#ac8d18; stroke-linecap:round; stroke-linejoin:round; stroke-width:4; stroke-opacity:1; fill:none" stroke-dasharray="2, 4" points="1768.93,275.174 1768.69,280.298 "/>
<polyline clip-path="url(#clip601)" style="stroke:#ac8d18; stroke-linecap:round; stroke-linejoin:round; stroke-width:4; stroke-opacity:1; fill:none" stroke-dasharray="2, 4" points="1768.69,280.298 1768.46,284.979 "/>
<polyline clip-path="url(#clip601)" style="stroke:#ac8d18; stroke-linecap:round; stroke-linejoin:round; stroke-width:4; stroke-opacity:1; fill:none" stroke-dasharray="2, 4" points="1768.46,284.979 1768.35,287.096 "/>
<polyline clip-path="url(#clip601)" style="stroke:#ac8d18; stroke-linecap:round; stroke-linejoin:round; stroke-width:4; stroke-opacity:1; fill:none" stroke-dasharray="2, 4" points="1768.35,287.096 1768.13,291.172 "/>
<polyline clip-path="url(#clip601)" style="stroke:#ac8d18; stroke-linecap:round; stroke-linejoin:round; stroke-width:4; stroke-opacity:1; fill:none" stroke-dasharray="2, 4" points="1768.13,291.172 1767.92,294.876 "/>
<polyline clip-path="url(#clip601)" style="stroke:#ac8d18; stroke-linecap:round; stroke-linejoin:round; stroke-width:4; stroke-opacity:1; fill:none" stroke-dasharray="2, 4" points="1767.92,294.876 1767.73,298.238 "/>
<polyline clip-path="url(#clip601)" style="stroke:#ac8d18; stroke-linecap:round; stroke-linejoin:round; stroke-width:4; stroke-opacity:1; fill:none" stroke-dasharray="2, 4" points="1767.73,298.238 1767.56,301.287 "/>
<polyline clip-path="url(#clip601)" style="stroke:#ac8d18; stroke-linecap:round; stroke-linejoin:round; stroke-width:4; stroke-opacity:1; fill:none" stroke-dasharray="2, 4" points="1767.56,301.287 1767.42,303.718 "/>
<polyline clip-path="url(#clip601)" style="stroke:#ac8d18; stroke-linecap:round; stroke-linejoin:round; stroke-width:4; stroke-opacity:1; fill:none" stroke-dasharray="2, 4" points="1767.42,303.718 1767.27,306.251 "/>
<polyline clip-path="url(#clip601)" style="stroke:#ac8d18; stroke-linecap:round; stroke-linejoin:round; stroke-width:4; stroke-opacity:1; fill:none" stroke-dasharray="2, 4" points="1767.27,306.251 1767.13,308.546 "/>
<polyline clip-path="url(#clip601)" style="stroke:#ac8d18; stroke-linecap:round; stroke-linejoin:round; stroke-width:4; stroke-opacity:1; fill:none" stroke-dasharray="2, 4" points="1767.13,308.546 1767.01,310.628 "/>
<polyline clip-path="url(#clip601)" style="stroke:#ac8d18; stroke-linecap:round; stroke-linejoin:round; stroke-width:4; stroke-opacity:1; fill:none" stroke-dasharray="2, 4" points="1767.01,310.628 1766.9,312.52 "/>
<polyline clip-path="url(#clip601)" style="stroke:#ac8d18; stroke-linecap:round; stroke-linejoin:round; stroke-width:4; stroke-opacity:1; fill:none" stroke-dasharray="2, 4" points="1766.9,312.52 1766.8,314.243 "/>
<polyline clip-path="url(#clip601)" style="stroke:#ac8d18; stroke-linecap:round; stroke-linejoin:round; stroke-width:4; stroke-opacity:1; fill:none" stroke-dasharray="2, 4" points="1766.8,314.243 1766.72,315.816 "/>
<polyline clip-path="url(#clip601)" style="stroke:#ac8d18; stroke-linecap:round; stroke-linejoin:round; stroke-width:4; stroke-opacity:1; fill:none" stroke-dasharray="2, 4" points="1766.72,315.816 1766.64,317.255 "/>
<polyline clip-path="url(#clip601)" style="stroke:#ac8d18; stroke-linecap:round; stroke-linejoin:round; stroke-width:4; stroke-opacity:1; fill:none" stroke-dasharray="2, 4" points="1766.64,317.255 1766.57,318.578 "/>
<polyline clip-path="url(#clip601)" style="stroke:#ac8d18; stroke-linecap:round; stroke-linejoin:round; stroke-width:4; stroke-opacity:1; fill:none" stroke-dasharray="2, 4" points="1766.57,318.578 1766.5,319.797 "/>
<polyline clip-path="url(#clip601)" style="stroke:#ac8d18; stroke-linecap:round; stroke-linejoin:round; stroke-width:4; stroke-opacity:1; fill:none" stroke-dasharray="2, 4" points="1766.5,319.797 1766.45,320.927 "/>
<polyline clip-path="url(#clip601)" style="stroke:#ac8d18; stroke-linecap:round; stroke-linejoin:round; stroke-width:4; stroke-opacity:1; fill:none" stroke-dasharray="2, 4" points="1766.45,320.927 1766.4,321.979 "/>
<polyline clip-path="url(#clip601)" style="stroke:#ac8d18; stroke-linecap:round; stroke-linejoin:round; stroke-width:4; stroke-opacity:1; fill:none" stroke-dasharray="2, 4" points="1766.4,321.979 1766.35,322.964 "/>
<polyline clip-path="url(#clip601)" style="stroke:#ac8d18; stroke-linecap:round; stroke-linejoin:round; stroke-width:4; stroke-opacity:1; fill:none" stroke-dasharray="2, 4" points="1766.35,322.964 1766.31,323.807 "/>
<polyline clip-path="url(#clip601)" style="stroke:#ac8d18; stroke-linecap:round; stroke-linejoin:round; stroke-width:4; stroke-opacity:1; fill:none" stroke-dasharray="2, 4" points="1766.31,323.807 1766.28,324.255 "/>
<polyline clip-path="url(#clip601)" style="stroke:#ac8d18; stroke-linecap:round; stroke-linejoin:round; stroke-width:4; stroke-opacity:1; fill:none" stroke-dasharray="2, 4" points="1766.28,324.255 1766.25,324.638 "/>
<polyline clip-path="url(#clip601)" style="stroke:#ac8d18; stroke-linecap:round; stroke-linejoin:round; stroke-width:4; stroke-opacity:1; fill:none" stroke-dasharray="2, 4" points="1766.25,324.638 1766.22,324.966 "/>
<polyline clip-path="url(#clip601)" style="stroke:#ac8d18; stroke-linecap:round; stroke-linejoin:round; stroke-width:4; stroke-opacity:1; fill:none" stroke-dasharray="2, 4" points="1766.22,324.966 1766.2,325.243 "/>
<polyline clip-path="url(#clip601)" style="stroke:#ac8d18; stroke-linecap:round; stroke-linejoin:round; stroke-width:4; stroke-opacity:1; fill:none" stroke-dasharray="2, 4" points="1766.2,325.243 1766.18,325.477 "/>
<polyline clip-path="url(#clip601)" style="stroke:#ac8d18; stroke-linecap:round; stroke-linejoin:round; stroke-width:4; stroke-opacity:1; fill:none" stroke-dasharray="2, 4" points="1766.18,325.477 1766.17,325.516 "/>
<polyline clip-path="url(#clip601)" style="stroke:#ac8d18; stroke-linecap:round; stroke-linejoin:round; stroke-width:4; stroke-opacity:1; fill:none" stroke-dasharray="2, 4" points="1766.17,325.516 1766.15,325.703 "/>
<polyline clip-path="url(#clip601)" style="stroke:#ac8d18; stroke-linecap:round; stroke-linejoin:round; stroke-width:4; stroke-opacity:1; fill:none" stroke-dasharray="2, 4" points="1766.15,325.703 1766.14,325.855 "/>
<polyline clip-path="url(#clip601)" style="stroke:#ac8d18; stroke-linecap:round; stroke-linejoin:round; stroke-width:4; stroke-opacity:1; fill:none" stroke-dasharray="2, 4" points="1766.14,325.855 1766.12,325.977 "/>
<polyline clip-path="url(#clip601)" style="stroke:#ac8d18; stroke-linecap:round; stroke-linejoin:round; stroke-width:4; stroke-opacity:1; fill:none" stroke-dasharray="2, 4" points="1766.12,325.977 1766.11,326.072 "/>
<polyline clip-path="url(#clip601)" style="stroke:#ac8d18; stroke-linecap:round; stroke-linejoin:round; stroke-width:4; stroke-opacity:1; fill:none" stroke-dasharray="2, 4" points="1766.11,326.072 1766.1,326.143 "/>
<polyline clip-path="url(#clip601)" style="stroke:#ac8d18; stroke-linecap:round; stroke-linejoin:round; stroke-width:4; stroke-opacity:1; fill:none" stroke-dasharray="2, 4" points="1766.1,326.143 1766.09,326.182 "/>
<polyline clip-path="url(#clip601)" style="stroke:#ac8d18; stroke-linecap:round; stroke-linejoin:round; stroke-width:4; stroke-opacity:1; fill:none" stroke-dasharray="2, 4" points="1766.09,326.182 1766.08,326.216 "/>
<polyline clip-path="url(#clip601)" style="stroke:#ac8d18; stroke-linecap:round; stroke-linejoin:round; stroke-width:4; stroke-opacity:1; fill:none" stroke-dasharray="2, 4" points="1766.08,326.216 1766.08,326.233 "/>
<polyline clip-path="url(#clip601)" style="stroke:#ac8d18; stroke-linecap:round; stroke-linejoin:round; stroke-width:4; stroke-opacity:1; fill:none" stroke-dasharray="2, 4" points="1766.08,326.233 1766.07,326.234 "/>
<polyline clip-path="url(#clip601)" style="stroke:#ac8d18; stroke-linecap:round; stroke-linejoin:round; stroke-width:4; stroke-opacity:1; fill:none" stroke-dasharray="2, 4" points="1766.07,326.234 1766.06,326.22 "/>
<polyline clip-path="url(#clip601)" style="stroke:#ac8d18; stroke-linecap:round; stroke-linejoin:round; stroke-width:4; stroke-opacity:1; fill:none" stroke-dasharray="2, 4" points="1766.06,326.22 1766.06,326.193 "/>
<polyline clip-path="url(#clip601)" style="stroke:#ac8d18; stroke-linecap:round; stroke-linejoin:round; stroke-width:4; stroke-opacity:1; fill:none" stroke-dasharray="2, 4" points="1766.06,326.193 1766.06,326.153 "/>
<polyline clip-path="url(#clip601)" style="stroke:#ac8d18; stroke-linecap:round; stroke-linejoin:round; stroke-width:4; stroke-opacity:1; fill:none" stroke-dasharray="2, 4" points="1766.06,326.153 1766.05,326.103 "/>
<polyline clip-path="url(#clip601)" style="stroke:#ac8d18; stroke-linecap:round; stroke-linejoin:round; stroke-width:4; stroke-opacity:1; fill:none" stroke-dasharray="2, 4" points="1766.05,326.103 1766.05,326.042 "/>
<polyline clip-path="url(#clip601)" style="stroke:#ac8d18; stroke-linecap:round; stroke-linejoin:round; stroke-width:4; stroke-opacity:1; fill:none" stroke-dasharray="2, 4" points="1766.05,326.042 1766.05,325.971 "/>
<polyline clip-path="url(#clip601)" style="stroke:#ac8d18; stroke-linecap:round; stroke-linejoin:round; stroke-width:4; stroke-opacity:1; fill:none" stroke-dasharray="2, 4" points="1766.05,325.971 1766.05,325.89 "/>
<polyline clip-path="url(#clip601)" style="stroke:#ac8d18; stroke-linecap:round; stroke-linejoin:round; stroke-width:4; stroke-opacity:1; fill:none" stroke-dasharray="2, 4" points="1766.05,325.89 1766.05,325.801 "/>
<polyline clip-path="url(#clip601)" style="stroke:#ac8d18; stroke-linecap:round; stroke-linejoin:round; stroke-width:4; stroke-opacity:1; fill:none" stroke-dasharray="2, 4" points="1766.05,325.801 1766.05,325.702 "/>
<polyline clip-path="url(#clip601)" style="stroke:#ac8d18; stroke-linecap:round; stroke-linejoin:round; stroke-width:4; stroke-opacity:1; fill:none" stroke-dasharray="2, 4" points="1766.05,325.702 1766.05,325.595 "/>
<polyline clip-path="url(#clip601)" style="stroke:#ac8d18; stroke-linecap:round; stroke-linejoin:round; stroke-width:4; stroke-opacity:1; fill:none" stroke-dasharray="2, 4" points="1766.05,325.595 1766.05,325.479 "/>
<polyline clip-path="url(#clip601)" style="stroke:#ac8d18; stroke-linecap:round; stroke-linejoin:round; stroke-width:4; stroke-opacity:1; fill:none" stroke-dasharray="2, 4" points="1766.05,325.479 1766.05,325.354 "/>
<polyline clip-path="url(#clip601)" style="stroke:#ac8d18; stroke-linecap:round; stroke-linejoin:round; stroke-width:4; stroke-opacity:1; fill:none" stroke-dasharray="2, 4" points="1766.05,325.354 1766.05,325.22 "/>
<polyline clip-path="url(#clip601)" style="stroke:#ac8d18; stroke-linecap:round; stroke-linejoin:round; stroke-width:4; stroke-opacity:1; fill:none" stroke-dasharray="2, 4" points="1766.05,325.22 1766.06,325.077 "/>
<polyline clip-path="url(#clip601)" style="stroke:#ac8d18; stroke-linecap:round; stroke-linejoin:round; stroke-width:4; stroke-opacity:1; fill:none" stroke-dasharray="2, 4" points="1766.06,325.077 1766.06,324.925 "/>
<polyline clip-path="url(#clip601)" style="stroke:#ac8d18; stroke-linecap:round; stroke-linejoin:round; stroke-width:4; stroke-opacity:1; fill:none" stroke-dasharray="2, 4" points="1766.06,324.925 1766.07,324.764 "/>
<polyline clip-path="url(#clip601)" style="stroke:#ac8d18; stroke-linecap:round; stroke-linejoin:round; stroke-width:4; stroke-opacity:1; fill:none" stroke-dasharray="2, 4" points="1766.07,324.764 1766.07,324.671 "/>
<polyline clip-path="url(#clip601)" style="stroke:#ac8d18; stroke-linecap:round; stroke-linejoin:round; stroke-width:4; stroke-opacity:1; fill:none" stroke-dasharray="2, 4" points="1766.07,324.671 1766.06,324.724 "/>
<polyline clip-path="url(#clip601)" style="stroke:#ac8d18; stroke-linecap:round; stroke-linejoin:round; stroke-width:4; stroke-opacity:1; fill:none" stroke-dasharray="2, 4" points="1766.06,324.724 1766.06,324.794 "/>
<polyline clip-path="url(#clip601)" style="stroke:#ac8d18; stroke-linecap:round; stroke-linejoin:round; stroke-width:4; stroke-opacity:1; fill:none" stroke-dasharray="2, 4" points="1766.06,324.794 1766.05,324.882 "/>
<circle clip-path="url(#clip601)" cx="1769.71" cy="242.098" r="10.8" fill="#0000ff" fill-rule="evenodd" fill-opacity="1" stroke="none"/>
<circle clip-path="url(#clip601)" cx="1768.35" cy="287.096" r="10.8" fill="#0000ff" fill-rule="evenodd" fill-opacity="1" stroke="none"/>
<circle clip-path="url(#clip601)" cx="1767.42" cy="303.718" r="10.8" fill="#0000ff" fill-rule="evenodd" fill-opacity="1" stroke="none"/>
<circle clip-path="url(#clip601)" cx="1766.17" cy="325.516" r="10.8" fill="#0000ff" fill-rule="evenodd" fill-opacity="1" stroke="none"/>
<circle clip-path="url(#clip601)" cx="1766.09" cy="326.182" r="10.8" fill="#0000ff" fill-rule="evenodd" fill-opacity="1" stroke="none"/>
<path clip-path="url(#clip600)" d="M1965.94 248.629 L2281.66 248.629 L2281.66 93.1086 L1965.94 93.1086  Z" fill="#ffffff" fill-rule="evenodd" fill-opacity="1"/>
<polyline clip-path="url(#clip600)" style="stroke:#000000; stroke-linecap:round; stroke-linejoin:round; stroke-width:4; stroke-opacity:1; fill:none" points="1965.94,248.629 2281.66,248.629 2281.66,93.1086 1965.94,93.1086 1965.94,248.629 "/>
<circle clip-path="url(#clip600)" cx="2060.74" cy="144.949" r="23.04" fill="#ff0000" fill-rule="evenodd" fill-opacity="1" stroke="none"/>
<path clip-path="url(#clip600)" d="M2177.24 146.581 L2177.24 162.229 L2172.98 162.229 L2172.98 146.719 Q2172.98 143.039 2171.55 141.21 Q2170.11 139.382 2167.24 139.382 Q2163.79 139.382 2161.8 141.581 Q2159.81 143.78 2159.81 147.576 L2159.81 162.229 L2155.53 162.229 L2155.53 126.21 L2159.81 126.21 L2159.81 140.331 Q2161.34 137.993 2163.4 136.835 Q2165.48 135.678 2168.19 135.678 Q2172.66 135.678 2174.95 138.456 Q2177.24 141.21 2177.24 146.581 Z" fill="#000000" fill-rule="nonzero" fill-opacity="1" /><path clip-path="url(#clip600)" d="M2195.79 139.289 Q2192.36 139.289 2190.37 141.974 Q2188.38 144.636 2188.38 149.289 Q2188.38 153.942 2190.35 156.627 Q2192.34 159.289 2195.79 159.289 Q2199.19 159.289 2201.18 156.604 Q2203.17 153.918 2203.17 149.289 Q2203.17 144.682 2201.18 141.997 Q2199.19 139.289 2195.79 139.289 M2195.79 135.678 Q2201.34 135.678 2204.51 139.289 Q2207.68 142.9 2207.68 149.289 Q2207.68 155.655 2204.51 159.289 Q2201.34 162.9 2195.79 162.9 Q2190.21 162.9 2187.04 159.289 Q2183.89 155.655 2183.89 149.289 Q2183.89 142.9 2187.04 139.289 Q2190.21 135.678 2195.79 135.678 Z" fill="#000000" fill-rule="nonzero" fill-opacity="1" /><path clip-path="url(#clip600)" d="M2218.86 158.34 L2218.86 172.09 L2214.58 172.09 L2214.58 136.303 L2218.86 136.303 L2218.86 140.238 Q2220.21 137.923 2222.24 136.812 Q2224.3 135.678 2227.15 135.678 Q2231.87 135.678 2234.81 139.428 Q2237.78 143.178 2237.78 149.289 Q2237.78 155.4 2234.81 159.15 Q2231.87 162.9 2227.15 162.9 Q2224.3 162.9 2222.24 161.789 Q2220.21 160.655 2218.86 158.34 M2233.35 149.289 Q2233.35 144.59 2231.41 141.928 Q2229.49 139.243 2226.11 139.243 Q2222.73 139.243 2220.79 141.928 Q2218.86 144.59 2218.86 149.289 Q2218.86 153.988 2220.79 156.673 Q2222.73 159.335 2226.11 159.335 Q2229.49 159.335 2231.41 156.673 Q2233.35 153.988 2233.35 149.289 Z" fill="#000000" fill-rule="nonzero" fill-opacity="1" /><path clip-path="url(#clip600)" d="M2257.96 126.21 L2257.96 129.752 L2253.89 129.752 Q2251.6 129.752 2250.69 130.678 Q2249.81 131.604 2249.81 134.011 L2249.81 136.303 L2256.83 136.303 L2256.83 139.613 L2249.81 139.613 L2249.81 162.229 L2245.53 162.229 L2245.53 139.613 L2241.46 139.613 L2241.46 136.303 L2245.53 136.303 L2245.53 134.497 Q2245.53 130.169 2247.54 128.201 Q2249.56 126.21 2253.93 126.21 L2257.96 126.21 Z" fill="#000000" fill-rule="nonzero" fill-opacity="1" /><circle clip-path="url(#clip600)" cx="2060.74" cy="196.789" r="23.04" fill="#0000ff" fill-rule="evenodd" fill-opacity="1" stroke="none"/>
<path clip-path="url(#clip600)" d="M2174.3 201.129 Q2174.3 196.43 2172.36 193.768 Q2170.44 191.083 2167.06 191.083 Q2163.68 191.083 2161.73 193.768 Q2159.81 196.43 2159.81 201.129 Q2159.81 205.828 2161.73 208.513 Q2163.68 211.175 2167.06 211.175 Q2170.44 211.175 2172.36 208.513 Q2174.3 205.828 2174.3 201.129 M2159.81 192.078 Q2161.16 189.763 2163.19 188.652 Q2165.25 187.518 2168.1 187.518 Q2172.82 187.518 2175.76 191.268 Q2178.73 195.018 2178.73 201.129 Q2178.73 207.24 2175.76 210.99 Q2172.82 214.74 2168.1 214.74 Q2165.25 214.74 2163.19 213.629 Q2161.16 212.495 2159.81 210.18 L2159.81 214.069 L2155.53 214.069 L2155.53 178.05 L2159.81 178.05 L2159.81 192.078 Z" fill="#000000" fill-rule="nonzero" fill-opacity="1" /><path clip-path="url(#clip600)" d="M2189.91 210.18 L2189.91 223.93 L2185.62 223.93 L2185.62 188.143 L2189.91 188.143 L2189.91 192.078 Q2191.25 189.763 2193.29 188.652 Q2195.35 187.518 2198.19 187.518 Q2202.91 187.518 2205.85 191.268 Q2208.82 195.018 2208.82 201.129 Q2208.82 207.24 2205.85 210.99 Q2202.91 214.74 2198.19 214.74 Q2195.35 214.74 2193.29 213.629 Q2191.25 212.495 2189.91 210.18 M2204.4 201.129 Q2204.4 196.43 2202.45 193.768 Q2200.53 191.083 2197.15 191.083 Q2193.77 191.083 2191.83 193.768 Q2189.91 196.43 2189.91 201.129 Q2189.91 205.828 2191.83 208.513 Q2193.77 211.175 2197.15 211.175 Q2200.53 211.175 2202.45 208.513 Q2204.4 205.828 2204.4 201.129 Z" fill="#000000" fill-rule="nonzero" fill-opacity="1" /></svg>
