<?xml version="1.0" encoding="utf-8"?>
<svg xmlns="http://www.w3.org/2000/svg" xmlns:xlink="http://www.w3.org/1999/xlink" width="600" height="400" viewBox="0 0 2400 1600">
<defs>
  <clipPath id="clip810">
    <rect x="0" y="0" width="2400" height="1600"/>
  </clipPath>
</defs>
<path clip-path="url(#clip810)" d="M0 1600 L2400 1600 L2400 0 L0 0  Z" fill="#ffffff" fill-rule="evenodd" fill-opacity="1"/>
<defs>
  <clipPath id="clip811">
    <rect x="249" y="47" width="2104" height="1377"/>
  </clipPath>
</defs>
<path clip-path="url(#clip810)" d="M249.542 1423.18 L2352.76 1423.18 L2352.76 47.2441 L249.542 47.2441  Z" fill="#ffffff" fill-rule="evenodd" fill-opacity="1"/>
<polyline clip-path="url(#clip811)" style="stroke:#000000; stroke-linecap:round; stroke-linejoin:round; stroke-width:2; stroke-opacity:0.1; fill:none" points="448.428,1423.18 448.428,47.2441 "/>
<polyline clip-path="url(#clip811)" style="stroke:#000000; stroke-linecap:round; stroke-linejoin:round; stroke-width:2; stroke-opacity:0.1; fill:none" points="902.696,1423.18 902.696,47.2441 "/>
<polyline clip-path="url(#clip811)" style="stroke:#000000; stroke-linecap:round; stroke-linejoin:round; stroke-width:2; stroke-opacity:0.1; fill:none" points="1356.96,1423.18 1356.96,47.2441 "/>
<polyline clip-path="url(#clip811)" style="stroke:#000000; stroke-linecap:round; stroke-linejoin:round; stroke-width:2; stroke-opacity:0.1; fill:none" points="1811.23,1423.18 1811.23,47.2441 "/>
<polyline clip-path="url(#clip811)" style="stroke:#000000; stroke-linecap:round; stroke-linejoin:round; stroke-width:2; stroke-opacity:0.1; fill:none" points="2265.5,1423.18 2265.5,47.2441 "/>
<polyline clip-path="url(#clip811)" style="stroke:#000000; stroke-linecap:round; stroke-linejoin:round; stroke-width:2; stroke-opacity:0.1; fill:none" points="249.542,1249.1 2352.76,1249.1 "/>
<polyline clip-path="url(#clip811)" style="stroke:#000000; stroke-linecap:round; stroke-linejoin:round; stroke-width:2; stroke-opacity:0.1; fill:none" points="249.542,984.802 2352.76,984.802 "/>
<polyline clip-path="url(#clip811)" style="stroke:#000000; stroke-linecap:round; stroke-linejoin:round; stroke-width:2; stroke-opacity:0.1; fill:none" points="249.542,720.503 2352.76,720.503 "/>
<polyline clip-path="url(#clip811)" style="stroke:#000000; stroke-linecap:round; stroke-linejoin:round; stroke-width:2; stroke-opacity:0.1; fill:none" points="249.542,456.204 2352.76,456.204 "/>
<polyline clip-path="url(#clip811)" style="stroke:#000000; stroke-linecap:round; stroke-linejoin:round; stroke-width:2; stroke-opacity:0.1; fill:none" points="249.542,191.905 2352.76,191.905 "/>
<polyline clip-path="url(#clip810)" style="stroke:#000000; stroke-linecap:round; stroke-linejoin:round; stroke-width:4; stroke-opacity:1; fill:none" points="249.542,1423.18 2352.76,1423.18 "/>
<polyline clip-path="url(#clip810)" style="stroke:#000000; stroke-linecap:round; stroke-linejoin:round; stroke-width:4; stroke-opacity:1; fill:none" points="448.428,1423.18 448.428,1404.28 "/>
<polyline clip-path="url(#clip810)" style="stroke:#000000; stroke-linecap:round; stroke-linejoin:round; stroke-width:4; stroke-opacity:1; fill:none" points="902.696,1423.18 902.696,1404.28 "/>
<polyline clip-path="url(#clip810)" style="stroke:#000000; stroke-linecap:round; stroke-linejoin:round; stroke-width:4; stroke-opacity:1; fill:none" points="1356.96,1423.18 1356.96,1404.28 "/>
<polyline clip-path="url(#clip810)" style="stroke:#000000; stroke-linecap:round; stroke-linejoin:round; stroke-width:4; stroke-opacity:1; fill:none" points="1811.23,1423.18 1811.23,1404.28 "/>
<polyline clip-path="url(#clip810)" style="stroke:#000000; stroke-linecap:round; stroke-linejoin:round; stroke-width:4; stroke-opacity:1; fill:none" points="2265.5,1423.18 2265.5,1404.28 "/>
<path clip-path="url(#clip810)" d="M379.875 1468.75 L409.551 1468.75 L409.551 1472.69 L379.875 1472.69 L379.875 1468.75 Z" fill="#000000" fill-rule="nonzero" fill-opacity="1" /><path clip-path="url(#clip810)" d="M429.643 1454.1 Q426.032 1454.1 424.204 1457.66 Q422.398 1461.2 422.398 1468.33 Q422.398 1475.44 424.204 1479.01 Q426.032 1482.55 429.643 1482.55 Q433.278 1482.55 435.083 1479.01 Q436.912 1475.44 436.912 1468.33 Q436.912 1461.2 435.083 1457.66 Q433.278 1454.1 429.643 1454.1 M429.643 1450.39 Q435.454 1450.39 438.509 1455 Q441.588 1459.58 441.588 1468.33 Q441.588 1477.06 438.509 1481.67 Q435.454 1486.25 429.643 1486.25 Q423.833 1486.25 420.755 1481.67 Q417.699 1477.06 417.699 1468.33 Q417.699 1459.58 420.755 1455 Q423.833 1450.39 429.643 1450.39 Z" fill="#000000" fill-rule="nonzero" fill-opacity="1" /><path clip-path="url(#clip810)" d="M449.805 1479.7 L454.69 1479.7 L454.69 1485.58 L449.805 1485.58 L449.805 1479.7 Z" fill="#000000" fill-rule="nonzero" fill-opacity="1" /><path clip-path="url(#clip810)" d="M464.921 1451.02 L483.277 1451.02 L483.277 1454.96 L469.203 1454.96 L469.203 1463.43 Q470.222 1463.08 471.24 1462.92 Q472.259 1462.73 473.277 1462.73 Q479.064 1462.73 482.444 1465.9 Q485.824 1469.08 485.824 1474.49 Q485.824 1480.07 482.351 1483.17 Q478.879 1486.25 472.56 1486.25 Q470.384 1486.25 468.115 1485.88 Q465.87 1485.51 463.463 1484.77 L463.463 1480.07 Q465.546 1481.2 467.768 1481.76 Q469.99 1482.32 472.467 1482.32 Q476.472 1482.32 478.81 1480.21 Q481.148 1478.1 481.148 1474.49 Q481.148 1470.88 478.81 1468.77 Q476.472 1466.67 472.467 1466.67 Q470.592 1466.67 468.717 1467.08 Q466.865 1467.5 464.921 1468.38 L464.921 1451.02 Z" fill="#000000" fill-rule="nonzero" fill-opacity="1" /><path clip-path="url(#clip810)" d="M505.036 1454.1 Q501.425 1454.1 499.597 1457.66 Q497.791 1461.2 497.791 1468.33 Q497.791 1475.44 499.597 1479.01 Q501.425 1482.55 505.036 1482.55 Q508.671 1482.55 510.476 1479.01 Q512.305 1475.44 512.305 1468.33 Q512.305 1461.2 510.476 1457.66 Q508.671 1454.1 505.036 1454.1 M505.036 1450.39 Q510.847 1450.39 513.902 1455 Q516.981 1459.58 516.981 1468.33 Q516.981 1477.06 513.902 1481.67 Q510.847 1486.25 505.036 1486.25 Q499.226 1486.25 496.148 1481.67 Q493.092 1477.06 493.092 1468.33 Q493.092 1459.58 496.148 1455 Q499.226 1450.39 505.036 1450.39 Z" fill="#000000" fill-rule="nonzero" fill-opacity="1" /><path clip-path="url(#clip810)" d="M834.641 1468.75 L864.317 1468.75 L864.317 1472.69 L834.641 1472.69 L834.641 1468.75 Z" fill="#000000" fill-rule="nonzero" fill-opacity="1" /><path clip-path="url(#clip810)" d="M884.409 1454.1 Q880.798 1454.1 878.969 1457.66 Q877.164 1461.2 877.164 1468.33 Q877.164 1475.44 878.969 1479.01 Q880.798 1482.55 884.409 1482.55 Q888.043 1482.55 889.849 1479.01 Q891.678 1475.44 891.678 1468.33 Q891.678 1461.2 889.849 1457.66 Q888.043 1454.1 884.409 1454.1 M884.409 1450.39 Q890.219 1450.39 893.275 1455 Q896.354 1459.58 896.354 1468.33 Q896.354 1477.06 893.275 1481.67 Q890.219 1486.25 884.409 1486.25 Q878.599 1486.25 875.52 1481.67 Q872.465 1477.06 872.465 1468.33 Q872.465 1459.58 875.52 1455 Q878.599 1450.39 884.409 1450.39 Z" fill="#000000" fill-rule="nonzero" fill-opacity="1" /><path clip-path="url(#clip810)" d="M904.571 1479.7 L909.455 1479.7 L909.455 1485.58 L904.571 1485.58 L904.571 1479.7 Z" fill="#000000" fill-rule="nonzero" fill-opacity="1" /><path clip-path="url(#clip810)" d="M923.668 1481.64 L939.988 1481.64 L939.988 1485.58 L918.043 1485.58 L918.043 1481.64 Q920.705 1478.89 925.289 1474.26 Q929.895 1469.61 931.076 1468.27 Q933.321 1465.74 934.201 1464.01 Q935.103 1462.25 935.103 1460.56 Q935.103 1457.8 933.159 1456.07 Q931.238 1454.33 928.136 1454.33 Q925.937 1454.33 923.483 1455.09 Q921.052 1455.86 918.275 1457.41 L918.275 1452.69 Q921.099 1451.55 923.552 1450.97 Q926.006 1450.39 928.043 1450.39 Q933.414 1450.39 936.608 1453.08 Q939.802 1455.77 939.802 1460.26 Q939.802 1462.39 938.992 1464.31 Q938.205 1466.2 936.099 1468.8 Q935.52 1469.47 932.418 1472.69 Q929.316 1475.88 923.668 1481.64 Z" fill="#000000" fill-rule="nonzero" fill-opacity="1" /><path clip-path="url(#clip810)" d="M949.849 1451.02 L968.205 1451.02 L968.205 1454.96 L954.131 1454.96 L954.131 1463.43 Q955.15 1463.08 956.168 1462.92 Q957.187 1462.73 958.205 1462.73 Q963.992 1462.73 967.372 1465.9 Q970.751 1469.08 970.751 1474.49 Q970.751 1480.07 967.279 1483.17 Q963.807 1486.25 957.487 1486.25 Q955.312 1486.25 953.043 1485.88 Q950.798 1485.51 948.39 1484.77 L948.39 1480.07 Q950.474 1481.2 952.696 1481.76 Q954.918 1482.32 957.395 1482.32 Q961.399 1482.32 963.737 1480.21 Q966.075 1478.1 966.075 1474.49 Q966.075 1470.88 963.737 1468.77 Q961.399 1466.67 957.395 1466.67 Q955.52 1466.67 953.645 1467.08 Q951.793 1467.5 949.849 1468.38 L949.849 1451.02 Z" fill="#000000" fill-rule="nonzero" fill-opacity="1" /><path clip-path="url(#clip810)" d="M1319.27 1454.1 Q1315.66 1454.1 1313.83 1457.66 Q1312.02 1461.2 1312.02 1468.33 Q1312.02 1475.44 1313.83 1479.01 Q1315.66 1482.55 1319.27 1482.55 Q1322.9 1482.55 1324.71 1479.01 Q1326.54 1475.44 1326.54 1468.33 Q1326.54 1461.2 1324.71 1457.66 Q1322.9 1454.1 1319.27 1454.1 M1319.27 1450.39 Q1325.08 1450.39 1328.13 1455 Q1331.21 1459.58 1331.21 1468.33 Q1331.21 1477.06 1328.13 1481.67 Q1325.08 1486.25 1319.27 1486.25 Q1313.46 1486.25 1310.38 1481.67 Q1307.32 1477.06 1307.32 1468.33 Q1307.32 1459.58 1310.38 1455 Q1313.46 1450.39 1319.27 1450.39 Z" fill="#000000" fill-rule="nonzero" fill-opacity="1" /><path clip-path="url(#clip810)" d="M1339.43 1479.7 L1344.31 1479.7 L1344.31 1485.58 L1339.43 1485.58 L1339.43 1479.7 Z" fill="#000000" fill-rule="nonzero" fill-opacity="1" /><path clip-path="url(#clip810)" d="M1364.5 1454.1 Q1360.89 1454.1 1359.06 1457.66 Q1357.25 1461.2 1357.25 1468.33 Q1357.25 1475.44 1359.06 1479.01 Q1360.89 1482.55 1364.5 1482.55 Q1368.13 1482.55 1369.94 1479.01 Q1371.77 1475.44 1371.77 1468.33 Q1371.77 1461.2 1369.94 1457.66 Q1368.13 1454.1 1364.5 1454.1 M1364.5 1450.39 Q1370.31 1450.39 1373.36 1455 Q1376.44 1459.58 1376.44 1468.33 Q1376.44 1477.06 1373.36 1481.67 Q1370.31 1486.25 1364.5 1486.25 Q1358.69 1486.25 1355.61 1481.67 Q1352.55 1477.06 1352.55 1468.33 Q1352.55 1459.58 1355.61 1455 Q1358.69 1450.39 1364.5 1450.39 Z" fill="#000000" fill-rule="nonzero" fill-opacity="1" /><path clip-path="url(#clip810)" d="M1394.66 1454.1 Q1391.05 1454.1 1389.22 1457.66 Q1387.42 1461.2 1387.42 1468.33 Q1387.42 1475.44 1389.22 1479.01 Q1391.05 1482.55 1394.66 1482.55 Q1398.29 1482.55 1400.1 1479.01 Q1401.93 1475.44 1401.93 1468.33 Q1401.93 1461.2 1400.1 1457.66 Q1398.29 1454.1 1394.66 1454.1 M1394.66 1450.39 Q1400.47 1450.39 1403.53 1455 Q1406.61 1459.58 1406.61 1468.33 Q1406.61 1477.06 1403.53 1481.67 Q1400.47 1486.25 1394.66 1486.25 Q1388.85 1486.25 1385.77 1481.67 Q1382.72 1477.06 1382.72 1468.33 Q1382.72 1459.58 1385.77 1455 Q1388.85 1450.39 1394.66 1450.39 Z" fill="#000000" fill-rule="nonzero" fill-opacity="1" /><path clip-path="url(#clip810)" d="M1774.03 1454.1 Q1770.42 1454.1 1768.59 1457.66 Q1766.79 1461.2 1766.79 1468.33 Q1766.79 1475.44 1768.59 1479.01 Q1770.42 1482.55 1774.03 1482.55 Q1777.67 1482.55 1779.47 1479.01 Q1781.3 1475.44 1781.3 1468.33 Q1781.3 1461.2 1779.47 1457.66 Q1777.67 1454.1 1774.03 1454.1 M1774.03 1450.39 Q1779.84 1450.39 1782.9 1455 Q1785.98 1459.58 1785.98 1468.33 Q1785.98 1477.06 1782.9 1481.67 Q1779.84 1486.25 1774.03 1486.25 Q1768.22 1486.25 1765.14 1481.67 Q1762.09 1477.06 1762.09 1468.33 Q1762.09 1459.58 1765.14 1455 Q1768.22 1450.39 1774.03 1450.39 Z" fill="#000000" fill-rule="nonzero" fill-opacity="1" /><path clip-path="url(#clip810)" d="M1794.2 1479.7 L1799.08 1479.7 L1799.08 1485.58 L1794.2 1485.58 L1794.2 1479.7 Z" fill="#000000" fill-rule="nonzero" fill-opacity="1" /><path clip-path="url(#clip810)" d="M1813.29 1481.64 L1829.61 1481.64 L1829.61 1485.58 L1807.67 1485.58 L1807.67 1481.64 Q1810.33 1478.89 1814.91 1474.26 Q1819.52 1469.61 1820.7 1468.27 Q1822.95 1465.74 1823.82 1464.01 Q1824.73 1462.25 1824.73 1460.56 Q1824.73 1457.8 1822.78 1456.07 Q1820.86 1454.33 1817.76 1454.33 Q1815.56 1454.33 1813.11 1455.09 Q1810.68 1455.86 1807.9 1457.41 L1807.9 1452.69 Q1810.72 1451.55 1813.18 1450.97 Q1815.63 1450.39 1817.67 1450.39 Q1823.04 1450.39 1826.23 1453.08 Q1829.43 1455.77 1829.43 1460.26 Q1829.43 1462.39 1828.62 1464.31 Q1827.83 1466.2 1825.72 1468.8 Q1825.14 1469.47 1822.04 1472.69 Q1818.94 1475.88 1813.29 1481.64 Z" fill="#000000" fill-rule="nonzero" fill-opacity="1" /><path clip-path="url(#clip810)" d="M1839.47 1451.02 L1857.83 1451.02 L1857.83 1454.96 L1843.76 1454.96 L1843.76 1463.43 Q1844.77 1463.08 1845.79 1462.92 Q1846.81 1462.73 1847.83 1462.73 Q1853.62 1462.73 1857 1465.9 Q1860.38 1469.08 1860.38 1474.49 Q1860.38 1480.07 1856.9 1483.17 Q1853.43 1486.25 1847.11 1486.25 Q1844.94 1486.25 1842.67 1485.88 Q1840.42 1485.51 1838.01 1484.77 L1838.01 1480.07 Q1840.1 1481.2 1842.32 1481.76 Q1844.54 1482.32 1847.02 1482.32 Q1851.02 1482.32 1853.36 1480.21 Q1855.7 1478.1 1855.7 1474.49 Q1855.7 1470.88 1853.36 1468.77 Q1851.02 1466.67 1847.02 1466.67 Q1845.14 1466.67 1843.27 1467.08 Q1841.42 1467.5 1839.47 1468.38 L1839.47 1451.02 Z" fill="#000000" fill-rule="nonzero" fill-opacity="1" /><path clip-path="url(#clip810)" d="M2227.8 1454.1 Q2224.19 1454.1 2222.36 1457.66 Q2220.56 1461.2 2220.56 1468.33 Q2220.56 1475.44 2222.36 1479.01 Q2224.19 1482.55 2227.8 1482.55 Q2231.44 1482.55 2233.24 1479.01 Q2235.07 1475.44 2235.07 1468.33 Q2235.07 1461.2 2233.24 1457.66 Q2231.44 1454.1 2227.8 1454.1 M2227.8 1450.39 Q2233.61 1450.39 2236.67 1455 Q2239.75 1459.58 2239.75 1468.33 Q2239.75 1477.06 2236.67 1481.67 Q2233.61 1486.25 2227.8 1486.25 Q2221.99 1486.25 2218.92 1481.67 Q2215.86 1477.06 2215.86 1468.33 Q2215.86 1459.58 2218.92 1455 Q2221.99 1450.39 2227.8 1450.39 Z" fill="#000000" fill-rule="nonzero" fill-opacity="1" /><path clip-path="url(#clip810)" d="M2247.97 1479.7 L2252.85 1479.7 L2252.85 1485.58 L2247.97 1485.58 L2247.97 1479.7 Z" fill="#000000" fill-rule="nonzero" fill-opacity="1" /><path clip-path="url(#clip810)" d="M2263.08 1451.02 L2281.44 1451.02 L2281.44 1454.96 L2267.36 1454.96 L2267.36 1463.43 Q2268.38 1463.08 2269.4 1462.92 Q2270.42 1462.73 2271.44 1462.73 Q2277.22 1462.73 2280.6 1465.9 Q2283.98 1469.08 2283.98 1474.49 Q2283.98 1480.07 2280.51 1483.17 Q2277.04 1486.25 2270.72 1486.25 Q2268.54 1486.25 2266.28 1485.88 Q2264.03 1485.51 2261.62 1484.77 L2261.62 1480.07 Q2263.71 1481.2 2265.93 1481.76 Q2268.15 1482.32 2270.63 1482.32 Q2274.63 1482.32 2276.97 1480.21 Q2279.31 1478.1 2279.31 1474.49 Q2279.31 1470.88 2276.97 1468.77 Q2274.63 1466.67 2270.63 1466.67 Q2268.75 1466.67 2266.88 1467.08 Q2265.03 1467.5 2263.08 1468.38 L2263.08 1451.02 Z" fill="#000000" fill-rule="nonzero" fill-opacity="1" /><path clip-path="url(#clip810)" d="M2303.2 1454.1 Q2299.59 1454.1 2297.76 1457.66 Q2295.95 1461.2 2295.95 1468.33 Q2295.95 1475.44 2297.76 1479.01 Q2299.59 1482.55 2303.2 1482.55 Q2306.83 1482.55 2308.64 1479.01 Q2310.47 1475.44 2310.47 1468.33 Q2310.47 1461.2 2308.64 1457.66 Q2306.83 1454.1 2303.2 1454.1 M2303.2 1450.39 Q2309.01 1450.39 2312.06 1455 Q2315.14 1459.58 2315.14 1468.33 Q2315.14 1477.06 2312.06 1481.67 Q2309.01 1486.25 2303.2 1486.25 Q2297.39 1486.25 2294.31 1481.67 Q2291.25 1477.06 2291.25 1468.33 Q2291.25 1459.58 2294.31 1455 Q2297.39 1450.39 2303.2 1450.39 Z" fill="#000000" fill-rule="nonzero" fill-opacity="1" /><path clip-path="url(#clip810)" d="M1304.52 1550.12 Q1297.43 1550.12 1294.69 1551.75 Q1291.95 1553.37 1291.95 1557.29 Q1291.95 1560.4 1293.99 1562.25 Q1296.06 1564.07 1299.59 1564.07 Q1304.46 1564.07 1307.39 1560.63 Q1310.35 1557.16 1310.35 1551.43 L1310.35 1550.12 L1304.52 1550.12 M1316.2 1547.71 L1316.2 1568.04 L1310.35 1568.04 L1310.35 1562.63 Q1308.34 1565.88 1305.35 1567.44 Q1302.36 1568.97 1298.03 1568.97 Q1292.56 1568.97 1289.31 1565.91 Q1286.09 1562.82 1286.09 1557.67 Q1286.09 1551.65 1290.1 1548.6 Q1294.15 1545.54 1302.14 1545.54 L1310.35 1545.54 L1310.35 1544.97 Q1310.35 1540.93 1307.67 1538.73 Q1305.03 1536.5 1300.23 1536.5 Q1297.17 1536.5 1294.27 1537.23 Q1291.38 1537.97 1288.7 1539.43 L1288.7 1534.02 Q1291.92 1532.78 1294.94 1532.17 Q1297.97 1531.54 1300.83 1531.54 Q1308.57 1531.54 1312.38 1535.55 Q1316.2 1539.56 1316.2 1547.71 Z" fill="#000000" fill-rule="nonzero" fill-opacity="1" /><polyline clip-path="url(#clip810)" style="stroke:#000000; stroke-linecap:round; stroke-linejoin:round; stroke-width:4; stroke-opacity:1; fill:none" points="249.542,1423.18 249.542,47.2441 "/>
<polyline clip-path="url(#clip810)" style="stroke:#000000; stroke-linecap:round; stroke-linejoin:round; stroke-width:4; stroke-opacity:1; fill:none" points="249.542,1249.1 268.44,1249.1 "/>
<polyline clip-path="url(#clip810)" style="stroke:#000000; stroke-linecap:round; stroke-linejoin:round; stroke-width:4; stroke-opacity:1; fill:none" points="249.542,984.802 268.44,984.802 "/>
<polyline clip-path="url(#clip810)" style="stroke:#000000; stroke-linecap:round; stroke-linejoin:round; stroke-width:4; stroke-opacity:1; fill:none" points="249.542,720.503 268.44,720.503 "/>
<polyline clip-path="url(#clip810)" style="stroke:#000000; stroke-linecap:round; stroke-linejoin:round; stroke-width:4; stroke-opacity:1; fill:none" points="249.542,456.204 268.44,456.204 "/>
<polyline clip-path="url(#clip810)" style="stroke:#000000; stroke-linecap:round; stroke-linejoin:round; stroke-width:4; stroke-opacity:1; fill:none" points="249.542,191.905 268.44,191.905 "/>
<path clip-path="url(#clip810)" d="M126.205 1234.9 Q122.593 1234.9 120.765 1238.47 Q118.959 1242.01 118.959 1249.14 Q118.959 1256.24 120.765 1259.81 Q122.593 1263.35 126.205 1263.35 Q129.839 1263.35 131.644 1259.81 Q133.473 1256.24 133.473 1249.14 Q133.473 1242.01 131.644 1238.47 Q129.839 1234.9 126.205 1234.9 M126.205 1231.2 Q132.015 1231.2 135.07 1235.8 Q138.149 1240.39 138.149 1249.14 Q138.149 1257.86 135.07 1262.47 Q132.015 1267.05 126.205 1267.05 Q120.394 1267.05 117.316 1262.47 Q114.26 1257.86 114.26 1249.14 Q114.26 1240.39 117.316 1235.8 Q120.394 1231.2 126.205 1231.2 Z" fill="#000000" fill-rule="nonzero" fill-opacity="1" /><path clip-path="url(#clip810)" d="M146.366 1260.5 L151.251 1260.5 L151.251 1266.38 L146.366 1266.38 L146.366 1260.5 Z" fill="#000000" fill-rule="nonzero" fill-opacity="1" /><path clip-path="url(#clip810)" d="M171.436 1234.9 Q167.825 1234.9 165.996 1238.47 Q164.19 1242.01 164.19 1249.14 Q164.19 1256.24 165.996 1259.81 Q167.825 1263.35 171.436 1263.35 Q175.07 1263.35 176.876 1259.81 Q178.704 1256.24 178.704 1249.14 Q178.704 1242.01 176.876 1238.47 Q175.07 1234.9 171.436 1234.9 M171.436 1231.2 Q177.246 1231.2 180.301 1235.8 Q183.38 1240.39 183.38 1249.14 Q183.38 1257.86 180.301 1262.47 Q177.246 1267.05 171.436 1267.05 Q165.626 1267.05 162.547 1262.47 Q159.491 1257.86 159.491 1249.14 Q159.491 1240.39 162.547 1235.8 Q165.626 1231.2 171.436 1231.2 Z" fill="#000000" fill-rule="nonzero" fill-opacity="1" /><path clip-path="url(#clip810)" d="M201.598 1234.9 Q197.987 1234.9 196.158 1238.47 Q194.352 1242.01 194.352 1249.14 Q194.352 1256.24 196.158 1259.81 Q197.987 1263.35 201.598 1263.35 Q205.232 1263.35 207.037 1259.81 Q208.866 1256.24 208.866 1249.14 Q208.866 1242.01 207.037 1238.47 Q205.232 1234.9 201.598 1234.9 M201.598 1231.2 Q207.408 1231.2 210.463 1235.8 Q213.542 1240.39 213.542 1249.14 Q213.542 1257.86 210.463 1262.47 Q207.408 1267.05 201.598 1267.05 Q195.787 1267.05 192.709 1262.47 Q189.653 1257.86 189.653 1249.14 Q189.653 1240.39 192.709 1235.8 Q195.787 1231.2 201.598 1231.2 Z" fill="#000000" fill-rule="nonzero" fill-opacity="1" /><path clip-path="url(#clip810)" d="M127.2 970.601 Q123.589 970.601 121.76 974.166 Q119.955 977.708 119.955 984.837 Q119.955 991.944 121.76 995.508 Q123.589 999.05 127.2 999.05 Q130.834 999.05 132.64 995.508 Q134.468 991.944 134.468 984.837 Q134.468 977.708 132.64 974.166 Q130.834 970.601 127.2 970.601 M127.2 966.897 Q133.01 966.897 136.066 971.504 Q139.144 976.087 139.144 984.837 Q139.144 993.564 136.066 998.17 Q133.01 1002.75 127.2 1002.75 Q121.39 1002.75 118.311 998.17 Q115.256 993.564 115.256 984.837 Q115.256 976.087 118.311 971.504 Q121.39 966.897 127.2 966.897 Z" fill="#000000" fill-rule="nonzero" fill-opacity="1" /><path clip-path="url(#clip810)" d="M147.362 996.203 L152.246 996.203 L152.246 1002.08 L147.362 1002.08 L147.362 996.203 Z" fill="#000000" fill-rule="nonzero" fill-opacity="1" /><path clip-path="url(#clip810)" d="M166.459 998.147 L182.778 998.147 L182.778 1002.08 L160.834 1002.08 L160.834 998.147 Q163.496 995.393 168.079 990.763 Q172.686 986.11 173.866 984.768 Q176.112 982.245 176.991 980.509 Q177.894 978.749 177.894 977.059 Q177.894 974.305 175.95 972.569 Q174.028 970.833 170.927 970.833 Q168.727 970.833 166.274 971.597 Q163.843 972.36 161.065 973.911 L161.065 969.189 Q163.89 968.055 166.343 967.476 Q168.797 966.897 170.834 966.897 Q176.204 966.897 179.399 969.583 Q182.593 972.268 182.593 976.759 Q182.593 978.888 181.783 980.809 Q180.996 982.708 178.889 985.3 Q178.311 985.971 175.209 989.189 Q172.107 992.383 166.459 998.147 Z" fill="#000000" fill-rule="nonzero" fill-opacity="1" /><path clip-path="url(#clip810)" d="M192.639 967.522 L210.996 967.522 L210.996 971.458 L196.922 971.458 L196.922 979.93 Q197.94 979.583 198.959 979.421 Q199.977 979.235 200.996 979.235 Q206.783 979.235 210.162 982.407 Q213.542 985.578 213.542 990.995 Q213.542 996.573 210.07 999.675 Q206.598 1002.75 200.278 1002.75 Q198.102 1002.75 195.834 1002.38 Q193.588 1002.01 191.181 1001.27 L191.181 996.573 Q193.264 997.707 195.487 998.263 Q197.709 998.819 200.186 998.819 Q204.19 998.819 206.528 996.712 Q208.866 994.606 208.866 990.995 Q208.866 987.383 206.528 985.277 Q204.19 983.171 200.186 983.171 Q198.311 983.171 196.436 983.587 Q194.584 984.004 192.639 984.883 L192.639 967.522 Z" fill="#000000" fill-rule="nonzero" fill-opacity="1" /><path clip-path="url(#clip810)" d="M126.205 706.302 Q122.593 706.302 120.765 709.867 Q118.959 713.409 118.959 720.538 Q118.959 727.645 120.765 731.209 Q122.593 734.751 126.205 734.751 Q129.839 734.751 131.644 731.209 Q133.473 727.645 133.473 720.538 Q133.473 713.409 131.644 709.867 Q129.839 706.302 126.205 706.302 M126.205 702.598 Q132.015 702.598 135.07 707.205 Q138.149 711.788 138.149 720.538 Q138.149 729.265 135.07 733.871 Q132.015 738.455 126.205 738.455 Q120.394 738.455 117.316 733.871 Q114.26 729.265 114.26 720.538 Q114.26 711.788 117.316 707.205 Q120.394 702.598 126.205 702.598 Z" fill="#000000" fill-rule="nonzero" fill-opacity="1" /><path clip-path="url(#clip810)" d="M146.366 731.904 L151.251 731.904 L151.251 737.783 L146.366 737.783 L146.366 731.904 Z" fill="#000000" fill-rule="nonzero" fill-opacity="1" /><path clip-path="url(#clip810)" d="M161.482 703.223 L179.839 703.223 L179.839 707.159 L165.765 707.159 L165.765 715.631 Q166.783 715.284 167.802 715.121 Q168.82 714.936 169.839 714.936 Q175.626 714.936 179.005 718.108 Q182.385 721.279 182.385 726.696 Q182.385 732.274 178.913 735.376 Q175.44 738.455 169.121 738.455 Q166.945 738.455 164.677 738.084 Q162.431 737.714 160.024 736.973 L160.024 732.274 Q162.107 733.408 164.329 733.964 Q166.552 734.52 169.028 734.52 Q173.033 734.52 175.371 732.413 Q177.709 730.307 177.709 726.696 Q177.709 723.084 175.371 720.978 Q173.033 718.871 169.028 718.871 Q167.153 718.871 165.278 719.288 Q163.427 719.705 161.482 720.584 L161.482 703.223 Z" fill="#000000" fill-rule="nonzero" fill-opacity="1" /><path clip-path="url(#clip810)" d="M201.598 706.302 Q197.987 706.302 196.158 709.867 Q194.352 713.409 194.352 720.538 Q194.352 727.645 196.158 731.209 Q197.987 734.751 201.598 734.751 Q205.232 734.751 207.037 731.209 Q208.866 727.645 208.866 720.538 Q208.866 713.409 207.037 709.867 Q205.232 706.302 201.598 706.302 M201.598 702.598 Q207.408 702.598 210.463 707.205 Q213.542 711.788 213.542 720.538 Q213.542 729.265 210.463 733.871 Q207.408 738.455 201.598 738.455 Q195.787 738.455 192.709 733.871 Q189.653 729.265 189.653 720.538 Q189.653 711.788 192.709 707.205 Q195.787 702.598 201.598 702.598 Z" fill="#000000" fill-rule="nonzero" fill-opacity="1" /><path clip-path="url(#clip810)" d="M127.2 442.003 Q123.589 442.003 121.76 445.568 Q119.955 449.109 119.955 456.239 Q119.955 463.346 121.76 466.91 Q123.589 470.452 127.2 470.452 Q130.834 470.452 132.64 466.91 Q134.468 463.346 134.468 456.239 Q134.468 449.109 132.64 445.568 Q130.834 442.003 127.2 442.003 M127.2 438.299 Q133.01 438.299 136.066 442.906 Q139.144 447.489 139.144 456.239 Q139.144 464.966 136.066 469.572 Q133.01 474.156 127.2 474.156 Q121.39 474.156 118.311 469.572 Q115.256 464.966 115.256 456.239 Q115.256 447.489 118.311 442.906 Q121.39 438.299 127.2 438.299 Z" fill="#000000" fill-rule="nonzero" fill-opacity="1" /><path clip-path="url(#clip810)" d="M147.362 467.605 L152.246 467.605 L152.246 473.484 L147.362 473.484 L147.362 467.605 Z" fill="#000000" fill-rule="nonzero" fill-opacity="1" /><path clip-path="url(#clip810)" d="M161.251 438.924 L183.473 438.924 L183.473 440.915 L170.927 473.484 L166.042 473.484 L177.848 442.86 L161.251 442.86 L161.251 438.924 Z" fill="#000000" fill-rule="nonzero" fill-opacity="1" /><path clip-path="url(#clip810)" d="M192.639 438.924 L210.996 438.924 L210.996 442.86 L196.922 442.86 L196.922 451.332 Q197.94 450.984 198.959 450.822 Q199.977 450.637 200.996 450.637 Q206.783 450.637 210.162 453.809 Q213.542 456.98 213.542 462.396 Q213.542 467.975 210.07 471.077 Q206.598 474.156 200.278 474.156 Q198.102 474.156 195.834 473.785 Q193.588 473.415 191.181 472.674 L191.181 467.975 Q193.264 469.109 195.487 469.665 Q197.709 470.22 200.186 470.22 Q204.19 470.22 206.528 468.114 Q208.866 466.008 208.866 462.396 Q208.866 458.785 206.528 456.679 Q204.19 454.572 200.186 454.572 Q198.311 454.572 196.436 454.989 Q194.584 455.406 192.639 456.285 L192.639 438.924 Z" fill="#000000" fill-rule="nonzero" fill-opacity="1" /><path clip-path="url(#clip810)" d="M117.015 205.25 L124.654 205.25 L124.654 178.885 L116.343 180.551 L116.343 176.292 L124.607 174.625 L129.283 174.625 L129.283 205.25 L136.922 205.25 L136.922 209.185 L117.015 209.185 L117.015 205.25 Z" fill="#000000" fill-rule="nonzero" fill-opacity="1" /><path clip-path="url(#clip810)" d="M146.366 203.306 L151.251 203.306 L151.251 209.185 L146.366 209.185 L146.366 203.306 Z" fill="#000000" fill-rule="nonzero" fill-opacity="1" /><path clip-path="url(#clip810)" d="M171.436 177.704 Q167.825 177.704 165.996 181.269 Q164.19 184.81 164.19 191.94 Q164.19 199.046 165.996 202.611 Q167.825 206.153 171.436 206.153 Q175.07 206.153 176.876 202.611 Q178.704 199.046 178.704 191.94 Q178.704 184.81 176.876 181.269 Q175.07 177.704 171.436 177.704 M171.436 174 Q177.246 174 180.301 178.607 Q183.38 183.19 183.38 191.94 Q183.38 200.667 180.301 205.273 Q177.246 209.857 171.436 209.857 Q165.626 209.857 162.547 205.273 Q159.491 200.667 159.491 191.94 Q159.491 183.19 162.547 178.607 Q165.626 174 171.436 174 Z" fill="#000000" fill-rule="nonzero" fill-opacity="1" /><path clip-path="url(#clip810)" d="M201.598 177.704 Q197.987 177.704 196.158 181.269 Q194.352 184.81 194.352 191.94 Q194.352 199.046 196.158 202.611 Q197.987 206.153 201.598 206.153 Q205.232 206.153 207.037 202.611 Q208.866 199.046 208.866 191.94 Q208.866 184.81 207.037 181.269 Q205.232 177.704 201.598 177.704 M201.598 174 Q207.408 174 210.463 178.607 Q213.542 183.19 213.542 191.94 Q213.542 200.667 210.463 205.273 Q207.408 209.857 201.598 209.857 Q195.787 209.857 192.709 205.273 Q189.653 200.667 189.653 191.94 Q189.653 183.19 192.709 178.607 Q195.787 174 201.598 174 Z" fill="#000000" fill-rule="nonzero" fill-opacity="1" /><path clip-path="url(#clip810)" d="M29.7248 721.112 L35.1993 721.112 Q33.8307 723.595 33.1623 726.109 Q32.4621 728.592 32.4621 731.138 Q32.4621 736.835 36.0905 739.986 Q39.6872 743.137 46.212 743.137 Q52.7369 743.137 56.3653 739.986 Q59.9619 736.835 59.9619 731.138 Q59.9619 728.592 59.2935 726.109 Q58.5933 723.595 57.2247 721.112 L62.6355 721.112 Q63.7814 723.563 64.3543 726.204 Q64.9272 728.814 64.9272 731.774 Q64.9272 739.827 59.8664 744.57 Q54.8057 749.312 46.212 749.312 Q37.491 749.312 32.4939 744.538 Q27.4968 739.732 27.4968 731.393 Q27.4968 728.687 28.0697 726.109 Q28.6108 723.531 29.7248 721.112 Z" fill="#000000" fill-rule="nonzero" fill-opacity="1" /><polyline clip-path="url(#clip811)" style="stroke:#009af9; stroke-linecap:round; stroke-linejoin:round; stroke-width:4; stroke-opacity:1; fill:none" points="1575.01,156.665 1556.5,174.621 1537.98,192.576 1521.78,208.288 1507.89,221.754 1491.69,237.466 1477.8,250.932 1470.86,257.666 1452.34,275.621 1433.97,293.436 1415.45,311.392 1396.93,329.347 1378.42,347.303 1362.21,363.014 1343.7,380.97 1325.18,398.926 1306.66,416.881 1288.15,434.837 1269.63,452.792 1251.11,470.748 1232.6,488.703 1214.08,506.659 1195.56,524.615 1177.04,542.57 1158.53,560.526 1140.01,578.481 1121.49,596.437 1102.98,614.393 1084.46,632.348 1065.94,650.304 1047.43,668.259 1028.91,686.215 1010.39,704.171 991.876,722.126 973.359,740.082 954.843,758.037 936.326,775.993 917.809,793.948 899.292,811.904 880.775,829.86 862.258,847.815 843.741,865.771 825.225,883.726 806.708,901.682 788.191,919.638 769.674,937.593 751.157,955.549 732.64,973.504 714.123,991.46 695.606,1009.42 677.09,1027.37 658.573,1045.33 640.056,1063.28 621.539,1081.24 603.022,1099.19 584.505,1117.15 565.988,1135.1 547.472,1153.06 528.955,1171.02 510.438,1188.97 491.921,1206.93 473.404,1224.88 454.887,1242.84 436.37,1260.79 417.854,1278.75 401.651,1294.46 383.134,1312.42 364.618,1330.37 346.101,1348.33 327.584,1366.28 309.067,1384.24 "/>
<circle clip-path="url(#clip811)" cx="1521.78" cy="208.288" r="10.8" fill="#eec591" fill-rule="evenodd" fill-opacity="1" stroke="none"/>
<circle clip-path="url(#clip811)" cx="1507.89" cy="221.754" r="10.8" fill="#eec591" fill-rule="evenodd" fill-opacity="1" stroke="none"/>
<circle clip-path="url(#clip811)" cx="1491.69" cy="237.466" r="10.8" fill="#eec591" fill-rule="evenodd" fill-opacity="1" stroke="none"/>
<circle clip-path="url(#clip811)" cx="1477.8" cy="250.932" r="10.8" fill="#eec591" fill-rule="evenodd" fill-opacity="1" stroke="none"/>
<circle clip-path="url(#clip811)" cx="1470.86" cy="257.666" r="10.8" fill="#eec591" fill-rule="evenodd" fill-opacity="1" stroke="none"/>
<circle clip-path="url(#clip811)" cx="1433.97" cy="293.436" r="10.8" fill="#eec591" fill-rule="evenodd" fill-opacity="1" stroke="none"/>
<circle clip-path="url(#clip811)" cx="1362.21" cy="363.014" r="10.8" fill="#eec591" fill-rule="evenodd" fill-opacity="1" stroke="none"/>
<circle clip-path="url(#clip811)" cx="401.651" cy="1294.46" r="10.8" fill="#eec591" fill-rule="evenodd" fill-opacity="1" stroke="none"/>
<circle clip-path="url(#clip811)" cx="1521.78" cy="208.288" r="10.8" fill="#eec591" fill-rule="evenodd" fill-opacity="1" stroke="none"/>
<polyline clip-path="url(#clip811)" style="stroke:#c271d2; stroke-linecap:round; stroke-linejoin:round; stroke-width:4; stroke-opacity:1; fill:none" points="2290.53,1354.82 2290.65,1353.76 2292.06,1338.81 2292.91,1323.87 2293.23,1308.93 2293.01,1293.98 2292.25,1279.04 2290.96,1264.1 2289.15,1249.16 2289.03,1248.34 2286.67,1233.4 2283.79,1218.47 2280.4,1203.54 2276.5,1188.62 2272.1,1173.7 2267.2,1158.79 2261.81,1143.89 2255.94,1128.99 2249.58,1114.11 2242.75,1099.23 2235.44,1084.36 2227.68,1069.5 2219.45,1054.65 2210.77,1039.81 2201.65,1024.98 2192.08,1010.17 2182.08,995.367 2171.65,980.577 2160.79,965.799 2149.52,951.035 2137.83,936.284 2125.75,921.547 2113.26,906.824 2100.38,892.115 2087.11,877.421 2073.46,862.742 2059.44,848.077 2045.05,833.428 2030.3,818.793 2015.19,804.174 1999.74,789.57 1983.94,774.982 1967.8,760.41 1951.34,745.853 1934.55,731.311 1917.44,716.786 1900.02,702.276 1882.29,687.782 1864.26,673.303 1845.94,658.84 1827.33,644.392 1813.19,633.567 1794.09,619.146 1774.72,604.74 1755.09,590.35 1735.2,575.975 1715.05,561.615 1694.65,547.269 1674.02,532.938 1653.15,518.622 1632.05,504.319 1610.72,490.031 1589.18,475.757 1567.42,461.496 1545.46,447.248 1523.29,433.014 1520.85,431.458 1498.47,417.238 1475.9,403.031 1453.14,388.836 1430.2,374.653 1407.09,360.483 1383.81,346.324 1381.07,344.665 1357.61,330.519 1334,316.383 1325.1,311.085 1301.28,296.965 1277.31,282.854 1253.2,268.754 1228.95,254.663 1204.58,240.582 1180.08,226.51 1167.78,219.477 1167.78,219.477 1143.11,205.418 1118.32,191.368 1093.42,177.325 1084.06,172.061 1059.03,158.029 1033.89,144.004 1008.67,129.986 983.359,115.974 957.967,101.969 932.496,87.9698 929.244,86.1857 "/>
<circle clip-path="url(#clip811)" cx="2289.15" cy="1249.16" r="10.8" fill="#008000" fill-rule="evenodd" fill-opacity="1" stroke="none"/>
<circle clip-path="url(#clip811)" cx="1813.19" cy="633.567" r="10.8" fill="#a52a2a" fill-rule="evenodd" fill-opacity="1" stroke="none"/>
<circle clip-path="url(#clip811)" cx="1520.85" cy="431.458" r="10.8" fill="#008000" fill-rule="evenodd" fill-opacity="1" stroke="none"/>
<circle clip-path="url(#clip811)" cx="1381.07" cy="344.665" r="10.8" fill="#eec591" fill-rule="evenodd" fill-opacity="1" stroke="none"/>
<circle clip-path="url(#clip811)" cx="1325.1" cy="311.085" r="10.8" fill="#008000" fill-rule="evenodd" fill-opacity="1" stroke="none"/>
<circle clip-path="url(#clip811)" cx="1167.78" cy="219.477" r="10.8" fill="#008000" fill-rule="evenodd" fill-opacity="1" stroke="none"/>
<circle clip-path="url(#clip811)" cx="1167.78" cy="219.477" r="10.8" fill="#008000" fill-rule="evenodd" fill-opacity="1" stroke="none"/>
<circle clip-path="url(#clip811)" cx="1084.06" cy="172.061" r="10.8" fill="#008000" fill-rule="evenodd" fill-opacity="1" stroke="none"/>
<circle clip-path="url(#clip811)" cx="2289.15" cy="1249.16" r="10.8" fill="#008000" fill-rule="evenodd" fill-opacity="1" stroke="none"/>
<circle clip-path="url(#clip811)" cx="1813.19" cy="633.567" r="10.8" fill="#a52a2a" fill-rule="evenodd" fill-opacity="1" stroke="none"/>
<circle clip-path="url(#clip811)" cx="1381.07" cy="344.665" r="10.8" fill="#eec591" fill-rule="evenodd" fill-opacity="1" stroke="none"/>
<polyline clip-path="url(#clip811)" style="stroke:#00a98d; stroke-linecap:round; stroke-linejoin:round; stroke-width:4; stroke-opacity:1; fill:none" points="592.927,86.1857 630.574,97.8021 670.502,110.28 710.06,122.808 710.06,122.808 739.482,132.237 766.266,140.905 804.9,153.555 843.146,166.255 881,179.005 918.456,191.804 955.509,204.653 992.153,217.552 1028.38,230.501 1064.2,243.498 1099.59,256.545 1134.54,269.641 1169.07,282.786 1203.16,295.979 1236.8,309.22 1269.99,322.51 1302.73,335.847 1331.94,347.949 1363.79,361.376 1369.47,363.794 1400.77,377.276 1431.6,390.805 1461.94,404.38 1491.81,418.001 1521.18,431.666 1536.57,438.941 1565.19,452.674 1593.3,466.452 1620.9,480.273 1647.99,494.136 1674.57,508.042 1700.62,521.99 1726.16,535.978 1751.16,550.007 1775.63,564.076 1799.57,578.184 1822.96,592.33 1838.73,602.077 1861.21,616.286 1883.14,630.532 1904.51,644.813 1925.33,659.128 1945.59,673.478 1965.29,687.861 1984.42,702.276 2002.99,716.722 2020.98,731.199 2038.41,745.706 2055.26,760.241 2071.54,774.804 2087.25,789.393 2102.37,804.009 2116.92,818.649 2130.88,833.314 2144.27,848.001 2157.07,862.71 2169.3,877.441 2180.94,892.191 2192,906.96 2202.48,921.747 2212.37,936.551 2221.69,951.371 2230.43,966.206 2238.59,981.055 2246.17,995.917 2253.18,1010.79 2259.62,1025.68 2265.48,1040.57 2270.77,1055.48 2275.5,1070.39 2279.66,1085.31 2283.26,1100.23 2286.3,1115.16 2288.79,1130.1 2290.72,1145.04 2292.1,1159.98 2292.94,1174.92 2293.23,1189.87 2292.99,1204.81 2292.21,1219.75 2290.9,1234.7 2289.14,1249.11 2286.8,1264.05 2283.95,1278.98 2280.58,1293.91 2276.71,1308.83 2272.33,1323.75 2267.46,1338.66 2262.1,1353.56 2261.62,1354.82 "/>
<circle clip-path="url(#clip811)" cx="710.06" cy="122.808" r="10.8" fill="#008000" fill-rule="evenodd" fill-opacity="1" stroke="none"/>
<circle clip-path="url(#clip811)" cx="710.06" cy="122.808" r="10.8" fill="#008000" fill-rule="evenodd" fill-opacity="1" stroke="none"/>
<circle clip-path="url(#clip811)" cx="739.482" cy="132.237" r="10.8" fill="#ff00ff" fill-rule="evenodd" fill-opacity="1" stroke="none"/>
<circle clip-path="url(#clip811)" cx="1302.73" cy="335.847" r="10.8" fill="#008000" fill-rule="evenodd" fill-opacity="1" stroke="none"/>
<circle clip-path="url(#clip811)" cx="1363.79" cy="361.376" r="10.8" fill="#eec591" fill-rule="evenodd" fill-opacity="1" stroke="none"/>
<circle clip-path="url(#clip811)" cx="1521.18" cy="431.666" r="10.8" fill="#008000" fill-rule="evenodd" fill-opacity="1" stroke="none"/>
<circle clip-path="url(#clip811)" cx="1822.96" cy="592.33" r="10.8" fill="#a52a2a" fill-rule="evenodd" fill-opacity="1" stroke="none"/>
<circle clip-path="url(#clip811)" cx="2289.14" cy="1249.11" r="10.8" fill="#008000" fill-rule="evenodd" fill-opacity="1" stroke="none"/>
<circle clip-path="url(#clip811)" cx="710.06" cy="122.808" r="10.8" fill="#008000" fill-rule="evenodd" fill-opacity="1" stroke="none"/>
<circle clip-path="url(#clip811)" cx="739.482" cy="132.237" r="10.8" fill="#ff00ff" fill-rule="evenodd" fill-opacity="1" stroke="none"/>
<circle clip-path="url(#clip811)" cx="1363.79" cy="361.376" r="10.8" fill="#eec591" fill-rule="evenodd" fill-opacity="1" stroke="none"/>
<circle clip-path="url(#clip811)" cx="1822.96" cy="592.33" r="10.8" fill="#a52a2a" fill-rule="evenodd" fill-opacity="1" stroke="none"/>
<path clip-path="url(#clip810)" d="M1751.4 715.189 L2282.65 715.189 L2282.65 93.1086 L1751.4 93.1086  Z" fill="#ffffff" fill-rule="evenodd" fill-opacity="1"/>
<polyline clip-path="url(#clip810)" style="stroke:#000000; stroke-linecap:round; stroke-linejoin:round; stroke-width:4; stroke-opacity:1; fill:none" points="1751.4,715.189 2282.65,715.189 2282.65,93.1086 1751.4,93.1086 1751.4,715.189 "/>
<polyline clip-path="url(#clip810)" style="stroke:#009af9; stroke-linecap:round; stroke-linejoin:round; stroke-width:4; stroke-opacity:1; fill:none" points="1774.77,144.949 1914.99,144.949 "/>
<path clip-path="url(#clip810)" d="M1943.03 145.724 L1943.03 158.386 L1950.53 158.386 Q1954.3 158.386 1956.11 156.835 Q1957.94 155.261 1957.94 152.043 Q1957.94 148.803 1956.11 147.275 Q1954.3 145.724 1950.53 145.724 L1943.03 145.724 M1943.03 131.511 L1943.03 141.928 L1949.95 141.928 Q1953.38 141.928 1955.05 140.655 Q1956.74 139.358 1956.74 136.719 Q1956.74 134.104 1955.05 132.807 Q1953.38 131.511 1949.95 131.511 L1943.03 131.511 M1938.36 127.669 L1950.3 127.669 Q1955.65 127.669 1958.54 129.891 Q1961.43 132.113 1961.43 136.21 Q1961.43 139.382 1959.95 141.257 Q1958.47 143.131 1955.6 143.594 Q1959.05 144.335 1960.95 146.696 Q1962.87 149.034 1962.87 152.553 Q1962.87 157.182 1959.72 159.705 Q1956.57 162.229 1950.76 162.229 L1938.36 162.229 L1938.36 127.669 Z" fill="#000000" fill-rule="nonzero" fill-opacity="1" /><path clip-path="url(#clip810)" d="M1985.72 140.284 Q1985 139.868 1984.14 139.682 Q1983.31 139.474 1982.29 139.474 Q1978.68 139.474 1976.73 141.835 Q1974.81 144.173 1974.81 148.571 L1974.81 162.229 L1970.53 162.229 L1970.53 136.303 L1974.81 136.303 L1974.81 140.331 Q1976.16 137.969 1978.31 136.835 Q1980.46 135.678 1983.54 135.678 Q1983.98 135.678 1984.51 135.747 Q1985.05 135.794 1985.69 135.909 L1985.72 140.284 Z" fill="#000000" fill-rule="nonzero" fill-opacity="1" /><path clip-path="url(#clip810)" d="M2001.97 149.196 Q1996.8 149.196 1994.81 150.377 Q1992.82 151.557 1992.82 154.405 Q1992.82 156.673 1994.3 158.016 Q1995.81 159.335 1998.38 159.335 Q2001.92 159.335 2004.05 156.835 Q2006.2 154.312 2006.2 150.145 L2006.2 149.196 L2001.97 149.196 M2010.46 147.437 L2010.46 162.229 L2006.2 162.229 L2006.2 158.293 Q2004.74 160.655 2002.57 161.789 Q2000.39 162.9 1997.24 162.9 Q1993.26 162.9 1990.9 160.678 Q1988.56 158.432 1988.56 154.682 Q1988.56 150.307 1991.48 148.085 Q1994.42 145.863 2000.23 145.863 L2006.2 145.863 L2006.2 145.446 Q2006.2 142.507 2004.26 140.909 Q2002.34 139.289 1998.84 139.289 Q1996.62 139.289 1994.51 139.821 Q1992.41 140.354 1990.46 141.419 L1990.46 137.483 Q1992.8 136.581 1995 136.141 Q1997.2 135.678 1999.28 135.678 Q2004.91 135.678 2007.68 138.594 Q2010.46 141.511 2010.46 147.437 Z" fill="#000000" fill-rule="nonzero" fill-opacity="1" /><path clip-path="url(#clip810)" d="M2040.79 146.581 L2040.79 162.229 L2036.53 162.229 L2036.53 146.719 Q2036.53 143.039 2035.09 141.21 Q2033.66 139.382 2030.79 139.382 Q2027.34 139.382 2025.35 141.581 Q2023.36 143.78 2023.36 147.576 L2023.36 162.229 L2019.07 162.229 L2019.07 136.303 L2023.36 136.303 L2023.36 140.331 Q2024.88 137.993 2026.94 136.835 Q2029.03 135.678 2031.73 135.678 Q2036.2 135.678 2038.49 138.456 Q2040.79 141.21 2040.79 146.581 Z" fill="#000000" fill-rule="nonzero" fill-opacity="1" /><path clip-path="url(#clip810)" d="M2067.94 137.298 L2067.94 141.28 Q2066.13 140.284 2064.3 139.798 Q2062.5 139.289 2060.65 139.289 Q2056.5 139.289 2054.21 141.928 Q2051.92 144.544 2051.92 149.289 Q2051.92 154.034 2054.21 156.673 Q2056.5 159.289 2060.65 159.289 Q2062.5 159.289 2064.3 158.803 Q2066.13 158.293 2067.94 157.298 L2067.94 161.233 Q2066.16 162.067 2064.23 162.483 Q2062.34 162.9 2060.18 162.9 Q2054.33 162.9 2050.88 159.219 Q2047.43 155.539 2047.43 149.289 Q2047.43 142.946 2050.9 139.312 Q2054.4 135.678 2060.46 135.678 Q2062.43 135.678 2064.3 136.095 Q2066.18 136.488 2067.94 137.298 Z" fill="#000000" fill-rule="nonzero" fill-opacity="1" /><path clip-path="url(#clip810)" d="M2096.9 146.581 L2096.9 162.229 L2092.64 162.229 L2092.64 146.719 Q2092.64 143.039 2091.2 141.21 Q2089.77 139.382 2086.9 139.382 Q2083.45 139.382 2081.46 141.581 Q2079.47 143.78 2079.47 147.576 L2079.47 162.229 L2075.18 162.229 L2075.18 126.21 L2079.47 126.21 L2079.47 140.331 Q2080.99 137.993 2083.05 136.835 Q2085.14 135.678 2087.85 135.678 Q2092.31 135.678 2094.6 138.456 Q2096.9 141.21 2096.9 146.581 Z" fill="#000000" fill-rule="nonzero" fill-opacity="1" /><path clip-path="url(#clip810)" d="M2124.58 158.34 L2124.58 172.09 L2120.3 172.09 L2120.3 136.303 L2124.58 136.303 L2124.58 140.238 Q2125.92 137.923 2127.96 136.812 Q2130.02 135.678 2132.87 135.678 Q2137.59 135.678 2140.53 139.428 Q2143.49 143.178 2143.49 149.289 Q2143.49 155.4 2140.53 159.15 Q2137.59 162.9 2132.87 162.9 Q2130.02 162.9 2127.96 161.789 Q2125.92 160.655 2124.58 158.34 M2139.07 149.289 Q2139.07 144.59 2137.13 141.928 Q2135.21 139.243 2131.83 139.243 Q2128.45 139.243 2126.5 141.928 Q2124.58 144.59 2124.58 149.289 Q2124.58 153.988 2126.5 156.673 Q2128.45 159.335 2131.83 159.335 Q2135.21 159.335 2137.13 156.673 Q2139.07 153.988 2139.07 149.289 Z" fill="#000000" fill-rule="nonzero" fill-opacity="1" /><path clip-path="url(#clip810)" d="M2160.6 139.289 Q2157.17 139.289 2155.18 141.974 Q2153.19 144.636 2153.19 149.289 Q2153.19 153.942 2155.16 156.627 Q2157.15 159.289 2160.6 159.289 Q2164 159.289 2165.99 156.604 Q2167.98 153.918 2167.98 149.289 Q2167.98 144.682 2165.99 141.997 Q2164 139.289 2160.6 139.289 M2160.6 135.678 Q2166.16 135.678 2169.33 139.289 Q2172.5 142.9 2172.5 149.289 Q2172.5 155.655 2169.33 159.289 Q2166.16 162.9 2160.6 162.9 Q2155.02 162.9 2151.85 159.289 Q2148.7 155.655 2148.7 149.289 Q2148.7 142.9 2151.85 139.289 Q2155.02 135.678 2160.6 135.678 Z" fill="#000000" fill-rule="nonzero" fill-opacity="1" /><path clip-path="url(#clip810)" d="M2179.56 136.303 L2183.82 136.303 L2183.82 162.229 L2179.56 162.229 L2179.56 136.303 M2179.56 126.21 L2183.82 126.21 L2183.82 131.604 L2179.56 131.604 L2179.56 126.21 Z" fill="#000000" fill-rule="nonzero" fill-opacity="1" /><path clip-path="url(#clip810)" d="M2214.28 146.581 L2214.28 162.229 L2210.02 162.229 L2210.02 146.719 Q2210.02 143.039 2208.59 141.21 Q2207.15 139.382 2204.28 139.382 Q2200.83 139.382 2198.84 141.581 Q2196.85 143.78 2196.85 147.576 L2196.85 162.229 L2192.57 162.229 L2192.57 136.303 L2196.85 136.303 L2196.85 140.331 Q2198.38 137.993 2200.44 136.835 Q2202.52 135.678 2205.23 135.678 Q2209.7 135.678 2211.99 138.456 Q2214.28 141.21 2214.28 146.581 Z" fill="#000000" fill-rule="nonzero" fill-opacity="1" /><path clip-path="url(#clip810)" d="M2226.99 128.942 L2226.99 136.303 L2235.76 136.303 L2235.76 139.613 L2226.99 139.613 L2226.99 153.687 Q2226.99 156.858 2227.84 157.761 Q2228.72 158.664 2231.39 158.664 L2235.76 158.664 L2235.76 162.229 L2231.39 162.229 Q2226.46 162.229 2224.58 160.4 Q2222.71 158.548 2222.71 153.687 L2222.71 139.613 L2219.58 139.613 L2219.58 136.303 L2222.71 136.303 L2222.71 128.942 L2226.99 128.942 Z" fill="#000000" fill-rule="nonzero" fill-opacity="1" /><path clip-path="url(#clip810)" d="M2257.89 137.067 L2257.89 141.094 Q2256.09 140.169 2254.14 139.706 Q2252.2 139.243 2250.11 139.243 Q2246.94 139.243 2245.34 140.215 Q2243.77 141.187 2243.77 143.131 Q2243.77 144.613 2244.9 145.469 Q2246.04 146.303 2249.46 147.067 L2250.92 147.391 Q2255.46 148.363 2257.36 150.145 Q2259.28 151.905 2259.28 155.076 Q2259.28 158.687 2256.41 160.793 Q2253.56 162.9 2248.56 162.9 Q2246.48 162.9 2244.21 162.483 Q2241.97 162.09 2239.47 161.28 L2239.47 156.881 Q2241.83 158.108 2244.12 158.733 Q2246.41 159.335 2248.65 159.335 Q2251.66 159.335 2253.28 158.317 Q2254.9 157.275 2254.9 155.4 Q2254.9 153.664 2253.72 152.738 Q2252.57 151.812 2248.61 150.956 L2247.13 150.608 Q2243.17 149.775 2241.41 148.062 Q2239.65 146.326 2239.65 143.317 Q2239.65 139.659 2242.24 137.669 Q2244.84 135.678 2249.6 135.678 Q2251.96 135.678 2254.05 136.025 Q2256.13 136.372 2257.89 137.067 Z" fill="#000000" fill-rule="nonzero" fill-opacity="1" /><circle clip-path="url(#clip810)" cx="1844.88" cy="196.789" r="23.04" fill="#eec591" fill-rule="evenodd" fill-opacity="1" stroke="none"/>
<path clip-path="url(#clip810)" d="M1938.93 188.143 L1959.17 188.143 L1959.17 192.032 L1943.15 210.666 L1959.17 210.666 L1959.17 214.069 L1938.36 214.069 L1938.36 210.18 L1954.37 191.546 L1938.93 191.546 L1938.93 188.143 Z" fill="#000000" fill-rule="nonzero" fill-opacity="1" /><path clip-path="url(#clip810)" d="M1987.22 198.421 L1987.22 214.069 L1982.96 214.069 L1982.96 198.559 Q1982.96 194.879 1981.53 193.05 Q1980.09 191.222 1977.22 191.222 Q1973.77 191.222 1971.78 193.421 Q1969.79 195.62 1969.79 199.416 L1969.79 214.069 L1965.51 214.069 L1965.51 178.05 L1969.79 178.05 L1969.79 192.171 Q1971.32 189.833 1973.38 188.675 Q1975.46 187.518 1978.17 187.518 Q1982.64 187.518 1984.93 190.296 Q1987.22 193.05 1987.22 198.421 Z" fill="#000000" fill-rule="nonzero" fill-opacity="1" /><polyline clip-path="url(#clip810)" style="stroke:#c271d2; stroke-linecap:round; stroke-linejoin:round; stroke-width:4; stroke-opacity:1; fill:none" points="1774.77,248.629 1914.99,248.629 "/>
<path clip-path="url(#clip810)" d="M1938.36 231.349 L1943.03 231.349 L1943.03 245.515 L1960.02 245.515 L1960.02 231.349 L1964.7 231.349 L1964.7 265.909 L1960.02 265.909 L1960.02 249.45 L1943.03 249.45 L1943.03 265.909 L1938.36 265.909 L1938.36 231.349 Z" fill="#000000" fill-rule="nonzero" fill-opacity="1" /><path clip-path="url(#clip810)" d="M1983.86 242.969 Q1980.44 242.969 1978.45 245.654 Q1976.46 248.316 1976.46 252.969 Q1976.46 257.622 1978.42 260.307 Q1980.42 262.969 1983.86 262.969 Q1987.27 262.969 1989.26 260.284 Q1991.25 257.598 1991.25 252.969 Q1991.25 248.362 1989.26 245.677 Q1987.27 242.969 1983.86 242.969 M1983.86 239.358 Q1989.42 239.358 1992.59 242.969 Q1995.76 246.58 1995.76 252.969 Q1995.76 259.335 1992.59 262.969 Q1989.42 266.58 1983.86 266.58 Q1978.29 266.58 1975.11 262.969 Q1971.97 259.335 1971.97 252.969 Q1971.97 246.58 1975.11 242.969 Q1978.29 239.358 1983.86 239.358 Z" fill="#000000" fill-rule="nonzero" fill-opacity="1" /><path clip-path="url(#clip810)" d="M2006.94 262.02 L2006.94 275.77 L2002.66 275.77 L2002.66 239.983 L2006.94 239.983 L2006.94 243.918 Q2008.29 241.603 2010.32 240.492 Q2012.38 239.358 2015.23 239.358 Q2019.95 239.358 2022.89 243.108 Q2025.86 246.858 2025.86 252.969 Q2025.86 259.08 2022.89 262.83 Q2019.95 266.58 2015.23 266.58 Q2012.38 266.58 2010.32 265.469 Q2008.29 264.335 2006.94 262.02 M2021.43 252.969 Q2021.43 248.27 2019.49 245.608 Q2017.57 242.923 2014.19 242.923 Q2010.81 242.923 2008.86 245.608 Q2006.94 248.27 2006.94 252.969 Q2006.94 257.668 2008.86 260.353 Q2010.81 263.015 2014.19 263.015 Q2017.57 263.015 2019.49 260.353 Q2021.43 257.668 2021.43 252.969 Z" fill="#000000" fill-rule="nonzero" fill-opacity="1" /><path clip-path="url(#clip810)" d="M2046.04 229.89 L2046.04 233.432 L2041.97 233.432 Q2039.67 233.432 2038.77 234.358 Q2037.89 235.284 2037.89 237.691 L2037.89 239.983 L2044.91 239.983 L2044.91 243.293 L2037.89 243.293 L2037.89 265.909 L2033.61 265.909 L2033.61 243.293 L2029.54 243.293 L2029.54 239.983 L2033.61 239.983 L2033.61 238.177 Q2033.61 233.849 2035.62 231.881 Q2037.64 229.89 2042.01 229.89 L2046.04 229.89 Z" fill="#000000" fill-rule="nonzero" fill-opacity="1" /><circle clip-path="url(#clip810)" cx="1844.88" cy="300.469" r="23.04" fill="#008000" fill-rule="evenodd" fill-opacity="1" stroke="none"/>
<path clip-path="url(#clip810)" d="M1960.07 302.101 L1960.07 317.749 L1955.81 317.749 L1955.81 302.239 Q1955.81 298.559 1954.37 296.73 Q1952.94 294.902 1950.07 294.902 Q1946.62 294.902 1944.63 297.101 Q1942.64 299.3 1942.64 303.096 L1942.64 317.749 L1938.36 317.749 L1938.36 281.73 L1942.64 281.73 L1942.64 295.851 Q1944.17 293.513 1946.23 292.355 Q1948.31 291.198 1951.02 291.198 Q1955.49 291.198 1957.78 293.976 Q1960.07 296.73 1960.07 302.101 Z" fill="#000000" fill-rule="nonzero" fill-opacity="1" /><path clip-path="url(#clip810)" d="M1990.11 302.101 L1990.11 317.749 L1985.86 317.749 L1985.86 302.239 Q1985.86 298.559 1984.42 296.73 Q1982.98 294.902 1980.11 294.902 Q1976.67 294.902 1974.67 297.101 Q1972.68 299.3 1972.68 303.096 L1972.68 317.749 L1968.4 317.749 L1968.4 281.73 L1972.68 281.73 L1972.68 295.851 Q1974.21 293.513 1976.27 292.355 Q1978.36 291.198 1981.06 291.198 Q1985.53 291.198 1987.82 293.976 Q1990.11 296.73 1990.11 302.101 Z" fill="#000000" fill-rule="nonzero" fill-opacity="1" /><circle clip-path="url(#clip810)" cx="1844.88" cy="352.309" r="23.04" fill="#a52a2a" fill-rule="evenodd" fill-opacity="1" stroke="none"/>
<path clip-path="url(#clip810)" d="M1957.27 356.325 Q1957.27 351.695 1955.35 349.149 Q1953.45 346.603 1950 346.603 Q1946.57 346.603 1944.65 349.149 Q1942.75 351.695 1942.75 356.325 Q1942.75 360.931 1944.65 363.478 Q1946.57 366.024 1950 366.024 Q1953.45 366.024 1955.35 363.478 Q1957.27 360.931 1957.27 356.325 M1961.53 366.371 Q1961.53 372.991 1958.59 376.209 Q1955.65 379.45 1949.58 379.45 Q1947.34 379.45 1945.35 379.102 Q1943.36 378.778 1941.48 378.084 L1941.48 373.94 Q1943.36 374.959 1945.18 375.445 Q1947.01 375.931 1948.91 375.931 Q1953.1 375.931 1955.18 373.732 Q1957.27 371.556 1957.27 367.135 L1957.27 365.028 Q1955.95 367.32 1953.89 368.454 Q1951.83 369.589 1948.96 369.589 Q1944.19 369.589 1941.27 365.954 Q1938.36 362.32 1938.36 356.325 Q1938.36 350.306 1941.27 346.672 Q1944.19 343.038 1948.96 343.038 Q1951.83 343.038 1953.89 344.172 Q1955.95 345.306 1957.27 347.598 L1957.27 343.663 L1961.53 343.663 L1961.53 366.371 Z" fill="#000000" fill-rule="nonzero" fill-opacity="1" /><path clip-path="url(#clip810)" d="M1991.85 353.941 L1991.85 369.589 L1987.59 369.589 L1987.59 354.079 Q1987.59 350.399 1986.16 348.57 Q1984.72 346.742 1981.85 346.742 Q1978.4 346.742 1976.41 348.941 Q1974.42 351.14 1974.42 354.936 L1974.42 369.589 L1970.14 369.589 L1970.14 333.57 L1974.42 333.57 L1974.42 347.691 Q1975.95 345.353 1978.01 344.195 Q1980.09 343.038 1982.8 343.038 Q1987.27 343.038 1989.56 345.816 Q1991.85 348.57 1991.85 353.941 Z" fill="#000000" fill-rule="nonzero" fill-opacity="1" /><circle clip-path="url(#clip810)" cx="1844.88" cy="404.149" r="23.04" fill="#eec591" fill-rule="evenodd" fill-opacity="1" stroke="none"/>
<path clip-path="url(#clip810)" d="M1938.93 395.503 L1959.17 395.503 L1959.17 399.392 L1943.15 418.026 L1959.17 418.026 L1959.17 421.429 L1938.36 421.429 L1938.36 417.54 L1954.37 398.906 L1938.93 398.906 L1938.93 395.503 Z" fill="#000000" fill-rule="nonzero" fill-opacity="1" /><path clip-path="url(#clip810)" d="M1987.22 405.781 L1987.22 421.429 L1982.96 421.429 L1982.96 405.919 Q1982.96 402.239 1981.53 400.41 Q1980.09 398.582 1977.22 398.582 Q1973.77 398.582 1971.78 400.781 Q1969.79 402.98 1969.79 406.776 L1969.79 421.429 L1965.51 421.429 L1965.51 385.41 L1969.79 385.41 L1969.79 399.531 Q1971.32 397.193 1973.38 396.035 Q1975.46 394.878 1978.17 394.878 Q1982.64 394.878 1984.93 397.656 Q1987.22 400.41 1987.22 405.781 Z" fill="#000000" fill-rule="nonzero" fill-opacity="1" /><polyline clip-path="url(#clip810)" style="stroke:#00a98d; stroke-linecap:round; stroke-linejoin:round; stroke-width:4; stroke-opacity:1; fill:none" points="1774.77,455.989 1914.99,455.989 "/>
<path clip-path="url(#clip810)" d="M1938.36 438.709 L1943.03 438.709 L1943.03 452.875 L1960.02 452.875 L1960.02 438.709 L1964.7 438.709 L1964.7 473.269 L1960.02 473.269 L1960.02 456.81 L1943.03 456.81 L1943.03 473.269 L1938.36 473.269 L1938.36 438.709 Z" fill="#000000" fill-rule="nonzero" fill-opacity="1" /><path clip-path="url(#clip810)" d="M1983.86 450.329 Q1980.44 450.329 1978.45 453.014 Q1976.46 455.676 1976.46 460.329 Q1976.46 464.982 1978.42 467.667 Q1980.42 470.329 1983.86 470.329 Q1987.27 470.329 1989.26 467.644 Q1991.25 464.958 1991.25 460.329 Q1991.25 455.722 1989.26 453.037 Q1987.27 450.329 1983.86 450.329 M1983.86 446.718 Q1989.42 446.718 1992.59 450.329 Q1995.76 453.94 1995.76 460.329 Q1995.76 466.695 1992.59 470.329 Q1989.42 473.94 1983.86 473.94 Q1978.29 473.94 1975.11 470.329 Q1971.97 466.695 1971.97 460.329 Q1971.97 453.94 1975.11 450.329 Q1978.29 446.718 1983.86 446.718 Z" fill="#000000" fill-rule="nonzero" fill-opacity="1" /><path clip-path="url(#clip810)" d="M2006.94 469.38 L2006.94 483.13 L2002.66 483.13 L2002.66 447.343 L2006.94 447.343 L2006.94 451.278 Q2008.29 448.963 2010.32 447.852 Q2012.38 446.718 2015.23 446.718 Q2019.95 446.718 2022.89 450.468 Q2025.86 454.218 2025.86 460.329 Q2025.86 466.44 2022.89 470.19 Q2019.95 473.94 2015.23 473.94 Q2012.38 473.94 2010.32 472.829 Q2008.29 471.695 2006.94 469.38 M2021.43 460.329 Q2021.43 455.63 2019.49 452.968 Q2017.57 450.283 2014.19 450.283 Q2010.81 450.283 2008.86 452.968 Q2006.94 455.63 2006.94 460.329 Q2006.94 465.028 2008.86 467.713 Q2010.81 470.375 2014.19 470.375 Q2017.57 470.375 2019.49 467.713 Q2021.43 465.028 2021.43 460.329 Z" fill="#000000" fill-rule="nonzero" fill-opacity="1" /><path clip-path="url(#clip810)" d="M2046.04 437.25 L2046.04 440.792 L2041.97 440.792 Q2039.67 440.792 2038.77 441.718 Q2037.89 442.644 2037.89 445.051 L2037.89 447.343 L2044.91 447.343 L2044.91 450.653 L2037.89 450.653 L2037.89 473.269 L2033.61 473.269 L2033.61 450.653 L2029.54 450.653 L2029.54 447.343 L2033.61 447.343 L2033.61 445.537 Q2033.61 441.209 2035.62 439.241 Q2037.64 437.25 2042.01 437.25 L2046.04 437.25 Z" fill="#000000" fill-rule="nonzero" fill-opacity="1" /><circle clip-path="url(#clip810)" cx="1844.88" cy="507.829" r="23.04" fill="#008000" fill-rule="evenodd" fill-opacity="1" stroke="none"/>
<path clip-path="url(#clip810)" d="M1960.07 509.461 L1960.07 525.109 L1955.81 525.109 L1955.81 509.599 Q1955.81 505.919 1954.37 504.09 Q1952.94 502.262 1950.07 502.262 Q1946.62 502.262 1944.63 504.461 Q1942.64 506.66 1942.64 510.456 L1942.64 525.109 L1938.36 525.109 L1938.36 489.09 L1942.64 489.09 L1942.64 503.211 Q1944.17 500.873 1946.23 499.715 Q1948.31 498.558 1951.02 498.558 Q1955.49 498.558 1957.78 501.336 Q1960.07 504.09 1960.07 509.461 Z" fill="#000000" fill-rule="nonzero" fill-opacity="1" /><path clip-path="url(#clip810)" d="M1990.11 509.461 L1990.11 525.109 L1985.86 525.109 L1985.86 509.599 Q1985.86 505.919 1984.42 504.09 Q1982.98 502.262 1980.11 502.262 Q1976.67 502.262 1974.67 504.461 Q1972.68 506.66 1972.68 510.456 L1972.68 525.109 L1968.4 525.109 L1968.4 489.09 L1972.68 489.09 L1972.68 503.211 Q1974.21 500.873 1976.27 499.715 Q1978.36 498.558 1981.06 498.558 Q1985.53 498.558 1987.82 501.336 Q1990.11 504.09 1990.11 509.461 Z" fill="#000000" fill-rule="nonzero" fill-opacity="1" /><circle clip-path="url(#clip810)" cx="1844.88" cy="559.669" r="23.04" fill="#ff00ff" fill-rule="evenodd" fill-opacity="1" stroke="none"/>
<path clip-path="url(#clip810)" d="M1960.07 561.301 L1960.07 576.949 L1955.81 576.949 L1955.81 561.439 Q1955.81 557.759 1954.37 555.93 Q1952.94 554.102 1950.07 554.102 Q1946.62 554.102 1944.63 556.301 Q1942.64 558.5 1942.64 562.296 L1942.64 576.949 L1938.36 576.949 L1938.36 551.023 L1942.64 551.023 L1942.64 555.051 Q1944.17 552.713 1946.23 551.555 Q1948.31 550.398 1951.02 550.398 Q1955.49 550.398 1957.78 553.176 Q1960.07 555.93 1960.07 561.301 Z" fill="#000000" fill-rule="nonzero" fill-opacity="1" /><path clip-path="url(#clip810)" d="M1985.62 554.958 L1985.62 540.93 L1989.88 540.93 L1989.88 576.949 L1985.62 576.949 L1985.62 573.06 Q1984.28 575.375 1982.22 576.509 Q1980.18 577.62 1977.31 577.62 Q1972.61 577.62 1969.65 573.87 Q1966.71 570.12 1966.71 564.009 Q1966.71 557.898 1969.65 554.148 Q1972.61 550.398 1977.31 550.398 Q1980.18 550.398 1982.22 551.532 Q1984.28 552.643 1985.62 554.958 M1971.11 564.009 Q1971.11 568.708 1973.03 571.393 Q1974.98 574.055 1978.36 574.055 Q1981.73 574.055 1983.68 571.393 Q1985.62 568.708 1985.62 564.009 Q1985.62 559.31 1983.68 556.648 Q1981.73 553.963 1978.36 553.963 Q1974.98 553.963 1973.03 556.648 Q1971.11 559.31 1971.11 564.009 Z" fill="#000000" fill-rule="nonzero" fill-opacity="1" /><circle clip-path="url(#clip810)" cx="1844.88" cy="611.509" r="23.04" fill="#eec591" fill-rule="evenodd" fill-opacity="1" stroke="none"/>
<path clip-path="url(#clip810)" d="M1938.93 602.863 L1959.17 602.863 L1959.17 606.752 L1943.15 625.386 L1959.17 625.386 L1959.17 628.789 L1938.36 628.789 L1938.36 624.9 L1954.37 606.266 L1938.93 606.266 L1938.93 602.863 Z" fill="#000000" fill-rule="nonzero" fill-opacity="1" /><path clip-path="url(#clip810)" d="M1987.22 613.141 L1987.22 628.789 L1982.96 628.789 L1982.96 613.279 Q1982.96 609.599 1981.53 607.77 Q1980.09 605.942 1977.22 605.942 Q1973.77 605.942 1971.78 608.141 Q1969.79 610.34 1969.79 614.136 L1969.79 628.789 L1965.51 628.789 L1965.51 592.77 L1969.79 592.77 L1969.79 606.891 Q1971.32 604.553 1973.38 603.395 Q1975.46 602.238 1978.17 602.238 Q1982.64 602.238 1984.93 605.016 Q1987.22 607.77 1987.22 613.141 Z" fill="#000000" fill-rule="nonzero" fill-opacity="1" /><circle clip-path="url(#clip810)" cx="1844.88" cy="663.349" r="23.04" fill="#a52a2a" fill-rule="evenodd" fill-opacity="1" stroke="none"/>
<path clip-path="url(#clip810)" d="M1957.27 667.365 Q1957.27 662.735 1955.35 660.189 Q1953.45 657.643 1950 657.643 Q1946.57 657.643 1944.65 660.189 Q1942.75 662.735 1942.75 667.365 Q1942.75 671.971 1944.65 674.518 Q1946.57 677.064 1950 677.064 Q1953.45 677.064 1955.35 674.518 Q1957.27 671.971 1957.27 667.365 M1961.53 677.411 Q1961.53 684.031 1958.59 687.249 Q1955.65 690.49 1949.58 690.49 Q1947.34 690.49 1945.35 690.142 Q1943.36 689.818 1941.48 689.124 L1941.48 684.98 Q1943.36 685.999 1945.18 686.485 Q1947.01 686.971 1948.91 686.971 Q1953.1 686.971 1955.18 684.772 Q1957.27 682.596 1957.27 678.175 L1957.27 676.068 Q1955.95 678.36 1953.89 679.494 Q1951.83 680.629 1948.96 680.629 Q1944.19 680.629 1941.27 676.994 Q1938.36 673.36 1938.36 667.365 Q1938.36 661.346 1941.27 657.712 Q1944.19 654.078 1948.96 654.078 Q1951.83 654.078 1953.89 655.212 Q1955.95 656.346 1957.27 658.638 L1957.27 654.703 L1961.53 654.703 L1961.53 677.411 Z" fill="#000000" fill-rule="nonzero" fill-opacity="1" /><path clip-path="url(#clip810)" d="M1991.85 664.981 L1991.85 680.629 L1987.59 680.629 L1987.59 665.119 Q1987.59 661.439 1986.16 659.61 Q1984.72 657.782 1981.85 657.782 Q1978.4 657.782 1976.41 659.981 Q1974.42 662.18 1974.42 665.976 L1974.42 680.629 L1970.14 680.629 L1970.14 644.61 L1974.42 644.61 L1974.42 658.731 Q1975.95 656.393 1978.01 655.235 Q1980.09 654.078 1982.8 654.078 Q1987.27 654.078 1989.56 656.856 Q1991.85 659.61 1991.85 664.981 Z" fill="#000000" fill-rule="nonzero" fill-opacity="1" /></svg>
