<?xml version="1.0" encoding="utf-8"?>
<svg xmlns="http://www.w3.org/2000/svg" xmlns:xlink="http://www.w3.org/1999/xlink" width="600" height="400" viewBox="0 0 2400 1600">
<defs>
  <clipPath id="clip830">
    <rect x="0" y="0" width="2400" height="1600"/>
  </clipPath>
</defs>
<path clip-path="url(#clip830)" d="M0 1600 L2400 1600 L2400 0 L0 0  Z" fill="#ffffff" fill-rule="evenodd" fill-opacity="1"/>
<defs>
  <clipPath id="clip831">
    <rect x="174" y="47" width="2180" height="1377"/>
  </clipPath>
</defs>
<path clip-path="url(#clip830)" d="M174.149 1423.18 L2352.76 1423.18 L2352.76 47.2441 L174.149 47.2441  Z" fill="#ffffff" fill-rule="evenodd" fill-opacity="1"/>
<polyline clip-path="url(#clip831)" style="stroke:#000000; stroke-linecap:round; stroke-linejoin:round; stroke-width:2; stroke-opacity:0.1; fill:none" points="489.499,1423.18 489.499,47.2441 "/>
<polyline clip-path="url(#clip831)" style="stroke:#000000; stroke-linecap:round; stroke-linejoin:round; stroke-width:2; stroke-opacity:0.1; fill:none" points="822.638,1423.18 822.638,47.2441 "/>
<polyline clip-path="url(#clip831)" style="stroke:#000000; stroke-linecap:round; stroke-linejoin:round; stroke-width:2; stroke-opacity:0.1; fill:none" points="1155.78,1423.18 1155.78,47.2441 "/>
<polyline clip-path="url(#clip831)" style="stroke:#000000; stroke-linecap:round; stroke-linejoin:round; stroke-width:2; stroke-opacity:0.1; fill:none" points="1488.92,1423.18 1488.92,47.2441 "/>
<polyline clip-path="url(#clip831)" style="stroke:#000000; stroke-linecap:round; stroke-linejoin:round; stroke-width:2; stroke-opacity:0.1; fill:none" points="1822.05,1423.18 1822.05,47.2441 "/>
<polyline clip-path="url(#clip831)" style="stroke:#000000; stroke-linecap:round; stroke-linejoin:round; stroke-width:2; stroke-opacity:0.1; fill:none" points="2155.19,1423.18 2155.19,47.2441 "/>
<polyline clip-path="url(#clip831)" style="stroke:#000000; stroke-linecap:round; stroke-linejoin:round; stroke-width:2; stroke-opacity:0.1; fill:none" points="174.149,1389.13 2352.76,1389.13 "/>
<polyline clip-path="url(#clip831)" style="stroke:#000000; stroke-linecap:round; stroke-linejoin:round; stroke-width:2; stroke-opacity:0.1; fill:none" points="174.149,961.571 2352.76,961.571 "/>
<polyline clip-path="url(#clip831)" style="stroke:#000000; stroke-linecap:round; stroke-linejoin:round; stroke-width:2; stroke-opacity:0.1; fill:none" points="174.149,534.016 2352.76,534.016 "/>
<polyline clip-path="url(#clip831)" style="stroke:#000000; stroke-linecap:round; stroke-linejoin:round; stroke-width:2; stroke-opacity:0.1; fill:none" points="174.149,106.46 2352.76,106.46 "/>
<polyline clip-path="url(#clip830)" style="stroke:#000000; stroke-linecap:round; stroke-linejoin:round; stroke-width:4; stroke-opacity:1; fill:none" points="174.149,1423.18 2352.76,1423.18 "/>
<polyline clip-path="url(#clip830)" style="stroke:#000000; stroke-linecap:round; stroke-linejoin:round; stroke-width:4; stroke-opacity:1; fill:none" points="489.499,1423.18 489.499,1404.28 "/>
<polyline clip-path="url(#clip830)" style="stroke:#000000; stroke-linecap:round; stroke-linejoin:round; stroke-width:4; stroke-opacity:1; fill:none" points="822.638,1423.18 822.638,1404.28 "/>
<polyline clip-path="url(#clip830)" style="stroke:#000000; stroke-linecap:round; stroke-linejoin:round; stroke-width:4; stroke-opacity:1; fill:none" points="1155.78,1423.18 1155.78,1404.28 "/>
<polyline clip-path="url(#clip830)" style="stroke:#000000; stroke-linecap:round; stroke-linejoin:round; stroke-width:4; stroke-opacity:1; fill:none" points="1488.92,1423.18 1488.92,1404.28 "/>
<polyline clip-path="url(#clip830)" style="stroke:#000000; stroke-linecap:round; stroke-linejoin:round; stroke-width:4; stroke-opacity:1; fill:none" points="1822.05,1423.18 1822.05,1404.28 "/>
<polyline clip-path="url(#clip830)" style="stroke:#000000; stroke-linecap:round; stroke-linejoin:round; stroke-width:4; stroke-opacity:1; fill:none" points="2155.19,1423.18 2155.19,1404.28 "/>
<path clip-path="url(#clip830)" d="M451.802 1454.1 Q448.191 1454.1 446.362 1457.66 Q444.557 1461.2 444.557 1468.33 Q444.557 1475.44 446.362 1479.01 Q448.191 1482.55 451.802 1482.55 Q455.436 1482.55 457.242 1479.01 Q459.07 1475.44 459.07 1468.33 Q459.07 1461.2 457.242 1457.66 Q455.436 1454.1 451.802 1454.1 M451.802 1450.39 Q457.612 1450.39 460.668 1455 Q463.746 1459.58 463.746 1468.33 Q463.746 1477.06 460.668 1481.67 Q457.612 1486.25 451.802 1486.25 Q445.992 1486.25 442.913 1481.67 Q439.858 1477.06 439.858 1468.33 Q439.858 1459.58 442.913 1455 Q445.992 1450.39 451.802 1450.39 Z" fill="#000000" fill-rule="nonzero" fill-opacity="1" /><path clip-path="url(#clip830)" d="M471.964 1479.7 L476.848 1479.7 L476.848 1485.58 L471.964 1485.58 L471.964 1479.7 Z" fill="#000000" fill-rule="nonzero" fill-opacity="1" /><path clip-path="url(#clip830)" d="M487.08 1451.02 L505.436 1451.02 L505.436 1454.96 L491.362 1454.96 L491.362 1463.43 Q492.38 1463.08 493.399 1462.92 Q494.417 1462.73 495.436 1462.73 Q501.223 1462.73 504.603 1465.9 Q507.982 1469.08 507.982 1474.49 Q507.982 1480.07 504.51 1483.17 Q501.038 1486.25 494.718 1486.25 Q492.542 1486.25 490.274 1485.88 Q488.029 1485.51 485.621 1484.77 L485.621 1480.07 Q487.705 1481.2 489.927 1481.76 Q492.149 1482.32 494.626 1482.32 Q498.63 1482.32 500.968 1480.21 Q503.306 1478.1 503.306 1474.49 Q503.306 1470.88 500.968 1468.77 Q498.63 1466.67 494.626 1466.67 Q492.751 1466.67 490.876 1467.08 Q489.024 1467.5 487.08 1468.38 L487.08 1451.02 Z" fill="#000000" fill-rule="nonzero" fill-opacity="1" /><path clip-path="url(#clip830)" d="M527.195 1454.1 Q523.584 1454.1 521.755 1457.66 Q519.95 1461.2 519.95 1468.33 Q519.95 1475.44 521.755 1479.01 Q523.584 1482.55 527.195 1482.55 Q530.829 1482.55 532.635 1479.01 Q534.464 1475.44 534.464 1468.33 Q534.464 1461.2 532.635 1457.66 Q530.829 1454.1 527.195 1454.1 M527.195 1450.39 Q533.005 1450.39 536.061 1455 Q539.139 1459.58 539.139 1468.33 Q539.139 1477.06 536.061 1481.67 Q533.005 1486.25 527.195 1486.25 Q521.385 1486.25 518.306 1481.67 Q515.251 1477.06 515.251 1468.33 Q515.251 1459.58 518.306 1455 Q521.385 1450.39 527.195 1450.39 Z" fill="#000000" fill-rule="nonzero" fill-opacity="1" /><path clip-path="url(#clip830)" d="M785.439 1454.1 Q781.828 1454.1 779.999 1457.66 Q778.193 1461.2 778.193 1468.33 Q778.193 1475.44 779.999 1479.01 Q781.828 1482.55 785.439 1482.55 Q789.073 1482.55 790.878 1479.01 Q792.707 1475.44 792.707 1468.33 Q792.707 1461.2 790.878 1457.66 Q789.073 1454.1 785.439 1454.1 M785.439 1450.39 Q791.249 1450.39 794.304 1455 Q797.383 1459.58 797.383 1468.33 Q797.383 1477.06 794.304 1481.67 Q791.249 1486.25 785.439 1486.25 Q779.629 1486.25 776.55 1481.67 Q773.494 1477.06 773.494 1468.33 Q773.494 1459.58 776.55 1455 Q779.629 1450.39 785.439 1450.39 Z" fill="#000000" fill-rule="nonzero" fill-opacity="1" /><path clip-path="url(#clip830)" d="M805.601 1479.7 L810.485 1479.7 L810.485 1485.58 L805.601 1485.58 L805.601 1479.7 Z" fill="#000000" fill-rule="nonzero" fill-opacity="1" /><path clip-path="url(#clip830)" d="M820.716 1451.02 L839.073 1451.02 L839.073 1454.96 L824.999 1454.96 L824.999 1463.43 Q826.017 1463.08 827.036 1462.92 Q828.054 1462.73 829.073 1462.73 Q834.86 1462.73 838.239 1465.9 Q841.619 1469.08 841.619 1474.49 Q841.619 1480.07 838.147 1483.17 Q834.675 1486.25 828.355 1486.25 Q826.179 1486.25 823.911 1485.88 Q821.665 1485.51 819.258 1484.77 L819.258 1480.07 Q821.341 1481.2 823.563 1481.76 Q825.786 1482.32 828.263 1482.32 Q832.267 1482.32 834.605 1480.21 Q836.943 1478.1 836.943 1474.49 Q836.943 1470.88 834.605 1468.77 Q832.267 1466.67 828.263 1466.67 Q826.388 1466.67 824.513 1467.08 Q822.661 1467.5 820.716 1468.38 L820.716 1451.02 Z" fill="#000000" fill-rule="nonzero" fill-opacity="1" /><path clip-path="url(#clip830)" d="M850.878 1451.02 L869.235 1451.02 L869.235 1454.96 L855.161 1454.96 L855.161 1463.43 Q856.179 1463.08 857.198 1462.92 Q858.216 1462.73 859.235 1462.73 Q865.022 1462.73 868.401 1465.9 Q871.781 1469.08 871.781 1474.49 Q871.781 1480.07 868.309 1483.17 Q864.836 1486.25 858.517 1486.25 Q856.341 1486.25 854.073 1485.88 Q851.827 1485.51 849.42 1484.77 L849.42 1480.07 Q851.503 1481.2 853.725 1481.76 Q855.948 1482.32 858.424 1482.32 Q862.429 1482.32 864.767 1480.21 Q867.105 1478.1 867.105 1474.49 Q867.105 1470.88 864.767 1468.77 Q862.429 1466.67 858.424 1466.67 Q856.549 1466.67 854.674 1467.08 Q852.823 1467.5 850.878 1468.38 L850.878 1451.02 Z" fill="#000000" fill-rule="nonzero" fill-opacity="1" /><path clip-path="url(#clip830)" d="M1118.08 1454.1 Q1114.47 1454.1 1112.64 1457.66 Q1110.83 1461.2 1110.83 1468.33 Q1110.83 1475.44 1112.64 1479.01 Q1114.47 1482.55 1118.08 1482.55 Q1121.71 1482.55 1123.52 1479.01 Q1125.35 1475.44 1125.35 1468.33 Q1125.35 1461.2 1123.52 1457.66 Q1121.71 1454.1 1118.08 1454.1 M1118.08 1450.39 Q1123.89 1450.39 1126.95 1455 Q1130.02 1459.58 1130.02 1468.33 Q1130.02 1477.06 1126.95 1481.67 Q1123.89 1486.25 1118.08 1486.25 Q1112.27 1486.25 1109.19 1481.67 Q1106.14 1477.06 1106.14 1468.33 Q1106.14 1459.58 1109.19 1455 Q1112.27 1450.39 1118.08 1450.39 Z" fill="#000000" fill-rule="nonzero" fill-opacity="1" /><path clip-path="url(#clip830)" d="M1138.24 1479.7 L1143.13 1479.7 L1143.13 1485.58 L1138.24 1485.58 L1138.24 1479.7 Z" fill="#000000" fill-rule="nonzero" fill-opacity="1" /><path clip-path="url(#clip830)" d="M1163.89 1466.44 Q1160.74 1466.44 1158.89 1468.59 Q1157.06 1470.74 1157.06 1474.49 Q1157.06 1478.22 1158.89 1480.39 Q1160.74 1482.55 1163.89 1482.55 Q1167.04 1482.55 1168.87 1480.39 Q1170.72 1478.22 1170.72 1474.49 Q1170.72 1470.74 1168.87 1468.59 Q1167.04 1466.44 1163.89 1466.44 M1173.17 1451.78 L1173.17 1456.04 Q1171.41 1455.21 1169.61 1454.77 Q1167.83 1454.33 1166.07 1454.33 Q1161.44 1454.33 1158.98 1457.45 Q1156.55 1460.58 1156.2 1466.9 Q1157.57 1464.89 1159.63 1463.82 Q1161.69 1462.73 1164.17 1462.73 Q1169.38 1462.73 1172.39 1465.9 Q1175.42 1469.05 1175.42 1474.49 Q1175.42 1479.82 1172.27 1483.03 Q1169.12 1486.25 1163.89 1486.25 Q1157.89 1486.25 1154.72 1481.67 Q1151.55 1477.06 1151.55 1468.33 Q1151.55 1460.14 1155.44 1455.28 Q1159.33 1450.39 1165.88 1450.39 Q1167.64 1450.39 1169.42 1450.74 Q1171.23 1451.09 1173.17 1451.78 Z" fill="#000000" fill-rule="nonzero" fill-opacity="1" /><path clip-path="url(#clip830)" d="M1193.47 1454.1 Q1189.86 1454.1 1188.03 1457.66 Q1186.23 1461.2 1186.23 1468.33 Q1186.23 1475.44 1188.03 1479.01 Q1189.86 1482.55 1193.47 1482.55 Q1197.11 1482.55 1198.91 1479.01 Q1200.74 1475.44 1200.74 1468.33 Q1200.74 1461.2 1198.91 1457.66 Q1197.11 1454.1 1193.47 1454.1 M1193.47 1450.39 Q1199.28 1450.39 1202.34 1455 Q1205.42 1459.58 1205.42 1468.33 Q1205.42 1477.06 1202.34 1481.67 Q1199.28 1486.25 1193.47 1486.25 Q1187.66 1486.25 1184.58 1481.67 Q1181.53 1477.06 1181.53 1468.33 Q1181.53 1459.58 1184.58 1455 Q1187.66 1450.39 1193.47 1450.39 Z" fill="#000000" fill-rule="nonzero" fill-opacity="1" /><path clip-path="url(#clip830)" d="M1451.72 1454.1 Q1448.11 1454.1 1446.28 1457.66 Q1444.47 1461.2 1444.47 1468.33 Q1444.47 1475.44 1446.28 1479.01 Q1448.11 1482.55 1451.72 1482.55 Q1455.35 1482.55 1457.16 1479.01 Q1458.99 1475.44 1458.99 1468.33 Q1458.99 1461.2 1457.16 1457.66 Q1455.35 1454.1 1451.72 1454.1 M1451.72 1450.39 Q1457.53 1450.39 1460.58 1455 Q1463.66 1459.58 1463.66 1468.33 Q1463.66 1477.06 1460.58 1481.67 Q1457.53 1486.25 1451.72 1486.25 Q1445.91 1486.25 1442.83 1481.67 Q1439.77 1477.06 1439.77 1468.33 Q1439.77 1459.58 1442.83 1455 Q1445.91 1450.39 1451.72 1450.39 Z" fill="#000000" fill-rule="nonzero" fill-opacity="1" /><path clip-path="url(#clip830)" d="M1471.88 1479.7 L1476.76 1479.7 L1476.76 1485.58 L1471.88 1485.58 L1471.88 1479.7 Z" fill="#000000" fill-rule="nonzero" fill-opacity="1" /><path clip-path="url(#clip830)" d="M1497.53 1466.44 Q1494.38 1466.44 1492.53 1468.59 Q1490.7 1470.74 1490.7 1474.49 Q1490.7 1478.22 1492.53 1480.39 Q1494.38 1482.55 1497.53 1482.55 Q1500.67 1482.55 1502.5 1480.39 Q1504.36 1478.22 1504.36 1474.49 Q1504.36 1470.74 1502.5 1468.59 Q1500.67 1466.44 1497.53 1466.44 M1506.81 1451.78 L1506.81 1456.04 Q1505.05 1455.21 1503.24 1454.77 Q1501.46 1454.33 1499.7 1454.33 Q1495.07 1454.33 1492.62 1457.45 Q1490.19 1460.58 1489.84 1466.9 Q1491.21 1464.89 1493.27 1463.82 Q1495.33 1462.73 1497.8 1462.73 Q1503.01 1462.73 1506.02 1465.9 Q1509.05 1469.05 1509.05 1474.49 Q1509.05 1479.82 1505.91 1483.03 Q1502.76 1486.25 1497.53 1486.25 Q1491.53 1486.25 1488.36 1481.67 Q1485.19 1477.06 1485.19 1468.33 Q1485.19 1460.14 1489.08 1455.28 Q1492.97 1450.39 1499.52 1450.39 Q1501.28 1450.39 1503.06 1450.74 Q1504.86 1451.09 1506.81 1451.78 Z" fill="#000000" fill-rule="nonzero" fill-opacity="1" /><path clip-path="url(#clip830)" d="M1517.16 1451.02 L1535.51 1451.02 L1535.51 1454.96 L1521.44 1454.96 L1521.44 1463.43 Q1522.46 1463.08 1523.48 1462.92 Q1524.49 1462.73 1525.51 1462.73 Q1531.3 1462.73 1534.68 1465.9 Q1538.06 1469.08 1538.06 1474.49 Q1538.06 1480.07 1534.59 1483.17 Q1531.11 1486.25 1524.8 1486.25 Q1522.62 1486.25 1520.35 1485.88 Q1518.11 1485.51 1515.7 1484.77 L1515.7 1480.07 Q1517.78 1481.2 1520 1481.76 Q1522.23 1482.32 1524.7 1482.32 Q1528.71 1482.32 1531.04 1480.21 Q1533.38 1478.1 1533.38 1474.49 Q1533.38 1470.88 1531.04 1468.77 Q1528.71 1466.67 1524.7 1466.67 Q1522.83 1466.67 1520.95 1467.08 Q1519.1 1467.5 1517.16 1468.38 L1517.16 1451.02 Z" fill="#000000" fill-rule="nonzero" fill-opacity="1" /><path clip-path="url(#clip830)" d="M1784.36 1454.1 Q1780.75 1454.1 1778.92 1457.66 Q1777.11 1461.2 1777.11 1468.33 Q1777.11 1475.44 1778.92 1479.01 Q1780.75 1482.55 1784.36 1482.55 Q1787.99 1482.55 1789.8 1479.01 Q1791.63 1475.44 1791.63 1468.33 Q1791.63 1461.2 1789.8 1457.66 Q1787.99 1454.1 1784.36 1454.1 M1784.36 1450.39 Q1790.17 1450.39 1793.22 1455 Q1796.3 1459.58 1796.3 1468.33 Q1796.3 1477.06 1793.22 1481.67 Q1790.17 1486.25 1784.36 1486.25 Q1778.55 1486.25 1775.47 1481.67 Q1772.41 1477.06 1772.41 1468.33 Q1772.41 1459.58 1775.47 1455 Q1778.55 1450.39 1784.36 1450.39 Z" fill="#000000" fill-rule="nonzero" fill-opacity="1" /><path clip-path="url(#clip830)" d="M1804.52 1479.7 L1809.4 1479.7 L1809.4 1485.58 L1804.52 1485.58 L1804.52 1479.7 Z" fill="#000000" fill-rule="nonzero" fill-opacity="1" /><path clip-path="url(#clip830)" d="M1818.41 1451.02 L1840.63 1451.02 L1840.63 1453.01 L1828.08 1485.58 L1823.2 1485.58 L1835.01 1454.96 L1818.41 1454.96 L1818.41 1451.02 Z" fill="#000000" fill-rule="nonzero" fill-opacity="1" /><path clip-path="url(#clip830)" d="M1859.75 1454.1 Q1856.14 1454.1 1854.31 1457.66 Q1852.51 1461.2 1852.51 1468.33 Q1852.51 1475.44 1854.31 1479.01 Q1856.14 1482.55 1859.75 1482.55 Q1863.39 1482.55 1865.19 1479.01 Q1867.02 1475.44 1867.02 1468.33 Q1867.02 1461.2 1865.19 1457.66 Q1863.39 1454.1 1859.75 1454.1 M1859.75 1450.39 Q1865.56 1450.39 1868.62 1455 Q1871.7 1459.58 1871.7 1468.33 Q1871.7 1477.06 1868.62 1481.67 Q1865.56 1486.25 1859.75 1486.25 Q1853.94 1486.25 1850.86 1481.67 Q1847.81 1477.06 1847.81 1468.33 Q1847.81 1459.58 1850.86 1455 Q1853.94 1450.39 1859.75 1450.39 Z" fill="#000000" fill-rule="nonzero" fill-opacity="1" /><path clip-path="url(#clip830)" d="M2117.99 1454.1 Q2114.38 1454.1 2112.55 1457.66 Q2110.75 1461.2 2110.75 1468.33 Q2110.75 1475.44 2112.55 1479.01 Q2114.38 1482.55 2117.99 1482.55 Q2121.63 1482.55 2123.43 1479.01 Q2125.26 1475.44 2125.26 1468.33 Q2125.26 1461.2 2123.43 1457.66 Q2121.63 1454.1 2117.99 1454.1 M2117.99 1450.39 Q2123.8 1450.39 2126.86 1455 Q2129.94 1459.58 2129.94 1468.33 Q2129.94 1477.06 2126.86 1481.67 Q2123.8 1486.25 2117.99 1486.25 Q2112.18 1486.25 2109.11 1481.67 Q2106.05 1477.06 2106.05 1468.33 Q2106.05 1459.58 2109.11 1455 Q2112.18 1450.39 2117.99 1450.39 Z" fill="#000000" fill-rule="nonzero" fill-opacity="1" /><path clip-path="url(#clip830)" d="M2138.16 1479.7 L2143.04 1479.7 L2143.04 1485.58 L2138.16 1485.58 L2138.16 1479.7 Z" fill="#000000" fill-rule="nonzero" fill-opacity="1" /><path clip-path="url(#clip830)" d="M2152.05 1451.02 L2174.27 1451.02 L2174.27 1453.01 L2161.72 1485.58 L2156.84 1485.58 L2168.64 1454.96 L2152.05 1454.96 L2152.05 1451.02 Z" fill="#000000" fill-rule="nonzero" fill-opacity="1" /><path clip-path="url(#clip830)" d="M2183.43 1451.02 L2201.79 1451.02 L2201.79 1454.96 L2187.72 1454.96 L2187.72 1463.43 Q2188.74 1463.08 2189.75 1462.92 Q2190.77 1462.73 2191.79 1462.73 Q2197.58 1462.73 2200.96 1465.9 Q2204.34 1469.08 2204.34 1474.49 Q2204.34 1480.07 2200.86 1483.17 Q2197.39 1486.25 2191.07 1486.25 Q2188.9 1486.25 2186.63 1485.88 Q2184.38 1485.51 2181.98 1484.77 L2181.98 1480.07 Q2184.06 1481.2 2186.28 1481.76 Q2188.5 1482.32 2190.98 1482.32 Q2194.99 1482.32 2197.32 1480.21 Q2199.66 1478.1 2199.66 1474.49 Q2199.66 1470.88 2197.32 1468.77 Q2194.99 1466.67 2190.98 1466.67 Q2189.11 1466.67 2187.23 1467.08 Q2185.38 1467.5 2183.43 1468.38 L2183.43 1451.02 Z" fill="#000000" fill-rule="nonzero" fill-opacity="1" /><path clip-path="url(#clip830)" d="M1277.55 1533.76 L1277.55 1539.24 Q1275.07 1537.87 1272.56 1537.2 Q1270.07 1536.5 1267.53 1536.5 Q1261.83 1536.5 1258.68 1540.13 Q1255.53 1543.73 1255.53 1550.25 Q1255.53 1556.78 1258.68 1560.4 Q1261.83 1564 1267.53 1564 Q1270.07 1564 1272.56 1563.33 Q1275.07 1562.63 1277.55 1561.26 L1277.55 1566.68 Q1275.1 1567.82 1272.46 1568.39 Q1269.85 1568.97 1266.89 1568.97 Q1258.84 1568.97 1254.09 1563.91 Q1249.35 1558.85 1249.35 1550.25 Q1249.35 1541.53 1254.13 1536.53 Q1258.93 1531.54 1267.27 1531.54 Q1269.98 1531.54 1272.56 1532.11 Q1275.13 1532.65 1277.55 1533.76 Z" fill="#000000" fill-rule="nonzero" fill-opacity="1" /><polyline clip-path="url(#clip830)" style="stroke:#000000; stroke-linecap:round; stroke-linejoin:round; stroke-width:4; stroke-opacity:1; fill:none" points="174.149,1423.18 174.149,47.2441 "/>
<polyline clip-path="url(#clip830)" style="stroke:#000000; stroke-linecap:round; stroke-linejoin:round; stroke-width:4; stroke-opacity:1; fill:none" points="174.149,1389.13 193.047,1389.13 "/>
<polyline clip-path="url(#clip830)" style="stroke:#000000; stroke-linecap:round; stroke-linejoin:round; stroke-width:4; stroke-opacity:1; fill:none" points="174.149,961.571 193.047,961.571 "/>
<polyline clip-path="url(#clip830)" style="stroke:#000000; stroke-linecap:round; stroke-linejoin:round; stroke-width:4; stroke-opacity:1; fill:none" points="174.149,534.016 193.047,534.016 "/>
<polyline clip-path="url(#clip830)" style="stroke:#000000; stroke-linecap:round; stroke-linejoin:round; stroke-width:4; stroke-opacity:1; fill:none" points="174.149,106.46 193.047,106.46 "/>
<path clip-path="url(#clip830)" d="M126.205 1374.93 Q122.593 1374.93 120.765 1378.49 Q118.959 1382.03 118.959 1389.16 Q118.959 1396.27 120.765 1399.83 Q122.593 1403.37 126.205 1403.37 Q129.839 1403.37 131.644 1399.83 Q133.473 1396.27 133.473 1389.16 Q133.473 1382.03 131.644 1378.49 Q129.839 1374.93 126.205 1374.93 M126.205 1371.22 Q132.015 1371.22 135.07 1375.83 Q138.149 1380.41 138.149 1389.16 Q138.149 1397.89 135.07 1402.49 Q132.015 1407.08 126.205 1407.08 Q120.394 1407.08 117.316 1402.49 Q114.26 1397.89 114.26 1389.16 Q114.26 1380.41 117.316 1375.83 Q120.394 1371.22 126.205 1371.22 Z" fill="#000000" fill-rule="nonzero" fill-opacity="1" /><path clip-path="url(#clip830)" d="M118.242 974.916 L125.88 974.916 L125.88 948.55 L117.57 950.217 L117.57 945.958 L125.834 944.291 L130.51 944.291 L130.51 974.916 L138.149 974.916 L138.149 978.851 L118.242 978.851 L118.242 974.916 Z" fill="#000000" fill-rule="nonzero" fill-opacity="1" /><path clip-path="url(#clip830)" d="M121.83 547.36 L138.149 547.36 L138.149 551.296 L116.205 551.296 L116.205 547.36 Q118.867 544.606 123.45 539.976 Q128.056 535.323 129.237 533.981 Q131.482 531.458 132.362 529.722 Q133.265 527.962 133.265 526.273 Q133.265 523.518 131.32 521.782 Q129.399 520.046 126.297 520.046 Q124.098 520.046 121.644 520.81 Q119.214 521.574 116.436 523.124 L116.436 518.402 Q119.26 517.268 121.714 516.689 Q124.168 516.111 126.205 516.111 Q131.575 516.111 134.769 518.796 Q137.964 521.481 137.964 525.972 Q137.964 528.101 137.154 530.023 Q136.367 531.921 134.26 534.513 Q133.681 535.185 130.58 538.402 Q127.478 541.597 121.83 547.36 Z" fill="#000000" fill-rule="nonzero" fill-opacity="1" /><path clip-path="url(#clip830)" d="M131.019 105.106 Q134.376 105.823 136.251 108.092 Q138.149 110.36 138.149 113.694 Q138.149 118.81 134.63 121.61 Q131.112 124.411 124.63 124.411 Q122.455 124.411 120.14 123.972 Q117.848 123.555 115.394 122.698 L115.394 118.185 Q117.339 119.319 119.654 119.897 Q121.968 120.476 124.492 120.476 Q128.89 120.476 131.181 118.74 Q133.496 117.004 133.496 113.694 Q133.496 110.638 131.343 108.925 Q129.214 107.189 125.394 107.189 L121.367 107.189 L121.367 103.347 L125.58 103.347 Q129.029 103.347 130.857 101.981 Q132.686 100.592 132.686 97.9995 Q132.686 95.3374 130.788 93.9254 Q128.913 92.4902 125.394 92.4902 Q123.473 92.4902 121.274 92.9069 Q119.075 93.3236 116.436 94.2032 L116.436 90.0365 Q119.098 89.2958 121.413 88.9254 Q123.751 88.5551 125.811 88.5551 Q131.135 88.5551 134.237 90.9856 Q137.339 93.393 137.339 97.5133 Q137.339 100.384 135.695 102.374 Q134.052 104.342 131.019 105.106 Z" fill="#000000" fill-rule="nonzero" fill-opacity="1" /><path clip-path="url(#clip830)" d="M46.0847 877.788 Q46.0847 884.886 47.7079 887.623 Q49.3312 890.36 53.2461 890.36 Q56.3653 890.36 58.2114 888.323 Q60.0256 886.254 60.0256 882.721 Q60.0256 877.852 56.5881 874.923 Q53.1188 871.963 47.3897 871.963 L46.0847 871.963 L46.0847 877.788 M43.6657 866.107 L64.0042 866.107 L64.0042 871.963 L58.5933 871.963 Q61.8398 873.968 63.3994 876.96 Q64.9272 879.952 64.9272 884.281 Q64.9272 889.755 61.8716 893.002 Q58.7843 896.217 53.6281 896.217 Q47.6125 896.217 44.5569 892.206 Q41.5014 888.164 41.5014 880.175 L41.5014 871.963 L40.9285 871.963 Q36.8862 871.963 34.6901 874.637 Q32.4621 877.279 32.4621 882.085 Q32.4621 885.14 33.1941 888.037 Q33.9262 890.933 35.3903 893.607 L29.9795 893.607 Q28.7381 890.392 28.1334 887.368 Q27.4968 884.345 27.4968 881.48 Q27.4968 873.746 31.5072 869.926 Q35.5176 866.107 43.6657 866.107 Z" fill="#000000" fill-rule="nonzero" fill-opacity="1" /><path clip-path="url(#clip830)" d="M35.1993 826.289 Q31.2526 824.093 29.3747 821.038 Q27.4968 817.982 27.4968 813.844 Q27.4968 808.274 31.4117 805.251 Q35.2948 802.227 42.4881 802.227 L64.0042 802.227 L64.0042 808.115 L42.679 808.115 Q37.5546 808.115 35.072 809.929 Q32.5894 811.744 32.5894 815.468 Q32.5894 820.019 35.6131 822.661 Q38.6368 825.303 43.8567 825.303 L64.0042 825.303 L64.0042 831.191 L42.679 831.191 Q37.5228 831.191 35.072 833.005 Q32.5894 834.819 32.5894 838.607 Q32.5894 843.095 35.6449 845.737 Q38.6686 848.378 43.8567 848.378 L64.0042 848.378 L64.0042 854.267 L28.3562 854.267 L28.3562 848.378 L33.8944 848.378 Q30.616 846.373 29.0564 843.572 Q27.4968 840.771 27.4968 836.92 Q27.4968 833.037 29.4702 830.332 Q31.4436 827.594 35.1993 826.289 Z" fill="#000000" fill-rule="nonzero" fill-opacity="1" /><path clip-path="url(#clip830)" d="M58.657 784.88 L77.5631 784.88 L77.5631 790.769 L28.3562 790.769 L28.3562 784.88 L33.7671 784.88 Q30.5842 783.034 29.0564 780.233 Q27.4968 777.401 27.4968 773.486 Q27.4968 766.993 32.6531 762.951 Q37.8093 758.876 46.212 758.876 Q54.6147 758.876 59.771 762.951 Q64.9272 766.993 64.9272 773.486 Q64.9272 777.401 63.3994 780.233 Q61.8398 783.034 58.657 784.88 M46.212 764.956 Q39.7508 764.956 36.0905 767.629 Q32.3984 770.271 32.3984 774.918 Q32.3984 779.565 36.0905 782.239 Q39.7508 784.88 46.212 784.88 Q52.6732 784.88 56.3653 782.239 Q60.0256 779.565 60.0256 774.918 Q60.0256 770.271 56.3653 767.629 Q52.6732 764.956 46.212 764.956 Z" fill="#000000" fill-rule="nonzero" fill-opacity="1" /><path clip-path="url(#clip830)" d="M14.479 749.169 L14.479 743.312 L64.0042 743.312 L64.0042 749.169 L14.479 749.169 Z" fill="#000000" fill-rule="nonzero" fill-opacity="1" /><path clip-path="url(#clip830)" d="M28.3562 731.058 L28.3562 725.202 L64.0042 725.202 L64.0042 731.058 L28.3562 731.058 M14.479 731.058 L14.479 725.202 L21.895 725.202 L21.895 731.058 L14.479 731.058 Z" fill="#000000" fill-rule="nonzero" fill-opacity="1" /><path clip-path="url(#clip830)" d="M18.2347 707.155 L28.3562 707.155 L28.3562 695.092 L32.9077 695.092 L32.9077 707.155 L52.2594 707.155 Q56.6199 707.155 57.8613 705.977 Q59.1026 704.768 59.1026 701.108 L59.1026 695.092 L64.0042 695.092 L64.0042 701.108 Q64.0042 707.887 61.4897 710.465 Q58.9434 713.043 52.2594 713.043 L32.9077 713.043 L32.9077 717.34 L28.3562 717.34 L28.3562 713.043 L18.2347 713.043 L18.2347 707.155 Z" fill="#000000" fill-rule="nonzero" fill-opacity="1" /><path clip-path="url(#clip830)" d="M49.9359 687.994 L28.3562 687.994 L28.3562 682.138 L49.7131 682.138 Q54.7739 682.138 57.3202 680.165 Q59.8346 678.191 59.8346 674.244 Q59.8346 669.502 56.8109 666.765 Q53.7872 663.996 48.5673 663.996 L28.3562 663.996 L28.3562 658.139 L64.0042 658.139 L64.0042 663.996 L58.5296 663.996 Q61.7762 666.128 63.3676 668.961 Q64.9272 671.762 64.9272 675.486 Q64.9272 681.629 61.1078 684.811 Q57.2883 687.994 49.9359 687.994 M27.4968 673.258 L27.4968 673.258 Z" fill="#000000" fill-rule="nonzero" fill-opacity="1" /><path clip-path="url(#clip830)" d="M33.7671 622.619 L14.479 622.619 L14.479 616.762 L64.0042 616.762 L64.0042 622.619 L58.657 622.619 Q61.8398 624.465 63.3994 627.297 Q64.9272 630.098 64.9272 634.045 Q64.9272 640.506 59.771 644.58 Q54.6147 648.622 46.212 648.622 Q37.8093 648.622 32.6531 644.58 Q27.4968 640.506 27.4968 634.045 Q27.4968 630.098 29.0564 627.297 Q30.5842 624.465 33.7671 622.619 M46.212 642.575 Q52.6732 642.575 56.3653 639.933 Q60.0256 637.26 60.0256 632.613 Q60.0256 627.966 56.3653 625.292 Q52.6732 622.619 46.212 622.619 Q39.7508 622.619 36.0905 625.292 Q32.3984 627.966 32.3984 632.613 Q32.3984 637.26 36.0905 639.933 Q39.7508 642.575 46.212 642.575 Z" fill="#000000" fill-rule="nonzero" fill-opacity="1" /><path clip-path="url(#clip830)" d="M44.7161 574.207 L47.5806 574.207 L47.5806 601.134 Q53.6281 600.752 56.8109 597.506 Q59.9619 594.227 59.9619 588.403 Q59.9619 585.029 59.1344 581.878 Q58.3069 578.695 56.6518 575.576 L62.1899 575.576 Q63.5267 578.727 64.227 582.037 Q64.9272 585.347 64.9272 588.753 Q64.9272 597.283 59.9619 602.28 Q54.9967 607.245 46.5303 607.245 Q37.7774 607.245 32.6531 602.535 Q27.4968 597.792 27.4968 589.771 Q27.4968 582.578 32.1438 578.409 Q36.7589 574.207 44.7161 574.207 M42.9973 580.064 Q38.1912 580.127 35.3266 582.769 Q32.4621 585.379 32.4621 589.708 Q32.4621 594.609 35.2312 597.569 Q38.0002 600.498 43.0292 600.943 L42.9973 580.064 Z" fill="#000000" fill-rule="nonzero" fill-opacity="1" /><polyline clip-path="url(#clip831)" style="stroke:#009af9; stroke-linecap:round; stroke-linejoin:round; stroke-width:4; stroke-opacity:1; fill:none" points="2291.1,1378.31 2289.96,1376.61 "/>
<polyline clip-path="url(#clip831)" style="stroke:#009af9; stroke-linecap:round; stroke-linejoin:round; stroke-width:4; stroke-opacity:1; fill:none" points="2289.96,1376.61 2288.08,1374.21 "/>
<polyline clip-path="url(#clip831)" style="stroke:#009af9; stroke-linecap:round; stroke-linejoin:round; stroke-width:4; stroke-opacity:1; fill:none" points="2288.08,1374.21 2284.85,1370.8 "/>
<polyline clip-path="url(#clip831)" style="stroke:#009af9; stroke-linecap:round; stroke-linejoin:round; stroke-width:4; stroke-opacity:1; fill:none" points="2284.85,1370.8 2279.22,1366 "/>
<polyline clip-path="url(#clip831)" style="stroke:#009af9; stroke-linecap:round; stroke-linejoin:round; stroke-width:4; stroke-opacity:1; fill:none" points="2279.22,1366 2269.25,1359.24 "/>
<polyline clip-path="url(#clip831)" style="stroke:#009af9; stroke-linecap:round; stroke-linejoin:round; stroke-width:4; stroke-opacity:1; fill:none" points="2269.25,1359.24 2251.56,1349.84 "/>
<polyline clip-path="url(#clip831)" style="stroke:#009af9; stroke-linecap:round; stroke-linejoin:round; stroke-width:4; stroke-opacity:1; fill:none" points="2251.56,1349.84 2220.65,1336.9 "/>
<polyline clip-path="url(#clip831)" style="stroke:#009af9; stroke-linecap:round; stroke-linejoin:round; stroke-width:4; stroke-opacity:1; fill:none" points="2220.65,1336.9 2168.33,1319.22 "/>
<polyline clip-path="url(#clip831)" style="stroke:#009af9; stroke-linecap:round; stroke-linejoin:round; stroke-width:4; stroke-opacity:1; fill:none" points="2168.33,1319.22 2085.74,1295.88 "/>
<polyline clip-path="url(#clip831)" style="stroke:#009af9; stroke-linecap:round; stroke-linejoin:round; stroke-width:4; stroke-opacity:1; fill:none" points="2085.74,1295.88 1976.63,1268.45 "/>
<polyline clip-path="url(#clip831)" style="stroke:#009af9; stroke-linecap:round; stroke-linejoin:round; stroke-width:4; stroke-opacity:1; fill:none" points="1976.63,1268.45 1863.03,1241.35 "/>
<polyline clip-path="url(#clip831)" style="stroke:#009af9; stroke-linecap:round; stroke-linejoin:round; stroke-width:4; stroke-opacity:1; fill:none" points="1863.03,1241.35 1747.48,1214.11 "/>
<polyline clip-path="url(#clip831)" style="stroke:#009af9; stroke-linecap:round; stroke-linejoin:round; stroke-width:4; stroke-opacity:1; fill:none" points="1747.48,1214.11 1631.36,1186.39 "/>
<polyline clip-path="url(#clip831)" style="stroke:#009af9; stroke-linecap:round; stroke-linejoin:round; stroke-width:4; stroke-opacity:1; fill:none" points="1631.36,1186.39 1515.52,1157.82 "/>
<polyline clip-path="url(#clip831)" style="stroke:#009af9; stroke-linecap:round; stroke-linejoin:round; stroke-width:4; stroke-opacity:1; fill:none" points="1515.52,1157.82 1400.52,1128.28 "/>
<polyline clip-path="url(#clip831)" style="stroke:#009af9; stroke-linecap:round; stroke-linejoin:round; stroke-width:4; stroke-opacity:1; fill:none" points="1400.52,1128.28 1286.77,1097.75 "/>
<polyline clip-path="url(#clip831)" style="stroke:#009af9; stroke-linecap:round; stroke-linejoin:round; stroke-width:4; stroke-opacity:1; fill:none" points="1286.77,1097.75 1174.73,1065.82 "/>
<polyline clip-path="url(#clip831)" style="stroke:#009af9; stroke-linecap:round; stroke-linejoin:round; stroke-width:4; stroke-opacity:1; fill:none" points="1174.73,1065.82 1064.97,1032.91 "/>
<polyline clip-path="url(#clip831)" style="stroke:#009af9; stroke-linecap:round; stroke-linejoin:round; stroke-width:4; stroke-opacity:1; fill:none" points="1064.97,1032.91 958.32,999.165 "/>
<polyline clip-path="url(#clip831)" style="stroke:#009af9; stroke-linecap:round; stroke-linejoin:round; stroke-width:4; stroke-opacity:1; fill:none" points="958.32,999.165 855.845,964.785 "/>
<polyline clip-path="url(#clip831)" style="stroke:#009af9; stroke-linecap:round; stroke-linejoin:round; stroke-width:4; stroke-opacity:1; fill:none" points="855.845,964.785 758.833,930.032 "/>
<polyline clip-path="url(#clip831)" style="stroke:#009af9; stroke-linecap:round; stroke-linejoin:round; stroke-width:4; stroke-opacity:1; fill:none" points="758.833,930.032 668.686,895.237 "/>
<polyline clip-path="url(#clip831)" style="stroke:#009af9; stroke-linecap:round; stroke-linejoin:round; stroke-width:4; stroke-opacity:1; fill:none" points="668.686,895.237 586.77,860.74 "/>
<polyline clip-path="url(#clip831)" style="stroke:#009af9; stroke-linecap:round; stroke-linejoin:round; stroke-width:4; stroke-opacity:1; fill:none" points="586.77,860.74 514.197,826.898 "/>
<polyline clip-path="url(#clip831)" style="stroke:#009af9; stroke-linecap:round; stroke-linejoin:round; stroke-width:4; stroke-opacity:1; fill:none" points="514.197,826.898 451.614,794.338 "/>
<polyline clip-path="url(#clip831)" style="stroke:#009af9; stroke-linecap:round; stroke-linejoin:round; stroke-width:4; stroke-opacity:1; fill:none" points="451.614,794.338 399.08,763.506 "/>
<polyline clip-path="url(#clip831)" style="stroke:#009af9; stroke-linecap:round; stroke-linejoin:round; stroke-width:4; stroke-opacity:1; fill:none" points="399.08,763.506 356.091,734.155 "/>
<polyline clip-path="url(#clip831)" style="stroke:#009af9; stroke-linecap:round; stroke-linejoin:round; stroke-width:4; stroke-opacity:1; fill:none" points="356.091,734.155 321.736,706.196 "/>
<polyline clip-path="url(#clip831)" style="stroke:#009af9; stroke-linecap:round; stroke-linejoin:round; stroke-width:4; stroke-opacity:1; fill:none" points="321.736,706.196 294.901,680.503 "/>
<polyline clip-path="url(#clip831)" style="stroke:#009af9; stroke-linecap:round; stroke-linejoin:round; stroke-width:4; stroke-opacity:1; fill:none" points="294.901,680.503 274.439,657.073 "/>
<polyline clip-path="url(#clip831)" style="stroke:#009af9; stroke-linecap:round; stroke-linejoin:round; stroke-width:4; stroke-opacity:1; fill:none" points="274.439,657.073 259.292,635.48 "/>
<polyline clip-path="url(#clip831)" style="stroke:#009af9; stroke-linecap:round; stroke-linejoin:round; stroke-width:4; stroke-opacity:1; fill:none" points="259.292,635.48 248.541,614.82 "/>
<polyline clip-path="url(#clip831)" style="stroke:#009af9; stroke-linecap:round; stroke-linejoin:round; stroke-width:4; stroke-opacity:1; fill:none" points="248.541,614.82 241.427,596.111 "/>
<polyline clip-path="url(#clip831)" style="stroke:#009af9; stroke-linecap:round; stroke-linejoin:round; stroke-width:4; stroke-opacity:1; fill:none" points="241.427,596.111 237.341,579.095 "/>
<polyline clip-path="url(#clip831)" style="stroke:#009af9; stroke-linecap:round; stroke-linejoin:round; stroke-width:4; stroke-opacity:1; fill:none" points="237.341,579.095 235.808,563.153 "/>
<polyline clip-path="url(#clip831)" style="stroke:#009af9; stroke-linecap:round; stroke-linejoin:round; stroke-width:4; stroke-opacity:1; fill:none" points="235.808,563.153 236.464,547.953 "/>
<polyline clip-path="url(#clip831)" style="stroke:#009af9; stroke-linecap:round; stroke-linejoin:round; stroke-width:4; stroke-opacity:1; fill:none" points="236.464,547.953 239.04,534.023 "/>
<polyline clip-path="url(#clip831)" style="stroke:#009af9; stroke-linecap:round; stroke-linejoin:round; stroke-width:4; stroke-opacity:1; fill:none" points="239.04,534.023 243.337,521.06 "/>
<polyline clip-path="url(#clip831)" style="stroke:#009af9; stroke-linecap:round; stroke-linejoin:round; stroke-width:4; stroke-opacity:1; fill:none" points="243.337,521.06 249.212,508.397 "/>
<polyline clip-path="url(#clip831)" style="stroke:#009af9; stroke-linecap:round; stroke-linejoin:round; stroke-width:4; stroke-opacity:1; fill:none" points="249.212,508.397 256.568,496.33 "/>
<polyline clip-path="url(#clip831)" style="stroke:#009af9; stroke-linecap:round; stroke-linejoin:round; stroke-width:4; stroke-opacity:1; fill:none" points="256.568,496.33 265.336,484.901 "/>
<polyline clip-path="url(#clip831)" style="stroke:#009af9; stroke-linecap:round; stroke-linejoin:round; stroke-width:8; stroke-opacity:1; fill:none" points="265.336,484.901 275.47,473.835 "/>
<polyline clip-path="url(#clip831)" style="stroke:#009af9; stroke-linecap:round; stroke-linejoin:round; stroke-width:8; stroke-opacity:1; fill:none" points="275.47,473.835 286.937,462.715 "/>
<polyline clip-path="url(#clip831)" style="stroke:#009af9; stroke-linecap:round; stroke-linejoin:round; stroke-width:8; stroke-opacity:1; fill:none" points="286.937,462.715 299.709,451.977 "/>
<polyline clip-path="url(#clip831)" style="stroke:#009af9; stroke-linecap:round; stroke-linejoin:round; stroke-width:8; stroke-opacity:1; fill:none" points="299.709,451.977 313.761,441.509 "/>
<polyline clip-path="url(#clip831)" style="stroke:#009af9; stroke-linecap:round; stroke-linejoin:round; stroke-width:8; stroke-opacity:1; fill:none" points="313.761,441.509 329.065,430.845 "/>
<polyline clip-path="url(#clip831)" style="stroke:#009af9; stroke-linecap:round; stroke-linejoin:round; stroke-width:8; stroke-opacity:1; fill:none" points="329.065,430.845 345.586,420.296 "/>
<polyline clip-path="url(#clip831)" style="stroke:#009af9; stroke-linecap:round; stroke-linejoin:round; stroke-width:8; stroke-opacity:1; fill:none" points="345.586,420.296 363.282,409.882 "/>
<polyline clip-path="url(#clip831)" style="stroke:#009af9; stroke-linecap:round; stroke-linejoin:round; stroke-width:8; stroke-opacity:1; fill:none" points="363.282,409.882 382.101,399.324 "/>
<polyline clip-path="url(#clip831)" style="stroke:#009af9; stroke-linecap:round; stroke-linejoin:round; stroke-width:8; stroke-opacity:1; fill:none" points="382.101,399.324 401.984,388.743 "/>
<polyline clip-path="url(#clip831)" style="stroke:#009af9; stroke-linecap:round; stroke-linejoin:round; stroke-width:8; stroke-opacity:1; fill:none" points="401.984,388.743 422.863,378.253 "/>
<polyline clip-path="url(#clip831)" style="stroke:#009af9; stroke-linecap:round; stroke-linejoin:round; stroke-width:8; stroke-opacity:1; fill:none" points="422.863,378.253 444.662,367.649 "/>
<polyline clip-path="url(#clip831)" style="stroke:#009af9; stroke-linecap:round; stroke-linejoin:round; stroke-width:8; stroke-opacity:1; fill:none" points="444.662,367.649 467.301,357.014 "/>
<polyline clip-path="url(#clip831)" style="stroke:#009af9; stroke-linecap:round; stroke-linejoin:round; stroke-width:8; stroke-opacity:1; fill:none" points="467.301,357.014 490.692,346.463 "/>
<polyline clip-path="url(#clip831)" style="stroke:#009af9; stroke-linecap:round; stroke-linejoin:round; stroke-width:8; stroke-opacity:1; fill:none" points="490.692,346.463 514.747,335.817 "/>
<polyline clip-path="url(#clip831)" style="stroke:#009af9; stroke-linecap:round; stroke-linejoin:round; stroke-width:8; stroke-opacity:1; fill:none" points="514.747,335.817 539.374,325.248 "/>
<polyline clip-path="url(#clip831)" style="stroke:#009af9; stroke-linecap:round; stroke-linejoin:round; stroke-width:8; stroke-opacity:1; fill:none" points="539.374,325.248 564.478,314.762 "/>
<polyline clip-path="url(#clip831)" style="stroke:#009af9; stroke-linecap:round; stroke-linejoin:round; stroke-width:8; stroke-opacity:1; fill:none" points="564.478,314.762 589.968,304.223 "/>
<polyline clip-path="url(#clip831)" style="stroke:#009af9; stroke-linecap:round; stroke-linejoin:round; stroke-width:8; stroke-opacity:1; fill:none" points="589.968,304.223 615.752,293.854 "/>
<polyline clip-path="url(#clip831)" style="stroke:#009af9; stroke-linecap:round; stroke-linejoin:round; stroke-width:8; stroke-opacity:1; fill:none" points="615.752,293.854 641.742,283.569 "/>
<polyline clip-path="url(#clip831)" style="stroke:#009af9; stroke-linecap:round; stroke-linejoin:round; stroke-width:8; stroke-opacity:1; fill:none" points="641.742,283.569 667.853,273.372 "/>
<polyline clip-path="url(#clip831)" style="stroke:#009af9; stroke-linecap:round; stroke-linejoin:round; stroke-width:8; stroke-opacity:1; fill:none" points="667.853,273.372 694.005,263.362 "/>
<polyline clip-path="url(#clip831)" style="stroke:#009af9; stroke-linecap:round; stroke-linejoin:round; stroke-width:8; stroke-opacity:1; fill:none" points="694.005,263.362 720.125,253.417 "/>
<polyline clip-path="url(#clip831)" style="stroke:#009af9; stroke-linecap:round; stroke-linejoin:round; stroke-width:8; stroke-opacity:1; fill:none" points="720.125,253.417 746.143,243.704 "/>
<polyline clip-path="url(#clip831)" style="stroke:#009af9; stroke-linecap:round; stroke-linejoin:round; stroke-width:8; stroke-opacity:1; fill:none" points="746.143,243.704 772.001,234.141 "/>
<polyline clip-path="url(#clip831)" style="stroke:#009af9; stroke-linecap:round; stroke-linejoin:round; stroke-width:8; stroke-opacity:1; fill:none" points="772.001,234.141 797.644,224.772 "/>
<polyline clip-path="url(#clip831)" style="stroke:#009af9; stroke-linecap:round; stroke-linejoin:round; stroke-width:8; stroke-opacity:1; fill:none" points="797.644,224.772 823.025,215.586 "/>
<polyline clip-path="url(#clip831)" style="stroke:#009af9; stroke-linecap:round; stroke-linejoin:round; stroke-width:8; stroke-opacity:1; fill:none" points="823.025,215.586 848.105,206.57 "/>
<polyline clip-path="url(#clip831)" style="stroke:#009af9; stroke-linecap:round; stroke-linejoin:round; stroke-width:8; stroke-opacity:1; fill:none" points="848.105,206.57 872.845,197.804 "/>
<polyline clip-path="url(#clip831)" style="stroke:#009af9; stroke-linecap:round; stroke-linejoin:round; stroke-width:8; stroke-opacity:1; fill:none" points="872.845,197.804 897.211,189.2 "/>
<polyline clip-path="url(#clip831)" style="stroke:#009af9; stroke-linecap:round; stroke-linejoin:round; stroke-width:8; stroke-opacity:1; fill:none" points="897.211,189.2 921.166,180.852 "/>
<polyline clip-path="url(#clip831)" style="stroke:#009af9; stroke-linecap:round; stroke-linejoin:round; stroke-width:8; stroke-opacity:1; fill:none" points="921.166,180.852 944.67,172.717 "/>
<polyline clip-path="url(#clip831)" style="stroke:#009af9; stroke-linecap:round; stroke-linejoin:round; stroke-width:8; stroke-opacity:1; fill:none" points="944.67,172.717 967.678,164.824 "/>
<polyline clip-path="url(#clip831)" style="stroke:#009af9; stroke-linecap:round; stroke-linejoin:round; stroke-width:8; stroke-opacity:1; fill:none" points="967.678,164.824 990.133,157.212 "/>
<polyline clip-path="url(#clip831)" style="stroke:#009af9; stroke-linecap:round; stroke-linejoin:round; stroke-width:8; stroke-opacity:1; fill:none" points="990.133,157.212 1011.97,149.84 "/>
<polyline clip-path="url(#clip831)" style="stroke:#009af9; stroke-linecap:round; stroke-linejoin:round; stroke-width:8; stroke-opacity:1; fill:none" points="1011.97,149.84 1033.1,142.798 "/>
<polyline clip-path="url(#clip831)" style="stroke:#009af9; stroke-linecap:round; stroke-linejoin:round; stroke-width:8; stroke-opacity:1; fill:none" points="1033.1,142.798 1053.45,136.097 "/>
<polyline clip-path="url(#clip831)" style="stroke:#009af9; stroke-linecap:round; stroke-linejoin:round; stroke-width:8; stroke-opacity:1; fill:none" points="1053.45,136.097 1072.92,129.706 "/>
<polyline clip-path="url(#clip831)" style="stroke:#009af9; stroke-linecap:round; stroke-linejoin:round; stroke-width:8; stroke-opacity:1; fill:none" points="1072.92,129.706 1091.42,123.715 "/>
<polyline clip-path="url(#clip831)" style="stroke:#009af9; stroke-linecap:round; stroke-linejoin:round; stroke-width:8; stroke-opacity:1; fill:none" points="1091.42,123.715 1108.86,118.152 "/>
<polyline clip-path="url(#clip831)" style="stroke:#009af9; stroke-linecap:round; stroke-linejoin:round; stroke-width:8; stroke-opacity:1; fill:none" points="1108.86,118.152 1125.19,113.036 "/>
<polyline clip-path="url(#clip831)" style="stroke:#009af9; stroke-linecap:round; stroke-linejoin:round; stroke-width:8; stroke-opacity:1; fill:none" points="1125.19,113.036 1140.36,108.38 "/>
<polyline clip-path="url(#clip831)" style="stroke:#009af9; stroke-linecap:round; stroke-linejoin:round; stroke-width:4; stroke-opacity:1; fill:none" points="1140.36,108.38 1154.34,104.194 "/>
<polyline clip-path="url(#clip831)" style="stroke:#009af9; stroke-linecap:round; stroke-linejoin:round; stroke-width:4; stroke-opacity:1; fill:none" points="1154.34,104.194 1167.14,100.493 "/>
<polyline clip-path="url(#clip831)" style="stroke:#009af9; stroke-linecap:round; stroke-linejoin:round; stroke-width:4; stroke-opacity:1; fill:none" points="1167.14,100.493 1178.78,97.2767 "/>
<polyline clip-path="url(#clip831)" style="stroke:#009af9; stroke-linecap:round; stroke-linejoin:round; stroke-width:4; stroke-opacity:1; fill:none" points="1178.78,97.2767 1189.32,94.529 "/>
<polyline clip-path="url(#clip831)" style="stroke:#009af9; stroke-linecap:round; stroke-linejoin:round; stroke-width:4; stroke-opacity:1; fill:none" points="1189.32,94.529 1198.81,92.1118 "/>
<polyline clip-path="url(#clip831)" style="stroke:#009af9; stroke-linecap:round; stroke-linejoin:round; stroke-width:4; stroke-opacity:1; fill:none" points="1198.81,92.1118 1207.32,90.1107 "/>
<polyline clip-path="url(#clip831)" style="stroke:#009af9; stroke-linecap:round; stroke-linejoin:round; stroke-width:4; stroke-opacity:1; fill:none" points="1207.32,90.1107 1214.91,88.5278 "/>
<polyline clip-path="url(#clip831)" style="stroke:#009af9; stroke-linecap:round; stroke-linejoin:round; stroke-width:4; stroke-opacity:1; fill:none" points="1214.91,88.5278 1221.65,87.3603 "/>
<polyline clip-path="url(#clip831)" style="stroke:#009af9; stroke-linecap:round; stroke-linejoin:round; stroke-width:4; stroke-opacity:1; fill:none" points="1221.65,87.3603 1227.63,86.6108 "/>
<polyline clip-path="url(#clip831)" style="stroke:#009af9; stroke-linecap:round; stroke-linejoin:round; stroke-width:4; stroke-opacity:1; fill:none" points="1227.63,86.6108 1232.88,86.2896 "/>
<polyline clip-path="url(#clip831)" style="stroke:#009af9; stroke-linecap:round; stroke-linejoin:round; stroke-width:4; stroke-opacity:1; fill:none" points="1232.88,86.2896 1237.49,86.1857 "/>
<polyline clip-path="url(#clip831)" style="stroke:#009af9; stroke-linecap:round; stroke-linejoin:round; stroke-width:4; stroke-opacity:1; fill:none" points="1237.49,86.1857 1241.49,86.3368 "/>
<polyline clip-path="url(#clip831)" style="stroke:#009af9; stroke-linecap:round; stroke-linejoin:round; stroke-width:4; stroke-opacity:1; fill:none" points="1241.49,86.3368 1244.95,86.8752 "/>
<polyline clip-path="url(#clip831)" style="stroke:#009af9; stroke-linecap:round; stroke-linejoin:round; stroke-width:4; stroke-opacity:1; fill:none" points="1244.95,86.8752 1247.9,87.8269 "/>
<polyline clip-path="url(#clip831)" style="stroke:#009af9; stroke-linecap:round; stroke-linejoin:round; stroke-width:4; stroke-opacity:1; fill:none" points="1247.9,87.8269 1250.38,89.2282 "/>
<polyline clip-path="url(#clip831)" style="stroke:#009af9; stroke-linecap:round; stroke-linejoin:round; stroke-width:4; stroke-opacity:1; fill:none" points="1250.38,89.2282 1252.42,91.0975 "/>
<polyline clip-path="url(#clip831)" style="stroke:#009af9; stroke-linecap:round; stroke-linejoin:round; stroke-width:4; stroke-opacity:1; fill:none" points="1252.42,91.0975 1254.04,92.9638 "/>
<polyline clip-path="url(#clip831)" style="stroke:#009af9; stroke-linecap:round; stroke-linejoin:round; stroke-width:4; stroke-opacity:1; fill:none" points="1254.04,92.9638 1255.28,95.2111 "/>
<polyline clip-path="url(#clip831)" style="stroke:#009af9; stroke-linecap:round; stroke-linejoin:round; stroke-width:4; stroke-opacity:1; fill:none" points="1255.28,95.2111 1256.14,97.9652 "/>
<polyline clip-path="url(#clip831)" style="stroke:#009af9; stroke-linecap:round; stroke-linejoin:round; stroke-width:4; stroke-opacity:1; fill:none" points="1256.14,97.9652 1256.64,101.298 "/>
<polyline clip-path="url(#clip831)" style="stroke:#009af9; stroke-linecap:round; stroke-linejoin:round; stroke-width:4; stroke-opacity:1; fill:none" points="1256.64,101.298 1256.77,105.278 "/>
<polyline clip-path="url(#clip831)" style="stroke:#009af9; stroke-linecap:round; stroke-linejoin:round; stroke-width:4; stroke-opacity:1; fill:none" points="1256.77,105.278 1256.72,107.19 "/>
<polyline clip-path="url(#clip831)" style="stroke:#009af9; stroke-linecap:round; stroke-linejoin:round; stroke-width:4; stroke-opacity:1; fill:none" points="1256.72,107.19 1256.34,111.463 "/>
<polyline clip-path="url(#clip831)" style="stroke:#009af9; stroke-linecap:round; stroke-linejoin:round; stroke-width:4; stroke-opacity:1; fill:none" points="1256.34,111.463 1255.6,116.206 "/>
<polyline clip-path="url(#clip831)" style="stroke:#009af9; stroke-linecap:round; stroke-linejoin:round; stroke-width:4; stroke-opacity:1; fill:none" points="1255.6,116.206 1254.47,121.733 "/>
<polyline clip-path="url(#clip831)" style="stroke:#009af9; stroke-linecap:round; stroke-linejoin:round; stroke-width:4; stroke-opacity:1; fill:none" points="1254.47,121.733 1252.95,128.177 "/>
<polyline clip-path="url(#clip831)" style="stroke:#009af9; stroke-linecap:round; stroke-linejoin:round; stroke-width:4; stroke-opacity:1; fill:none" points="1252.95,128.177 1251,135.596 "/>
<polyline clip-path="url(#clip831)" style="stroke:#009af9; stroke-linecap:round; stroke-linejoin:round; stroke-width:4; stroke-opacity:1; fill:none" points="1251,135.596 1248.59,143.595 "/>
<polyline clip-path="url(#clip831)" style="stroke:#009af9; stroke-linecap:round; stroke-linejoin:round; stroke-width:4; stroke-opacity:1; fill:none" points="1248.59,143.595 1245.69,151.833 "/>
<polyline clip-path="url(#clip831)" style="stroke:#009af9; stroke-linecap:round; stroke-linejoin:round; stroke-width:4; stroke-opacity:1; fill:none" points="1245.69,151.833 1242.24,161.308 "/>
<polyline clip-path="url(#clip831)" style="stroke:#009af9; stroke-linecap:round; stroke-linejoin:round; stroke-width:4; stroke-opacity:1; fill:none" points="1242.24,161.308 1238.19,172.233 "/>
<polyline clip-path="url(#clip831)" style="stroke:#009af9; stroke-linecap:round; stroke-linejoin:round; stroke-width:4; stroke-opacity:1; fill:none" points="1238.19,172.233 1233.47,184.671 "/>
<polyline clip-path="url(#clip831)" style="stroke:#009af9; stroke-linecap:round; stroke-linejoin:round; stroke-width:4; stroke-opacity:1; fill:none" points="1233.47,184.671 1228,198.718 "/>
<polyline clip-path="url(#clip831)" style="stroke:#009af9; stroke-linecap:round; stroke-linejoin:round; stroke-width:4; stroke-opacity:1; fill:none" points="1228,198.718 1221.67,212.778 "/>
<polyline clip-path="url(#clip831)" style="stroke:#009af9; stroke-linecap:round; stroke-linejoin:round; stroke-width:4; stroke-opacity:1; fill:none" points="1221.67,212.778 1214.38,228.784 "/>
<polyline clip-path="url(#clip831)" style="stroke:#009af9; stroke-linecap:round; stroke-linejoin:round; stroke-width:4; stroke-opacity:1; fill:none" points="1214.38,228.784 1205.98,247.103 "/>
<polyline clip-path="url(#clip831)" style="stroke:#009af9; stroke-linecap:round; stroke-linejoin:round; stroke-width:4; stroke-opacity:1; fill:none" points="1205.98,247.103 1196.31,267.568 "/>
<polyline clip-path="url(#clip831)" style="stroke:#009af9; stroke-linecap:round; stroke-linejoin:round; stroke-width:4; stroke-opacity:1; fill:none" points="1196.31,267.568 1185.2,290.658 "/>
<polyline clip-path="url(#clip831)" style="stroke:#009af9; stroke-linecap:round; stroke-linejoin:round; stroke-width:4; stroke-opacity:1; fill:none" points="1185.2,290.658 1172.45,315.599 "/>
<polyline clip-path="url(#clip831)" style="stroke:#009af9; stroke-linecap:round; stroke-linejoin:round; stroke-width:4; stroke-opacity:1; fill:none" points="1172.45,315.599 1157.88,342.183 "/>
<polyline clip-path="url(#clip831)" style="stroke:#009af9; stroke-linecap:round; stroke-linejoin:round; stroke-width:4; stroke-opacity:1; fill:none" points="1157.88,342.183 1141.35,371.835 "/>
<polyline clip-path="url(#clip831)" style="stroke:#009af9; stroke-linecap:round; stroke-linejoin:round; stroke-width:4; stroke-opacity:1; fill:none" points="1141.35,371.835 1122.8,403.763 "/>
<polyline clip-path="url(#clip831)" style="stroke:#009af9; stroke-linecap:round; stroke-linejoin:round; stroke-width:4; stroke-opacity:1; fill:none" points="1122.8,403.763 1102.32,438.355 "/>
<polyline clip-path="url(#clip831)" style="stroke:#009af9; stroke-linecap:round; stroke-linejoin:round; stroke-width:4; stroke-opacity:1; fill:none" points="1102.32,438.355 1080.12,475.092 "/>
<polyline clip-path="url(#clip831)" style="stroke:#009af9; stroke-linecap:round; stroke-linejoin:round; stroke-width:4; stroke-opacity:1; fill:none" points="1080.12,475.092 1056.55,513.313 "/>
<polyline clip-path="url(#clip831)" style="stroke:#009af9; stroke-linecap:round; stroke-linejoin:round; stroke-width:4; stroke-opacity:1; fill:none" points="1056.55,513.313 1032,551.628 "/>
<polyline clip-path="url(#clip831)" style="stroke:#009af9; stroke-linecap:round; stroke-linejoin:round; stroke-width:4; stroke-opacity:1; fill:none" points="1032,551.628 1006.88,589.648 "/>
<polyline clip-path="url(#clip831)" style="stroke:#009af9; stroke-linecap:round; stroke-linejoin:round; stroke-width:4; stroke-opacity:1; fill:none" points="1006.88,589.648 981.524,627.691 "/>
<polyline clip-path="url(#clip831)" style="stroke:#009af9; stroke-linecap:round; stroke-linejoin:round; stroke-width:4; stroke-opacity:1; fill:none" points="981.524,627.691 956.2,665.478 "/>
<polyline clip-path="url(#clip831)" style="stroke:#009af9; stroke-linecap:round; stroke-linejoin:round; stroke-width:4; stroke-opacity:1; fill:none" points="956.2,665.478 931.125,702.994 "/>
<polyline clip-path="url(#clip831)" style="stroke:#009af9; stroke-linecap:round; stroke-linejoin:round; stroke-width:4; stroke-opacity:1; fill:none" points="931.125,702.994 906.469,740.113 "/>
<polyline clip-path="url(#clip831)" style="stroke:#009af9; stroke-linecap:round; stroke-linejoin:round; stroke-width:4; stroke-opacity:1; fill:none" points="906.469,740.113 882.364,776.765 "/>
<polyline clip-path="url(#clip831)" style="stroke:#009af9; stroke-linecap:round; stroke-linejoin:round; stroke-width:4; stroke-opacity:1; fill:none" points="882.364,776.765 858.919,812.925 "/>
<polyline clip-path="url(#clip831)" style="stroke:#009af9; stroke-linecap:round; stroke-linejoin:round; stroke-width:4; stroke-opacity:1; fill:none" points="858.919,812.925 836.226,848.591 "/>
<polyline clip-path="url(#clip831)" style="stroke:#009af9; stroke-linecap:round; stroke-linejoin:round; stroke-width:4; stroke-opacity:1; fill:none" points="836.226,848.591 814.366,883.785 "/>
<polyline clip-path="url(#clip831)" style="stroke:#009af9; stroke-linecap:round; stroke-linejoin:round; stroke-width:4; stroke-opacity:1; fill:none" points="814.366,883.785 793.411,918.542 "/>
<polyline clip-path="url(#clip831)" style="stroke:#009af9; stroke-linecap:round; stroke-linejoin:round; stroke-width:4; stroke-opacity:1; fill:none" points="793.411,918.542 773.43,952.85 "/>
<polyline clip-path="url(#clip831)" style="stroke:#009af9; stroke-linecap:round; stroke-linejoin:round; stroke-width:4; stroke-opacity:1; fill:none" points="773.43,952.85 754.487,986.779 "/>
<polyline clip-path="url(#clip831)" style="stroke:#009af9; stroke-linecap:round; stroke-linejoin:round; stroke-width:4; stroke-opacity:1; fill:none" points="754.487,986.779 736.643,1020.43 "/>
<polyline clip-path="url(#clip831)" style="stroke:#009af9; stroke-linecap:round; stroke-linejoin:round; stroke-width:4; stroke-opacity:1; fill:none" points="736.643,1020.43 719.957,1053.86 "/>
<polyline clip-path="url(#clip831)" style="stroke:#009af9; stroke-linecap:round; stroke-linejoin:round; stroke-width:4; stroke-opacity:1; fill:none" points="719.957,1053.86 704.481,1087.13 "/>
<polyline clip-path="url(#clip831)" style="stroke:#009af9; stroke-linecap:round; stroke-linejoin:round; stroke-width:4; stroke-opacity:1; fill:none" points="704.481,1087.13 690.266,1120.33 "/>
<polyline clip-path="url(#clip831)" style="stroke:#009af9; stroke-linecap:round; stroke-linejoin:round; stroke-width:4; stroke-opacity:1; fill:none" points="690.266,1120.33 677.357,1153.41 "/>
<polyline clip-path="url(#clip831)" style="stroke:#009af9; stroke-linecap:round; stroke-linejoin:round; stroke-width:4; stroke-opacity:1; fill:none" points="677.357,1153.41 665.788,1186.58 "/>
<polyline clip-path="url(#clip831)" style="stroke:#009af9; stroke-linecap:round; stroke-linejoin:round; stroke-width:4; stroke-opacity:1; fill:none" points="665.788,1186.58 655.602,1220.26 "/>
<polyline clip-path="url(#clip831)" style="stroke:#009af9; stroke-linecap:round; stroke-linejoin:round; stroke-width:4; stroke-opacity:1; fill:none" points="655.602,1220.26 646.876,1254.65 "/>
<polyline clip-path="url(#clip831)" style="stroke:#009af9; stroke-linecap:round; stroke-linejoin:round; stroke-width:4; stroke-opacity:1; fill:none" points="646.876,1254.65 639.793,1289.53 "/>
<polyline clip-path="url(#clip831)" style="stroke:#009af9; stroke-linecap:round; stroke-linejoin:round; stroke-width:4; stroke-opacity:1; fill:none" points="639.793,1289.53 634.619,1324.59 "/>
<polyline clip-path="url(#clip831)" style="stroke:#009af9; stroke-linecap:round; stroke-linejoin:round; stroke-width:4; stroke-opacity:1; fill:none" points="634.619,1324.59 631.574,1359.41 "/>
<polyline clip-path="url(#clip831)" style="stroke:#009af9; stroke-linecap:round; stroke-linejoin:round; stroke-width:4; stroke-opacity:1; fill:none" points="631.574,1359.41 630.763,1384.24 "/>
<polyline clip-path="url(#clip831)" style="stroke:#009af9; stroke-linecap:round; stroke-linejoin:round; stroke-width:4; stroke-opacity:1; fill:none" points="630.763,1384.24 632.212,1349.59 "/>
<polyline clip-path="url(#clip831)" style="stroke:#009af9; stroke-linecap:round; stroke-linejoin:round; stroke-width:4; stroke-opacity:1; fill:none" points="632.212,1349.59 635.878,1314.68 "/>
<polyline clip-path="url(#clip831)" style="stroke:#009af9; stroke-linecap:round; stroke-linejoin:round; stroke-width:4; stroke-opacity:1; fill:none" points="635.878,1314.68 641.639,1279.52 "/>
<polyline clip-path="url(#clip831)" style="stroke:#009af9; stroke-linecap:round; stroke-linejoin:round; stroke-width:4; stroke-opacity:1; fill:none" points="641.639,1279.52 649.268,1244.51 "/>
<polyline clip-path="url(#clip831)" style="stroke:#009af9; stroke-linecap:round; stroke-linejoin:round; stroke-width:4; stroke-opacity:1; fill:none" points="649.268,1244.51 658.502,1210.11 "/>
<polyline clip-path="url(#clip831)" style="stroke:#009af9; stroke-linecap:round; stroke-linejoin:round; stroke-width:4; stroke-opacity:1; fill:none" points="658.502,1210.11 669.161,1176.45 "/>
<polyline clip-path="url(#clip831)" style="stroke:#009af9; stroke-linecap:round; stroke-linejoin:round; stroke-width:4; stroke-opacity:1; fill:none" points="669.161,1176.45 681.171,1143.31 "/>
<polyline clip-path="url(#clip831)" style="stroke:#009af9; stroke-linecap:round; stroke-linejoin:round; stroke-width:4; stroke-opacity:1; fill:none" points="681.171,1143.31 694.496,1110.14 "/>
<polyline clip-path="url(#clip831)" style="stroke:#009af9; stroke-linecap:round; stroke-linejoin:round; stroke-width:4; stroke-opacity:1; fill:none" points="694.496,1110.14 709.098,1076.93 "/>
<polyline clip-path="url(#clip831)" style="stroke:#009af9; stroke-linecap:round; stroke-linejoin:round; stroke-width:4; stroke-opacity:1; fill:none" points="709.098,1076.93 724.932,1043.66 "/>
<polyline clip-path="url(#clip831)" style="stroke:#009af9; stroke-linecap:round; stroke-linejoin:round; stroke-width:4; stroke-opacity:1; fill:none" points="724.932,1043.66 741.946,1010.23 "/>
<polyline clip-path="url(#clip831)" style="stroke:#009af9; stroke-linecap:round; stroke-linejoin:round; stroke-width:4; stroke-opacity:1; fill:none" points="741.946,1010.23 760.086,976.58 "/>
<polyline clip-path="url(#clip831)" style="stroke:#009af9; stroke-linecap:round; stroke-linejoin:round; stroke-width:4; stroke-opacity:1; fill:none" points="760.086,976.58 779.295,942.649 "/>
<polyline clip-path="url(#clip831)" style="stroke:#009af9; stroke-linecap:round; stroke-linejoin:round; stroke-width:4; stroke-opacity:1; fill:none" points="779.295,942.649 799.51,908.305 "/>
<polyline clip-path="url(#clip831)" style="stroke:#009af9; stroke-linecap:round; stroke-linejoin:round; stroke-width:4; stroke-opacity:1; fill:none" points="799.51,908.305 820.67,873.537 "/>
<polyline clip-path="url(#clip831)" style="stroke:#009af9; stroke-linecap:round; stroke-linejoin:round; stroke-width:4; stroke-opacity:1; fill:none" points="820.67,873.537 842.708,838.325 "/>
<polyline clip-path="url(#clip831)" style="stroke:#009af9; stroke-linecap:round; stroke-linejoin:round; stroke-width:4; stroke-opacity:1; fill:none" points="842.708,838.325 865.552,802.634 "/>
<polyline clip-path="url(#clip831)" style="stroke:#009af9; stroke-linecap:round; stroke-linejoin:round; stroke-width:4; stroke-opacity:1; fill:none" points="865.552,802.634 889.123,766.442 "/>
<polyline clip-path="url(#clip831)" style="stroke:#009af9; stroke-linecap:round; stroke-linejoin:round; stroke-width:4; stroke-opacity:1; fill:none" points="889.123,766.442 913.333,729.748 "/>
<polyline clip-path="url(#clip831)" style="stroke:#009af9; stroke-linecap:round; stroke-linejoin:round; stroke-width:4; stroke-opacity:1; fill:none" points="913.333,729.748 938.075,692.579 "/>
<polyline clip-path="url(#clip831)" style="stroke:#009af9; stroke-linecap:round; stroke-linejoin:round; stroke-width:4; stroke-opacity:1; fill:none" points="938.075,692.579 963.216,655.004 "/>
<polyline clip-path="url(#clip831)" style="stroke:#009af9; stroke-linecap:round; stroke-linejoin:round; stroke-width:4; stroke-opacity:1; fill:none" points="963.216,655.004 988.591,617.149 "/>
<polyline clip-path="url(#clip831)" style="stroke:#009af9; stroke-linecap:round; stroke-linejoin:round; stroke-width:4; stroke-opacity:1; fill:none" points="988.591,617.149 1013.98,578.936 "/>
<polyline clip-path="url(#clip831)" style="stroke:#009af9; stroke-linecap:round; stroke-linejoin:round; stroke-width:4; stroke-opacity:1; fill:none" points="1013.98,578.936 1039.11,540.82 "/>
<polyline clip-path="url(#clip831)" style="stroke:#009af9; stroke-linecap:round; stroke-linejoin:round; stroke-width:4; stroke-opacity:1; fill:none" points="1039.11,540.82 1063.63,501.911 "/>
<polyline clip-path="url(#clip831)" style="stroke:#009af9; stroke-linecap:round; stroke-linejoin:round; stroke-width:4; stroke-opacity:1; fill:none" points="1063.63,501.911 1087.13,463.563 "/>
<polyline clip-path="url(#clip831)" style="stroke:#009af9; stroke-linecap:round; stroke-linejoin:round; stroke-width:4; stroke-opacity:1; fill:none" points="1087.13,463.563 1109.21,426.786 "/>
<polyline clip-path="url(#clip831)" style="stroke:#009af9; stroke-linecap:round; stroke-linejoin:round; stroke-width:4; stroke-opacity:1; fill:none" points="1109.21,426.786 1129.51,392.283 "/>
<polyline clip-path="url(#clip831)" style="stroke:#009af9; stroke-linecap:round; stroke-linejoin:round; stroke-width:4; stroke-opacity:1; fill:none" points="1129.51,392.283 1147.8,360.352 "/>
<polyline clip-path="url(#clip831)" style="stroke:#009af9; stroke-linecap:round; stroke-linejoin:round; stroke-width:4; stroke-opacity:1; fill:none" points="1147.8,360.352 1163.99,331.083 "/>
<polyline clip-path="url(#clip831)" style="stroke:#009af9; stroke-linecap:round; stroke-linejoin:round; stroke-width:4; stroke-opacity:1; fill:none" points="1163.99,331.083 1178.17,305.057 "/>
<polyline clip-path="url(#clip831)" style="stroke:#009af9; stroke-linecap:round; stroke-linejoin:round; stroke-width:4; stroke-opacity:1; fill:none" points="1178.17,305.057 1190.49,279.706 "/>
<polyline clip-path="url(#clip831)" style="stroke:#009af9; stroke-linecap:round; stroke-linejoin:round; stroke-width:4; stroke-opacity:1; fill:none" points="1190.49,279.706 1201.15,257.427 "/>
<circle clip-path="url(#clip831)" cx="1863.03" cy="1241.35" r="10.8" fill="#ffa500" fill-rule="evenodd" fill-opacity="1" stroke="none"/>
<circle clip-path="url(#clip831)" cx="1400.52" cy="1128.28" r="10.8" fill="#008000" fill-rule="evenodd" fill-opacity="1" stroke="none"/>
<circle clip-path="url(#clip831)" cx="236.464" cy="547.953" r="10.8" fill="#0000ff" fill-rule="evenodd" fill-opacity="1" stroke="none"/>
<circle clip-path="url(#clip831)" cx="265.336" cy="484.901" r="10.8" fill="#008000" fill-rule="evenodd" fill-opacity="1" stroke="none"/>
<circle clip-path="url(#clip831)" cx="1140.36" cy="108.38" r="10.8" fill="#008000" fill-rule="evenodd" fill-opacity="1" stroke="none"/>
<circle clip-path="url(#clip831)" cx="1256.77" cy="105.278" r="10.8" fill="#ffa500" fill-rule="evenodd" fill-opacity="1" stroke="none"/>
<circle clip-path="url(#clip831)" cx="1256.72" cy="107.19" r="10.8" fill="#0000ff" fill-rule="evenodd" fill-opacity="1" stroke="none"/>
<circle clip-path="url(#clip831)" cx="631.574" cy="1359.41" r="10.8" fill="#008000" fill-rule="evenodd" fill-opacity="1" stroke="none"/>
<circle clip-path="url(#clip831)" cx="635.878" cy="1314.68" r="10.8" fill="#008000" fill-rule="evenodd" fill-opacity="1" stroke="none"/>
<circle clip-path="url(#clip831)" cx="1863.03" cy="1241.35" r="10.8" fill="#ffa500" fill-rule="evenodd" fill-opacity="1" stroke="none"/>
<circle clip-path="url(#clip831)" cx="1400.52" cy="1128.28" r="10.8" fill="#008000" fill-rule="evenodd" fill-opacity="1" stroke="none"/>
<circle clip-path="url(#clip831)" cx="236.464" cy="547.953" r="10.8" fill="#0000ff" fill-rule="evenodd" fill-opacity="1" stroke="none"/>
<path clip-path="url(#clip830)" d="M2008.99 300.469 L2280.14 300.469 L2280.14 93.1086 L2008.99 93.1086  Z" fill="#ffffff" fill-rule="evenodd" fill-opacity="1"/>
<polyline clip-path="url(#clip830)" style="stroke:#000000; stroke-linecap:round; stroke-linejoin:round; stroke-width:4; stroke-opacity:1; fill:none" points="2008.99,300.469 2280.14,300.469 2280.14,93.1086 2008.99,93.1086 2008.99,300.469 "/>
<circle clip-path="url(#clip830)" cx="2105.82" cy="144.949" r="23.04" fill="#ffa500" fill-rule="evenodd" fill-opacity="1" stroke="none"/>
<path clip-path="url(#clip830)" d="M2224.36 146.581 L2224.36 162.229 L2220.1 162.229 L2220.1 146.719 Q2220.1 143.039 2218.66 141.21 Q2217.23 139.382 2214.36 139.382 Q2210.91 139.382 2208.92 141.581 Q2206.92 143.78 2206.92 147.576 L2206.92 162.229 L2202.64 162.229 L2202.64 136.303 L2206.92 136.303 L2206.92 140.331 Q2208.45 137.993 2210.51 136.835 Q2212.6 135.678 2215.3 135.678 Q2219.77 135.678 2222.06 138.456 Q2224.36 141.21 2224.36 146.581 Z" fill="#000000" fill-rule="nonzero" fill-opacity="1" /><path clip-path="url(#clip830)" d="M2249.38 137.067 L2249.38 141.094 Q2247.57 140.169 2245.63 139.706 Q2243.68 139.243 2241.6 139.243 Q2238.43 139.243 2236.83 140.215 Q2235.26 141.187 2235.26 143.131 Q2235.26 144.613 2236.39 145.469 Q2237.53 146.303 2240.95 147.067 L2242.41 147.391 Q2246.95 148.363 2248.85 150.145 Q2250.77 151.905 2250.77 155.076 Q2250.77 158.687 2247.9 160.793 Q2245.05 162.9 2240.05 162.9 Q2237.97 162.9 2235.7 162.483 Q2233.45 162.09 2230.95 161.28 L2230.95 156.881 Q2233.31 158.108 2235.6 158.733 Q2237.9 159.335 2240.14 159.335 Q2243.15 159.335 2244.77 158.317 Q2246.39 157.275 2246.39 155.4 Q2246.39 153.664 2245.21 152.738 Q2244.05 151.812 2240.1 150.956 L2238.61 150.608 Q2234.66 149.775 2232.9 148.062 Q2231.14 146.326 2231.14 143.317 Q2231.14 139.659 2233.73 137.669 Q2236.32 135.678 2241.09 135.678 Q2243.45 135.678 2245.54 136.025 Q2247.62 136.372 2249.38 137.067 Z" fill="#000000" fill-rule="nonzero" fill-opacity="1" /><circle clip-path="url(#clip830)" cx="2105.82" cy="196.789" r="23.04" fill="#008000" fill-rule="evenodd" fill-opacity="1" stroke="none"/>
<path clip-path="url(#clip830)" d="M2206.92 210.18 L2206.92 223.93 L2202.64 223.93 L2202.64 188.143 L2206.92 188.143 L2206.92 192.078 Q2208.27 189.763 2210.3 188.652 Q2212.36 187.518 2215.21 187.518 Q2219.93 187.518 2222.87 191.268 Q2225.84 195.018 2225.84 201.129 Q2225.84 207.24 2222.87 210.99 Q2219.93 214.74 2215.21 214.74 Q2212.36 214.74 2210.3 213.629 Q2208.27 212.495 2206.92 210.18 M2221.42 201.129 Q2221.42 196.43 2219.47 193.768 Q2217.55 191.083 2214.17 191.083 Q2210.79 191.083 2208.85 193.768 Q2206.92 196.43 2206.92 201.129 Q2206.92 205.828 2208.85 208.513 Q2210.79 211.175 2214.17 211.175 Q2217.55 211.175 2219.47 208.513 Q2221.42 205.828 2221.42 201.129 Z" fill="#000000" fill-rule="nonzero" fill-opacity="1" /><path clip-path="url(#clip830)" d="M2249.96 192.078 L2249.96 178.05 L2254.22 178.05 L2254.22 214.069 L2249.96 214.069 L2249.96 210.18 Q2248.61 212.495 2246.55 213.629 Q2244.52 214.74 2241.65 214.74 Q2236.95 214.74 2233.98 210.99 Q2231.04 207.24 2231.04 201.129 Q2231.04 195.018 2233.98 191.268 Q2236.95 187.518 2241.65 187.518 Q2244.52 187.518 2246.55 188.652 Q2248.61 189.763 2249.96 192.078 M2235.44 201.129 Q2235.44 205.828 2237.36 208.513 Q2239.31 211.175 2242.69 211.175 Q2246.07 211.175 2248.01 208.513 Q2249.96 205.828 2249.96 201.129 Q2249.96 196.43 2248.01 193.768 Q2246.07 191.083 2242.69 191.083 Q2239.31 191.083 2237.36 193.768 Q2235.44 196.43 2235.44 201.129 Z" fill="#000000" fill-rule="nonzero" fill-opacity="1" /><circle clip-path="url(#clip830)" cx="2105.82" cy="248.629" r="23.04" fill="#0000ff" fill-rule="evenodd" fill-opacity="1" stroke="none"/>
<path clip-path="url(#clip830)" d="M2221.42 252.969 Q2221.42 248.27 2219.47 245.608 Q2217.55 242.923 2214.17 242.923 Q2210.79 242.923 2208.85 245.608 Q2206.92 248.27 2206.92 252.969 Q2206.92 257.668 2208.85 260.353 Q2210.79 263.015 2214.17 263.015 Q2217.55 263.015 2219.47 260.353 Q2221.42 257.668 2221.42 252.969 M2206.92 243.918 Q2208.27 241.603 2210.3 240.492 Q2212.36 239.358 2215.21 239.358 Q2219.93 239.358 2222.87 243.108 Q2225.84 246.858 2225.84 252.969 Q2225.84 259.08 2222.87 262.83 Q2219.93 266.58 2215.21 266.58 Q2212.36 266.58 2210.3 265.469 Q2208.27 264.335 2206.92 262.02 L2206.92 265.909 L2202.64 265.909 L2202.64 229.89 L2206.92 229.89 L2206.92 243.918 Z" fill="#000000" fill-rule="nonzero" fill-opacity="1" /><path clip-path="url(#clip830)" d="M2237.02 262.02 L2237.02 275.77 L2232.73 275.77 L2232.73 239.983 L2237.02 239.983 L2237.02 243.918 Q2238.36 241.603 2240.4 240.492 Q2242.46 239.358 2245.3 239.358 Q2250.03 239.358 2252.97 243.108 Q2255.93 246.858 2255.93 252.969 Q2255.93 259.08 2252.97 262.83 Q2250.03 266.58 2245.3 266.58 Q2242.46 266.58 2240.4 265.469 Q2238.36 264.335 2237.02 262.02 M2251.51 252.969 Q2251.51 248.27 2249.56 245.608 Q2247.64 242.923 2244.26 242.923 Q2240.88 242.923 2238.94 245.608 Q2237.02 248.27 2237.02 252.969 Q2237.02 257.668 2238.94 260.353 Q2240.88 263.015 2244.26 263.015 Q2247.64 263.015 2249.56 260.353 Q2251.51 257.668 2251.51 252.969 Z" fill="#000000" fill-rule="nonzero" fill-opacity="1" /></svg>
