<?xml version="1.0" encoding="utf-8"?>
<svg xmlns="http://www.w3.org/2000/svg" xmlns:xlink="http://www.w3.org/1999/xlink" width="600" height="400" viewBox="0 0 2400 1600">
<defs>
  <clipPath id="clip780">
    <rect x="0" y="0" width="2400" height="1600"/>
  </clipPath>
</defs>
<path clip-path="url(#clip780)" d="M0 1600 L2400 1600 L2400 0 L0 0  Z" fill="#ffffff" fill-rule="evenodd" fill-opacity="1"/>
<defs>
  <clipPath id="clip781">
    <rect x="219" y="47" width="2134" height="1377"/>
  </clipPath>
</defs>
<path clip-path="url(#clip780)" d="M219.38 1423.18 L2352.76 1423.18 L2352.76 47.2441 L219.38 47.2441  Z" fill="#ffffff" fill-rule="evenodd" fill-opacity="1"/>
<polyline clip-path="url(#clip781)" style="stroke:#000000; stroke-linecap:round; stroke-linejoin:round; stroke-width:2; stroke-opacity:0.1; fill:none" points="422.178,1423.18 422.178,47.2441 "/>
<polyline clip-path="url(#clip781)" style="stroke:#000000; stroke-linecap:round; stroke-linejoin:round; stroke-width:2; stroke-opacity:0.1; fill:none" points="796.218,1423.18 796.218,47.2441 "/>
<polyline clip-path="url(#clip781)" style="stroke:#000000; stroke-linecap:round; stroke-linejoin:round; stroke-width:2; stroke-opacity:0.1; fill:none" points="1170.26,1423.18 1170.26,47.2441 "/>
<polyline clip-path="url(#clip781)" style="stroke:#000000; stroke-linecap:round; stroke-linejoin:round; stroke-width:2; stroke-opacity:0.1; fill:none" points="1544.3,1423.18 1544.3,47.2441 "/>
<polyline clip-path="url(#clip781)" style="stroke:#000000; stroke-linecap:round; stroke-linejoin:round; stroke-width:2; stroke-opacity:0.1; fill:none" points="1918.34,1423.18 1918.34,47.2441 "/>
<polyline clip-path="url(#clip781)" style="stroke:#000000; stroke-linecap:round; stroke-linejoin:round; stroke-width:2; stroke-opacity:0.1; fill:none" points="2292.38,1423.18 2292.38,47.2441 "/>
<polyline clip-path="url(#clip781)" style="stroke:#000000; stroke-linecap:round; stroke-linejoin:round; stroke-width:2; stroke-opacity:0.1; fill:none" points="219.38,1384.24 2352.76,1384.24 "/>
<polyline clip-path="url(#clip781)" style="stroke:#000000; stroke-linecap:round; stroke-linejoin:round; stroke-width:2; stroke-opacity:0.1; fill:none" points="219.38,1130.48 2352.76,1130.48 "/>
<polyline clip-path="url(#clip781)" style="stroke:#000000; stroke-linecap:round; stroke-linejoin:round; stroke-width:2; stroke-opacity:0.1; fill:none" points="219.38,876.722 2352.76,876.722 "/>
<polyline clip-path="url(#clip781)" style="stroke:#000000; stroke-linecap:round; stroke-linejoin:round; stroke-width:2; stroke-opacity:0.1; fill:none" points="219.38,622.963 2352.76,622.963 "/>
<polyline clip-path="url(#clip781)" style="stroke:#000000; stroke-linecap:round; stroke-linejoin:round; stroke-width:2; stroke-opacity:0.1; fill:none" points="219.38,369.205 2352.76,369.205 "/>
<polyline clip-path="url(#clip781)" style="stroke:#000000; stroke-linecap:round; stroke-linejoin:round; stroke-width:2; stroke-opacity:0.1; fill:none" points="219.38,115.447 2352.76,115.447 "/>
<polyline clip-path="url(#clip780)" style="stroke:#000000; stroke-linecap:round; stroke-linejoin:round; stroke-width:4; stroke-opacity:1; fill:none" points="219.38,1423.18 2352.76,1423.18 "/>
<polyline clip-path="url(#clip780)" style="stroke:#000000; stroke-linecap:round; stroke-linejoin:round; stroke-width:4; stroke-opacity:1; fill:none" points="422.178,1423.18 422.178,1404.28 "/>
<polyline clip-path="url(#clip780)" style="stroke:#000000; stroke-linecap:round; stroke-linejoin:round; stroke-width:4; stroke-opacity:1; fill:none" points="796.218,1423.18 796.218,1404.28 "/>
<polyline clip-path="url(#clip780)" style="stroke:#000000; stroke-linecap:round; stroke-linejoin:round; stroke-width:4; stroke-opacity:1; fill:none" points="1170.26,1423.18 1170.26,1404.28 "/>
<polyline clip-path="url(#clip780)" style="stroke:#000000; stroke-linecap:round; stroke-linejoin:round; stroke-width:4; stroke-opacity:1; fill:none" points="1544.3,1423.18 1544.3,1404.28 "/>
<polyline clip-path="url(#clip780)" style="stroke:#000000; stroke-linecap:round; stroke-linejoin:round; stroke-width:4; stroke-opacity:1; fill:none" points="1918.34,1423.18 1918.34,1404.28 "/>
<polyline clip-path="url(#clip780)" style="stroke:#000000; stroke-linecap:round; stroke-linejoin:round; stroke-width:4; stroke-opacity:1; fill:none" points="2292.38,1423.18 2292.38,1404.28 "/>
<path clip-path="url(#clip780)" d="M400.061 1454.1 Q396.449 1454.1 394.621 1457.66 Q392.815 1461.2 392.815 1468.33 Q392.815 1475.44 394.621 1479.01 Q396.449 1482.55 400.061 1482.55 Q403.695 1482.55 405.5 1479.01 Q407.329 1475.44 407.329 1468.33 Q407.329 1461.2 405.5 1457.66 Q403.695 1454.1 400.061 1454.1 M400.061 1450.39 Q405.871 1450.39 408.926 1455 Q412.005 1459.58 412.005 1468.33 Q412.005 1477.06 408.926 1481.67 Q405.871 1486.25 400.061 1486.25 Q394.25 1486.25 391.172 1481.67 Q388.116 1477.06 388.116 1468.33 Q388.116 1459.58 391.172 1455 Q394.25 1450.39 400.061 1450.39 Z" fill="#000000" fill-rule="nonzero" fill-opacity="1" /><path clip-path="url(#clip780)" d="M420.222 1479.7 L425.107 1479.7 L425.107 1485.58 L420.222 1485.58 L420.222 1479.7 Z" fill="#000000" fill-rule="nonzero" fill-opacity="1" /><path clip-path="url(#clip780)" d="M435.338 1451.02 L453.695 1451.02 L453.695 1454.96 L439.621 1454.96 L439.621 1463.43 Q440.639 1463.08 441.658 1462.92 Q442.676 1462.73 443.695 1462.73 Q449.482 1462.73 452.861 1465.9 Q456.241 1469.08 456.241 1474.49 Q456.241 1480.07 452.769 1483.17 Q449.296 1486.25 442.977 1486.25 Q440.801 1486.25 438.533 1485.88 Q436.287 1485.51 433.88 1484.77 L433.88 1480.07 Q435.963 1481.2 438.185 1481.76 Q440.408 1482.32 442.884 1482.32 Q446.889 1482.32 449.227 1480.21 Q451.565 1478.1 451.565 1474.49 Q451.565 1470.88 449.227 1468.77 Q446.889 1466.67 442.884 1466.67 Q441.009 1466.67 439.134 1467.08 Q437.283 1467.5 435.338 1468.38 L435.338 1451.02 Z" fill="#000000" fill-rule="nonzero" fill-opacity="1" /><path clip-path="url(#clip780)" d="M773.522 1454.1 Q769.911 1454.1 768.082 1457.66 Q766.276 1461.2 766.276 1468.33 Q766.276 1475.44 768.082 1479.01 Q769.911 1482.55 773.522 1482.55 Q777.156 1482.55 778.961 1479.01 Q780.79 1475.44 780.79 1468.33 Q780.79 1461.2 778.961 1457.66 Q777.156 1454.1 773.522 1454.1 M773.522 1450.39 Q779.332 1450.39 782.387 1455 Q785.466 1459.58 785.466 1468.33 Q785.466 1477.06 782.387 1481.67 Q779.332 1486.25 773.522 1486.25 Q767.711 1486.25 764.633 1481.67 Q761.577 1477.06 761.577 1468.33 Q761.577 1459.58 764.633 1455 Q767.711 1450.39 773.522 1450.39 Z" fill="#000000" fill-rule="nonzero" fill-opacity="1" /><path clip-path="url(#clip780)" d="M793.684 1479.7 L798.568 1479.7 L798.568 1485.58 L793.684 1485.58 L793.684 1479.7 Z" fill="#000000" fill-rule="nonzero" fill-opacity="1" /><path clip-path="url(#clip780)" d="M819.332 1466.44 Q816.183 1466.44 814.332 1468.59 Q812.503 1470.74 812.503 1474.49 Q812.503 1478.22 814.332 1480.39 Q816.183 1482.55 819.332 1482.55 Q822.48 1482.55 824.308 1480.39 Q826.16 1478.22 826.16 1474.49 Q826.16 1470.74 824.308 1468.59 Q822.48 1466.44 819.332 1466.44 M828.614 1451.78 L828.614 1456.04 Q826.855 1455.21 825.049 1454.77 Q823.267 1454.33 821.507 1454.33 Q816.878 1454.33 814.424 1457.45 Q811.994 1460.58 811.646 1466.9 Q813.012 1464.89 815.072 1463.82 Q817.132 1462.73 819.609 1462.73 Q824.818 1462.73 827.827 1465.9 Q830.859 1469.05 830.859 1474.49 Q830.859 1479.82 827.711 1483.03 Q824.563 1486.25 819.332 1486.25 Q813.336 1486.25 810.165 1481.67 Q806.994 1477.06 806.994 1468.33 Q806.994 1460.14 810.883 1455.28 Q814.771 1450.39 821.322 1450.39 Q823.082 1450.39 824.864 1450.74 Q826.669 1451.09 828.614 1451.78 Z" fill="#000000" fill-rule="nonzero" fill-opacity="1" /><path clip-path="url(#clip780)" d="M1148.09 1454.1 Q1144.48 1454.1 1142.65 1457.66 Q1140.85 1461.2 1140.85 1468.33 Q1140.85 1475.44 1142.65 1479.01 Q1144.48 1482.55 1148.09 1482.55 Q1151.73 1482.55 1153.53 1479.01 Q1155.36 1475.44 1155.36 1468.33 Q1155.36 1461.2 1153.53 1457.66 Q1151.73 1454.1 1148.09 1454.1 M1148.09 1450.39 Q1153.9 1450.39 1156.96 1455 Q1160.04 1459.58 1160.04 1468.33 Q1160.04 1477.06 1156.96 1481.67 Q1153.9 1486.25 1148.09 1486.25 Q1142.28 1486.25 1139.2 1481.67 Q1136.15 1477.06 1136.15 1468.33 Q1136.15 1459.58 1139.2 1455 Q1142.28 1450.39 1148.09 1450.39 Z" fill="#000000" fill-rule="nonzero" fill-opacity="1" /><path clip-path="url(#clip780)" d="M1168.26 1479.7 L1173.14 1479.7 L1173.14 1485.58 L1168.26 1485.58 L1168.26 1479.7 Z" fill="#000000" fill-rule="nonzero" fill-opacity="1" /><path clip-path="url(#clip780)" d="M1182.14 1451.02 L1204.37 1451.02 L1204.37 1453.01 L1191.82 1485.58 L1186.94 1485.58 L1198.74 1454.96 L1182.14 1454.96 L1182.14 1451.02 Z" fill="#000000" fill-rule="nonzero" fill-opacity="1" /><path clip-path="url(#clip780)" d="M1521.73 1454.1 Q1518.12 1454.1 1516.29 1457.66 Q1514.48 1461.2 1514.48 1468.33 Q1514.48 1475.44 1516.29 1479.01 Q1518.12 1482.55 1521.73 1482.55 Q1525.36 1482.55 1527.17 1479.01 Q1529 1475.44 1529 1468.33 Q1529 1461.2 1527.17 1457.66 Q1525.36 1454.1 1521.73 1454.1 M1521.73 1450.39 Q1527.54 1450.39 1530.59 1455 Q1533.67 1459.58 1533.67 1468.33 Q1533.67 1477.06 1530.59 1481.67 Q1527.54 1486.25 1521.73 1486.25 Q1515.92 1486.25 1512.84 1481.67 Q1509.78 1477.06 1509.78 1468.33 Q1509.78 1459.58 1512.84 1455 Q1515.92 1450.39 1521.73 1450.39 Z" fill="#000000" fill-rule="nonzero" fill-opacity="1" /><path clip-path="url(#clip780)" d="M1541.89 1479.7 L1546.77 1479.7 L1546.77 1485.58 L1541.89 1485.58 L1541.89 1479.7 Z" fill="#000000" fill-rule="nonzero" fill-opacity="1" /><path clip-path="url(#clip780)" d="M1566.96 1469.17 Q1563.63 1469.17 1561.71 1470.95 Q1559.81 1472.73 1559.81 1475.86 Q1559.81 1478.98 1561.71 1480.77 Q1563.63 1482.55 1566.96 1482.55 Q1570.29 1482.55 1572.21 1480.77 Q1574.14 1478.96 1574.14 1475.86 Q1574.14 1472.73 1572.21 1470.95 Q1570.32 1469.17 1566.96 1469.17 M1562.28 1467.18 Q1559.27 1466.44 1557.58 1464.38 Q1555.92 1462.32 1555.92 1459.35 Q1555.92 1455.21 1558.86 1452.8 Q1561.82 1450.39 1566.96 1450.39 Q1572.12 1450.39 1575.06 1452.8 Q1578 1455.21 1578 1459.35 Q1578 1462.32 1576.31 1464.38 Q1574.64 1466.44 1571.66 1467.18 Q1575.04 1467.96 1576.91 1470.26 Q1578.81 1472.55 1578.81 1475.86 Q1578.81 1480.88 1575.73 1483.57 Q1572.68 1486.25 1566.96 1486.25 Q1561.24 1486.25 1558.16 1483.57 Q1555.11 1480.88 1555.11 1475.86 Q1555.11 1472.55 1557.01 1470.26 Q1558.9 1467.96 1562.28 1467.18 M1560.57 1459.79 Q1560.57 1462.48 1562.24 1463.98 Q1563.93 1465.49 1566.96 1465.49 Q1569.97 1465.49 1571.66 1463.98 Q1573.37 1462.48 1573.37 1459.79 Q1573.37 1457.11 1571.66 1455.6 Q1569.97 1454.1 1566.96 1454.1 Q1563.93 1454.1 1562.24 1455.6 Q1560.57 1457.11 1560.57 1459.79 Z" fill="#000000" fill-rule="nonzero" fill-opacity="1" /><path clip-path="url(#clip780)" d="M1895.81 1454.1 Q1892.2 1454.1 1890.37 1457.66 Q1888.57 1461.2 1888.57 1468.33 Q1888.57 1475.44 1890.37 1479.01 Q1892.2 1482.55 1895.81 1482.55 Q1899.45 1482.55 1901.25 1479.01 Q1903.08 1475.44 1903.08 1468.33 Q1903.08 1461.2 1901.25 1457.66 Q1899.45 1454.1 1895.81 1454.1 M1895.81 1450.39 Q1901.62 1450.39 1904.68 1455 Q1907.76 1459.58 1907.76 1468.33 Q1907.76 1477.06 1904.68 1481.67 Q1901.62 1486.25 1895.81 1486.25 Q1890 1486.25 1886.93 1481.67 Q1883.87 1477.06 1883.87 1468.33 Q1883.87 1459.58 1886.93 1455 Q1890 1450.39 1895.81 1450.39 Z" fill="#000000" fill-rule="nonzero" fill-opacity="1" /><path clip-path="url(#clip780)" d="M1915.98 1479.7 L1920.86 1479.7 L1920.86 1485.58 L1915.98 1485.58 L1915.98 1479.7 Z" fill="#000000" fill-rule="nonzero" fill-opacity="1" /><path clip-path="url(#clip780)" d="M1931.18 1484.86 L1931.18 1480.6 Q1932.94 1481.44 1934.75 1481.88 Q1936.56 1482.32 1938.29 1482.32 Q1942.92 1482.32 1945.35 1479.21 Q1947.81 1476.09 1948.15 1469.75 Q1946.81 1471.74 1944.75 1472.8 Q1942.69 1473.87 1940.19 1473.87 Q1935 1473.87 1931.97 1470.74 Q1928.96 1467.59 1928.96 1462.15 Q1928.96 1456.83 1932.11 1453.61 Q1935.26 1450.39 1940.49 1450.39 Q1946.49 1450.39 1949.63 1455 Q1952.8 1459.58 1952.8 1468.33 Q1952.8 1476.51 1948.92 1481.39 Q1945.05 1486.25 1938.5 1486.25 Q1936.74 1486.25 1934.93 1485.9 Q1933.13 1485.56 1931.18 1484.86 M1940.49 1470.21 Q1943.64 1470.21 1945.47 1468.06 Q1947.32 1465.9 1947.32 1462.15 Q1947.32 1458.43 1945.47 1456.27 Q1943.64 1454.1 1940.49 1454.1 Q1937.34 1454.1 1935.49 1456.27 Q1933.66 1458.43 1933.66 1462.15 Q1933.66 1465.9 1935.49 1468.06 Q1937.34 1470.21 1940.49 1470.21 Z" fill="#000000" fill-rule="nonzero" fill-opacity="1" /><path clip-path="url(#clip780)" d="M2259.53 1481.64 L2267.17 1481.64 L2267.17 1455.28 L2258.86 1456.95 L2258.86 1452.69 L2267.12 1451.02 L2271.8 1451.02 L2271.8 1481.64 L2279.44 1481.64 L2279.44 1485.58 L2259.53 1485.58 L2259.53 1481.64 Z" fill="#000000" fill-rule="nonzero" fill-opacity="1" /><path clip-path="url(#clip780)" d="M2288.88 1479.7 L2293.77 1479.7 L2293.77 1485.58 L2288.88 1485.58 L2288.88 1479.7 Z" fill="#000000" fill-rule="nonzero" fill-opacity="1" /><path clip-path="url(#clip780)" d="M2313.95 1454.1 Q2310.34 1454.1 2308.51 1457.66 Q2306.71 1461.2 2306.71 1468.33 Q2306.71 1475.44 2308.51 1479.01 Q2310.34 1482.55 2313.95 1482.55 Q2317.59 1482.55 2319.39 1479.01 Q2321.22 1475.44 2321.22 1468.33 Q2321.22 1461.2 2319.39 1457.66 Q2317.59 1454.1 2313.95 1454.1 M2313.95 1450.39 Q2319.76 1450.39 2322.82 1455 Q2325.9 1459.58 2325.9 1468.33 Q2325.9 1477.06 2322.82 1481.67 Q2319.76 1486.25 2313.95 1486.25 Q2308.14 1486.25 2305.06 1481.67 Q2302.01 1477.06 2302.01 1468.33 Q2302.01 1459.58 2305.06 1455 Q2308.14 1450.39 2313.95 1450.39 Z" fill="#000000" fill-rule="nonzero" fill-opacity="1" /><path clip-path="url(#clip780)" d="M1300.17 1533.76 L1300.17 1539.24 Q1297.69 1537.87 1295.17 1537.2 Q1292.69 1536.5 1290.14 1536.5 Q1284.44 1536.5 1281.29 1540.13 Q1278.14 1543.73 1278.14 1550.25 Q1278.14 1556.78 1281.29 1560.4 Q1284.44 1564 1290.14 1564 Q1292.69 1564 1295.17 1563.33 Q1297.69 1562.63 1300.17 1561.26 L1300.17 1566.68 Q1297.72 1567.82 1295.08 1568.39 Q1292.47 1568.97 1289.51 1568.97 Q1281.45 1568.97 1276.71 1563.91 Q1271.97 1558.85 1271.97 1550.25 Q1271.97 1541.53 1276.74 1536.53 Q1281.55 1531.54 1289.89 1531.54 Q1292.59 1531.54 1295.17 1532.11 Q1297.75 1532.65 1300.17 1533.76 Z" fill="#000000" fill-rule="nonzero" fill-opacity="1" /><polyline clip-path="url(#clip780)" style="stroke:#000000; stroke-linecap:round; stroke-linejoin:round; stroke-width:4; stroke-opacity:1; fill:none" points="219.38,1423.18 219.38,47.2441 "/>
<polyline clip-path="url(#clip780)" style="stroke:#000000; stroke-linecap:round; stroke-linejoin:round; stroke-width:4; stroke-opacity:1; fill:none" points="219.38,1384.24 238.278,1384.24 "/>
<polyline clip-path="url(#clip780)" style="stroke:#000000; stroke-linecap:round; stroke-linejoin:round; stroke-width:4; stroke-opacity:1; fill:none" points="219.38,1130.48 238.278,1130.48 "/>
<polyline clip-path="url(#clip780)" style="stroke:#000000; stroke-linecap:round; stroke-linejoin:round; stroke-width:4; stroke-opacity:1; fill:none" points="219.38,876.722 238.278,876.722 "/>
<polyline clip-path="url(#clip780)" style="stroke:#000000; stroke-linecap:round; stroke-linejoin:round; stroke-width:4; stroke-opacity:1; fill:none" points="219.38,622.963 238.278,622.963 "/>
<polyline clip-path="url(#clip780)" style="stroke:#000000; stroke-linecap:round; stroke-linejoin:round; stroke-width:4; stroke-opacity:1; fill:none" points="219.38,369.205 238.278,369.205 "/>
<polyline clip-path="url(#clip780)" style="stroke:#000000; stroke-linecap:round; stroke-linejoin:round; stroke-width:4; stroke-opacity:1; fill:none" points="219.38,115.447 238.278,115.447 "/>
<path clip-path="url(#clip780)" d="M126.205 1370.04 Q122.593 1370.04 120.765 1373.6 Q118.959 1377.14 118.959 1384.27 Q118.959 1391.38 120.765 1394.94 Q122.593 1398.49 126.205 1398.49 Q129.839 1398.49 131.644 1394.94 Q133.473 1391.38 133.473 1384.27 Q133.473 1377.14 131.644 1373.6 Q129.839 1370.04 126.205 1370.04 M126.205 1366.33 Q132.015 1366.33 135.07 1370.94 Q138.149 1375.52 138.149 1384.27 Q138.149 1393 135.07 1397.61 Q132.015 1402.19 126.205 1402.19 Q120.394 1402.19 117.316 1397.61 Q114.26 1393 114.26 1384.27 Q114.26 1375.52 117.316 1370.94 Q120.394 1366.33 126.205 1366.33 Z" fill="#000000" fill-rule="nonzero" fill-opacity="1" /><path clip-path="url(#clip780)" d="M146.366 1395.64 L151.251 1395.64 L151.251 1401.52 L146.366 1401.52 L146.366 1395.64 Z" fill="#000000" fill-rule="nonzero" fill-opacity="1" /><path clip-path="url(#clip780)" d="M171.436 1370.04 Q167.825 1370.04 165.996 1373.6 Q164.19 1377.14 164.19 1384.27 Q164.19 1391.38 165.996 1394.94 Q167.825 1398.49 171.436 1398.49 Q175.07 1398.49 176.876 1394.94 Q178.704 1391.38 178.704 1384.27 Q178.704 1377.14 176.876 1373.6 Q175.07 1370.04 171.436 1370.04 M171.436 1366.33 Q177.246 1366.33 180.301 1370.94 Q183.38 1375.52 183.38 1384.27 Q183.38 1393 180.301 1397.61 Q177.246 1402.19 171.436 1402.19 Q165.626 1402.19 162.547 1397.61 Q159.491 1393 159.491 1384.27 Q159.491 1375.52 162.547 1370.94 Q165.626 1366.33 171.436 1366.33 Z" fill="#000000" fill-rule="nonzero" fill-opacity="1" /><path clip-path="url(#clip780)" d="M127.2 1116.28 Q123.589 1116.28 121.76 1119.84 Q119.955 1123.39 119.955 1130.51 Q119.955 1137.62 121.76 1141.19 Q123.589 1144.73 127.2 1144.73 Q130.834 1144.73 132.64 1141.19 Q134.468 1137.62 134.468 1130.51 Q134.468 1123.39 132.64 1119.84 Q130.834 1116.28 127.2 1116.28 M127.2 1112.57 Q133.01 1112.57 136.066 1117.18 Q139.144 1121.76 139.144 1130.51 Q139.144 1139.24 136.066 1143.85 Q133.01 1148.43 127.2 1148.43 Q121.39 1148.43 118.311 1143.85 Q115.256 1139.24 115.256 1130.51 Q115.256 1121.76 118.311 1117.18 Q121.39 1112.57 127.2 1112.57 Z" fill="#000000" fill-rule="nonzero" fill-opacity="1" /><path clip-path="url(#clip780)" d="M147.362 1141.88 L152.246 1141.88 L152.246 1147.76 L147.362 1147.76 L147.362 1141.88 Z" fill="#000000" fill-rule="nonzero" fill-opacity="1" /><path clip-path="url(#clip780)" d="M162.477 1113.2 L180.834 1113.2 L180.834 1117.14 L166.76 1117.14 L166.76 1125.61 Q167.778 1125.26 168.797 1125.1 Q169.815 1124.91 170.834 1124.91 Q176.621 1124.91 180.001 1128.08 Q183.38 1131.26 183.38 1136.67 Q183.38 1142.25 179.908 1145.35 Q176.436 1148.43 170.116 1148.43 Q167.94 1148.43 165.672 1148.06 Q163.427 1147.69 161.019 1146.95 L161.019 1142.25 Q163.102 1143.38 165.325 1143.94 Q167.547 1144.5 170.024 1144.5 Q174.028 1144.5 176.366 1142.39 Q178.704 1140.28 178.704 1136.67 Q178.704 1133.06 176.366 1130.95 Q174.028 1128.85 170.024 1128.85 Q168.149 1128.85 166.274 1129.26 Q164.422 1129.68 162.477 1130.56 L162.477 1113.2 Z" fill="#000000" fill-rule="nonzero" fill-opacity="1" /><path clip-path="url(#clip780)" d="M117.015 890.067 L124.654 890.067 L124.654 863.701 L116.343 865.368 L116.343 861.108 L124.607 859.442 L129.283 859.442 L129.283 890.067 L136.922 890.067 L136.922 894.002 L117.015 894.002 L117.015 890.067 Z" fill="#000000" fill-rule="nonzero" fill-opacity="1" /><path clip-path="url(#clip780)" d="M146.366 888.122 L151.251 888.122 L151.251 894.002 L146.366 894.002 L146.366 888.122 Z" fill="#000000" fill-rule="nonzero" fill-opacity="1" /><path clip-path="url(#clip780)" d="M171.436 862.52 Q167.825 862.52 165.996 866.085 Q164.19 869.627 164.19 876.756 Q164.19 883.863 165.996 887.428 Q167.825 890.969 171.436 890.969 Q175.07 890.969 176.876 887.428 Q178.704 883.863 178.704 876.756 Q178.704 869.627 176.876 866.085 Q175.07 862.52 171.436 862.52 M171.436 858.817 Q177.246 858.817 180.301 863.423 Q183.38 868.006 183.38 876.756 Q183.38 885.483 180.301 890.09 Q177.246 894.673 171.436 894.673 Q165.626 894.673 162.547 890.09 Q159.491 885.483 159.491 876.756 Q159.491 868.006 162.547 863.423 Q165.626 858.817 171.436 858.817 Z" fill="#000000" fill-rule="nonzero" fill-opacity="1" /><path clip-path="url(#clip780)" d="M118.01 636.308 L125.649 636.308 L125.649 609.943 L117.339 611.609 L117.339 607.35 L125.603 605.683 L130.279 605.683 L130.279 636.308 L137.917 636.308 L137.917 640.243 L118.01 640.243 L118.01 636.308 Z" fill="#000000" fill-rule="nonzero" fill-opacity="1" /><path clip-path="url(#clip780)" d="M147.362 634.364 L152.246 634.364 L152.246 640.243 L147.362 640.243 L147.362 634.364 Z" fill="#000000" fill-rule="nonzero" fill-opacity="1" /><path clip-path="url(#clip780)" d="M162.477 605.683 L180.834 605.683 L180.834 609.619 L166.76 609.619 L166.76 618.091 Q167.778 617.744 168.797 617.581 Q169.815 617.396 170.834 617.396 Q176.621 617.396 180.001 620.568 Q183.38 623.739 183.38 629.155 Q183.38 634.734 179.908 637.836 Q176.436 640.915 170.116 640.915 Q167.94 640.915 165.672 640.544 Q163.427 640.174 161.019 639.433 L161.019 634.734 Q163.102 635.868 165.325 636.424 Q167.547 636.98 170.024 636.98 Q174.028 636.98 176.366 634.873 Q178.704 632.767 178.704 629.155 Q178.704 625.544 176.366 623.438 Q174.028 621.331 170.024 621.331 Q168.149 621.331 166.274 621.748 Q164.422 622.165 162.477 623.044 L162.477 605.683 Z" fill="#000000" fill-rule="nonzero" fill-opacity="1" /><path clip-path="url(#clip780)" d="M120.232 382.55 L136.552 382.55 L136.552 386.485 L114.607 386.485 L114.607 382.55 Q117.269 379.795 121.853 375.166 Q126.459 370.513 127.64 369.17 Q129.885 366.647 130.765 364.911 Q131.667 363.152 131.667 361.462 Q131.667 358.707 129.723 356.971 Q127.802 355.235 124.7 355.235 Q122.501 355.235 120.047 355.999 Q117.617 356.763 114.839 358.314 L114.839 353.592 Q117.663 352.457 120.117 351.879 Q122.57 351.3 124.607 351.3 Q129.978 351.3 133.172 353.985 Q136.367 356.67 136.367 361.161 Q136.367 363.291 135.556 365.212 Q134.769 367.11 132.663 369.703 Q132.084 370.374 128.982 373.592 Q125.88 376.786 120.232 382.55 Z" fill="#000000" fill-rule="nonzero" fill-opacity="1" /><path clip-path="url(#clip780)" d="M146.366 380.605 L151.251 380.605 L151.251 386.485 L146.366 386.485 L146.366 380.605 Z" fill="#000000" fill-rule="nonzero" fill-opacity="1" /><path clip-path="url(#clip780)" d="M171.436 355.004 Q167.825 355.004 165.996 358.569 Q164.19 362.11 164.19 369.24 Q164.19 376.346 165.996 379.911 Q167.825 383.453 171.436 383.453 Q175.07 383.453 176.876 379.911 Q178.704 376.346 178.704 369.24 Q178.704 362.11 176.876 358.569 Q175.07 355.004 171.436 355.004 M171.436 351.3 Q177.246 351.3 180.301 355.907 Q183.38 360.49 183.38 369.24 Q183.38 377.967 180.301 382.573 Q177.246 387.156 171.436 387.156 Q165.626 387.156 162.547 382.573 Q159.491 377.967 159.491 369.24 Q159.491 360.49 162.547 355.907 Q165.626 351.3 171.436 351.3 Z" fill="#000000" fill-rule="nonzero" fill-opacity="1" /><path clip-path="url(#clip780)" d="M121.228 128.792 L137.547 128.792 L137.547 132.727 L115.603 132.727 L115.603 128.792 Q118.265 126.037 122.848 121.407 Q127.455 116.755 128.635 115.412 Q130.88 112.889 131.76 111.153 Q132.663 109.394 132.663 107.704 Q132.663 104.949 130.718 103.213 Q128.797 101.477 125.695 101.477 Q123.496 101.477 121.043 102.241 Q118.612 103.005 115.834 104.556 L115.834 99.8334 Q118.658 98.6992 121.112 98.1205 Q123.566 97.5418 125.603 97.5418 Q130.973 97.5418 134.167 100.227 Q137.362 102.912 137.362 107.403 Q137.362 109.532 136.552 111.454 Q135.765 113.352 133.658 115.944 Q133.08 116.616 129.978 119.833 Q126.876 123.028 121.228 128.792 Z" fill="#000000" fill-rule="nonzero" fill-opacity="1" /><path clip-path="url(#clip780)" d="M147.362 126.847 L152.246 126.847 L152.246 132.727 L147.362 132.727 L147.362 126.847 Z" fill="#000000" fill-rule="nonzero" fill-opacity="1" /><path clip-path="url(#clip780)" d="M162.477 98.1668 L180.834 98.1668 L180.834 102.102 L166.76 102.102 L166.76 110.574 Q167.778 110.227 168.797 110.065 Q169.815 109.88 170.834 109.88 Q176.621 109.88 180.001 113.051 Q183.38 116.222 183.38 121.639 Q183.38 127.218 179.908 130.319 Q176.436 133.398 170.116 133.398 Q167.94 133.398 165.672 133.028 Q163.427 132.657 161.019 131.917 L161.019 127.218 Q163.102 128.352 165.325 128.907 Q167.547 129.463 170.024 129.463 Q174.028 129.463 176.366 127.356 Q178.704 125.25 178.704 121.639 Q178.704 118.028 176.366 115.921 Q174.028 113.815 170.024 113.815 Q168.149 113.815 166.274 114.232 Q164.422 114.648 162.477 115.528 L162.477 98.1668 Z" fill="#000000" fill-rule="nonzero" fill-opacity="1" /><path clip-path="url(#clip780)" d="M28.3562 718.597 L45.7028 731.488 L64.0042 717.929 L64.0042 724.836 L49.9996 735.212 L64.0042 745.588 L64.0042 752.495 L45.3526 738.649 L28.3562 751.317 L28.3562 744.41 L41.0558 734.957 L28.3562 725.504 L28.3562 718.597 Z" fill="#000000" fill-rule="nonzero" fill-opacity="1" /><circle clip-path="url(#clip781)" cx="1437.31" cy="1384.24" r="10.8" fill="#ff0000" fill-rule="evenodd" fill-opacity="1" stroke="none"/>
<circle clip-path="url(#clip781)" cx="2292.38" cy="1384.24" r="10.8" fill="#ff00ff" fill-rule="evenodd" fill-opacity="1" stroke="none"/>
<circle clip-path="url(#clip781)" cx="1194.38" cy="1276.24" r="10.8" fill="#ffa500" fill-rule="evenodd" fill-opacity="1" stroke="none"/>
<circle clip-path="url(#clip781)" cx="934.154" cy="1181.47" r="10.8" fill="#008000" fill-rule="evenodd" fill-opacity="1" stroke="none"/>
<circle clip-path="url(#clip781)" cx="280.131" cy="608.28" r="10.8" fill="#0000ff" fill-rule="evenodd" fill-opacity="1" stroke="none"/>
<polyline clip-path="url(#clip781)" style="stroke:#00a9ad; stroke-linecap:round; stroke-linejoin:round; stroke-width:8; stroke-opacity:1; fill:none" points="796.218,1384.24 849.115,1384.24 "/>
<polyline clip-path="url(#clip781)" style="stroke:#00a9ad; stroke-linecap:round; stroke-linejoin:round; stroke-width:8; stroke-opacity:1; fill:none" points="849.115,1384.24 928.461,1384.24 "/>
<polyline clip-path="url(#clip781)" style="stroke:#00a9ad; stroke-linecap:round; stroke-linejoin:round; stroke-width:8; stroke-opacity:1; fill:none" points="928.461,1384.24 1047.48,1384.24 "/>
<polyline clip-path="url(#clip781)" style="stroke:#00a9ad; stroke-linecap:round; stroke-linejoin:round; stroke-width:8; stroke-opacity:1; fill:none" points="1047.48,1384.24 1226.01,1384.24 "/>
<polyline clip-path="url(#clip781)" style="stroke:#00a9ad; stroke-linecap:round; stroke-linejoin:round; stroke-width:8; stroke-opacity:1; fill:none" points="1226.01,1384.24 1437.31,1384.24 "/>
<polyline clip-path="url(#clip781)" style="stroke:#00a9ad; stroke-linecap:round; stroke-linejoin:round; stroke-width:4; stroke-opacity:1; fill:none" points="1437.31,1384.24 1578.52,1384.24 "/>
<polyline clip-path="url(#clip781)" style="stroke:#00a9ad; stroke-linecap:round; stroke-linejoin:round; stroke-width:4; stroke-opacity:1; fill:none" points="1578.52,1384.24 2024.84,1384.24 "/>
<polyline clip-path="url(#clip781)" style="stroke:#00a9ad; stroke-linecap:round; stroke-linejoin:round; stroke-width:4; stroke-opacity:1; fill:none" points="2024.84,1384.24 2292.38,1384.24 "/>
<circle clip-path="url(#clip781)" cx="1437.31" cy="1384.24" r="10.8" fill="#ff0000" fill-rule="evenodd" fill-opacity="1" stroke="none"/>
<circle clip-path="url(#clip781)" cx="1578.52" cy="1384.24" r="10.8" fill="#ff0000" fill-rule="evenodd" fill-opacity="1" stroke="none"/>
<circle clip-path="url(#clip781)" cx="2024.84" cy="1384.24" r="10.8" fill="#ff0000" fill-rule="evenodd" fill-opacity="1" stroke="none"/>
<circle clip-path="url(#clip781)" cx="2292.38" cy="1384.24" r="10.8" fill="#ff00ff" fill-rule="evenodd" fill-opacity="1" stroke="none"/>
<polyline clip-path="url(#clip781)" style="stroke:#c68125; stroke-linecap:round; stroke-linejoin:round; stroke-width:4; stroke-opacity:1; fill:none" points="1433.57,1377.66 1432.93,1376.6 "/>
<polyline clip-path="url(#clip781)" style="stroke:#c68125; stroke-linecap:round; stroke-linejoin:round; stroke-width:4; stroke-opacity:1; fill:none" points="1432.93,1376.6 1431.86,1375.08 "/>
<polyline clip-path="url(#clip781)" style="stroke:#c68125; stroke-linecap:round; stroke-linejoin:round; stroke-width:4; stroke-opacity:1; fill:none" points="1431.86,1375.08 1430.03,1372.9 "/>
<polyline clip-path="url(#clip781)" style="stroke:#c68125; stroke-linecap:round; stroke-linejoin:round; stroke-width:4; stroke-opacity:1; fill:none" points="1430.03,1372.9 1426.83,1369.77 "/>
<polyline clip-path="url(#clip781)" style="stroke:#c68125; stroke-linecap:round; stroke-linejoin:round; stroke-width:4; stroke-opacity:1; fill:none" points="1426.83,1369.77 1421.17,1365.28 "/>
<polyline clip-path="url(#clip781)" style="stroke:#c68125; stroke-linecap:round; stroke-linejoin:round; stroke-width:4; stroke-opacity:1; fill:none" points="1421.17,1365.28 1411.14,1358.87 "/>
<polyline clip-path="url(#clip781)" style="stroke:#c68125; stroke-linecap:round; stroke-linejoin:round; stroke-width:4; stroke-opacity:1; fill:none" points="1411.14,1358.87 1393.63,1349.75 "/>
<polyline clip-path="url(#clip781)" style="stroke:#c68125; stroke-linecap:round; stroke-linejoin:round; stroke-width:4; stroke-opacity:1; fill:none" points="1393.63,1349.75 1364.87,1337.14 "/>
<polyline clip-path="url(#clip781)" style="stroke:#c68125; stroke-linecap:round; stroke-linejoin:round; stroke-width:4; stroke-opacity:1; fill:none" points="1364.87,1337.14 1319.61,1319.81 "/>
<polyline clip-path="url(#clip781)" style="stroke:#c68125; stroke-linecap:round; stroke-linejoin:round; stroke-width:4; stroke-opacity:1; fill:none" points="1319.61,1319.81 1258.27,1298.19 "/>
<polyline clip-path="url(#clip781)" style="stroke:#c68125; stroke-linecap:round; stroke-linejoin:round; stroke-width:4; stroke-opacity:1; fill:none" points="1258.27,1298.19 1194.38,1276.24 "/>
<polyline clip-path="url(#clip781)" style="stroke:#c68125; stroke-linecap:round; stroke-linejoin:round; stroke-width:4; stroke-opacity:1; fill:none" points="1194.38,1276.24 1129.37,1253.82 "/>
<polyline clip-path="url(#clip781)" style="stroke:#c68125; stroke-linecap:round; stroke-linejoin:round; stroke-width:4; stroke-opacity:1; fill:none" points="1129.37,1253.82 1064.04,1230.69 "/>
<polyline clip-path="url(#clip781)" style="stroke:#c68125; stroke-linecap:round; stroke-linejoin:round; stroke-width:4; stroke-opacity:1; fill:none" points="1064.04,1230.69 998.865,1206.62 "/>
<polyline clip-path="url(#clip781)" style="stroke:#c68125; stroke-linecap:round; stroke-linejoin:round; stroke-width:4; stroke-opacity:1; fill:none" points="998.865,1206.62 934.154,1181.47 "/>
<polyline clip-path="url(#clip781)" style="stroke:#c68125; stroke-linecap:round; stroke-linejoin:round; stroke-width:4; stroke-opacity:1; fill:none" points="934.154,1181.47 870.152,1155.31 "/>
<polyline clip-path="url(#clip781)" style="stroke:#c68125; stroke-linecap:round; stroke-linejoin:round; stroke-width:4; stroke-opacity:1; fill:none" points="870.152,1155.31 807.113,1127.66 "/>
<polyline clip-path="url(#clip781)" style="stroke:#c68125; stroke-linecap:round; stroke-linejoin:round; stroke-width:4; stroke-opacity:1; fill:none" points="807.113,1127.66 745.368,1098.68 "/>
<polyline clip-path="url(#clip781)" style="stroke:#c68125; stroke-linecap:round; stroke-linejoin:round; stroke-width:4; stroke-opacity:1; fill:none" points="745.368,1098.68 685.378,1068.5 "/>
<polyline clip-path="url(#clip781)" style="stroke:#c68125; stroke-linecap:round; stroke-linejoin:round; stroke-width:4; stroke-opacity:1; fill:none" points="685.378,1068.5 627.751,1037.17 "/>
<polyline clip-path="url(#clip781)" style="stroke:#c68125; stroke-linecap:round; stroke-linejoin:round; stroke-width:4; stroke-opacity:1; fill:none" points="627.751,1037.17 573.213,1004.82 "/>
<polyline clip-path="url(#clip781)" style="stroke:#c68125; stroke-linecap:round; stroke-linejoin:round; stroke-width:4; stroke-opacity:1; fill:none" points="573.213,1004.82 522.556,971.69 "/>
<polyline clip-path="url(#clip781)" style="stroke:#c68125; stroke-linecap:round; stroke-linejoin:round; stroke-width:4; stroke-opacity:1; fill:none" points="522.556,971.69 476.546,938.134 "/>
<polyline clip-path="url(#clip781)" style="stroke:#c68125; stroke-linecap:round; stroke-linejoin:round; stroke-width:4; stroke-opacity:1; fill:none" points="476.546,938.134 435.804,904.646 "/>
<polyline clip-path="url(#clip781)" style="stroke:#c68125; stroke-linecap:round; stroke-linejoin:round; stroke-width:4; stroke-opacity:1; fill:none" points="435.804,904.646 400.687,871.792 "/>
<polyline clip-path="url(#clip781)" style="stroke:#c68125; stroke-linecap:round; stroke-linejoin:round; stroke-width:4; stroke-opacity:1; fill:none" points="400.687,871.792 371.222,840.134 "/>
<polyline clip-path="url(#clip781)" style="stroke:#c68125; stroke-linecap:round; stroke-linejoin:round; stroke-width:4; stroke-opacity:1; fill:none" points="371.222,840.134 347.12,809.158 "/>
<polyline clip-path="url(#clip781)" style="stroke:#c68125; stroke-linecap:round; stroke-linejoin:round; stroke-width:4; stroke-opacity:1; fill:none" points="347.12,809.158 327.865,779.766 "/>
<polyline clip-path="url(#clip781)" style="stroke:#c68125; stroke-linecap:round; stroke-linejoin:round; stroke-width:4; stroke-opacity:1; fill:none" points="327.865,779.766 312.829,752.461 "/>
<polyline clip-path="url(#clip781)" style="stroke:#c68125; stroke-linecap:round; stroke-linejoin:round; stroke-width:4; stroke-opacity:1; fill:none" points="312.829,752.461 301.368,727.337 "/>
<polyline clip-path="url(#clip781)" style="stroke:#c68125; stroke-linecap:round; stroke-linejoin:round; stroke-width:4; stroke-opacity:1; fill:none" points="301.368,727.337 292.887,703.84 "/>
<polyline clip-path="url(#clip781)" style="stroke:#c68125; stroke-linecap:round; stroke-linejoin:round; stroke-width:4; stroke-opacity:1; fill:none" points="292.887,703.84 286.871,681.473 "/>
<polyline clip-path="url(#clip781)" style="stroke:#c68125; stroke-linecap:round; stroke-linejoin:round; stroke-width:4; stroke-opacity:1; fill:none" points="286.871,681.473 282.893,661.111 "/>
<polyline clip-path="url(#clip781)" style="stroke:#c68125; stroke-linecap:round; stroke-linejoin:round; stroke-width:4; stroke-opacity:1; fill:none" points="282.893,661.111 280.611,642.571 "/>
<polyline clip-path="url(#clip781)" style="stroke:#c68125; stroke-linecap:round; stroke-linejoin:round; stroke-width:4; stroke-opacity:1; fill:none" points="280.611,642.571 279.759,624.95 "/>
<polyline clip-path="url(#clip781)" style="stroke:#c68125; stroke-linecap:round; stroke-linejoin:round; stroke-width:4; stroke-opacity:1; fill:none" points="279.759,624.95 280.131,608.28 "/>
<polyline clip-path="url(#clip781)" style="stroke:#c68125; stroke-linecap:round; stroke-linejoin:round; stroke-width:4; stroke-opacity:1; fill:none" points="280.131,608.28 281.575,592.967 "/>
<polyline clip-path="url(#clip781)" style="stroke:#c68125; stroke-linecap:round; stroke-linejoin:round; stroke-width:4; stroke-opacity:1; fill:none" points="281.575,592.967 283.978,578.79 "/>
<polyline clip-path="url(#clip781)" style="stroke:#c68125; stroke-linecap:round; stroke-linejoin:round; stroke-width:4; stroke-opacity:1; fill:none" points="283.978,578.79 287.259,564.696 "/>
<polyline clip-path="url(#clip781)" style="stroke:#c68125; stroke-linecap:round; stroke-linejoin:round; stroke-width:4; stroke-opacity:1; fill:none" points="287.259,564.696 291.361,551.406 "/>
<polyline clip-path="url(#clip781)" style="stroke:#c68125; stroke-linecap:round; stroke-linejoin:round; stroke-width:4; stroke-opacity:1; fill:none" points="291.361,551.406 296.244,538.844 "/>
<polyline clip-path="url(#clip781)" style="stroke:#c68125; stroke-linecap:round; stroke-linejoin:round; stroke-width:8; stroke-opacity:1; fill:none" points="296.244,538.844 301.881,526.582 "/>
<polyline clip-path="url(#clip781)" style="stroke:#c68125; stroke-linecap:round; stroke-linejoin:round; stroke-width:8; stroke-opacity:1; fill:none" points="301.881,526.582 308.251,514.344 "/>
<polyline clip-path="url(#clip781)" style="stroke:#c68125; stroke-linecap:round; stroke-linejoin:round; stroke-width:8; stroke-opacity:1; fill:none" points="308.251,514.344 315.339,502.532 "/>
<polyline clip-path="url(#clip781)" style="stroke:#c68125; stroke-linecap:round; stroke-linejoin:round; stroke-width:8; stroke-opacity:1; fill:none" points="315.339,502.532 323.129,491.026 "/>
<polyline clip-path="url(#clip781)" style="stroke:#c68125; stroke-linecap:round; stroke-linejoin:round; stroke-width:8; stroke-opacity:1; fill:none" points="323.129,491.026 331.606,479.225 "/>
<polyline clip-path="url(#clip781)" style="stroke:#c68125; stroke-linecap:round; stroke-linejoin:round; stroke-width:8; stroke-opacity:1; fill:none" points="331.606,479.225 340.751,467.629 "/>
<polyline clip-path="url(#clip781)" style="stroke:#c68125; stroke-linecap:round; stroke-linejoin:round; stroke-width:8; stroke-opacity:1; fill:none" points="340.751,467.629 350.542,456.197 "/>
<polyline clip-path="url(#clip781)" style="stroke:#c68125; stroke-linecap:round; stroke-linejoin:round; stroke-width:8; stroke-opacity:1; fill:none" points="350.542,456.197 360.951,444.569 "/>
<polyline clip-path="url(#clip781)" style="stroke:#c68125; stroke-linecap:round; stroke-linejoin:round; stroke-width:8; stroke-opacity:1; fill:none" points="360.951,444.569 371.947,432.957 "/>
<polyline clip-path="url(#clip781)" style="stroke:#c68125; stroke-linecap:round; stroke-linejoin:round; stroke-width:8; stroke-opacity:1; fill:none" points="371.947,432.957 383.493,421.457 "/>
<polyline clip-path="url(#clip781)" style="stroke:#c68125; stroke-linecap:round; stroke-linejoin:round; stroke-width:8; stroke-opacity:1; fill:none" points="383.493,421.457 395.549,409.812 "/>
<polyline clip-path="url(#clip781)" style="stroke:#c68125; stroke-linecap:round; stroke-linejoin:round; stroke-width:8; stroke-opacity:1; fill:none" points="395.549,409.812 408.072,398.172 "/>
<polyline clip-path="url(#clip781)" style="stroke:#c68125; stroke-linecap:round; stroke-linejoin:round; stroke-width:8; stroke-opacity:1; fill:none" points="408.072,398.172 421.015,386.648 "/>
<polyline clip-path="url(#clip781)" style="stroke:#c68125; stroke-linecap:round; stroke-linejoin:round; stroke-width:8; stroke-opacity:1; fill:none" points="421.015,386.648 434.329,375.011 "/>
<polyline clip-path="url(#clip781)" style="stroke:#c68125; stroke-linecap:round; stroke-linejoin:round; stroke-width:8; stroke-opacity:1; fill:none" points="434.329,375.011 447.966,363.461 "/>
<polyline clip-path="url(#clip781)" style="stroke:#c68125; stroke-linecap:round; stroke-linejoin:round; stroke-width:8; stroke-opacity:1; fill:none" points="447.966,363.461 461.873,352.048 "/>
<polyline clip-path="url(#clip781)" style="stroke:#c68125; stroke-linecap:round; stroke-linejoin:round; stroke-width:8; stroke-opacity:1; fill:none" points="461.873,352.048 476.001,340.563 "/>
<polyline clip-path="url(#clip781)" style="stroke:#c68125; stroke-linecap:round; stroke-linejoin:round; stroke-width:8; stroke-opacity:1; fill:none" points="476.001,340.563 490.299,329.269 "/>
<polyline clip-path="url(#clip781)" style="stroke:#c68125; stroke-linecap:round; stroke-linejoin:round; stroke-width:8; stroke-opacity:1; fill:none" points="490.299,329.269 504.719,318.075 "/>
<polyline clip-path="url(#clip781)" style="stroke:#c68125; stroke-linecap:round; stroke-linejoin:round; stroke-width:8; stroke-opacity:1; fill:none" points="504.719,318.075 519.215,306.98 "/>
<polyline clip-path="url(#clip781)" style="stroke:#c68125; stroke-linecap:round; stroke-linejoin:round; stroke-width:8; stroke-opacity:1; fill:none" points="519.215,306.98 533.741,296.109 "/>
<polyline clip-path="url(#clip781)" style="stroke:#c68125; stroke-linecap:round; stroke-linejoin:round; stroke-width:8; stroke-opacity:1; fill:none" points="533.741,296.109 548.258,285.309 "/>
<polyline clip-path="url(#clip781)" style="stroke:#c68125; stroke-linecap:round; stroke-linejoin:round; stroke-width:8; stroke-opacity:1; fill:none" points="548.258,285.309 562.727,274.745 "/>
<polyline clip-path="url(#clip781)" style="stroke:#c68125; stroke-linecap:round; stroke-linejoin:round; stroke-width:8; stroke-opacity:1; fill:none" points="562.727,274.745 577.114,264.355 "/>
<polyline clip-path="url(#clip781)" style="stroke:#c68125; stroke-linecap:round; stroke-linejoin:round; stroke-width:8; stroke-opacity:1; fill:none" points="577.114,264.355 591.391,254.152 "/>
<polyline clip-path="url(#clip781)" style="stroke:#c68125; stroke-linecap:round; stroke-linejoin:round; stroke-width:8; stroke-opacity:1; fill:none" points="591.391,254.152 605.53,244.196 "/>
<polyline clip-path="url(#clip781)" style="stroke:#c68125; stroke-linecap:round; stroke-linejoin:round; stroke-width:8; stroke-opacity:1; fill:none" points="605.53,244.196 619.509,234.388 "/>
<polyline clip-path="url(#clip781)" style="stroke:#c68125; stroke-linecap:round; stroke-linejoin:round; stroke-width:8; stroke-opacity:1; fill:none" points="619.509,234.388 633.307,224.851 "/>
<polyline clip-path="url(#clip781)" style="stroke:#c68125; stroke-linecap:round; stroke-linejoin:round; stroke-width:8; stroke-opacity:1; fill:none" points="633.307,224.851 646.906,215.492 "/>
<polyline clip-path="url(#clip781)" style="stroke:#c68125; stroke-linecap:round; stroke-linejoin:round; stroke-width:8; stroke-opacity:1; fill:none" points="646.906,215.492 660.286,206.379 "/>
<polyline clip-path="url(#clip781)" style="stroke:#c68125; stroke-linecap:round; stroke-linejoin:round; stroke-width:8; stroke-opacity:1; fill:none" points="660.286,206.379 673.427,197.5 "/>
<polyline clip-path="url(#clip781)" style="stroke:#c68125; stroke-linecap:round; stroke-linejoin:round; stroke-width:8; stroke-opacity:1; fill:none" points="673.427,197.5 686.306,188.841 "/>
<polyline clip-path="url(#clip781)" style="stroke:#c68125; stroke-linecap:round; stroke-linejoin:round; stroke-width:8; stroke-opacity:1; fill:none" points="686.306,188.841 698.895,180.467 "/>
<polyline clip-path="url(#clip781)" style="stroke:#c68125; stroke-linecap:round; stroke-linejoin:round; stroke-width:8; stroke-opacity:1; fill:none" points="698.895,180.467 711.159,172.323 "/>
<polyline clip-path="url(#clip781)" style="stroke:#c68125; stroke-linecap:round; stroke-linejoin:round; stroke-width:8; stroke-opacity:1; fill:none" points="711.159,172.323 723.059,164.486 "/>
<polyline clip-path="url(#clip781)" style="stroke:#c68125; stroke-linecap:round; stroke-linejoin:round; stroke-width:8; stroke-opacity:1; fill:none" points="723.059,164.486 734.548,156.983 "/>
<polyline clip-path="url(#clip781)" style="stroke:#c68125; stroke-linecap:round; stroke-linejoin:round; stroke-width:8; stroke-opacity:1; fill:none" points="734.548,156.983 745.577,149.781 "/>
<polyline clip-path="url(#clip781)" style="stroke:#c68125; stroke-linecap:round; stroke-linejoin:round; stroke-width:8; stroke-opacity:1; fill:none" points="745.577,149.781 756.096,142.967 "/>
<polyline clip-path="url(#clip781)" style="stroke:#c68125; stroke-linecap:round; stroke-linejoin:round; stroke-width:8; stroke-opacity:1; fill:none" points="756.096,142.967 766.056,136.56 "/>
<polyline clip-path="url(#clip781)" style="stroke:#c68125; stroke-linecap:round; stroke-linejoin:round; stroke-width:8; stroke-opacity:1; fill:none" points="766.056,136.56 775.417,130.576 "/>
<polyline clip-path="url(#clip781)" style="stroke:#c68125; stroke-linecap:round; stroke-linejoin:round; stroke-width:8; stroke-opacity:1; fill:none" points="775.417,130.576 784.148,125.024 "/>
<polyline clip-path="url(#clip781)" style="stroke:#c68125; stroke-linecap:round; stroke-linejoin:round; stroke-width:4; stroke-opacity:1; fill:none" points="784.148,125.024 792.229,119.908 "/>
<polyline clip-path="url(#clip781)" style="stroke:#c68125; stroke-linecap:round; stroke-linejoin:round; stroke-width:4; stroke-opacity:1; fill:none" points="792.229,119.908 799.656,115.242 "/>
<polyline clip-path="url(#clip781)" style="stroke:#c68125; stroke-linecap:round; stroke-linejoin:round; stroke-width:4; stroke-opacity:1; fill:none" points="799.656,115.242 806.437,111.018 "/>
<polyline clip-path="url(#clip781)" style="stroke:#c68125; stroke-linecap:round; stroke-linejoin:round; stroke-width:4; stroke-opacity:1; fill:none" points="806.437,111.018 812.593,107.22 "/>
<polyline clip-path="url(#clip781)" style="stroke:#c68125; stroke-linecap:round; stroke-linejoin:round; stroke-width:4; stroke-opacity:1; fill:none" points="812.593,107.22 818.151,103.808 "/>
<polyline clip-path="url(#clip781)" style="stroke:#c68125; stroke-linecap:round; stroke-linejoin:round; stroke-width:4; stroke-opacity:1; fill:none" points="818.151,103.808 823.147,100.773 "/>
<polyline clip-path="url(#clip781)" style="stroke:#c68125; stroke-linecap:round; stroke-linejoin:round; stroke-width:4; stroke-opacity:1; fill:none" points="823.147,100.773 827.616,98.0925 "/>
<polyline clip-path="url(#clip781)" style="stroke:#c68125; stroke-linecap:round; stroke-linejoin:round; stroke-width:4; stroke-opacity:1; fill:none" points="827.616,98.0925 831.599,95.7454 "/>
<polyline clip-path="url(#clip781)" style="stroke:#c68125; stroke-linecap:round; stroke-linejoin:round; stroke-width:4; stroke-opacity:1; fill:none" points="831.599,95.7454 835.132,93.7111 "/>
<polyline clip-path="url(#clip781)" style="stroke:#c68125; stroke-linecap:round; stroke-linejoin:round; stroke-width:4; stroke-opacity:1; fill:none" points="835.132,93.7111 838.251,91.9716 "/>
<polyline clip-path="url(#clip781)" style="stroke:#c68125; stroke-linecap:round; stroke-linejoin:round; stroke-width:4; stroke-opacity:1; fill:none" points="838.251,91.9716 840.991,90.5056 "/>
<polyline clip-path="url(#clip781)" style="stroke:#c68125; stroke-linecap:round; stroke-linejoin:round; stroke-width:4; stroke-opacity:1; fill:none" points="840.991,90.5056 843.383,89.2366 "/>
<polyline clip-path="url(#clip781)" style="stroke:#c68125; stroke-linecap:round; stroke-linejoin:round; stroke-width:4; stroke-opacity:1; fill:none" points="843.383,89.2366 845.455,88.2039 "/>
<polyline clip-path="url(#clip781)" style="stroke:#c68125; stroke-linecap:round; stroke-linejoin:round; stroke-width:4; stroke-opacity:1; fill:none" points="845.455,88.2039 847.233,87.3987 "/>
<polyline clip-path="url(#clip781)" style="stroke:#c68125; stroke-linecap:round; stroke-linejoin:round; stroke-width:4; stroke-opacity:1; fill:none" points="847.233,87.3987 848.738,86.8157 "/>
<polyline clip-path="url(#clip781)" style="stroke:#c68125; stroke-linecap:round; stroke-linejoin:round; stroke-width:4; stroke-opacity:1; fill:none" points="848.738,86.8157 849.99,86.454 "/>
<polyline clip-path="url(#clip781)" style="stroke:#c68125; stroke-linecap:round; stroke-linejoin:round; stroke-width:4; stroke-opacity:1; fill:none" points="849.99,86.454 851.005,86.2425 "/>
<polyline clip-path="url(#clip781)" style="stroke:#c68125; stroke-linecap:round; stroke-linejoin:round; stroke-width:4; stroke-opacity:1; fill:none" points="851.005,86.2425 851.795,86.1857 "/>
<polyline clip-path="url(#clip781)" style="stroke:#c68125; stroke-linecap:round; stroke-linejoin:round; stroke-width:4; stroke-opacity:1; fill:none" points="851.795,86.1857 852.371,86.3312 "/>
<polyline clip-path="url(#clip781)" style="stroke:#c68125; stroke-linecap:round; stroke-linejoin:round; stroke-width:4; stroke-opacity:1; fill:none" points="852.371,86.3312 852.74,86.689 "/>
<polyline clip-path="url(#clip781)" style="stroke:#c68125; stroke-linecap:round; stroke-linejoin:round; stroke-width:4; stroke-opacity:1; fill:none" points="852.74,86.689 852.907,87.2742 "/>
<polyline clip-path="url(#clip781)" style="stroke:#c68125; stroke-linecap:round; stroke-linejoin:round; stroke-width:4; stroke-opacity:1; fill:none" points="852.907,87.2742 852.887,87.9507 "/>
<polyline clip-path="url(#clip781)" style="stroke:#c68125; stroke-linecap:round; stroke-linejoin:round; stroke-width:4; stroke-opacity:1; fill:none" points="852.887,87.9507 852.676,88.7952 "/>
<polyline clip-path="url(#clip781)" style="stroke:#c68125; stroke-linecap:round; stroke-linejoin:round; stroke-width:4; stroke-opacity:1; fill:none" points="852.676,88.7952 852.258,89.8809 "/>
<polyline clip-path="url(#clip781)" style="stroke:#c68125; stroke-linecap:round; stroke-linejoin:round; stroke-width:4; stroke-opacity:1; fill:none" points="852.258,89.8809 851.626,91.2362 "/>
<polyline clip-path="url(#clip781)" style="stroke:#c68125; stroke-linecap:round; stroke-linejoin:round; stroke-width:4; stroke-opacity:1; fill:none" points="851.626,91.2362 850.769,92.8983 "/>
<polyline clip-path="url(#clip781)" style="stroke:#c68125; stroke-linecap:round; stroke-linejoin:round; stroke-width:4; stroke-opacity:1; fill:none" points="850.769,92.8983 849.671,94.8744 "/>
<polyline clip-path="url(#clip781)" style="stroke:#c68125; stroke-linecap:round; stroke-linejoin:round; stroke-width:4; stroke-opacity:1; fill:none" points="849.671,94.8744 848.315,96.9314 "/>
<polyline clip-path="url(#clip781)" style="stroke:#c68125; stroke-linecap:round; stroke-linejoin:round; stroke-width:4; stroke-opacity:1; fill:none" points="848.315,96.9314 846.677,99.3614 "/>
<polyline clip-path="url(#clip781)" style="stroke:#c68125; stroke-linecap:round; stroke-linejoin:round; stroke-width:4; stroke-opacity:1; fill:none" points="846.677,99.3614 844.728,102.228 "/>
<polyline clip-path="url(#clip781)" style="stroke:#c68125; stroke-linecap:round; stroke-linejoin:round; stroke-width:4; stroke-opacity:1; fill:none" points="844.728,102.228 842.433,105.612 "/>
<polyline clip-path="url(#clip781)" style="stroke:#c68125; stroke-linecap:round; stroke-linejoin:round; stroke-width:4; stroke-opacity:1; fill:none" points="842.433,105.612 839.75,109.507 "/>
<polyline clip-path="url(#clip781)" style="stroke:#c68125; stroke-linecap:round; stroke-linejoin:round; stroke-width:4; stroke-opacity:1; fill:none" points="839.75,109.507 836.625,113.62 "/>
<polyline clip-path="url(#clip781)" style="stroke:#c68125; stroke-linecap:round; stroke-linejoin:round; stroke-width:4; stroke-opacity:1; fill:none" points="836.625,113.62 832.998,118.424 "/>
<polyline clip-path="url(#clip781)" style="stroke:#c68125; stroke-linecap:round; stroke-linejoin:round; stroke-width:4; stroke-opacity:1; fill:none" points="832.998,118.424 828.793,124.059 "/>
<polyline clip-path="url(#clip781)" style="stroke:#c68125; stroke-linecap:round; stroke-linejoin:round; stroke-width:4; stroke-opacity:1; fill:none" points="828.793,124.059 823.921,130.687 "/>
<polyline clip-path="url(#clip781)" style="stroke:#c68125; stroke-linecap:round; stroke-linejoin:round; stroke-width:4; stroke-opacity:1; fill:none" points="823.921,130.687 818.28,138.006 "/>
<polyline clip-path="url(#clip781)" style="stroke:#c68125; stroke-linecap:round; stroke-linejoin:round; stroke-width:4; stroke-opacity:1; fill:none" points="818.28,138.006 811.757,146.241 "/>
<polyline clip-path="url(#clip781)" style="stroke:#c68125; stroke-linecap:round; stroke-linejoin:round; stroke-width:4; stroke-opacity:1; fill:none" points="811.757,146.241 804.234,155.871 "/>
<polyline clip-path="url(#clip781)" style="stroke:#c68125; stroke-linecap:round; stroke-linejoin:round; stroke-width:4; stroke-opacity:1; fill:none" points="804.234,155.871 795.605,167.075 "/>
<polyline clip-path="url(#clip781)" style="stroke:#c68125; stroke-linecap:round; stroke-linejoin:round; stroke-width:4; stroke-opacity:1; fill:none" points="795.605,167.075 785.806,179.949 "/>
<polyline clip-path="url(#clip781)" style="stroke:#c68125; stroke-linecap:round; stroke-linejoin:round; stroke-width:4; stroke-opacity:1; fill:none" points="785.806,179.949 774.836,193.633 "/>
<polyline clip-path="url(#clip781)" style="stroke:#c68125; stroke-linecap:round; stroke-linejoin:round; stroke-width:4; stroke-opacity:1; fill:none" points="774.836,193.633 762.787,208.912 "/>
<polyline clip-path="url(#clip781)" style="stroke:#c68125; stroke-linecap:round; stroke-linejoin:round; stroke-width:4; stroke-opacity:1; fill:none" points="762.787,208.912 749.835,225.598 "/>
<polyline clip-path="url(#clip781)" style="stroke:#c68125; stroke-linecap:round; stroke-linejoin:round; stroke-width:4; stroke-opacity:1; fill:none" points="749.835,225.598 736.211,243.41 "/>
<polyline clip-path="url(#clip781)" style="stroke:#c68125; stroke-linecap:round; stroke-linejoin:round; stroke-width:4; stroke-opacity:1; fill:none" points="736.211,243.41 722.153,262.032 "/>
<polyline clip-path="url(#clip781)" style="stroke:#c68125; stroke-linecap:round; stroke-linejoin:round; stroke-width:4; stroke-opacity:1; fill:none" points="722.153,262.032 707.876,281.172 "/>
<polyline clip-path="url(#clip781)" style="stroke:#c68125; stroke-linecap:round; stroke-linejoin:round; stroke-width:4; stroke-opacity:1; fill:none" points="707.876,281.172 693.554,300.558 "/>
<polyline clip-path="url(#clip781)" style="stroke:#c68125; stroke-linecap:round; stroke-linejoin:round; stroke-width:4; stroke-opacity:1; fill:none" points="693.554,300.558 679.324,319.86 "/>
<polyline clip-path="url(#clip781)" style="stroke:#c68125; stroke-linecap:round; stroke-linejoin:round; stroke-width:4; stroke-opacity:1; fill:none" points="679.324,319.86 665.291,339.212 "/>
<polyline clip-path="url(#clip781)" style="stroke:#c68125; stroke-linecap:round; stroke-linejoin:round; stroke-width:4; stroke-opacity:1; fill:none" points="665.291,339.212 651.536,358.495 "/>
<polyline clip-path="url(#clip781)" style="stroke:#c68125; stroke-linecap:round; stroke-linejoin:round; stroke-width:4; stroke-opacity:1; fill:none" points="651.536,358.495 638.124,377.621 "/>
<polyline clip-path="url(#clip781)" style="stroke:#c68125; stroke-linecap:round; stroke-linejoin:round; stroke-width:4; stroke-opacity:1; fill:none" points="638.124,377.621 625.109,396.525 "/>
<polyline clip-path="url(#clip781)" style="stroke:#c68125; stroke-linecap:round; stroke-linejoin:round; stroke-width:4; stroke-opacity:1; fill:none" points="625.109,396.525 612.537,415.166 "/>
<polyline clip-path="url(#clip781)" style="stroke:#c68125; stroke-linecap:round; stroke-linejoin:round; stroke-width:4; stroke-opacity:1; fill:none" points="612.537,415.166 600.448,433.516 "/>
<polyline clip-path="url(#clip781)" style="stroke:#c68125; stroke-linecap:round; stroke-linejoin:round; stroke-width:4; stroke-opacity:1; fill:none" points="600.448,433.516 588.883,451.505 "/>
<polyline clip-path="url(#clip781)" style="stroke:#c68125; stroke-linecap:round; stroke-linejoin:round; stroke-width:4; stroke-opacity:1; fill:none" points="588.883,451.505 577.876,469.144 "/>
<polyline clip-path="url(#clip781)" style="stroke:#c68125; stroke-linecap:round; stroke-linejoin:round; stroke-width:4; stroke-opacity:1; fill:none" points="577.876,469.144 567.461,486.494 "/>
<polyline clip-path="url(#clip781)" style="stroke:#c68125; stroke-linecap:round; stroke-linejoin:round; stroke-width:4; stroke-opacity:1; fill:none" points="567.461,486.494 557.671,503.574 "/>
<polyline clip-path="url(#clip781)" style="stroke:#c68125; stroke-linecap:round; stroke-linejoin:round; stroke-width:4; stroke-opacity:1; fill:none" points="557.671,503.574 548.538,520.412 "/>
<polyline clip-path="url(#clip781)" style="stroke:#c68125; stroke-linecap:round; stroke-linejoin:round; stroke-width:4; stroke-opacity:1; fill:none" points="548.538,520.412 540.089,537.045 "/>
<polyline clip-path="url(#clip781)" style="stroke:#c68125; stroke-linecap:round; stroke-linejoin:round; stroke-width:4; stroke-opacity:1; fill:none" points="540.089,537.045 532.352,553.529 "/>
<polyline clip-path="url(#clip781)" style="stroke:#c68125; stroke-linecap:round; stroke-linejoin:round; stroke-width:4; stroke-opacity:1; fill:none" points="532.352,553.529 525.349,569.893 "/>
<polyline clip-path="url(#clip781)" style="stroke:#c68125; stroke-linecap:round; stroke-linejoin:round; stroke-width:4; stroke-opacity:1; fill:none" points="525.349,569.893 519.1,586.419 "/>
<polyline clip-path="url(#clip781)" style="stroke:#c68125; stroke-linecap:round; stroke-linejoin:round; stroke-width:4; stroke-opacity:1; fill:none" points="519.1,586.419 513.632,603.39 "/>
<polyline clip-path="url(#clip781)" style="stroke:#c68125; stroke-linecap:round; stroke-linejoin:round; stroke-width:4; stroke-opacity:1; fill:none" points="513.632,603.39 509.01,621.177 "/>
<polyline clip-path="url(#clip781)" style="stroke:#c68125; stroke-linecap:round; stroke-linejoin:round; stroke-width:4; stroke-opacity:1; fill:none" points="509.01,621.177 505.367,639.898 "/>
<polyline clip-path="url(#clip781)" style="stroke:#c68125; stroke-linecap:round; stroke-linejoin:round; stroke-width:4; stroke-opacity:1; fill:none" points="505.367,639.898 502.865,659.438 "/>
<polyline clip-path="url(#clip781)" style="stroke:#c68125; stroke-linecap:round; stroke-linejoin:round; stroke-width:4; stroke-opacity:1; fill:none" points="502.865,659.438 501.613,679.596 "/>
<polyline clip-path="url(#clip781)" style="stroke:#c68125; stroke-linecap:round; stroke-linejoin:round; stroke-width:4; stroke-opacity:1; fill:none" points="501.613,679.596 501.653,678.344 "/>
<polyline clip-path="url(#clip781)" style="stroke:#c68125; stroke-linecap:round; stroke-linejoin:round; stroke-width:4; stroke-opacity:1; fill:none" points="501.653,678.344 502.981,658.247 "/>
<polyline clip-path="url(#clip781)" style="stroke:#c68125; stroke-linecap:round; stroke-linejoin:round; stroke-width:4; stroke-opacity:1; fill:none" points="502.981,658.247 505.55,638.773 "/>
<polyline clip-path="url(#clip781)" style="stroke:#c68125; stroke-linecap:round; stroke-linejoin:round; stroke-width:4; stroke-opacity:1; fill:none" points="505.55,638.773 509.254,620.113 "/>
<polyline clip-path="url(#clip781)" style="stroke:#c68125; stroke-linecap:round; stroke-linejoin:round; stroke-width:4; stroke-opacity:1; fill:none" points="509.254,620.113 513.936,602.356 "/>
<polyline clip-path="url(#clip781)" style="stroke:#c68125; stroke-linecap:round; stroke-linejoin:round; stroke-width:4; stroke-opacity:1; fill:none" points="513.936,602.356 519.46,585.399 "/>
<polyline clip-path="url(#clip781)" style="stroke:#c68125; stroke-linecap:round; stroke-linejoin:round; stroke-width:4; stroke-opacity:1; fill:none" points="519.46,585.399 525.757,568.885 "/>
<polyline clip-path="url(#clip781)" style="stroke:#c68125; stroke-linecap:round; stroke-linejoin:round; stroke-width:4; stroke-opacity:1; fill:none" points="525.757,568.885 532.804,552.528 "/>
<polyline clip-path="url(#clip781)" style="stroke:#c68125; stroke-linecap:round; stroke-linejoin:round; stroke-width:4; stroke-opacity:1; fill:none" points="532.804,552.528 540.582,536.039 "/>
<polyline clip-path="url(#clip781)" style="stroke:#c68125; stroke-linecap:round; stroke-linejoin:round; stroke-width:4; stroke-opacity:1; fill:none" points="540.582,536.039 549.072,519.398 "/>
<polyline clip-path="url(#clip781)" style="stroke:#c68125; stroke-linecap:round; stroke-linejoin:round; stroke-width:4; stroke-opacity:1; fill:none" points="549.072,519.398 558.246,502.547 "/>
<polyline clip-path="url(#clip781)" style="stroke:#c68125; stroke-linecap:round; stroke-linejoin:round; stroke-width:4; stroke-opacity:1; fill:none" points="558.246,502.547 568.075,485.45 "/>
<polyline clip-path="url(#clip781)" style="stroke:#c68125; stroke-linecap:round; stroke-linejoin:round; stroke-width:4; stroke-opacity:1; fill:none" points="568.075,485.45 578.529,468.079 "/>
<polyline clip-path="url(#clip781)" style="stroke:#c68125; stroke-linecap:round; stroke-linejoin:round; stroke-width:4; stroke-opacity:1; fill:none" points="578.529,468.079 589.575,450.417 "/>
<polyline clip-path="url(#clip781)" style="stroke:#c68125; stroke-linecap:round; stroke-linejoin:round; stroke-width:4; stroke-opacity:1; fill:none" points="589.575,450.417 601.177,432.397 "/>
<polyline clip-path="url(#clip781)" style="stroke:#c68125; stroke-linecap:round; stroke-linejoin:round; stroke-width:4; stroke-opacity:1; fill:none" points="601.177,432.397 613.299,414.023 "/>
<polyline clip-path="url(#clip781)" style="stroke:#c68125; stroke-linecap:round; stroke-linejoin:round; stroke-width:4; stroke-opacity:1; fill:none" points="613.299,414.023 625.903,395.361 "/>
<polyline clip-path="url(#clip781)" style="stroke:#c68125; stroke-linecap:round; stroke-linejoin:round; stroke-width:4; stroke-opacity:1; fill:none" points="625.903,395.361 638.947,376.438 "/>
<polyline clip-path="url(#clip781)" style="stroke:#c68125; stroke-linecap:round; stroke-linejoin:round; stroke-width:4; stroke-opacity:1; fill:none" points="638.947,376.438 652.383,357.299 "/>
<polyline clip-path="url(#clip781)" style="stroke:#c68125; stroke-linecap:round; stroke-linejoin:round; stroke-width:4; stroke-opacity:1; fill:none" points="652.383,357.299 666.157,338.01 "/>
<polyline clip-path="url(#clip781)" style="stroke:#c68125; stroke-linecap:round; stroke-linejoin:round; stroke-width:4; stroke-opacity:1; fill:none" points="666.157,338.01 680.201,318.661 "/>
<polyline clip-path="url(#clip781)" style="stroke:#c68125; stroke-linecap:round; stroke-linejoin:round; stroke-width:4; stroke-opacity:1; fill:none" points="680.201,318.661 694.434,299.375 "/>
<polyline clip-path="url(#clip781)" style="stroke:#c68125; stroke-linecap:round; stroke-linejoin:round; stroke-width:4; stroke-opacity:1; fill:none" points="694.434,299.375 708.747,279.998 "/>
<polyline clip-path="url(#clip781)" style="stroke:#c68125; stroke-linecap:round; stroke-linejoin:round; stroke-width:4; stroke-opacity:1; fill:none" points="708.747,279.998 723.002,260.9 "/>
<polyline clip-path="url(#clip781)" style="stroke:#c68125; stroke-linecap:round; stroke-linejoin:round; stroke-width:4; stroke-opacity:1; fill:none" points="723.002,260.9 737.024,242.34 "/>
<polyline clip-path="url(#clip781)" style="stroke:#c68125; stroke-linecap:round; stroke-linejoin:round; stroke-width:4; stroke-opacity:1; fill:none" points="737.024,242.34 750.598,224.608 "/>
<polyline clip-path="url(#clip781)" style="stroke:#c68125; stroke-linecap:round; stroke-linejoin:round; stroke-width:4; stroke-opacity:1; fill:none" points="750.598,224.608 763.491,208.013 "/>
<polyline clip-path="url(#clip781)" style="stroke:#c68125; stroke-linecap:round; stroke-linejoin:round; stroke-width:4; stroke-opacity:1; fill:none" points="763.491,208.013 775.476,192.829 "/>
<polyline clip-path="url(#clip781)" style="stroke:#c68125; stroke-linecap:round; stroke-linejoin:round; stroke-width:4; stroke-opacity:1; fill:none" points="775.476,192.829 786.381,179.206 "/>
<polyline clip-path="url(#clip781)" style="stroke:#c68125; stroke-linecap:round; stroke-linejoin:round; stroke-width:4; stroke-opacity:1; fill:none" points="786.381,179.206 796.118,166.405 "/>
<polyline clip-path="url(#clip781)" style="stroke:#c68125; stroke-linecap:round; stroke-linejoin:round; stroke-width:4; stroke-opacity:1; fill:none" points="796.118,166.405 804.686,155.288 "/>
<polyline clip-path="url(#clip781)" style="stroke:#c68125; stroke-linecap:round; stroke-linejoin:round; stroke-width:4; stroke-opacity:1; fill:none" points="804.686,155.288 812.153,145.738 "/>
<polyline clip-path="url(#clip781)" style="stroke:#c68125; stroke-linecap:round; stroke-linejoin:round; stroke-width:4; stroke-opacity:1; fill:none" points="812.153,145.738 818.626,137.573 "/>
<polyline clip-path="url(#clip781)" style="stroke:#c68125; stroke-linecap:round; stroke-linejoin:round; stroke-width:4; stroke-opacity:1; fill:none" points="818.626,137.573 824.221,130.275 "/>
<circle clip-path="url(#clip781)" cx="1194.38" cy="1276.24" r="10.8" fill="#ffa500" fill-rule="evenodd" fill-opacity="1" stroke="none"/>
<circle clip-path="url(#clip781)" cx="934.154" cy="1181.47" r="10.8" fill="#008000" fill-rule="evenodd" fill-opacity="1" stroke="none"/>
<circle clip-path="url(#clip781)" cx="280.131" cy="608.28" r="10.8" fill="#0000ff" fill-rule="evenodd" fill-opacity="1" stroke="none"/>
<circle clip-path="url(#clip781)" cx="296.244" cy="538.844" r="10.8" fill="#008000" fill-rule="evenodd" fill-opacity="1" stroke="none"/>
<circle clip-path="url(#clip781)" cx="784.148" cy="125.024" r="10.8" fill="#008000" fill-rule="evenodd" fill-opacity="1" stroke="none"/>
<circle clip-path="url(#clip781)" cx="852.887" cy="87.9507" r="10.8" fill="#0000ff" fill-rule="evenodd" fill-opacity="1" stroke="none"/>
<circle clip-path="url(#clip781)" cx="502.865" cy="659.438" r="10.8" fill="#008000" fill-rule="evenodd" fill-opacity="1" stroke="none"/>
<circle clip-path="url(#clip781)" cx="505.55" cy="638.773" r="10.8" fill="#008000" fill-rule="evenodd" fill-opacity="1" stroke="none"/>
<path clip-path="url(#clip780)" d="M1965.88 404.149 L2281.64 404.149 L2281.64 93.1086 L1965.88 93.1086  Z" fill="#ffffff" fill-rule="evenodd" fill-opacity="1"/>
<polyline clip-path="url(#clip780)" style="stroke:#000000; stroke-linecap:round; stroke-linejoin:round; stroke-width:4; stroke-opacity:1; fill:none" points="1965.88,404.149 2281.64,404.149 2281.64,93.1086 1965.88,93.1086 1965.88,404.149 "/>
<circle clip-path="url(#clip780)" cx="2060.69" cy="144.949" r="23.04" fill="#ff0000" fill-rule="evenodd" fill-opacity="1" stroke="none"/>
<path clip-path="url(#clip780)" d="M2177.22 146.581 L2177.22 162.229 L2172.96 162.229 L2172.96 146.719 Q2172.96 143.039 2171.53 141.21 Q2170.09 139.382 2167.22 139.382 Q2163.77 139.382 2161.78 141.581 Q2159.79 143.78 2159.79 147.576 L2159.79 162.229 L2155.51 162.229 L2155.51 126.21 L2159.79 126.21 L2159.79 140.331 Q2161.32 137.993 2163.38 136.835 Q2165.46 135.678 2168.17 135.678 Q2172.64 135.678 2174.93 138.456 Q2177.22 141.21 2177.22 146.581 Z" fill="#000000" fill-rule="nonzero" fill-opacity="1" /><path clip-path="url(#clip780)" d="M2195.76 139.289 Q2192.34 139.289 2190.35 141.974 Q2188.36 144.636 2188.36 149.289 Q2188.36 153.942 2190.32 156.627 Q2192.31 159.289 2195.76 159.289 Q2199.17 159.289 2201.16 156.604 Q2203.15 153.918 2203.15 149.289 Q2203.15 144.682 2201.16 141.997 Q2199.17 139.289 2195.76 139.289 M2195.76 135.678 Q2201.32 135.678 2204.49 139.289 Q2207.66 142.9 2207.66 149.289 Q2207.66 155.655 2204.49 159.289 Q2201.32 162.9 2195.76 162.9 Q2190.18 162.9 2187.01 159.289 Q2183.87 155.655 2183.87 149.289 Q2183.87 142.9 2187.01 139.289 Q2190.18 135.678 2195.76 135.678 Z" fill="#000000" fill-rule="nonzero" fill-opacity="1" /><path clip-path="url(#clip780)" d="M2218.84 158.34 L2218.84 172.09 L2214.56 172.09 L2214.56 136.303 L2218.84 136.303 L2218.84 140.238 Q2220.18 137.923 2222.22 136.812 Q2224.28 135.678 2227.13 135.678 Q2231.85 135.678 2234.79 139.428 Q2237.75 143.178 2237.75 149.289 Q2237.75 155.4 2234.79 159.15 Q2231.85 162.9 2227.13 162.9 Q2224.28 162.9 2222.22 161.789 Q2220.18 160.655 2218.84 158.34 M2233.33 149.289 Q2233.33 144.59 2231.39 141.928 Q2229.47 139.243 2226.09 139.243 Q2222.71 139.243 2220.76 141.928 Q2218.84 144.59 2218.84 149.289 Q2218.84 153.988 2220.76 156.673 Q2222.71 159.335 2226.09 159.335 Q2229.47 159.335 2231.39 156.673 Q2233.33 153.988 2233.33 149.289 Z" fill="#000000" fill-rule="nonzero" fill-opacity="1" /><path clip-path="url(#clip780)" d="M2257.94 126.21 L2257.94 129.752 L2253.87 129.752 Q2251.57 129.752 2250.67 130.678 Q2249.79 131.604 2249.79 134.011 L2249.79 136.303 L2256.8 136.303 L2256.8 139.613 L2249.79 139.613 L2249.79 162.229 L2245.51 162.229 L2245.51 139.613 L2241.43 139.613 L2241.43 136.303 L2245.51 136.303 L2245.51 134.497 Q2245.51 130.169 2247.52 128.201 Q2249.54 126.21 2253.91 126.21 L2257.94 126.21 Z" fill="#000000" fill-rule="nonzero" fill-opacity="1" /><circle clip-path="url(#clip780)" cx="2060.69" cy="196.789" r="23.04" fill="#ff00ff" fill-rule="evenodd" fill-opacity="1" stroke="none"/>
<path clip-path="url(#clip780)" d="M2177.22 198.421 L2177.22 214.069 L2172.96 214.069 L2172.96 198.559 Q2172.96 194.879 2171.53 193.05 Q2170.09 191.222 2167.22 191.222 Q2163.77 191.222 2161.78 193.421 Q2159.79 195.62 2159.79 199.416 L2159.79 214.069 L2155.51 214.069 L2155.51 188.143 L2159.79 188.143 L2159.79 192.171 Q2161.32 189.833 2163.38 188.675 Q2165.46 187.518 2168.17 187.518 Q2172.64 187.518 2174.93 190.296 Q2177.22 193.05 2177.22 198.421 Z" fill="#000000" fill-rule="nonzero" fill-opacity="1" /><path clip-path="url(#clip780)" d="M2202.78 192.078 L2202.78 178.05 L2207.04 178.05 L2207.04 214.069 L2202.78 214.069 L2202.78 210.18 Q2201.43 212.495 2199.37 213.629 Q2197.34 214.74 2194.47 214.74 Q2189.77 214.74 2186.81 210.99 Q2183.87 207.24 2183.87 201.129 Q2183.87 195.018 2186.81 191.268 Q2189.77 187.518 2194.47 187.518 Q2197.34 187.518 2199.37 188.652 Q2201.43 189.763 2202.78 192.078 M2188.26 201.129 Q2188.26 205.828 2190.18 208.513 Q2192.13 211.175 2195.51 211.175 Q2198.89 211.175 2200.83 208.513 Q2202.78 205.828 2202.78 201.129 Q2202.78 196.43 2200.83 193.768 Q2198.89 191.083 2195.51 191.083 Q2192.13 191.083 2190.18 193.768 Q2188.26 196.43 2188.26 201.129 Z" fill="#000000" fill-rule="nonzero" fill-opacity="1" /><circle clip-path="url(#clip780)" cx="2060.69" cy="248.629" r="23.04" fill="#ffa500" fill-rule="evenodd" fill-opacity="1" stroke="none"/>
<path clip-path="url(#clip780)" d="M2177.22 250.261 L2177.22 265.909 L2172.96 265.909 L2172.96 250.399 Q2172.96 246.719 2171.53 244.89 Q2170.09 243.062 2167.22 243.062 Q2163.77 243.062 2161.78 245.261 Q2159.79 247.46 2159.79 251.256 L2159.79 265.909 L2155.51 265.909 L2155.51 239.983 L2159.79 239.983 L2159.79 244.011 Q2161.32 241.673 2163.38 240.515 Q2165.46 239.358 2168.17 239.358 Q2172.64 239.358 2174.93 242.136 Q2177.22 244.89 2177.22 250.261 Z" fill="#000000" fill-rule="nonzero" fill-opacity="1" /><path clip-path="url(#clip780)" d="M2202.25 240.747 L2202.25 244.774 Q2200.44 243.849 2198.5 243.386 Q2196.55 242.923 2194.47 242.923 Q2191.3 242.923 2189.7 243.895 Q2188.12 244.867 2188.12 246.811 Q2188.12 248.293 2189.26 249.149 Q2190.39 249.983 2193.82 250.747 L2195.28 251.071 Q2199.81 252.043 2201.71 253.825 Q2203.63 255.585 2203.63 258.756 Q2203.63 262.367 2200.76 264.473 Q2197.92 266.58 2192.92 266.58 Q2190.83 266.58 2188.56 266.163 Q2186.32 265.77 2183.82 264.96 L2183.82 260.561 Q2186.18 261.788 2188.47 262.413 Q2190.76 263.015 2193.01 263.015 Q2196.02 263.015 2197.64 261.997 Q2199.26 260.955 2199.26 259.08 Q2199.26 257.344 2198.08 256.418 Q2196.92 255.492 2192.96 254.636 L2191.48 254.288 Q2187.52 253.455 2185.76 251.742 Q2184 250.006 2184 246.997 Q2184 243.339 2186.6 241.349 Q2189.19 239.358 2193.96 239.358 Q2196.32 239.358 2198.4 239.705 Q2200.49 240.052 2202.25 240.747 Z" fill="#000000" fill-rule="nonzero" fill-opacity="1" /><circle clip-path="url(#clip780)" cx="2060.69" cy="300.469" r="23.04" fill="#008000" fill-rule="evenodd" fill-opacity="1" stroke="none"/>
<path clip-path="url(#clip780)" d="M2159.79 313.86 L2159.79 327.61 L2155.51 327.61 L2155.51 291.823 L2159.79 291.823 L2159.79 295.758 Q2161.13 293.443 2163.17 292.332 Q2165.23 291.198 2168.08 291.198 Q2172.8 291.198 2175.74 294.948 Q2178.7 298.698 2178.7 304.809 Q2178.7 310.92 2175.74 314.67 Q2172.8 318.42 2168.08 318.42 Q2165.23 318.42 2163.17 317.309 Q2161.13 316.175 2159.79 313.86 M2174.28 304.809 Q2174.28 300.11 2172.34 297.448 Q2170.42 294.763 2167.04 294.763 Q2163.66 294.763 2161.71 297.448 Q2159.79 300.11 2159.79 304.809 Q2159.79 309.508 2161.71 312.193 Q2163.66 314.855 2167.04 314.855 Q2170.42 314.855 2172.34 312.193 Q2174.28 309.508 2174.28 304.809 Z" fill="#000000" fill-rule="nonzero" fill-opacity="1" /><path clip-path="url(#clip780)" d="M2202.82 295.758 L2202.82 281.73 L2207.08 281.73 L2207.08 317.749 L2202.82 317.749 L2202.82 313.86 Q2201.48 316.175 2199.42 317.309 Q2197.38 318.42 2194.51 318.42 Q2189.81 318.42 2186.85 314.67 Q2183.91 310.92 2183.91 304.809 Q2183.91 298.698 2186.85 294.948 Q2189.81 291.198 2194.51 291.198 Q2197.38 291.198 2199.42 292.332 Q2201.48 293.443 2202.82 295.758 M2188.31 304.809 Q2188.31 309.508 2190.23 312.193 Q2192.18 314.855 2195.56 314.855 Q2198.93 314.855 2200.88 312.193 Q2202.82 309.508 2202.82 304.809 Q2202.82 300.11 2200.88 297.448 Q2198.93 294.763 2195.56 294.763 Q2192.18 294.763 2190.23 297.448 Q2188.31 300.11 2188.31 304.809 Z" fill="#000000" fill-rule="nonzero" fill-opacity="1" /><circle clip-path="url(#clip780)" cx="2060.69" cy="352.309" r="23.04" fill="#0000ff" fill-rule="evenodd" fill-opacity="1" stroke="none"/>
<path clip-path="url(#clip780)" d="M2174.28 356.649 Q2174.28 351.95 2172.34 349.288 Q2170.42 346.603 2167.04 346.603 Q2163.66 346.603 2161.71 349.288 Q2159.79 351.95 2159.79 356.649 Q2159.79 361.348 2161.71 364.033 Q2163.66 366.695 2167.04 366.695 Q2170.42 366.695 2172.34 364.033 Q2174.28 361.348 2174.28 356.649 M2159.79 347.598 Q2161.13 345.283 2163.17 344.172 Q2165.23 343.038 2168.08 343.038 Q2172.8 343.038 2175.74 346.788 Q2178.7 350.538 2178.7 356.649 Q2178.7 362.76 2175.74 366.51 Q2172.8 370.26 2168.08 370.26 Q2165.23 370.26 2163.17 369.149 Q2161.13 368.015 2159.79 365.7 L2159.79 369.589 L2155.51 369.589 L2155.51 333.57 L2159.79 333.57 L2159.79 347.598 Z" fill="#000000" fill-rule="nonzero" fill-opacity="1" /><path clip-path="url(#clip780)" d="M2189.88 365.7 L2189.88 379.45 L2185.6 379.45 L2185.6 343.663 L2189.88 343.663 L2189.88 347.598 Q2191.23 345.283 2193.26 344.172 Q2195.32 343.038 2198.17 343.038 Q2202.89 343.038 2205.83 346.788 Q2208.8 350.538 2208.8 356.649 Q2208.8 362.76 2205.83 366.51 Q2202.89 370.26 2198.17 370.26 Q2195.32 370.26 2193.26 369.149 Q2191.23 368.015 2189.88 365.7 M2204.37 356.649 Q2204.37 351.95 2202.43 349.288 Q2200.51 346.603 2197.13 346.603 Q2193.75 346.603 2191.81 349.288 Q2189.88 351.95 2189.88 356.649 Q2189.88 361.348 2191.81 364.033 Q2193.75 366.695 2197.13 366.695 Q2200.51 366.695 2202.43 364.033 Q2204.37 361.348 2204.37 356.649 Z" fill="#000000" fill-rule="nonzero" fill-opacity="1" /></svg>
