<?xml version="1.0" encoding="utf-8"?>
<svg xmlns="http://www.w3.org/2000/svg" xmlns:xlink="http://www.w3.org/1999/xlink" width="600" height="400" viewBox="0 0 2400 1600">
<defs>
  <clipPath id="clip680">
    <rect x="0" y="0" width="2400" height="1600"/>
  </clipPath>
</defs>
<path clip-path="url(#clip680)" d="M0 1600 L2400 1600 L2400 0 L0 0  Z" fill="#ffffff" fill-rule="evenodd" fill-opacity="1"/>
<defs>
  <clipPath id="clip681">
    <rect x="219" y="47" width="2134" height="1377"/>
  </clipPath>
</defs>
<path clip-path="url(#clip680)" d="M219.38 1423.18 L2352.76 1423.18 L2352.76 47.2441 L219.38 47.2441  Z" fill="#ffffff" fill-rule="evenodd" fill-opacity="1"/>
<polyline clip-path="url(#clip681)" style="stroke:#000000; stroke-linecap:round; stroke-linejoin:round; stroke-width:2; stroke-opacity:0.1; fill:none" points="422.177,1423.18 422.177,47.2441 "/>
<polyline clip-path="url(#clip681)" style="stroke:#000000; stroke-linecap:round; stroke-linejoin:round; stroke-width:2; stroke-opacity:0.1; fill:none" points="796.217,1423.18 796.217,47.2441 "/>
<polyline clip-path="url(#clip681)" style="stroke:#000000; stroke-linecap:round; stroke-linejoin:round; stroke-width:2; stroke-opacity:0.1; fill:none" points="1170.26,1423.18 1170.26,47.2441 "/>
<polyline clip-path="url(#clip681)" style="stroke:#000000; stroke-linecap:round; stroke-linejoin:round; stroke-width:2; stroke-opacity:0.1; fill:none" points="1544.3,1423.18 1544.3,47.2441 "/>
<polyline clip-path="url(#clip681)" style="stroke:#000000; stroke-linecap:round; stroke-linejoin:round; stroke-width:2; stroke-opacity:0.1; fill:none" points="1918.34,1423.18 1918.34,47.2441 "/>
<polyline clip-path="url(#clip681)" style="stroke:#000000; stroke-linecap:round; stroke-linejoin:round; stroke-width:2; stroke-opacity:0.1; fill:none" points="2292.38,1423.18 2292.38,47.2441 "/>
<polyline clip-path="url(#clip681)" style="stroke:#000000; stroke-linecap:round; stroke-linejoin:round; stroke-width:2; stroke-opacity:0.1; fill:none" points="219.38,1384.24 2352.76,1384.24 "/>
<polyline clip-path="url(#clip681)" style="stroke:#000000; stroke-linecap:round; stroke-linejoin:round; stroke-width:2; stroke-opacity:0.1; fill:none" points="219.38,1130.48 2352.76,1130.48 "/>
<polyline clip-path="url(#clip681)" style="stroke:#000000; stroke-linecap:round; stroke-linejoin:round; stroke-width:2; stroke-opacity:0.1; fill:none" points="219.38,876.716 2352.76,876.716 "/>
<polyline clip-path="url(#clip681)" style="stroke:#000000; stroke-linecap:round; stroke-linejoin:round; stroke-width:2; stroke-opacity:0.1; fill:none" points="219.38,622.955 2352.76,622.955 "/>
<polyline clip-path="url(#clip681)" style="stroke:#000000; stroke-linecap:round; stroke-linejoin:round; stroke-width:2; stroke-opacity:0.1; fill:none" points="219.38,369.193 2352.76,369.193 "/>
<polyline clip-path="url(#clip681)" style="stroke:#000000; stroke-linecap:round; stroke-linejoin:round; stroke-width:2; stroke-opacity:0.1; fill:none" points="219.38,115.432 2352.76,115.432 "/>
<polyline clip-path="url(#clip680)" style="stroke:#000000; stroke-linecap:round; stroke-linejoin:round; stroke-width:4; stroke-opacity:1; fill:none" points="219.38,1423.18 2352.76,1423.18 "/>
<polyline clip-path="url(#clip680)" style="stroke:#000000; stroke-linecap:round; stroke-linejoin:round; stroke-width:4; stroke-opacity:1; fill:none" points="422.177,1423.18 422.177,1404.28 "/>
<polyline clip-path="url(#clip680)" style="stroke:#000000; stroke-linecap:round; stroke-linejoin:round; stroke-width:4; stroke-opacity:1; fill:none" points="796.217,1423.18 796.217,1404.28 "/>
<polyline clip-path="url(#clip680)" style="stroke:#000000; stroke-linecap:round; stroke-linejoin:round; stroke-width:4; stroke-opacity:1; fill:none" points="1170.26,1423.18 1170.26,1404.28 "/>
<polyline clip-path="url(#clip680)" style="stroke:#000000; stroke-linecap:round; stroke-linejoin:round; stroke-width:4; stroke-opacity:1; fill:none" points="1544.3,1423.18 1544.3,1404.28 "/>
<polyline clip-path="url(#clip680)" style="stroke:#000000; stroke-linecap:round; stroke-linejoin:round; stroke-width:4; stroke-opacity:1; fill:none" points="1918.34,1423.18 1918.34,1404.28 "/>
<polyline clip-path="url(#clip680)" style="stroke:#000000; stroke-linecap:round; stroke-linejoin:round; stroke-width:4; stroke-opacity:1; fill:none" points="2292.38,1423.18 2292.38,1404.28 "/>
<path clip-path="url(#clip680)" d="M400.059 1454.1 Q396.448 1454.1 394.62 1457.66 Q392.814 1461.2 392.814 1468.33 Q392.814 1475.44 394.62 1479.01 Q396.448 1482.55 400.059 1482.55 Q403.694 1482.55 405.499 1479.01 Q407.328 1475.44 407.328 1468.33 Q407.328 1461.2 405.499 1457.66 Q403.694 1454.1 400.059 1454.1 M400.059 1450.39 Q405.87 1450.39 408.925 1455 Q412.004 1459.58 412.004 1468.33 Q412.004 1477.06 408.925 1481.67 Q405.87 1486.25 400.059 1486.25 Q394.249 1486.25 391.171 1481.67 Q388.115 1477.06 388.115 1468.33 Q388.115 1459.58 391.171 1455 Q394.249 1450.39 400.059 1450.39 Z" fill="#000000" fill-rule="nonzero" fill-opacity="1" /><path clip-path="url(#clip680)" d="M420.221 1479.7 L425.106 1479.7 L425.106 1485.58 L420.221 1485.58 L420.221 1479.7 Z" fill="#000000" fill-rule="nonzero" fill-opacity="1" /><path clip-path="url(#clip680)" d="M435.337 1451.02 L453.693 1451.02 L453.693 1454.96 L439.619 1454.96 L439.619 1463.43 Q440.638 1463.08 441.656 1462.92 Q442.675 1462.73 443.693 1462.73 Q449.48 1462.73 452.86 1465.9 Q456.24 1469.08 456.24 1474.49 Q456.24 1480.07 452.767 1483.17 Q449.295 1486.25 442.976 1486.25 Q440.8 1486.25 438.531 1485.88 Q436.286 1485.51 433.879 1484.77 L433.879 1480.07 Q435.962 1481.2 438.184 1481.76 Q440.406 1482.32 442.883 1482.32 Q446.888 1482.32 449.226 1480.21 Q451.564 1478.1 451.564 1474.49 Q451.564 1470.88 449.226 1468.77 Q446.888 1466.67 442.883 1466.67 Q441.008 1466.67 439.133 1467.08 Q437.281 1467.5 435.337 1468.38 L435.337 1451.02 Z" fill="#000000" fill-rule="nonzero" fill-opacity="1" /><path clip-path="url(#clip680)" d="M773.521 1454.1 Q769.91 1454.1 768.081 1457.66 Q766.275 1461.2 766.275 1468.33 Q766.275 1475.44 768.081 1479.01 Q769.91 1482.55 773.521 1482.55 Q777.155 1482.55 778.961 1479.01 Q780.789 1475.44 780.789 1468.33 Q780.789 1461.2 778.961 1457.66 Q777.155 1454.1 773.521 1454.1 M773.521 1450.39 Q779.331 1450.39 782.386 1455 Q785.465 1459.58 785.465 1468.33 Q785.465 1477.06 782.386 1481.67 Q779.331 1486.25 773.521 1486.25 Q767.711 1486.25 764.632 1481.67 Q761.576 1477.06 761.576 1468.33 Q761.576 1459.58 764.632 1455 Q767.711 1450.39 773.521 1450.39 Z" fill="#000000" fill-rule="nonzero" fill-opacity="1" /><path clip-path="url(#clip680)" d="M793.683 1479.7 L798.567 1479.7 L798.567 1485.58 L793.683 1485.58 L793.683 1479.7 Z" fill="#000000" fill-rule="nonzero" fill-opacity="1" /><path clip-path="url(#clip680)" d="M819.331 1466.44 Q816.183 1466.44 814.331 1468.59 Q812.502 1470.74 812.502 1474.49 Q812.502 1478.22 814.331 1480.39 Q816.183 1482.55 819.331 1482.55 Q822.479 1482.55 824.307 1480.39 Q826.159 1478.22 826.159 1474.49 Q826.159 1470.74 824.307 1468.59 Q822.479 1466.44 819.331 1466.44 M828.613 1451.78 L828.613 1456.04 Q826.854 1455.21 825.048 1454.77 Q823.266 1454.33 821.507 1454.33 Q816.877 1454.33 814.423 1457.45 Q811.993 1460.58 811.646 1466.9 Q813.011 1464.89 815.071 1463.82 Q817.132 1462.73 819.608 1462.73 Q824.817 1462.73 827.826 1465.9 Q830.858 1469.05 830.858 1474.49 Q830.858 1479.82 827.71 1483.03 Q824.562 1486.25 819.331 1486.25 Q813.335 1486.25 810.164 1481.67 Q806.993 1477.06 806.993 1468.33 Q806.993 1460.14 810.882 1455.28 Q814.771 1450.39 821.321 1450.39 Q823.081 1450.39 824.863 1450.74 Q826.669 1451.09 828.613 1451.78 Z" fill="#000000" fill-rule="nonzero" fill-opacity="1" /><path clip-path="url(#clip680)" d="M1148.09 1454.1 Q1144.48 1454.1 1142.65 1457.66 Q1140.85 1461.2 1140.85 1468.33 Q1140.85 1475.44 1142.65 1479.01 Q1144.48 1482.55 1148.09 1482.55 Q1151.73 1482.55 1153.53 1479.01 Q1155.36 1475.44 1155.36 1468.33 Q1155.36 1461.2 1153.53 1457.66 Q1151.73 1454.1 1148.09 1454.1 M1148.09 1450.39 Q1153.9 1450.39 1156.96 1455 Q1160.04 1459.58 1160.04 1468.33 Q1160.04 1477.06 1156.96 1481.67 Q1153.9 1486.25 1148.09 1486.25 Q1142.28 1486.25 1139.2 1481.67 Q1136.15 1477.06 1136.15 1468.33 Q1136.15 1459.58 1139.2 1455 Q1142.28 1450.39 1148.09 1450.39 Z" fill="#000000" fill-rule="nonzero" fill-opacity="1" /><path clip-path="url(#clip680)" d="M1168.26 1479.7 L1173.14 1479.7 L1173.14 1485.58 L1168.26 1485.58 L1168.26 1479.7 Z" fill="#000000" fill-rule="nonzero" fill-opacity="1" /><path clip-path="url(#clip680)" d="M1182.14 1451.02 L1204.37 1451.02 L1204.37 1453.01 L1191.82 1485.58 L1186.94 1485.58 L1198.74 1454.96 L1182.14 1454.96 L1182.14 1451.02 Z" fill="#000000" fill-rule="nonzero" fill-opacity="1" /><path clip-path="url(#clip680)" d="M1521.73 1454.1 Q1518.12 1454.1 1516.29 1457.66 Q1514.48 1461.2 1514.48 1468.33 Q1514.48 1475.44 1516.29 1479.01 Q1518.12 1482.55 1521.73 1482.55 Q1525.36 1482.55 1527.17 1479.01 Q1529 1475.44 1529 1468.33 Q1529 1461.2 1527.17 1457.66 Q1525.36 1454.1 1521.73 1454.1 M1521.73 1450.39 Q1527.54 1450.39 1530.59 1455 Q1533.67 1459.58 1533.67 1468.33 Q1533.67 1477.06 1530.59 1481.67 Q1527.54 1486.25 1521.73 1486.25 Q1515.92 1486.25 1512.84 1481.67 Q1509.78 1477.06 1509.78 1468.33 Q1509.78 1459.58 1512.84 1455 Q1515.92 1450.39 1521.73 1450.39 Z" fill="#000000" fill-rule="nonzero" fill-opacity="1" /><path clip-path="url(#clip680)" d="M1541.89 1479.7 L1546.77 1479.7 L1546.77 1485.58 L1541.89 1485.58 L1541.89 1479.7 Z" fill="#000000" fill-rule="nonzero" fill-opacity="1" /><path clip-path="url(#clip680)" d="M1566.96 1469.17 Q1563.63 1469.17 1561.7 1470.95 Q1559.81 1472.73 1559.81 1475.86 Q1559.81 1478.98 1561.7 1480.77 Q1563.63 1482.55 1566.96 1482.55 Q1570.29 1482.55 1572.21 1480.77 Q1574.14 1478.96 1574.14 1475.86 Q1574.14 1472.73 1572.21 1470.95 Q1570.32 1469.17 1566.96 1469.17 M1562.28 1467.18 Q1559.27 1466.44 1557.58 1464.38 Q1555.92 1462.32 1555.92 1459.35 Q1555.92 1455.21 1558.86 1452.8 Q1561.82 1450.39 1566.96 1450.39 Q1572.12 1450.39 1575.06 1452.8 Q1578 1455.21 1578 1459.35 Q1578 1462.32 1576.31 1464.38 Q1574.64 1466.44 1571.66 1467.18 Q1575.04 1467.96 1576.91 1470.26 Q1578.81 1472.55 1578.81 1475.86 Q1578.81 1480.88 1575.73 1483.57 Q1572.68 1486.25 1566.96 1486.25 Q1561.24 1486.25 1558.16 1483.57 Q1555.11 1480.88 1555.11 1475.86 Q1555.11 1472.55 1557.01 1470.26 Q1558.9 1467.96 1562.28 1467.18 M1560.57 1459.79 Q1560.57 1462.48 1562.24 1463.98 Q1563.93 1465.49 1566.96 1465.49 Q1569.97 1465.49 1571.66 1463.98 Q1573.37 1462.48 1573.37 1459.79 Q1573.37 1457.11 1571.66 1455.6 Q1569.97 1454.1 1566.96 1454.1 Q1563.93 1454.1 1562.24 1455.6 Q1560.57 1457.11 1560.57 1459.79 Z" fill="#000000" fill-rule="nonzero" fill-opacity="1" /><path clip-path="url(#clip680)" d="M1895.81 1454.1 Q1892.2 1454.1 1890.37 1457.66 Q1888.57 1461.2 1888.57 1468.33 Q1888.57 1475.44 1890.37 1479.01 Q1892.2 1482.55 1895.81 1482.55 Q1899.45 1482.55 1901.25 1479.01 Q1903.08 1475.44 1903.08 1468.33 Q1903.08 1461.2 1901.25 1457.66 Q1899.45 1454.1 1895.81 1454.1 M1895.81 1450.39 Q1901.62 1450.39 1904.68 1455 Q1907.76 1459.58 1907.76 1468.33 Q1907.76 1477.06 1904.68 1481.67 Q1901.62 1486.25 1895.81 1486.25 Q1890 1486.25 1886.93 1481.67 Q1883.87 1477.06 1883.87 1468.33 Q1883.87 1459.58 1886.93 1455 Q1890 1450.39 1895.81 1450.39 Z" fill="#000000" fill-rule="nonzero" fill-opacity="1" /><path clip-path="url(#clip680)" d="M1915.98 1479.7 L1920.86 1479.7 L1920.86 1485.58 L1915.98 1485.58 L1915.98 1479.7 Z" fill="#000000" fill-rule="nonzero" fill-opacity="1" /><path clip-path="url(#clip680)" d="M1931.18 1484.86 L1931.18 1480.6 Q1932.94 1481.44 1934.75 1481.88 Q1936.55 1482.32 1938.29 1482.32 Q1942.92 1482.32 1945.35 1479.21 Q1947.8 1476.09 1948.15 1469.75 Q1946.81 1471.74 1944.75 1472.8 Q1942.69 1473.87 1940.19 1473.87 Q1935 1473.87 1931.97 1470.74 Q1928.96 1467.59 1928.96 1462.15 Q1928.96 1456.83 1932.11 1453.61 Q1935.26 1450.39 1940.49 1450.39 Q1946.49 1450.39 1949.63 1455 Q1952.8 1459.58 1952.8 1468.33 Q1952.8 1476.51 1948.92 1481.39 Q1945.05 1486.25 1938.5 1486.25 Q1936.74 1486.25 1934.93 1485.9 Q1933.13 1485.56 1931.18 1484.86 M1940.49 1470.21 Q1943.64 1470.21 1945.47 1468.06 Q1947.32 1465.9 1947.32 1462.15 Q1947.32 1458.43 1945.47 1456.27 Q1943.64 1454.1 1940.49 1454.1 Q1937.34 1454.1 1935.49 1456.27 Q1933.66 1458.43 1933.66 1462.15 Q1933.66 1465.9 1935.49 1468.06 Q1937.34 1470.21 1940.49 1470.21 Z" fill="#000000" fill-rule="nonzero" fill-opacity="1" /><path clip-path="url(#clip680)" d="M2259.53 1481.64 L2267.17 1481.64 L2267.17 1455.28 L2258.86 1456.95 L2258.86 1452.69 L2267.12 1451.02 L2271.8 1451.02 L2271.8 1481.64 L2279.44 1481.64 L2279.44 1485.58 L2259.53 1485.58 L2259.53 1481.64 Z" fill="#000000" fill-rule="nonzero" fill-opacity="1" /><path clip-path="url(#clip680)" d="M2288.88 1479.7 L2293.77 1479.7 L2293.77 1485.58 L2288.88 1485.58 L2288.88 1479.7 Z" fill="#000000" fill-rule="nonzero" fill-opacity="1" /><path clip-path="url(#clip680)" d="M2313.95 1454.1 Q2310.34 1454.1 2308.51 1457.66 Q2306.71 1461.2 2306.71 1468.33 Q2306.71 1475.44 2308.51 1479.01 Q2310.34 1482.55 2313.95 1482.55 Q2317.59 1482.55 2319.39 1479.01 Q2321.22 1475.44 2321.22 1468.33 Q2321.22 1461.2 2319.39 1457.66 Q2317.59 1454.1 2313.95 1454.1 M2313.95 1450.39 Q2319.76 1450.39 2322.82 1455 Q2325.9 1459.58 2325.9 1468.33 Q2325.9 1477.06 2322.82 1481.67 Q2319.76 1486.25 2313.95 1486.25 Q2308.14 1486.25 2305.06 1481.67 Q2302.01 1477.06 2302.01 1468.33 Q2302.01 1459.58 2305.06 1455 Q2308.14 1450.39 2313.95 1450.39 Z" fill="#000000" fill-rule="nonzero" fill-opacity="1" /><path clip-path="url(#clip680)" d="M1300.17 1533.76 L1300.17 1539.24 Q1297.69 1537.87 1295.17 1537.2 Q1292.69 1536.5 1290.14 1536.5 Q1284.44 1536.5 1281.29 1540.13 Q1278.14 1543.73 1278.14 1550.25 Q1278.14 1556.78 1281.29 1560.4 Q1284.44 1564 1290.14 1564 Q1292.69 1564 1295.17 1563.33 Q1297.69 1562.63 1300.17 1561.26 L1300.17 1566.68 Q1297.72 1567.82 1295.08 1568.39 Q1292.47 1568.97 1289.51 1568.97 Q1281.45 1568.97 1276.71 1563.91 Q1271.97 1558.85 1271.97 1550.25 Q1271.97 1541.53 1276.74 1536.53 Q1281.55 1531.54 1289.89 1531.54 Q1292.59 1531.54 1295.17 1532.11 Q1297.75 1532.65 1300.17 1533.76 Z" fill="#000000" fill-rule="nonzero" fill-opacity="1" /><polyline clip-path="url(#clip680)" style="stroke:#000000; stroke-linecap:round; stroke-linejoin:round; stroke-width:4; stroke-opacity:1; fill:none" points="219.38,1423.18 219.38,47.2441 "/>
<polyline clip-path="url(#clip680)" style="stroke:#000000; stroke-linecap:round; stroke-linejoin:round; stroke-width:4; stroke-opacity:1; fill:none" points="219.38,1384.24 238.278,1384.24 "/>
<polyline clip-path="url(#clip680)" style="stroke:#000000; stroke-linecap:round; stroke-linejoin:round; stroke-width:4; stroke-opacity:1; fill:none" points="219.38,1130.48 238.278,1130.48 "/>
<polyline clip-path="url(#clip680)" style="stroke:#000000; stroke-linecap:round; stroke-linejoin:round; stroke-width:4; stroke-opacity:1; fill:none" points="219.38,876.716 238.278,876.716 "/>
<polyline clip-path="url(#clip680)" style="stroke:#000000; stroke-linecap:round; stroke-linejoin:round; stroke-width:4; stroke-opacity:1; fill:none" points="219.38,622.955 238.278,622.955 "/>
<polyline clip-path="url(#clip680)" style="stroke:#000000; stroke-linecap:round; stroke-linejoin:round; stroke-width:4; stroke-opacity:1; fill:none" points="219.38,369.193 238.278,369.193 "/>
<polyline clip-path="url(#clip680)" style="stroke:#000000; stroke-linecap:round; stroke-linejoin:round; stroke-width:4; stroke-opacity:1; fill:none" points="219.38,115.432 238.278,115.432 "/>
<path clip-path="url(#clip680)" d="M126.205 1370.04 Q122.593 1370.04 120.765 1373.6 Q118.959 1377.14 118.959 1384.27 Q118.959 1391.38 120.765 1394.94 Q122.593 1398.49 126.205 1398.49 Q129.839 1398.49 131.644 1394.94 Q133.473 1391.38 133.473 1384.27 Q133.473 1377.14 131.644 1373.6 Q129.839 1370.04 126.205 1370.04 M126.205 1366.33 Q132.015 1366.33 135.07 1370.94 Q138.149 1375.52 138.149 1384.27 Q138.149 1393 135.07 1397.61 Q132.015 1402.19 126.205 1402.19 Q120.394 1402.19 117.316 1397.61 Q114.26 1393 114.26 1384.27 Q114.26 1375.52 117.316 1370.94 Q120.394 1366.33 126.205 1366.33 Z" fill="#000000" fill-rule="nonzero" fill-opacity="1" /><path clip-path="url(#clip680)" d="M146.366 1395.64 L151.251 1395.64 L151.251 1401.52 L146.366 1401.52 L146.366 1395.64 Z" fill="#000000" fill-rule="nonzero" fill-opacity="1" /><path clip-path="url(#clip680)" d="M171.436 1370.04 Q167.825 1370.04 165.996 1373.6 Q164.19 1377.14 164.19 1384.27 Q164.19 1391.38 165.996 1394.94 Q167.825 1398.49 171.436 1398.49 Q175.07 1398.49 176.876 1394.94 Q178.704 1391.38 178.704 1384.27 Q178.704 1377.14 176.876 1373.6 Q175.07 1370.04 171.436 1370.04 M171.436 1366.33 Q177.246 1366.33 180.301 1370.94 Q183.38 1375.52 183.38 1384.27 Q183.38 1393 180.301 1397.61 Q177.246 1402.19 171.436 1402.19 Q165.626 1402.19 162.547 1397.61 Q159.491 1393 159.491 1384.27 Q159.491 1375.52 162.547 1370.94 Q165.626 1366.33 171.436 1366.33 Z" fill="#000000" fill-rule="nonzero" fill-opacity="1" /><path clip-path="url(#clip680)" d="M127.2 1116.28 Q123.589 1116.28 121.76 1119.84 Q119.955 1123.38 119.955 1130.51 Q119.955 1137.62 121.76 1141.18 Q123.589 1144.72 127.2 1144.72 Q130.834 1144.72 132.64 1141.18 Q134.468 1137.62 134.468 1130.51 Q134.468 1123.38 132.64 1119.84 Q130.834 1116.28 127.2 1116.28 M127.2 1112.57 Q133.01 1112.57 136.066 1117.18 Q139.144 1121.76 139.144 1130.51 Q139.144 1139.24 136.066 1143.85 Q133.01 1148.43 127.2 1148.43 Q121.39 1148.43 118.311 1143.85 Q115.256 1139.24 115.256 1130.51 Q115.256 1121.76 118.311 1117.18 Q121.39 1112.57 127.2 1112.57 Z" fill="#000000" fill-rule="nonzero" fill-opacity="1" /><path clip-path="url(#clip680)" d="M147.362 1141.88 L152.246 1141.88 L152.246 1147.76 L147.362 1147.76 L147.362 1141.88 Z" fill="#000000" fill-rule="nonzero" fill-opacity="1" /><path clip-path="url(#clip680)" d="M162.477 1113.2 L180.834 1113.2 L180.834 1117.13 L166.76 1117.13 L166.76 1125.6 Q167.778 1125.26 168.797 1125.1 Q169.815 1124.91 170.834 1124.91 Q176.621 1124.91 180.001 1128.08 Q183.38 1131.25 183.38 1136.67 Q183.38 1142.25 179.908 1145.35 Q176.436 1148.43 170.116 1148.43 Q167.94 1148.43 165.672 1148.06 Q163.427 1147.69 161.019 1146.95 L161.019 1142.25 Q163.102 1143.38 165.325 1143.94 Q167.547 1144.49 170.024 1144.49 Q174.028 1144.49 176.366 1142.39 Q178.704 1140.28 178.704 1136.67 Q178.704 1133.06 176.366 1130.95 Q174.028 1128.85 170.024 1128.85 Q168.149 1128.85 166.274 1129.26 Q164.422 1129.68 162.477 1130.56 L162.477 1113.2 Z" fill="#000000" fill-rule="nonzero" fill-opacity="1" /><path clip-path="url(#clip680)" d="M117.015 890.061 L124.654 890.061 L124.654 863.695 L116.343 865.362 L116.343 861.102 L124.607 859.436 L129.283 859.436 L129.283 890.061 L136.922 890.061 L136.922 893.996 L117.015 893.996 L117.015 890.061 Z" fill="#000000" fill-rule="nonzero" fill-opacity="1" /><path clip-path="url(#clip680)" d="M146.366 888.116 L151.251 888.116 L151.251 893.996 L146.366 893.996 L146.366 888.116 Z" fill="#000000" fill-rule="nonzero" fill-opacity="1" /><path clip-path="url(#clip680)" d="M171.436 862.515 Q167.825 862.515 165.996 866.079 Q164.19 869.621 164.19 876.751 Q164.19 883.857 165.996 887.422 Q167.825 890.963 171.436 890.963 Q175.07 890.963 176.876 887.422 Q178.704 883.857 178.704 876.751 Q178.704 869.621 176.876 866.079 Q175.07 862.515 171.436 862.515 M171.436 858.811 Q177.246 858.811 180.301 863.417 Q183.38 868.001 183.38 876.751 Q183.38 885.477 180.301 890.084 Q177.246 894.667 171.436 894.667 Q165.626 894.667 162.547 890.084 Q159.491 885.477 159.491 876.751 Q159.491 868.001 162.547 863.417 Q165.626 858.811 171.436 858.811 Z" fill="#000000" fill-rule="nonzero" fill-opacity="1" /><path clip-path="url(#clip680)" d="M118.01 636.299 L125.649 636.299 L125.649 609.934 L117.339 611.601 L117.339 607.341 L125.603 605.675 L130.279 605.675 L130.279 636.299 L137.917 636.299 L137.917 640.235 L118.01 640.235 L118.01 636.299 Z" fill="#000000" fill-rule="nonzero" fill-opacity="1" /><path clip-path="url(#clip680)" d="M147.362 634.355 L152.246 634.355 L152.246 640.235 L147.362 640.235 L147.362 634.355 Z" fill="#000000" fill-rule="nonzero" fill-opacity="1" /><path clip-path="url(#clip680)" d="M162.477 605.675 L180.834 605.675 L180.834 609.61 L166.76 609.61 L166.76 618.082 Q167.778 617.735 168.797 617.573 Q169.815 617.388 170.834 617.388 Q176.621 617.388 180.001 620.559 Q183.38 623.73 183.38 629.147 Q183.38 634.725 179.908 637.827 Q176.436 640.906 170.116 640.906 Q167.94 640.906 165.672 640.536 Q163.427 640.165 161.019 639.424 L161.019 634.725 Q163.102 635.86 165.325 636.415 Q167.547 636.971 170.024 636.971 Q174.028 636.971 176.366 634.864 Q178.704 632.758 178.704 629.147 Q178.704 625.536 176.366 623.429 Q174.028 621.323 170.024 621.323 Q168.149 621.323 166.274 621.739 Q164.422 622.156 162.477 623.036 L162.477 605.675 Z" fill="#000000" fill-rule="nonzero" fill-opacity="1" /><path clip-path="url(#clip680)" d="M120.232 382.538 L136.552 382.538 L136.552 386.473 L114.607 386.473 L114.607 382.538 Q117.269 379.784 121.853 375.154 Q126.459 370.501 127.64 369.159 Q129.885 366.636 130.765 364.899 Q131.667 363.14 131.667 361.45 Q131.667 358.696 129.723 356.96 Q127.802 355.224 124.7 355.224 Q122.501 355.224 120.047 355.987 Q117.617 356.751 114.839 358.302 L114.839 353.58 Q117.663 352.446 120.117 351.867 Q122.57 351.288 124.607 351.288 Q129.978 351.288 133.172 353.974 Q136.367 356.659 136.367 361.149 Q136.367 363.279 135.556 365.2 Q134.769 367.099 132.663 369.691 Q132.084 370.362 128.982 373.58 Q125.88 376.774 120.232 382.538 Z" fill="#000000" fill-rule="nonzero" fill-opacity="1" /><path clip-path="url(#clip680)" d="M146.366 380.594 L151.251 380.594 L151.251 386.473 L146.366 386.473 L146.366 380.594 Z" fill="#000000" fill-rule="nonzero" fill-opacity="1" /><path clip-path="url(#clip680)" d="M171.436 354.992 Q167.825 354.992 165.996 358.557 Q164.19 362.099 164.19 369.228 Q164.19 376.335 165.996 379.899 Q167.825 383.441 171.436 383.441 Q175.07 383.441 176.876 379.899 Q178.704 376.335 178.704 369.228 Q178.704 362.099 176.876 358.557 Q175.07 354.992 171.436 354.992 M171.436 351.288 Q177.246 351.288 180.301 355.895 Q183.38 360.478 183.38 369.228 Q183.38 377.955 180.301 382.561 Q177.246 387.145 171.436 387.145 Q165.626 387.145 162.547 382.561 Q159.491 377.955 159.491 369.228 Q159.491 360.478 162.547 355.895 Q165.626 351.288 171.436 351.288 Z" fill="#000000" fill-rule="nonzero" fill-opacity="1" /><path clip-path="url(#clip680)" d="M121.228 128.777 L137.547 128.777 L137.547 132.712 L115.603 132.712 L115.603 128.777 Q118.265 126.022 122.848 121.393 Q127.455 116.74 128.635 115.397 Q130.88 112.874 131.76 111.138 Q132.663 109.379 132.663 107.689 Q132.663 104.935 130.718 103.198 Q128.797 101.462 125.695 101.462 Q123.496 101.462 121.043 102.226 Q118.612 102.99 115.834 104.541 L115.834 99.8188 Q118.658 98.6846 121.112 98.1059 Q123.566 97.5272 125.603 97.5272 Q130.973 97.5272 134.167 100.212 Q137.362 102.898 137.362 107.388 Q137.362 109.518 136.552 111.439 Q135.765 113.337 133.658 115.93 Q133.08 116.601 129.978 119.819 Q126.876 123.013 121.228 128.777 Z" fill="#000000" fill-rule="nonzero" fill-opacity="1" /><path clip-path="url(#clip680)" d="M147.362 126.833 L152.246 126.833 L152.246 132.712 L147.362 132.712 L147.362 126.833 Z" fill="#000000" fill-rule="nonzero" fill-opacity="1" /><path clip-path="url(#clip680)" d="M162.477 98.1522 L180.834 98.1522 L180.834 102.087 L166.76 102.087 L166.76 110.56 Q167.778 110.212 168.797 110.05 Q169.815 109.865 170.834 109.865 Q176.621 109.865 180.001 113.036 Q183.38 116.208 183.38 121.624 Q183.38 127.203 179.908 130.305 Q176.436 133.383 170.116 133.383 Q167.94 133.383 165.672 133.013 Q163.427 132.643 161.019 131.902 L161.019 127.203 Q163.102 128.337 165.325 128.893 Q167.547 129.448 170.024 129.448 Q174.028 129.448 176.366 127.342 Q178.704 125.235 178.704 121.624 Q178.704 118.013 176.366 115.907 Q174.028 113.8 170.024 113.8 Q168.149 113.8 166.274 114.217 Q164.422 114.634 162.477 115.513 L162.477 98.1522 Z" fill="#000000" fill-rule="nonzero" fill-opacity="1" /><path clip-path="url(#clip680)" d="M28.3562 718.597 L45.7028 731.488 L64.0042 717.929 L64.0042 724.836 L49.9996 735.212 L64.0042 745.588 L64.0042 752.495 L45.3526 738.649 L28.3562 751.317 L28.3562 744.41 L41.0558 734.957 L28.3562 725.504 L28.3562 718.597 Z" fill="#000000" fill-rule="nonzero" fill-opacity="1" /><circle clip-path="url(#clip681)" cx="1437.31" cy="1384.24" r="10.8" fill="#ff0000" fill-rule="evenodd" fill-opacity="1" stroke="none"/>
<circle clip-path="url(#clip681)" cx="2292.38" cy="1384.24" r="10.8" fill="#ff00ff" fill-rule="evenodd" fill-opacity="1" stroke="none"/>
<circle clip-path="url(#clip681)" cx="1193.28" cy="1275.86" r="10.8" fill="#ffa500" fill-rule="evenodd" fill-opacity="1" stroke="none"/>
<circle clip-path="url(#clip681)" cx="933.642" cy="1181.28" r="10.8" fill="#008000" fill-rule="evenodd" fill-opacity="1" stroke="none"/>
<circle clip-path="url(#clip681)" cx="280.126" cy="608.454" r="10.8" fill="#0000ff" fill-rule="evenodd" fill-opacity="1" stroke="none"/>
<polyline clip-path="url(#clip681)" style="stroke:#00a9ad; stroke-linecap:round; stroke-linejoin:round; stroke-width:8; stroke-opacity:1; fill:none" points="796.217,1384.24 849.115,1384.24 "/>
<polyline clip-path="url(#clip681)" style="stroke:#00a9ad; stroke-linecap:round; stroke-linejoin:round; stroke-width:8; stroke-opacity:1; fill:none" points="849.115,1384.24 928.46,1384.24 "/>
<polyline clip-path="url(#clip681)" style="stroke:#00a9ad; stroke-linecap:round; stroke-linejoin:round; stroke-width:8; stroke-opacity:1; fill:none" points="928.46,1384.24 1047.48,1384.24 "/>
<polyline clip-path="url(#clip681)" style="stroke:#00a9ad; stroke-linecap:round; stroke-linejoin:round; stroke-width:8; stroke-opacity:1; fill:none" points="1047.48,1384.24 1226.01,1384.24 "/>
<polyline clip-path="url(#clip681)" style="stroke:#00a9ad; stroke-linecap:round; stroke-linejoin:round; stroke-width:8; stroke-opacity:1; fill:none" points="1226.01,1384.24 1437.31,1384.24 "/>
<polyline clip-path="url(#clip681)" style="stroke:#00a9ad; stroke-linecap:round; stroke-linejoin:round; stroke-width:4; stroke-opacity:1; fill:none" points="1437.31,1384.24 1578.52,1384.24 "/>
<polyline clip-path="url(#clip681)" style="stroke:#00a9ad; stroke-linecap:round; stroke-linejoin:round; stroke-width:4; stroke-opacity:1; fill:none" points="1578.52,1384.24 2024.84,1384.24 "/>
<polyline clip-path="url(#clip681)" style="stroke:#00a9ad; stroke-linecap:round; stroke-linejoin:round; stroke-width:4; stroke-opacity:1; fill:none" points="2024.84,1384.24 2292.38,1384.24 "/>
<circle clip-path="url(#clip681)" cx="1437.31" cy="1384.24" r="10.8" fill="#ff0000" fill-rule="evenodd" fill-opacity="1" stroke="none"/>
<circle clip-path="url(#clip681)" cx="1578.52" cy="1384.24" r="10.8" fill="#ff0000" fill-rule="evenodd" fill-opacity="1" stroke="none"/>
<circle clip-path="url(#clip681)" cx="2024.84" cy="1384.24" r="10.8" fill="#ff0000" fill-rule="evenodd" fill-opacity="1" stroke="none"/>
<circle clip-path="url(#clip681)" cx="2292.38" cy="1384.24" r="10.8" fill="#ff00ff" fill-rule="evenodd" fill-opacity="1" stroke="none"/>
<polyline clip-path="url(#clip681)" style="stroke:#c68125; stroke-linecap:round; stroke-linejoin:round; stroke-width:4; stroke-opacity:1; fill:none" points="1433.57,1377.67 1432.94,1376.61 "/>
<polyline clip-path="url(#clip681)" style="stroke:#c68125; stroke-linecap:round; stroke-linejoin:round; stroke-width:4; stroke-opacity:1; fill:none" points="1432.94,1376.61 1431.88,1375.1 "/>
<polyline clip-path="url(#clip681)" style="stroke:#c68125; stroke-linecap:round; stroke-linejoin:round; stroke-width:4; stroke-opacity:1; fill:none" points="1431.88,1375.1 1430.07,1372.94 "/>
<polyline clip-path="url(#clip681)" style="stroke:#c68125; stroke-linecap:round; stroke-linejoin:round; stroke-width:4; stroke-opacity:1; fill:none" points="1430.07,1372.94 1426.91,1369.83 "/>
<polyline clip-path="url(#clip681)" style="stroke:#c68125; stroke-linecap:round; stroke-linejoin:round; stroke-width:4; stroke-opacity:1; fill:none" points="1426.91,1369.83 1421.31,1365.38 "/>
<polyline clip-path="url(#clip681)" style="stroke:#c68125; stroke-linecap:round; stroke-linejoin:round; stroke-width:4; stroke-opacity:1; fill:none" points="1421.31,1365.38 1411.38,1359.01 "/>
<polyline clip-path="url(#clip681)" style="stroke:#c68125; stroke-linecap:round; stroke-linejoin:round; stroke-width:4; stroke-opacity:1; fill:none" points="1411.38,1359.01 1394.03,1349.92 "/>
<polyline clip-path="url(#clip681)" style="stroke:#c68125; stroke-linecap:round; stroke-linejoin:round; stroke-width:4; stroke-opacity:1; fill:none" points="1394.03,1349.92 1364.66,1337.06 "/>
<polyline clip-path="url(#clip681)" style="stroke:#c68125; stroke-linecap:round; stroke-linejoin:round; stroke-width:4; stroke-opacity:1; fill:none" points="1364.66,1337.06 1318.3,1319.34 "/>
<polyline clip-path="url(#clip681)" style="stroke:#c68125; stroke-linecap:round; stroke-linejoin:round; stroke-width:4; stroke-opacity:1; fill:none" points="1318.3,1319.34 1257.05,1297.72 "/>
<polyline clip-path="url(#clip681)" style="stroke:#c68125; stroke-linecap:round; stroke-linejoin:round; stroke-width:4; stroke-opacity:1; fill:none" points="1257.05,1297.72 1193.28,1275.86 "/>
<polyline clip-path="url(#clip681)" style="stroke:#c68125; stroke-linecap:round; stroke-linejoin:round; stroke-width:4; stroke-opacity:1; fill:none" points="1193.28,1275.86 1128.41,1253.54 "/>
<polyline clip-path="url(#clip681)" style="stroke:#c68125; stroke-linecap:round; stroke-linejoin:round; stroke-width:4; stroke-opacity:1; fill:none" points="1128.41,1253.54 1063.23,1230.36 "/>
<polyline clip-path="url(#clip681)" style="stroke:#c68125; stroke-linecap:round; stroke-linejoin:round; stroke-width:4; stroke-opacity:1; fill:none" points="1063.23,1230.36 998.202,1206.44 "/>
<polyline clip-path="url(#clip681)" style="stroke:#c68125; stroke-linecap:round; stroke-linejoin:round; stroke-width:4; stroke-opacity:1; fill:none" points="998.202,1206.44 933.642,1181.28 "/>
<polyline clip-path="url(#clip681)" style="stroke:#c68125; stroke-linecap:round; stroke-linejoin:round; stroke-width:4; stroke-opacity:1; fill:none" points="933.642,1181.28 869.788,1154.99 "/>
<polyline clip-path="url(#clip681)" style="stroke:#c68125; stroke-linecap:round; stroke-linejoin:round; stroke-width:4; stroke-opacity:1; fill:none" points="869.788,1154.99 806.89,1127.58 "/>
<polyline clip-path="url(#clip681)" style="stroke:#c68125; stroke-linecap:round; stroke-linejoin:round; stroke-width:4; stroke-opacity:1; fill:none" points="806.89,1127.58 745.277,1098.9 "/>
<polyline clip-path="url(#clip681)" style="stroke:#c68125; stroke-linecap:round; stroke-linejoin:round; stroke-width:4; stroke-opacity:1; fill:none" points="745.277,1098.9 685.407,1068.71 "/>
<polyline clip-path="url(#clip681)" style="stroke:#c68125; stroke-linecap:round; stroke-linejoin:round; stroke-width:4; stroke-opacity:1; fill:none" points="685.407,1068.71 627.881,1037.39 "/>
<polyline clip-path="url(#clip681)" style="stroke:#c68125; stroke-linecap:round; stroke-linejoin:round; stroke-width:4; stroke-opacity:1; fill:none" points="627.881,1037.39 573.421,1005.1 "/>
<polyline clip-path="url(#clip681)" style="stroke:#c68125; stroke-linecap:round; stroke-linejoin:round; stroke-width:4; stroke-opacity:1; fill:none" points="573.421,1005.1 522.813,972.081 "/>
<polyline clip-path="url(#clip681)" style="stroke:#c68125; stroke-linecap:round; stroke-linejoin:round; stroke-width:4; stroke-opacity:1; fill:none" points="522.813,972.081 476.824,938.71 "/>
<polyline clip-path="url(#clip681)" style="stroke:#c68125; stroke-linecap:round; stroke-linejoin:round; stroke-width:4; stroke-opacity:1; fill:none" points="476.824,938.71 436.079,905.481 "/>
<polyline clip-path="url(#clip681)" style="stroke:#c68125; stroke-linecap:round; stroke-linejoin:round; stroke-width:4; stroke-opacity:1; fill:none" points="436.079,905.481 400.941,872.229 "/>
<polyline clip-path="url(#clip681)" style="stroke:#c68125; stroke-linecap:round; stroke-linejoin:round; stroke-width:4; stroke-opacity:1; fill:none" points="400.941,872.229 371.444,839.869 "/>
<polyline clip-path="url(#clip681)" style="stroke:#c68125; stroke-linecap:round; stroke-linejoin:round; stroke-width:4; stroke-opacity:1; fill:none" points="371.444,839.869 347.306,809.025 "/>
<polyline clip-path="url(#clip681)" style="stroke:#c68125; stroke-linecap:round; stroke-linejoin:round; stroke-width:4; stroke-opacity:1; fill:none" points="347.306,809.025 328.015,780.074 "/>
<polyline clip-path="url(#clip681)" style="stroke:#c68125; stroke-linecap:round; stroke-linejoin:round; stroke-width:4; stroke-opacity:1; fill:none" points="328.015,780.074 312.946,753.232 "/>
<polyline clip-path="url(#clip681)" style="stroke:#c68125; stroke-linecap:round; stroke-linejoin:round; stroke-width:4; stroke-opacity:1; fill:none" points="312.946,753.232 301.455,727.54 "/>
<polyline clip-path="url(#clip681)" style="stroke:#c68125; stroke-linecap:round; stroke-linejoin:round; stroke-width:4; stroke-opacity:1; fill:none" points="301.455,727.54 292.949,703.551 "/>
<polyline clip-path="url(#clip681)" style="stroke:#c68125; stroke-linecap:round; stroke-linejoin:round; stroke-width:4; stroke-opacity:1; fill:none" points="292.949,703.551 286.912,681.667 "/>
<polyline clip-path="url(#clip681)" style="stroke:#c68125; stroke-linecap:round; stroke-linejoin:round; stroke-width:4; stroke-opacity:1; fill:none" points="286.912,681.667 282.916,661.742 "/>
<polyline clip-path="url(#clip681)" style="stroke:#c68125; stroke-linecap:round; stroke-linejoin:round; stroke-width:4; stroke-opacity:1; fill:none" points="282.916,661.742 280.621,642.544 "/>
<polyline clip-path="url(#clip681)" style="stroke:#c68125; stroke-linecap:round; stroke-linejoin:round; stroke-width:4; stroke-opacity:1; fill:none" points="280.621,642.544 279.759,624.743 "/>
<polyline clip-path="url(#clip681)" style="stroke:#c68125; stroke-linecap:round; stroke-linejoin:round; stroke-width:4; stroke-opacity:1; fill:none" points="279.759,624.743 280.126,608.454 "/>
<polyline clip-path="url(#clip681)" style="stroke:#c68125; stroke-linecap:round; stroke-linejoin:round; stroke-width:4; stroke-opacity:1; fill:none" points="280.126,608.454 281.571,593.356 "/>
<polyline clip-path="url(#clip681)" style="stroke:#c68125; stroke-linecap:round; stroke-linejoin:round; stroke-width:4; stroke-opacity:1; fill:none" points="281.571,593.356 283.983,578.408 "/>
<polyline clip-path="url(#clip681)" style="stroke:#c68125; stroke-linecap:round; stroke-linejoin:round; stroke-width:4; stroke-opacity:1; fill:none" points="283.983,578.408 287.28,564.512 "/>
<polyline clip-path="url(#clip681)" style="stroke:#c68125; stroke-linecap:round; stroke-linejoin:round; stroke-width:4; stroke-opacity:1; fill:none" points="287.28,564.512 291.409,551.465 "/>
<polyline clip-path="url(#clip681)" style="stroke:#c68125; stroke-linecap:round; stroke-linejoin:round; stroke-width:4; stroke-opacity:1; fill:none" points="291.409,551.465 296.331,538.657 "/>
<polyline clip-path="url(#clip681)" style="stroke:#c68125; stroke-linecap:round; stroke-linejoin:round; stroke-width:8; stroke-opacity:1; fill:none" points="296.331,538.657 302.019,526.085 "/>
<polyline clip-path="url(#clip681)" style="stroke:#c68125; stroke-linecap:round; stroke-linejoin:round; stroke-width:8; stroke-opacity:1; fill:none" points="302.019,526.085 308.456,514.021 "/>
<polyline clip-path="url(#clip681)" style="stroke:#c68125; stroke-linecap:round; stroke-linejoin:round; stroke-width:8; stroke-opacity:1; fill:none" points="308.456,514.021 315.625,502.273 "/>
<polyline clip-path="url(#clip681)" style="stroke:#c68125; stroke-linecap:round; stroke-linejoin:round; stroke-width:8; stroke-opacity:1; fill:none" points="315.625,502.273 323.513,490.262 "/>
<polyline clip-path="url(#clip681)" style="stroke:#c68125; stroke-linecap:round; stroke-linejoin:round; stroke-width:8; stroke-opacity:1; fill:none" points="323.513,490.262 332.104,478.537 "/>
<polyline clip-path="url(#clip681)" style="stroke:#c68125; stroke-linecap:round; stroke-linejoin:round; stroke-width:8; stroke-opacity:1; fill:none" points="332.104,478.537 341.378,467.008 "/>
<polyline clip-path="url(#clip681)" style="stroke:#c68125; stroke-linecap:round; stroke-linejoin:round; stroke-width:8; stroke-opacity:1; fill:none" points="341.378,467.008 351.312,455.223 "/>
<polyline clip-path="url(#clip681)" style="stroke:#c68125; stroke-linecap:round; stroke-linejoin:round; stroke-width:8; stroke-opacity:1; fill:none" points="351.312,455.223 361.876,443.518 "/>
<polyline clip-path="url(#clip681)" style="stroke:#c68125; stroke-linecap:round; stroke-linejoin:round; stroke-width:8; stroke-opacity:1; fill:none" points="361.876,443.518 373.038,431.933 "/>
<polyline clip-path="url(#clip681)" style="stroke:#c68125; stroke-linecap:round; stroke-linejoin:round; stroke-width:8; stroke-opacity:1; fill:none" points="373.038,431.933 384.758,420.153 "/>
<polyline clip-path="url(#clip681)" style="stroke:#c68125; stroke-linecap:round; stroke-linejoin:round; stroke-width:8; stroke-opacity:1; fill:none" points="384.758,420.153 396.996,408.405 "/>
<polyline clip-path="url(#clip681)" style="stroke:#c68125; stroke-linecap:round; stroke-linejoin:round; stroke-width:8; stroke-opacity:1; fill:none" points="396.996,408.405 409.705,396.766 "/>
<polyline clip-path="url(#clip681)" style="stroke:#c68125; stroke-linecap:round; stroke-linejoin:round; stroke-width:8; stroke-opacity:1; fill:none" points="409.705,396.766 422.836,384.97 "/>
<polyline clip-path="url(#clip681)" style="stroke:#c68125; stroke-linecap:round; stroke-linejoin:round; stroke-width:8; stroke-opacity:1; fill:none" points="422.836,384.97 436.34,373.271 "/>
<polyline clip-path="url(#clip681)" style="stroke:#c68125; stroke-linecap:round; stroke-linejoin:round; stroke-width:8; stroke-opacity:1; fill:none" points="436.34,373.271 450.165,361.684 "/>
<polyline clip-path="url(#clip681)" style="stroke:#c68125; stroke-linecap:round; stroke-linejoin:round; stroke-width:8; stroke-opacity:1; fill:none" points="450.165,361.684 464.258,350.015 "/>
<polyline clip-path="url(#clip681)" style="stroke:#c68125; stroke-linecap:round; stroke-linejoin:round; stroke-width:8; stroke-opacity:1; fill:none" points="464.258,350.015 478.567,338.527 "/>
<polyline clip-path="url(#clip681)" style="stroke:#c68125; stroke-linecap:round; stroke-linejoin:round; stroke-width:8; stroke-opacity:1; fill:none" points="478.567,338.527 493.042,327.115 "/>
<polyline clip-path="url(#clip681)" style="stroke:#c68125; stroke-linecap:round; stroke-linejoin:round; stroke-width:8; stroke-opacity:1; fill:none" points="493.042,327.115 507.632,315.797 "/>
<polyline clip-path="url(#clip681)" style="stroke:#c68125; stroke-linecap:round; stroke-linejoin:round; stroke-width:8; stroke-opacity:1; fill:none" points="507.632,315.797 522.29,304.695 "/>
<polyline clip-path="url(#clip681)" style="stroke:#c68125; stroke-linecap:round; stroke-linejoin:round; stroke-width:8; stroke-opacity:1; fill:none" points="522.29,304.695 536.972,293.643 "/>
<polyline clip-path="url(#clip681)" style="stroke:#c68125; stroke-linecap:round; stroke-linejoin:round; stroke-width:8; stroke-opacity:1; fill:none" points="536.972,293.643 551.635,282.831 "/>
<polyline clip-path="url(#clip681)" style="stroke:#c68125; stroke-linecap:round; stroke-linejoin:round; stroke-width:8; stroke-opacity:1; fill:none" points="551.635,282.831 566.241,272.18 "/>
<polyline clip-path="url(#clip681)" style="stroke:#c68125; stroke-linecap:round; stroke-linejoin:round; stroke-width:8; stroke-opacity:1; fill:none" points="566.241,272.18 580.758,261.719 "/>
<polyline clip-path="url(#clip681)" style="stroke:#c68125; stroke-linecap:round; stroke-linejoin:round; stroke-width:8; stroke-opacity:1; fill:none" points="580.758,261.719 595.153,251.498 "/>
<polyline clip-path="url(#clip681)" style="stroke:#c68125; stroke-linecap:round; stroke-linejoin:round; stroke-width:8; stroke-opacity:1; fill:none" points="595.153,251.498 609.403,241.431 "/>
<polyline clip-path="url(#clip681)" style="stroke:#c68125; stroke-linecap:round; stroke-linejoin:round; stroke-width:8; stroke-opacity:1; fill:none" points="609.403,241.431 623.483,231.638 "/>
<polyline clip-path="url(#clip681)" style="stroke:#c68125; stroke-linecap:round; stroke-linejoin:round; stroke-width:8; stroke-opacity:1; fill:none" points="623.483,231.638 637.372,222.017 "/>
<polyline clip-path="url(#clip681)" style="stroke:#c68125; stroke-linecap:round; stroke-linejoin:round; stroke-width:8; stroke-opacity:1; fill:none" points="637.372,222.017 651.051,212.653 "/>
<polyline clip-path="url(#clip681)" style="stroke:#c68125; stroke-linecap:round; stroke-linejoin:round; stroke-width:8; stroke-opacity:1; fill:none" points="651.051,212.653 664.499,203.512 "/>
<polyline clip-path="url(#clip681)" style="stroke:#c68125; stroke-linecap:round; stroke-linejoin:round; stroke-width:8; stroke-opacity:1; fill:none" points="664.499,203.512 677.694,194.603 "/>
<polyline clip-path="url(#clip681)" style="stroke:#c68125; stroke-linecap:round; stroke-linejoin:round; stroke-width:8; stroke-opacity:1; fill:none" points="677.694,194.603 690.61,185.976 "/>
<polyline clip-path="url(#clip681)" style="stroke:#c68125; stroke-linecap:round; stroke-linejoin:round; stroke-width:8; stroke-opacity:1; fill:none" points="690.61,185.976 703.215,177.563 "/>
<polyline clip-path="url(#clip681)" style="stroke:#c68125; stroke-linecap:round; stroke-linejoin:round; stroke-width:8; stroke-opacity:1; fill:none" points="703.215,177.563 715.473,169.467 "/>
<polyline clip-path="url(#clip681)" style="stroke:#c68125; stroke-linecap:round; stroke-linejoin:round; stroke-width:8; stroke-opacity:1; fill:none" points="715.473,169.467 727.337,161.676 "/>
<polyline clip-path="url(#clip681)" style="stroke:#c68125; stroke-linecap:round; stroke-linejoin:round; stroke-width:8; stroke-opacity:1; fill:none" points="727.337,161.676 738.761,154.198 "/>
<polyline clip-path="url(#clip681)" style="stroke:#c68125; stroke-linecap:round; stroke-linejoin:round; stroke-width:8; stroke-opacity:1; fill:none" points="738.761,154.198 749.691,147.101 "/>
<polyline clip-path="url(#clip681)" style="stroke:#c68125; stroke-linecap:round; stroke-linejoin:round; stroke-width:8; stroke-opacity:1; fill:none" points="749.691,147.101 760.077,140.405 "/>
<polyline clip-path="url(#clip681)" style="stroke:#c68125; stroke-linecap:round; stroke-linejoin:round; stroke-width:8; stroke-opacity:1; fill:none" points="760.077,140.405 769.873,134.099 "/>
<polyline clip-path="url(#clip681)" style="stroke:#c68125; stroke-linecap:round; stroke-linejoin:round; stroke-width:8; stroke-opacity:1; fill:none" points="769.873,134.099 779.04,128.236 "/>
<polyline clip-path="url(#clip681)" style="stroke:#c68125; stroke-linecap:round; stroke-linejoin:round; stroke-width:8; stroke-opacity:1; fill:none" points="779.04,128.236 787.554,122.829 "/>
<polyline clip-path="url(#clip681)" style="stroke:#c68125; stroke-linecap:round; stroke-linejoin:round; stroke-width:4; stroke-opacity:1; fill:none" points="787.554,122.829 795.403,117.879 "/>
<polyline clip-path="url(#clip681)" style="stroke:#c68125; stroke-linecap:round; stroke-linejoin:round; stroke-width:4; stroke-opacity:1; fill:none" points="795.403,117.879 802.589,113.378 "/>
<polyline clip-path="url(#clip681)" style="stroke:#c68125; stroke-linecap:round; stroke-linejoin:round; stroke-width:4; stroke-opacity:1; fill:none" points="802.589,113.378 809.129,109.316 "/>
<polyline clip-path="url(#clip681)" style="stroke:#c68125; stroke-linecap:round; stroke-linejoin:round; stroke-width:4; stroke-opacity:1; fill:none" points="809.129,109.316 815.046,105.674 "/>
<polyline clip-path="url(#clip681)" style="stroke:#c68125; stroke-linecap:round; stroke-linejoin:round; stroke-width:4; stroke-opacity:1; fill:none" points="815.046,105.674 820.374,102.433 "/>
<polyline clip-path="url(#clip681)" style="stroke:#c68125; stroke-linecap:round; stroke-linejoin:round; stroke-width:4; stroke-opacity:1; fill:none" points="820.374,102.433 825.149,99.5699 "/>
<polyline clip-path="url(#clip681)" style="stroke:#c68125; stroke-linecap:round; stroke-linejoin:round; stroke-width:4; stroke-opacity:1; fill:none" points="825.149,99.5699 829.41,97.0372 "/>
<polyline clip-path="url(#clip681)" style="stroke:#c68125; stroke-linecap:round; stroke-linejoin:round; stroke-width:4; stroke-opacity:1; fill:none" points="829.41,97.0372 833.197,94.8139 "/>
<polyline clip-path="url(#clip681)" style="stroke:#c68125; stroke-linecap:round; stroke-linejoin:round; stroke-width:4; stroke-opacity:1; fill:none" points="833.197,94.8139 836.548,92.892 "/>
<polyline clip-path="url(#clip681)" style="stroke:#c68125; stroke-linecap:round; stroke-linejoin:round; stroke-width:4; stroke-opacity:1; fill:none" points="836.548,92.892 839.5,91.2531 "/>
<polyline clip-path="url(#clip681)" style="stroke:#c68125; stroke-linecap:round; stroke-linejoin:round; stroke-width:4; stroke-opacity:1; fill:none" points="839.5,91.2531 842.085,89.8818 "/>
<polyline clip-path="url(#clip681)" style="stroke:#c68125; stroke-linecap:round; stroke-linejoin:round; stroke-width:4; stroke-opacity:1; fill:none" points="842.085,89.8818 844.335,88.7664 "/>
<polyline clip-path="url(#clip681)" style="stroke:#c68125; stroke-linecap:round; stroke-linejoin:round; stroke-width:4; stroke-opacity:1; fill:none" points="844.335,88.7664 846.275,87.838 "/>
<polyline clip-path="url(#clip681)" style="stroke:#c68125; stroke-linecap:round; stroke-linejoin:round; stroke-width:4; stroke-opacity:1; fill:none" points="846.275,87.838 847.931,87.1054 "/>
<polyline clip-path="url(#clip681)" style="stroke:#c68125; stroke-linecap:round; stroke-linejoin:round; stroke-width:4; stroke-opacity:1; fill:none" points="847.931,87.1054 849.323,86.5858 "/>
<polyline clip-path="url(#clip681)" style="stroke:#c68125; stroke-linecap:round; stroke-linejoin:round; stroke-width:4; stroke-opacity:1; fill:none" points="849.323,86.5858 850.469,86.2783 "/>
<polyline clip-path="url(#clip681)" style="stroke:#c68125; stroke-linecap:round; stroke-linejoin:round; stroke-width:4; stroke-opacity:1; fill:none" points="850.469,86.2783 851.384,86.1857 "/>
<polyline clip-path="url(#clip681)" style="stroke:#c68125; stroke-linecap:round; stroke-linejoin:round; stroke-width:4; stroke-opacity:1; fill:none" points="851.384,86.1857 852.078,86.2774 "/>
<polyline clip-path="url(#clip681)" style="stroke:#c68125; stroke-linecap:round; stroke-linejoin:round; stroke-width:4; stroke-opacity:1; fill:none" points="852.078,86.2774 852.562,86.4764 "/>
<polyline clip-path="url(#clip681)" style="stroke:#c68125; stroke-linecap:round; stroke-linejoin:round; stroke-width:4; stroke-opacity:1; fill:none" points="852.562,86.4764 852.841,86.8807 "/>
<polyline clip-path="url(#clip681)" style="stroke:#c68125; stroke-linecap:round; stroke-linejoin:round; stroke-width:4; stroke-opacity:1; fill:none" points="852.841,86.8807 852.918,87.502 "/>
<polyline clip-path="url(#clip681)" style="stroke:#c68125; stroke-linecap:round; stroke-linejoin:round; stroke-width:4; stroke-opacity:1; fill:none" points="852.918,87.502 852.808,88.3028 "/>
<polyline clip-path="url(#clip681)" style="stroke:#c68125; stroke-linecap:round; stroke-linejoin:round; stroke-width:4; stroke-opacity:1; fill:none" points="852.808,88.3028 852.493,89.4137 "/>
<polyline clip-path="url(#clip681)" style="stroke:#c68125; stroke-linecap:round; stroke-linejoin:round; stroke-width:4; stroke-opacity:1; fill:none" points="852.493,89.4137 851.969,90.5673 "/>
<polyline clip-path="url(#clip681)" style="stroke:#c68125; stroke-linecap:round; stroke-linejoin:round; stroke-width:4; stroke-opacity:1; fill:none" points="851.969,90.5673 851.227,91.9847 "/>
<polyline clip-path="url(#clip681)" style="stroke:#c68125; stroke-linecap:round; stroke-linejoin:round; stroke-width:4; stroke-opacity:1; fill:none" points="851.227,91.9847 850.255,93.7011 "/>
<polyline clip-path="url(#clip681)" style="stroke:#c68125; stroke-linecap:round; stroke-linejoin:round; stroke-width:4; stroke-opacity:1; fill:none" points="850.255,93.7011 849.037,95.7614 "/>
<polyline clip-path="url(#clip681)" style="stroke:#c68125; stroke-linecap:round; stroke-linejoin:round; stroke-width:4; stroke-opacity:1; fill:none" points="849.037,95.7614 847.555,98.2216 "/>
<polyline clip-path="url(#clip681)" style="stroke:#c68125; stroke-linecap:round; stroke-linejoin:round; stroke-width:4; stroke-opacity:1; fill:none" points="847.555,98.2216 845.783,100.781 "/>
<polyline clip-path="url(#clip681)" style="stroke:#c68125; stroke-linecap:round; stroke-linejoin:round; stroke-width:4; stroke-opacity:1; fill:none" points="845.783,100.781 843.695,103.726 "/>
<polyline clip-path="url(#clip681)" style="stroke:#c68125; stroke-linecap:round; stroke-linejoin:round; stroke-width:4; stroke-opacity:1; fill:none" points="843.695,103.726 841.254,107.164 "/>
<polyline clip-path="url(#clip681)" style="stroke:#c68125; stroke-linecap:round; stroke-linejoin:round; stroke-width:4; stroke-opacity:1; fill:none" points="841.254,107.164 838.42,111.182 "/>
<polyline clip-path="url(#clip681)" style="stroke:#c68125; stroke-linecap:round; stroke-linejoin:round; stroke-width:4; stroke-opacity:1; fill:none" points="838.42,111.182 835.143,115.822 "/>
<polyline clip-path="url(#clip681)" style="stroke:#c68125; stroke-linecap:round; stroke-linejoin:round; stroke-width:4; stroke-opacity:1; fill:none" points="835.143,115.822 831.363,120.693 "/>
<polyline clip-path="url(#clip681)" style="stroke:#c68125; stroke-linecap:round; stroke-linejoin:round; stroke-width:4; stroke-opacity:1; fill:none" points="831.363,120.693 827.009,126.355 "/>
<polyline clip-path="url(#clip681)" style="stroke:#c68125; stroke-linecap:round; stroke-linejoin:round; stroke-width:4; stroke-opacity:1; fill:none" points="827.009,126.355 821.998,132.957 "/>
<polyline clip-path="url(#clip681)" style="stroke:#c68125; stroke-linecap:round; stroke-linejoin:round; stroke-width:4; stroke-opacity:1; fill:none" points="821.998,132.957 816.232,140.663 "/>
<polyline clip-path="url(#clip681)" style="stroke:#c68125; stroke-linecap:round; stroke-linejoin:round; stroke-width:4; stroke-opacity:1; fill:none" points="816.232,140.663 809.606,149.276 "/>
<polyline clip-path="url(#clip681)" style="stroke:#c68125; stroke-linecap:round; stroke-linejoin:round; stroke-width:4; stroke-opacity:1; fill:none" points="809.606,149.276 802.008,158.783 "/>
<polyline clip-path="url(#clip681)" style="stroke:#c68125; stroke-linecap:round; stroke-linejoin:round; stroke-width:4; stroke-opacity:1; fill:none" points="802.008,158.783 793.341,169.779 "/>
<polyline clip-path="url(#clip681)" style="stroke:#c68125; stroke-linecap:round; stroke-linejoin:round; stroke-width:4; stroke-opacity:1; fill:none" points="793.341,169.779 783.542,182.389 "/>
<polyline clip-path="url(#clip681)" style="stroke:#c68125; stroke-linecap:round; stroke-linejoin:round; stroke-width:4; stroke-opacity:1; fill:none" points="783.542,182.389 772.609,196.64 "/>
<polyline clip-path="url(#clip681)" style="stroke:#c68125; stroke-linecap:round; stroke-linejoin:round; stroke-width:4; stroke-opacity:1; fill:none" points="772.609,196.64 760.623,212.031 "/>
<polyline clip-path="url(#clip681)" style="stroke:#c68125; stroke-linecap:round; stroke-linejoin:round; stroke-width:4; stroke-opacity:1; fill:none" points="760.623,212.031 747.749,228.421 "/>
<polyline clip-path="url(#clip681)" style="stroke:#c68125; stroke-linecap:round; stroke-linejoin:round; stroke-width:4; stroke-opacity:1; fill:none" points="747.749,228.421 734.202,245.961 "/>
<polyline clip-path="url(#clip681)" style="stroke:#c68125; stroke-linecap:round; stroke-linejoin:round; stroke-width:4; stroke-opacity:1; fill:none" points="734.202,245.961 720.214,264.36 "/>
<polyline clip-path="url(#clip681)" style="stroke:#c68125; stroke-linecap:round; stroke-linejoin:round; stroke-width:4; stroke-opacity:1; fill:none" points="720.214,264.36 705.995,283.338 "/>
<polyline clip-path="url(#clip681)" style="stroke:#c68125; stroke-linecap:round; stroke-linejoin:round; stroke-width:4; stroke-opacity:1; fill:none" points="705.995,283.338 691.721,302.65 "/>
<polyline clip-path="url(#clip681)" style="stroke:#c68125; stroke-linecap:round; stroke-linejoin:round; stroke-width:4; stroke-opacity:1; fill:none" points="691.721,302.65 677.53,322.103 "/>
<polyline clip-path="url(#clip681)" style="stroke:#c68125; stroke-linecap:round; stroke-linejoin:round; stroke-width:4; stroke-opacity:1; fill:none" points="677.53,322.103 663.53,341.548 "/>
<polyline clip-path="url(#clip681)" style="stroke:#c68125; stroke-linecap:round; stroke-linejoin:round; stroke-width:4; stroke-opacity:1; fill:none" points="663.53,341.548 649.806,360.876 "/>
<polyline clip-path="url(#clip681)" style="stroke:#c68125; stroke-linecap:round; stroke-linejoin:round; stroke-width:4; stroke-opacity:1; fill:none" points="649.806,360.876 636.424,380.01 "/>
<polyline clip-path="url(#clip681)" style="stroke:#c68125; stroke-linecap:round; stroke-linejoin:round; stroke-width:4; stroke-opacity:1; fill:none" points="636.424,380.01 623.44,398.898 "/>
<polyline clip-path="url(#clip681)" style="stroke:#c68125; stroke-linecap:round; stroke-linejoin:round; stroke-width:4; stroke-opacity:1; fill:none" points="623.44,398.898 610.902,417.506 "/>
<polyline clip-path="url(#clip681)" style="stroke:#c68125; stroke-linecap:round; stroke-linejoin:round; stroke-width:4; stroke-opacity:1; fill:none" points="610.902,417.506 598.854,435.814 "/>
<polyline clip-path="url(#clip681)" style="stroke:#c68125; stroke-linecap:round; stroke-linejoin:round; stroke-width:4; stroke-opacity:1; fill:none" points="598.854,435.814 587.334,453.815 "/>
<polyline clip-path="url(#clip681)" style="stroke:#c68125; stroke-linecap:round; stroke-linejoin:round; stroke-width:4; stroke-opacity:1; fill:none" points="587.334,453.815 576.381,471.511 "/>
<polyline clip-path="url(#clip681)" style="stroke:#c68125; stroke-linecap:round; stroke-linejoin:round; stroke-width:4; stroke-opacity:1; fill:none" points="576.381,471.511 566.028,488.911 "/>
<polyline clip-path="url(#clip681)" style="stroke:#c68125; stroke-linecap:round; stroke-linejoin:round; stroke-width:4; stroke-opacity:1; fill:none" points="566.028,488.911 556.309,506.032 "/>
<polyline clip-path="url(#clip681)" style="stroke:#c68125; stroke-linecap:round; stroke-linejoin:round; stroke-width:4; stroke-opacity:1; fill:none" points="556.309,506.032 547.257,522.901 "/>
<polyline clip-path="url(#clip681)" style="stroke:#c68125; stroke-linecap:round; stroke-linejoin:round; stroke-width:4; stroke-opacity:1; fill:none" points="547.257,522.901 538.9,539.486 "/>
<polyline clip-path="url(#clip681)" style="stroke:#c68125; stroke-linecap:round; stroke-linejoin:round; stroke-width:4; stroke-opacity:1; fill:none" points="538.9,539.486 531.264,555.908 "/>
<polyline clip-path="url(#clip681)" style="stroke:#c68125; stroke-linecap:round; stroke-linejoin:round; stroke-width:4; stroke-opacity:1; fill:none" points="531.264,555.908 524.374,572.31 "/>
<polyline clip-path="url(#clip681)" style="stroke:#c68125; stroke-linecap:round; stroke-linejoin:round; stroke-width:4; stroke-opacity:1; fill:none" points="524.374,572.31 518.249,588.866 "/>
<polyline clip-path="url(#clip681)" style="stroke:#c68125; stroke-linecap:round; stroke-linejoin:round; stroke-width:4; stroke-opacity:1; fill:none" points="518.249,588.866 512.918,605.862 "/>
<polyline clip-path="url(#clip681)" style="stroke:#c68125; stroke-linecap:round; stroke-linejoin:round; stroke-width:4; stroke-opacity:1; fill:none" points="512.918,605.862 508.451,623.65 "/>
<polyline clip-path="url(#clip681)" style="stroke:#c68125; stroke-linecap:round; stroke-linejoin:round; stroke-width:4; stroke-opacity:1; fill:none" points="508.451,623.65 504.98,642.337 "/>
<polyline clip-path="url(#clip681)" style="stroke:#c68125; stroke-linecap:round; stroke-linejoin:round; stroke-width:4; stroke-opacity:1; fill:none" points="504.98,642.337 502.651,661.775 "/>
<polyline clip-path="url(#clip681)" style="stroke:#c68125; stroke-linecap:round; stroke-linejoin:round; stroke-width:4; stroke-opacity:1; fill:none" points="502.651,661.775 501.554,681.775 "/>
<polyline clip-path="url(#clip681)" style="stroke:#c68125; stroke-linecap:round; stroke-linejoin:round; stroke-width:4; stroke-opacity:1; fill:none" points="501.554,681.775 501.724,676.378 "/>
<polyline clip-path="url(#clip681)" style="stroke:#c68125; stroke-linecap:round; stroke-linejoin:round; stroke-width:4; stroke-opacity:1; fill:none" points="501.724,676.378 503.155,656.514 "/>
<polyline clip-path="url(#clip681)" style="stroke:#c68125; stroke-linecap:round; stroke-linejoin:round; stroke-width:4; stroke-opacity:1; fill:none" points="503.155,656.514 505.804,637.243 "/>
<polyline clip-path="url(#clip681)" style="stroke:#c68125; stroke-linecap:round; stroke-linejoin:round; stroke-width:4; stroke-opacity:1; fill:none" points="505.804,637.243 509.572,618.724 "/>
<polyline clip-path="url(#clip681)" style="stroke:#c68125; stroke-linecap:round; stroke-linejoin:round; stroke-width:4; stroke-opacity:1; fill:none" points="509.572,618.724 514.314,601.083 "/>
<polyline clip-path="url(#clip681)" style="stroke:#c68125; stroke-linecap:round; stroke-linejoin:round; stroke-width:4; stroke-opacity:1; fill:none" points="514.314,601.083 519.898,584.164 "/>
<polyline clip-path="url(#clip681)" style="stroke:#c68125; stroke-linecap:round; stroke-linejoin:round; stroke-width:4; stroke-opacity:1; fill:none" points="519.898,584.164 526.257,567.637 "/>
<polyline clip-path="url(#clip681)" style="stroke:#c68125; stroke-linecap:round; stroke-linejoin:round; stroke-width:4; stroke-opacity:1; fill:none" points="526.257,567.637 533.364,551.239 "/>
<polyline clip-path="url(#clip681)" style="stroke:#c68125; stroke-linecap:round; stroke-linejoin:round; stroke-width:4; stroke-opacity:1; fill:none" points="533.364,551.239 541.198,534.809 "/>
<polyline clip-path="url(#clip681)" style="stroke:#c68125; stroke-linecap:round; stroke-linejoin:round; stroke-width:4; stroke-opacity:1; fill:none" points="541.198,534.809 549.737,518.174 "/>
<polyline clip-path="url(#clip681)" style="stroke:#c68125; stroke-linecap:round; stroke-linejoin:round; stroke-width:4; stroke-opacity:1; fill:none" points="549.737,518.174 558.953,501.286 "/>
<polyline clip-path="url(#clip681)" style="stroke:#c68125; stroke-linecap:round; stroke-linejoin:round; stroke-width:4; stroke-opacity:1; fill:none" points="558.953,501.286 568.816,484.149 "/>
<polyline clip-path="url(#clip681)" style="stroke:#c68125; stroke-linecap:round; stroke-linejoin:round; stroke-width:4; stroke-opacity:1; fill:none" points="568.816,484.149 579.295,466.738 "/>
<polyline clip-path="url(#clip681)" style="stroke:#c68125; stroke-linecap:round; stroke-linejoin:round; stroke-width:4; stroke-opacity:1; fill:none" points="579.295,466.738 590.357,449.038 "/>
<polyline clip-path="url(#clip681)" style="stroke:#c68125; stroke-linecap:round; stroke-linejoin:round; stroke-width:4; stroke-opacity:1; fill:none" points="590.357,449.038 601.966,431.039 "/>
<polyline clip-path="url(#clip681)" style="stroke:#c68125; stroke-linecap:round; stroke-linejoin:round; stroke-width:4; stroke-opacity:1; fill:none" points="601.966,431.039 614.087,412.741 "/>
<polyline clip-path="url(#clip681)" style="stroke:#c68125; stroke-linecap:round; stroke-linejoin:round; stroke-width:4; stroke-opacity:1; fill:none" points="614.087,412.741 626.68,394.151 "/>
<polyline clip-path="url(#clip681)" style="stroke:#c68125; stroke-linecap:round; stroke-linejoin:round; stroke-width:4; stroke-opacity:1; fill:none" points="626.68,394.151 639.705,375.29 "/>
<polyline clip-path="url(#clip681)" style="stroke:#c68125; stroke-linecap:round; stroke-linejoin:round; stroke-width:4; stroke-opacity:1; fill:none" points="639.705,375.29 653.114,356.192 "/>
<polyline clip-path="url(#clip681)" style="stroke:#c68125; stroke-linecap:round; stroke-linejoin:round; stroke-width:4; stroke-opacity:1; fill:none" points="653.114,356.192 666.853,336.909 "/>
<polyline clip-path="url(#clip681)" style="stroke:#c68125; stroke-linecap:round; stroke-linejoin:round; stroke-width:4; stroke-opacity:1; fill:none" points="666.853,336.909 680.856,317.521 "/>
<polyline clip-path="url(#clip681)" style="stroke:#c68125; stroke-linecap:round; stroke-linejoin:round; stroke-width:4; stroke-opacity:1; fill:none" points="680.856,317.521 695.042,298.135 "/>
<polyline clip-path="url(#clip681)" style="stroke:#c68125; stroke-linecap:round; stroke-linejoin:round; stroke-width:4; stroke-opacity:1; fill:none" points="695.042,298.135 709.303,278.899 "/>
<polyline clip-path="url(#clip681)" style="stroke:#c68125; stroke-linecap:round; stroke-linejoin:round; stroke-width:4; stroke-opacity:1; fill:none" points="709.303,278.899 723.503,260.01 "/>
<polyline clip-path="url(#clip681)" style="stroke:#c68125; stroke-linecap:round; stroke-linejoin:round; stroke-width:4; stroke-opacity:1; fill:none" points="723.503,260.01 737.466,241.709 "/>
<polyline clip-path="url(#clip681)" style="stroke:#c68125; stroke-linecap:round; stroke-linejoin:round; stroke-width:4; stroke-opacity:1; fill:none" points="737.466,241.709 750.981,224.279 "/>
<polyline clip-path="url(#clip681)" style="stroke:#c68125; stroke-linecap:round; stroke-linejoin:round; stroke-width:4; stroke-opacity:1; fill:none" points="750.981,224.279 763.816,208.011 "/>
<polyline clip-path="url(#clip681)" style="stroke:#c68125; stroke-linecap:round; stroke-linejoin:round; stroke-width:4; stroke-opacity:1; fill:none" points="763.816,208.011 775.748,192.531 "/>
<polyline clip-path="url(#clip681)" style="stroke:#c68125; stroke-linecap:round; stroke-linejoin:round; stroke-width:4; stroke-opacity:1; fill:none" points="775.748,192.531 786.605,178.429 "/>
<polyline clip-path="url(#clip681)" style="stroke:#c68125; stroke-linecap:round; stroke-linejoin:round; stroke-width:4; stroke-opacity:1; fill:none" points="786.605,178.429 796.301,166.006 "/>
<polyline clip-path="url(#clip681)" style="stroke:#c68125; stroke-linecap:round; stroke-linejoin:round; stroke-width:4; stroke-opacity:1; fill:none" points="796.301,166.006 804.835,155.23 "/>
<polyline clip-path="url(#clip681)" style="stroke:#c68125; stroke-linecap:round; stroke-linejoin:round; stroke-width:4; stroke-opacity:1; fill:none" points="804.835,155.23 812.276,145.966 "/>
<polyline clip-path="url(#clip681)" style="stroke:#c68125; stroke-linecap:round; stroke-linejoin:round; stroke-width:4; stroke-opacity:1; fill:none" points="812.276,145.966 818.726,137.315 "/>
<polyline clip-path="url(#clip681)" style="stroke:#c68125; stroke-linecap:round; stroke-linejoin:round; stroke-width:4; stroke-opacity:1; fill:none" points="818.726,137.315 824.304,129.907 "/>
<circle clip-path="url(#clip681)" cx="1193.28" cy="1275.86" r="10.8" fill="#ffa500" fill-rule="evenodd" fill-opacity="1" stroke="none"/>
<circle clip-path="url(#clip681)" cx="933.642" cy="1181.28" r="10.8" fill="#008000" fill-rule="evenodd" fill-opacity="1" stroke="none"/>
<circle clip-path="url(#clip681)" cx="280.126" cy="608.454" r="10.8" fill="#0000ff" fill-rule="evenodd" fill-opacity="1" stroke="none"/>
<circle clip-path="url(#clip681)" cx="296.331" cy="538.657" r="10.8" fill="#008000" fill-rule="evenodd" fill-opacity="1" stroke="none"/>
<circle clip-path="url(#clip681)" cx="787.554" cy="122.829" r="10.8" fill="#008000" fill-rule="evenodd" fill-opacity="1" stroke="none"/>
<circle clip-path="url(#clip681)" cx="852.918" cy="87.502" r="10.8" fill="#ffa500" fill-rule="evenodd" fill-opacity="1" stroke="none"/>
<circle clip-path="url(#clip681)" cx="852.808" cy="88.3028" r="10.8" fill="#0000ff" fill-rule="evenodd" fill-opacity="1" stroke="none"/>
<circle clip-path="url(#clip681)" cx="502.651" cy="661.775" r="10.8" fill="#008000" fill-rule="evenodd" fill-opacity="1" stroke="none"/>
<circle clip-path="url(#clip681)" cx="505.804" cy="637.243" r="10.8" fill="#008000" fill-rule="evenodd" fill-opacity="1" stroke="none"/>
<path clip-path="url(#clip680)" d="M1965.88 404.149 L2281.64 404.149 L2281.64 93.1086 L1965.88 93.1086  Z" fill="#ffffff" fill-rule="evenodd" fill-opacity="1"/>
<polyline clip-path="url(#clip680)" style="stroke:#000000; stroke-linecap:round; stroke-linejoin:round; stroke-width:4; stroke-opacity:1; fill:none" points="1965.88,404.149 2281.64,404.149 2281.64,93.1086 1965.88,93.1086 1965.88,404.149 "/>
<circle clip-path="url(#clip680)" cx="2060.69" cy="144.949" r="23.04" fill="#ff0000" fill-rule="evenodd" fill-opacity="1" stroke="none"/>
<path clip-path="url(#clip680)" d="M2177.22 146.581 L2177.22 162.229 L2172.96 162.229 L2172.96 146.719 Q2172.96 143.039 2171.53 141.21 Q2170.09 139.382 2167.22 139.382 Q2163.77 139.382 2161.78 141.581 Q2159.79 143.78 2159.79 147.576 L2159.79 162.229 L2155.51 162.229 L2155.51 126.21 L2159.79 126.21 L2159.79 140.331 Q2161.32 137.993 2163.38 136.835 Q2165.46 135.678 2168.17 135.678 Q2172.64 135.678 2174.93 138.456 Q2177.22 141.21 2177.22 146.581 Z" fill="#000000" fill-rule="nonzero" fill-opacity="1" /><path clip-path="url(#clip680)" d="M2195.76 139.289 Q2192.34 139.289 2190.35 141.974 Q2188.36 144.636 2188.36 149.289 Q2188.36 153.942 2190.32 156.627 Q2192.31 159.289 2195.76 159.289 Q2199.17 159.289 2201.16 156.604 Q2203.15 153.918 2203.15 149.289 Q2203.15 144.682 2201.16 141.997 Q2199.17 139.289 2195.76 139.289 M2195.76 135.678 Q2201.32 135.678 2204.49 139.289 Q2207.66 142.9 2207.66 149.289 Q2207.66 155.655 2204.49 159.289 Q2201.32 162.9 2195.76 162.9 Q2190.18 162.9 2187.01 159.289 Q2183.87 155.655 2183.87 149.289 Q2183.87 142.9 2187.01 139.289 Q2190.18 135.678 2195.76 135.678 Z" fill="#000000" fill-rule="nonzero" fill-opacity="1" /><path clip-path="url(#clip680)" d="M2218.84 158.34 L2218.84 172.09 L2214.56 172.09 L2214.56 136.303 L2218.84 136.303 L2218.84 140.238 Q2220.18 137.923 2222.22 136.812 Q2224.28 135.678 2227.13 135.678 Q2231.85 135.678 2234.79 139.428 Q2237.75 143.178 2237.75 149.289 Q2237.75 155.4 2234.79 159.15 Q2231.85 162.9 2227.13 162.9 Q2224.28 162.9 2222.22 161.789 Q2220.18 160.655 2218.84 158.34 M2233.33 149.289 Q2233.33 144.59 2231.39 141.928 Q2229.47 139.243 2226.09 139.243 Q2222.71 139.243 2220.76 141.928 Q2218.84 144.59 2218.84 149.289 Q2218.84 153.988 2220.76 156.673 Q2222.71 159.335 2226.09 159.335 Q2229.47 159.335 2231.39 156.673 Q2233.33 153.988 2233.33 149.289 Z" fill="#000000" fill-rule="nonzero" fill-opacity="1" /><path clip-path="url(#clip680)" d="M2257.94 126.21 L2257.94 129.752 L2253.87 129.752 Q2251.57 129.752 2250.67 130.678 Q2249.79 131.604 2249.79 134.011 L2249.79 136.303 L2256.8 136.303 L2256.8 139.613 L2249.79 139.613 L2249.79 162.229 L2245.51 162.229 L2245.51 139.613 L2241.43 139.613 L2241.43 136.303 L2245.51 136.303 L2245.51 134.497 Q2245.51 130.169 2247.52 128.201 Q2249.54 126.21 2253.91 126.21 L2257.94 126.21 Z" fill="#000000" fill-rule="nonzero" fill-opacity="1" /><circle clip-path="url(#clip680)" cx="2060.69" cy="196.789" r="23.04" fill="#ff00ff" fill-rule="evenodd" fill-opacity="1" stroke="none"/>
<path clip-path="url(#clip680)" d="M2177.22 198.421 L2177.22 214.069 L2172.96 214.069 L2172.96 198.559 Q2172.96 194.879 2171.53 193.05 Q2170.09 191.222 2167.22 191.222 Q2163.77 191.222 2161.78 193.421 Q2159.79 195.62 2159.79 199.416 L2159.79 214.069 L2155.51 214.069 L2155.51 188.143 L2159.79 188.143 L2159.79 192.171 Q2161.32 189.833 2163.38 188.675 Q2165.46 187.518 2168.17 187.518 Q2172.64 187.518 2174.93 190.296 Q2177.22 193.05 2177.22 198.421 Z" fill="#000000" fill-rule="nonzero" fill-opacity="1" /><path clip-path="url(#clip680)" d="M2202.78 192.078 L2202.78 178.05 L2207.04 178.05 L2207.04 214.069 L2202.78 214.069 L2202.78 210.18 Q2201.43 212.495 2199.37 213.629 Q2197.34 214.74 2194.47 214.74 Q2189.77 214.74 2186.81 210.99 Q2183.87 207.24 2183.87 201.129 Q2183.87 195.018 2186.81 191.268 Q2189.77 187.518 2194.47 187.518 Q2197.34 187.518 2199.37 188.652 Q2201.43 189.763 2202.78 192.078 M2188.26 201.129 Q2188.26 205.828 2190.18 208.513 Q2192.13 211.175 2195.51 211.175 Q2198.89 211.175 2200.83 208.513 Q2202.78 205.828 2202.78 201.129 Q2202.78 196.43 2200.83 193.768 Q2198.89 191.083 2195.51 191.083 Q2192.13 191.083 2190.18 193.768 Q2188.26 196.43 2188.26 201.129 Z" fill="#000000" fill-rule="nonzero" fill-opacity="1" /><circle clip-path="url(#clip680)" cx="2060.69" cy="248.629" r="23.04" fill="#ffa500" fill-rule="evenodd" fill-opacity="1" stroke="none"/>
<path clip-path="url(#clip680)" d="M2177.22 250.261 L2177.22 265.909 L2172.96 265.909 L2172.96 250.399 Q2172.96 246.719 2171.53 244.89 Q2170.09 243.062 2167.22 243.062 Q2163.77 243.062 2161.78 245.261 Q2159.79 247.46 2159.79 251.256 L2159.79 265.909 L2155.51 265.909 L2155.51 239.983 L2159.79 239.983 L2159.79 244.011 Q2161.32 241.673 2163.38 240.515 Q2165.46 239.358 2168.17 239.358 Q2172.64 239.358 2174.93 242.136 Q2177.22 244.89 2177.22 250.261 Z" fill="#000000" fill-rule="nonzero" fill-opacity="1" /><path clip-path="url(#clip680)" d="M2202.25 240.747 L2202.25 244.774 Q2200.44 243.849 2198.5 243.386 Q2196.55 242.923 2194.47 242.923 Q2191.3 242.923 2189.7 243.895 Q2188.12 244.867 2188.12 246.811 Q2188.12 248.293 2189.26 249.149 Q2190.39 249.983 2193.82 250.747 L2195.28 251.071 Q2199.81 252.043 2201.71 253.825 Q2203.63 255.585 2203.63 258.756 Q2203.63 262.367 2200.76 264.473 Q2197.92 266.58 2192.92 266.58 Q2190.83 266.58 2188.56 266.163 Q2186.32 265.77 2183.82 264.96 L2183.82 260.561 Q2186.18 261.788 2188.47 262.413 Q2190.76 263.015 2193.01 263.015 Q2196.02 263.015 2197.64 261.997 Q2199.26 260.955 2199.26 259.08 Q2199.26 257.344 2198.08 256.418 Q2196.92 255.492 2192.96 254.636 L2191.48 254.288 Q2187.52 253.455 2185.76 251.742 Q2184 250.006 2184 246.997 Q2184 243.339 2186.6 241.349 Q2189.19 239.358 2193.96 239.358 Q2196.32 239.358 2198.4 239.705 Q2200.49 240.052 2202.25 240.747 Z" fill="#000000" fill-rule="nonzero" fill-opacity="1" /><circle clip-path="url(#clip680)" cx="2060.69" cy="300.469" r="23.04" fill="#008000" fill-rule="evenodd" fill-opacity="1" stroke="none"/>
<path clip-path="url(#clip680)" d="M2159.79 313.86 L2159.79 327.61 L2155.51 327.61 L2155.51 291.823 L2159.79 291.823 L2159.79 295.758 Q2161.13 293.443 2163.17 292.332 Q2165.23 291.198 2168.08 291.198 Q2172.8 291.198 2175.74 294.948 Q2178.7 298.698 2178.7 304.809 Q2178.7 310.92 2175.74 314.67 Q2172.8 318.42 2168.08 318.42 Q2165.23 318.42 2163.17 317.309 Q2161.13 316.175 2159.79 313.86 M2174.28 304.809 Q2174.28 300.11 2172.34 297.448 Q2170.42 294.763 2167.04 294.763 Q2163.66 294.763 2161.71 297.448 Q2159.79 300.11 2159.79 304.809 Q2159.79 309.508 2161.71 312.193 Q2163.66 314.855 2167.04 314.855 Q2170.42 314.855 2172.34 312.193 Q2174.28 309.508 2174.28 304.809 Z" fill="#000000" fill-rule="nonzero" fill-opacity="1" /><path clip-path="url(#clip680)" d="M2202.82 295.758 L2202.82 281.73 L2207.08 281.73 L2207.08 317.749 L2202.82 317.749 L2202.82 313.86 Q2201.48 316.175 2199.42 317.309 Q2197.38 318.42 2194.51 318.42 Q2189.81 318.42 2186.85 314.67 Q2183.91 310.92 2183.91 304.809 Q2183.91 298.698 2186.85 294.948 Q2189.81 291.198 2194.51 291.198 Q2197.38 291.198 2199.42 292.332 Q2201.48 293.443 2202.82 295.758 M2188.31 304.809 Q2188.31 309.508 2190.23 312.193 Q2192.18 314.855 2195.56 314.855 Q2198.93 314.855 2200.88 312.193 Q2202.82 309.508 2202.82 304.809 Q2202.82 300.11 2200.88 297.448 Q2198.93 294.763 2195.56 294.763 Q2192.18 294.763 2190.23 297.448 Q2188.31 300.11 2188.31 304.809 Z" fill="#000000" fill-rule="nonzero" fill-opacity="1" /><circle clip-path="url(#clip680)" cx="2060.69" cy="352.309" r="23.04" fill="#0000ff" fill-rule="evenodd" fill-opacity="1" stroke="none"/>
<path clip-path="url(#clip680)" d="M2174.28 356.649 Q2174.28 351.95 2172.34 349.288 Q2170.42 346.603 2167.04 346.603 Q2163.66 346.603 2161.71 349.288 Q2159.79 351.95 2159.79 356.649 Q2159.79 361.348 2161.71 364.033 Q2163.66 366.695 2167.04 366.695 Q2170.42 366.695 2172.34 364.033 Q2174.28 361.348 2174.28 356.649 M2159.79 347.598 Q2161.13 345.283 2163.17 344.172 Q2165.23 343.038 2168.08 343.038 Q2172.8 343.038 2175.74 346.788 Q2178.7 350.538 2178.7 356.649 Q2178.7 362.76 2175.74 366.51 Q2172.8 370.26 2168.08 370.26 Q2165.23 370.26 2163.17 369.149 Q2161.13 368.015 2159.79 365.7 L2159.79 369.589 L2155.51 369.589 L2155.51 333.57 L2159.79 333.57 L2159.79 347.598 Z" fill="#000000" fill-rule="nonzero" fill-opacity="1" /><path clip-path="url(#clip680)" d="M2189.88 365.7 L2189.88 379.45 L2185.6 379.45 L2185.6 343.663 L2189.88 343.663 L2189.88 347.598 Q2191.23 345.283 2193.26 344.172 Q2195.32 343.038 2198.17 343.038 Q2202.89 343.038 2205.83 346.788 Q2208.8 350.538 2208.8 356.649 Q2208.8 362.76 2205.83 366.51 Q2202.89 370.26 2198.17 370.26 Q2195.32 370.26 2193.26 369.149 Q2191.23 368.015 2189.88 365.7 M2204.37 356.649 Q2204.37 351.95 2202.43 349.288 Q2200.51 346.603 2197.13 346.603 Q2193.75 346.603 2191.81 349.288 Q2189.88 351.95 2189.88 356.649 Q2189.88 361.348 2191.81 364.033 Q2193.75 366.695 2197.13 366.695 Q2200.51 366.695 2202.43 364.033 Q2204.37 361.348 2204.37 356.649 Z" fill="#000000" fill-rule="nonzero" fill-opacity="1" /></svg>
