<?xml version="1.0" encoding="utf-8"?>
<svg xmlns="http://www.w3.org/2000/svg" xmlns:xlink="http://www.w3.org/1999/xlink" width="600" height="400" viewBox="0 0 2400 1600">
<defs>
  <clipPath id="clip650">
    <rect x="0" y="0" width="2400" height="1600"/>
  </clipPath>
</defs>
<path clip-path="url(#clip650)" d="M0 1600 L2400 1600 L2400 0 L0 0  Z" fill="#ffffff" fill-rule="evenodd" fill-opacity="1"/>
<defs>
  <clipPath id="clip651">
    <rect x="203" y="47" width="2150" height="1377"/>
  </clipPath>
</defs>
<path clip-path="url(#clip650)" d="M203.964 1423.18 L2352.76 1423.18 L2352.76 47.2441 L203.964 47.2441  Z" fill="#ffffff" fill-rule="evenodd" fill-opacity="1"/>
<polyline clip-path="url(#clip651)" style="stroke:#000000; stroke-linecap:round; stroke-linejoin:round; stroke-width:2; stroke-opacity:0.1; fill:none" points="264.782,1423.18 264.782,47.2441 "/>
<polyline clip-path="url(#clip651)" style="stroke:#000000; stroke-linecap:round; stroke-linejoin:round; stroke-width:2; stroke-opacity:0.1; fill:none" points="743.081,1423.18 743.081,47.2441 "/>
<polyline clip-path="url(#clip651)" style="stroke:#000000; stroke-linecap:round; stroke-linejoin:round; stroke-width:2; stroke-opacity:0.1; fill:none" points="1221.38,1423.18 1221.38,47.2441 "/>
<polyline clip-path="url(#clip651)" style="stroke:#000000; stroke-linecap:round; stroke-linejoin:round; stroke-width:2; stroke-opacity:0.1; fill:none" points="1699.68,1423.18 1699.68,47.2441 "/>
<polyline clip-path="url(#clip651)" style="stroke:#000000; stroke-linecap:round; stroke-linejoin:round; stroke-width:2; stroke-opacity:0.1; fill:none" points="2177.98,1423.18 2177.98,47.2441 "/>
<polyline clip-path="url(#clip651)" style="stroke:#000000; stroke-linecap:round; stroke-linejoin:round; stroke-width:2; stroke-opacity:0.1; fill:none" points="203.964,1256.71 2352.76,1256.71 "/>
<polyline clip-path="url(#clip651)" style="stroke:#000000; stroke-linecap:round; stroke-linejoin:round; stroke-width:2; stroke-opacity:0.1; fill:none" points="203.964,1069.32 2352.76,1069.32 "/>
<polyline clip-path="url(#clip651)" style="stroke:#000000; stroke-linecap:round; stroke-linejoin:round; stroke-width:2; stroke-opacity:0.1; fill:none" points="203.964,881.931 2352.76,881.931 "/>
<polyline clip-path="url(#clip651)" style="stroke:#000000; stroke-linecap:round; stroke-linejoin:round; stroke-width:2; stroke-opacity:0.1; fill:none" points="203.964,694.542 2352.76,694.542 "/>
<polyline clip-path="url(#clip651)" style="stroke:#000000; stroke-linecap:round; stroke-linejoin:round; stroke-width:2; stroke-opacity:0.1; fill:none" points="203.964,507.153 2352.76,507.153 "/>
<polyline clip-path="url(#clip651)" style="stroke:#000000; stroke-linecap:round; stroke-linejoin:round; stroke-width:2; stroke-opacity:0.1; fill:none" points="203.964,319.764 2352.76,319.764 "/>
<polyline clip-path="url(#clip651)" style="stroke:#000000; stroke-linecap:round; stroke-linejoin:round; stroke-width:2; stroke-opacity:0.1; fill:none" points="203.964,132.375 2352.76,132.375 "/>
<polyline clip-path="url(#clip650)" style="stroke:#000000; stroke-linecap:round; stroke-linejoin:round; stroke-width:4; stroke-opacity:1; fill:none" points="203.964,1423.18 2352.76,1423.18 "/>
<polyline clip-path="url(#clip650)" style="stroke:#000000; stroke-linecap:round; stroke-linejoin:round; stroke-width:4; stroke-opacity:1; fill:none" points="264.782,1423.18 264.782,1404.28 "/>
<polyline clip-path="url(#clip650)" style="stroke:#000000; stroke-linecap:round; stroke-linejoin:round; stroke-width:4; stroke-opacity:1; fill:none" points="743.081,1423.18 743.081,1404.28 "/>
<polyline clip-path="url(#clip650)" style="stroke:#000000; stroke-linecap:round; stroke-linejoin:round; stroke-width:4; stroke-opacity:1; fill:none" points="1221.38,1423.18 1221.38,1404.28 "/>
<polyline clip-path="url(#clip650)" style="stroke:#000000; stroke-linecap:round; stroke-linejoin:round; stroke-width:4; stroke-opacity:1; fill:none" points="1699.68,1423.18 1699.68,1404.28 "/>
<polyline clip-path="url(#clip650)" style="stroke:#000000; stroke-linecap:round; stroke-linejoin:round; stroke-width:4; stroke-opacity:1; fill:none" points="2177.98,1423.18 2177.98,1404.28 "/>
<path clip-path="url(#clip650)" d="M242.166 1454.1 Q238.555 1454.1 236.727 1457.66 Q234.921 1461.2 234.921 1468.33 Q234.921 1475.44 236.727 1479.01 Q238.555 1482.55 242.166 1482.55 Q245.801 1482.55 247.606 1479.01 Q249.435 1475.44 249.435 1468.33 Q249.435 1461.2 247.606 1457.66 Q245.801 1454.1 242.166 1454.1 M242.166 1450.39 Q247.977 1450.39 251.032 1455 Q254.111 1459.58 254.111 1468.33 Q254.111 1477.06 251.032 1481.67 Q247.977 1486.25 242.166 1486.25 Q236.356 1486.25 233.278 1481.67 Q230.222 1477.06 230.222 1468.33 Q230.222 1459.58 233.278 1455 Q236.356 1450.39 242.166 1450.39 Z" fill="#000000" fill-rule="nonzero" fill-opacity="1" /><path clip-path="url(#clip650)" d="M262.328 1479.7 L267.213 1479.7 L267.213 1485.58 L262.328 1485.58 L262.328 1479.7 Z" fill="#000000" fill-rule="nonzero" fill-opacity="1" /><path clip-path="url(#clip650)" d="M287.398 1454.1 Q283.787 1454.1 281.958 1457.66 Q280.152 1461.2 280.152 1468.33 Q280.152 1475.44 281.958 1479.01 Q283.787 1482.55 287.398 1482.55 Q291.032 1482.55 292.838 1479.01 Q294.666 1475.44 294.666 1468.33 Q294.666 1461.2 292.838 1457.66 Q291.032 1454.1 287.398 1454.1 M287.398 1450.39 Q293.208 1450.39 296.263 1455 Q299.342 1459.58 299.342 1468.33 Q299.342 1477.06 296.263 1481.67 Q293.208 1486.25 287.398 1486.25 Q281.588 1486.25 278.509 1481.67 Q275.453 1477.06 275.453 1468.33 Q275.453 1459.58 278.509 1455 Q281.588 1450.39 287.398 1450.39 Z" fill="#000000" fill-rule="nonzero" fill-opacity="1" /><path clip-path="url(#clip650)" d="M720.963 1454.1 Q717.352 1454.1 715.523 1457.66 Q713.718 1461.2 713.718 1468.33 Q713.718 1475.44 715.523 1479.01 Q717.352 1482.55 720.963 1482.55 Q724.597 1482.55 726.403 1479.01 Q728.232 1475.44 728.232 1468.33 Q728.232 1461.2 726.403 1457.66 Q724.597 1454.1 720.963 1454.1 M720.963 1450.39 Q726.773 1450.39 729.829 1455 Q732.907 1459.58 732.907 1468.33 Q732.907 1477.06 729.829 1481.67 Q726.773 1486.25 720.963 1486.25 Q715.153 1486.25 712.074 1481.67 Q709.019 1477.06 709.019 1468.33 Q709.019 1459.58 712.074 1455 Q715.153 1450.39 720.963 1450.39 Z" fill="#000000" fill-rule="nonzero" fill-opacity="1" /><path clip-path="url(#clip650)" d="M741.125 1479.7 L746.009 1479.7 L746.009 1485.58 L741.125 1485.58 L741.125 1479.7 Z" fill="#000000" fill-rule="nonzero" fill-opacity="1" /><path clip-path="url(#clip650)" d="M756.241 1451.02 L774.597 1451.02 L774.597 1454.96 L760.523 1454.96 L760.523 1463.43 Q761.542 1463.08 762.56 1462.92 Q763.579 1462.73 764.597 1462.73 Q770.384 1462.73 773.764 1465.9 Q777.143 1469.08 777.143 1474.49 Q777.143 1480.07 773.671 1483.17 Q770.199 1486.25 763.879 1486.25 Q761.704 1486.25 759.435 1485.88 Q757.19 1485.51 754.782 1484.77 L754.782 1480.07 Q756.866 1481.2 759.088 1481.76 Q761.31 1482.32 763.787 1482.32 Q767.791 1482.32 770.129 1480.21 Q772.467 1478.1 772.467 1474.49 Q772.467 1470.88 770.129 1468.77 Q767.791 1466.67 763.787 1466.67 Q761.912 1466.67 760.037 1467.08 Q758.185 1467.5 756.241 1468.38 L756.241 1451.02 Z" fill="#000000" fill-rule="nonzero" fill-opacity="1" /><path clip-path="url(#clip650)" d="M1188.53 1481.64 L1196.17 1481.64 L1196.17 1455.28 L1187.86 1456.95 L1187.86 1452.69 L1196.13 1451.02 L1200.8 1451.02 L1200.8 1481.64 L1208.44 1481.64 L1208.44 1485.58 L1188.53 1485.58 L1188.53 1481.64 Z" fill="#000000" fill-rule="nonzero" fill-opacity="1" /><path clip-path="url(#clip650)" d="M1217.88 1479.7 L1222.77 1479.7 L1222.77 1485.58 L1217.88 1485.58 L1217.88 1479.7 Z" fill="#000000" fill-rule="nonzero" fill-opacity="1" /><path clip-path="url(#clip650)" d="M1242.95 1454.1 Q1239.34 1454.1 1237.51 1457.66 Q1235.71 1461.2 1235.71 1468.33 Q1235.71 1475.44 1237.51 1479.01 Q1239.34 1482.55 1242.95 1482.55 Q1246.59 1482.55 1248.39 1479.01 Q1250.22 1475.44 1250.22 1468.33 Q1250.22 1461.2 1248.39 1457.66 Q1246.59 1454.1 1242.95 1454.1 M1242.95 1450.39 Q1248.76 1450.39 1251.82 1455 Q1254.9 1459.58 1254.9 1468.33 Q1254.9 1477.06 1251.82 1481.67 Q1248.76 1486.25 1242.95 1486.25 Q1237.14 1486.25 1234.06 1481.67 Q1231.01 1477.06 1231.01 1468.33 Q1231.01 1459.58 1234.06 1455 Q1237.14 1450.39 1242.95 1450.39 Z" fill="#000000" fill-rule="nonzero" fill-opacity="1" /><path clip-path="url(#clip650)" d="M1667.33 1481.64 L1674.97 1481.64 L1674.97 1455.28 L1666.66 1456.95 L1666.66 1452.69 L1674.92 1451.02 L1679.6 1451.02 L1679.6 1481.64 L1687.24 1481.64 L1687.24 1485.58 L1667.33 1485.58 L1667.33 1481.64 Z" fill="#000000" fill-rule="nonzero" fill-opacity="1" /><path clip-path="url(#clip650)" d="M1696.68 1479.7 L1701.57 1479.7 L1701.57 1485.58 L1696.68 1485.58 L1696.68 1479.7 Z" fill="#000000" fill-rule="nonzero" fill-opacity="1" /><path clip-path="url(#clip650)" d="M1711.8 1451.02 L1730.15 1451.02 L1730.15 1454.96 L1716.08 1454.96 L1716.08 1463.43 Q1717.1 1463.08 1718.12 1462.92 Q1719.13 1462.73 1720.15 1462.73 Q1725.94 1462.73 1729.32 1465.9 Q1732.7 1469.08 1732.7 1474.49 Q1732.7 1480.07 1729.23 1483.17 Q1725.75 1486.25 1719.44 1486.25 Q1717.26 1486.25 1714.99 1485.88 Q1712.75 1485.51 1710.34 1484.77 L1710.34 1480.07 Q1712.42 1481.2 1714.64 1481.76 Q1716.87 1482.32 1719.34 1482.32 Q1723.35 1482.32 1725.69 1480.21 Q1728.02 1478.1 1728.02 1474.49 Q1728.02 1470.88 1725.69 1468.77 Q1723.35 1466.67 1719.34 1466.67 Q1717.47 1466.67 1715.59 1467.08 Q1713.74 1467.5 1711.8 1468.38 L1711.8 1451.02 Z" fill="#000000" fill-rule="nonzero" fill-opacity="1" /><path clip-path="url(#clip650)" d="M2149.22 1481.64 L2165.54 1481.64 L2165.54 1485.58 L2143.59 1485.58 L2143.59 1481.64 Q2146.25 1478.89 2150.84 1474.26 Q2155.44 1469.61 2156.62 1468.27 Q2158.87 1465.74 2159.75 1464.01 Q2160.65 1462.25 2160.65 1460.56 Q2160.65 1457.8 2158.71 1456.07 Q2156.79 1454.33 2153.68 1454.33 Q2151.48 1454.33 2149.03 1455.09 Q2146.6 1455.86 2143.82 1457.41 L2143.82 1452.69 Q2146.65 1451.55 2149.1 1450.97 Q2151.55 1450.39 2153.59 1450.39 Q2158.96 1450.39 2162.16 1453.08 Q2165.35 1455.77 2165.35 1460.26 Q2165.35 1462.39 2164.54 1464.31 Q2163.75 1466.2 2161.65 1468.8 Q2161.07 1469.47 2157.97 1472.69 Q2154.86 1475.88 2149.22 1481.64 Z" fill="#000000" fill-rule="nonzero" fill-opacity="1" /><path clip-path="url(#clip650)" d="M2175.35 1479.7 L2180.23 1479.7 L2180.23 1485.58 L2175.35 1485.58 L2175.35 1479.7 Z" fill="#000000" fill-rule="nonzero" fill-opacity="1" /><path clip-path="url(#clip650)" d="M2200.42 1454.1 Q2196.81 1454.1 2194.98 1457.66 Q2193.17 1461.2 2193.17 1468.33 Q2193.17 1475.44 2194.98 1479.01 Q2196.81 1482.55 2200.42 1482.55 Q2204.05 1482.55 2205.86 1479.01 Q2207.69 1475.44 2207.69 1468.33 Q2207.69 1461.2 2205.86 1457.66 Q2204.05 1454.1 2200.42 1454.1 M2200.42 1450.39 Q2206.23 1450.39 2209.29 1455 Q2212.36 1459.58 2212.36 1468.33 Q2212.36 1477.06 2209.29 1481.67 Q2206.23 1486.25 2200.42 1486.25 Q2194.61 1486.25 2191.53 1481.67 Q2188.48 1477.06 2188.48 1468.33 Q2188.48 1459.58 2191.53 1455 Q2194.61 1450.39 2200.42 1450.39 Z" fill="#000000" fill-rule="nonzero" fill-opacity="1" /><path clip-path="url(#clip650)" d="M1240.31 1550.12 Q1233.21 1550.12 1230.47 1551.75 Q1227.74 1553.37 1227.74 1557.29 Q1227.74 1560.4 1229.77 1562.25 Q1231.84 1564.07 1235.38 1564.07 Q1240.25 1564.07 1243.17 1560.63 Q1246.13 1557.16 1246.13 1551.43 L1246.13 1550.12 L1240.31 1550.12 M1251.99 1547.71 L1251.99 1568.04 L1246.13 1568.04 L1246.13 1562.63 Q1244.13 1565.88 1241.14 1567.44 Q1238.14 1568.97 1233.82 1568.97 Q1228.34 1568.97 1225.09 1565.91 Q1221.88 1562.82 1221.88 1557.67 Q1221.88 1551.65 1225.89 1548.6 Q1229.93 1545.54 1237.92 1545.54 L1246.13 1545.54 L1246.13 1544.97 Q1246.13 1540.93 1243.46 1538.73 Q1240.82 1536.5 1236.01 1536.5 Q1232.96 1536.5 1230.06 1537.23 Q1227.16 1537.97 1224.49 1539.43 L1224.49 1534.02 Q1227.7 1532.78 1230.73 1532.17 Q1233.75 1531.54 1236.62 1531.54 Q1244.35 1531.54 1248.17 1535.55 Q1251.99 1539.56 1251.99 1547.71 Z" fill="#000000" fill-rule="nonzero" fill-opacity="1" /><path clip-path="url(#clip650)" d="M1270.42 1562.63 L1292.86 1562.63 L1292.86 1568.04 L1262.68 1568.04 L1262.68 1562.63 Q1266.34 1558.85 1272.65 1552.48 Q1278.98 1546.08 1280.6 1544.24 Q1283.69 1540.77 1284.9 1538.38 Q1286.14 1535.96 1286.14 1533.64 Q1286.14 1529.85 1283.47 1527.46 Q1280.83 1525.08 1276.56 1525.08 Q1273.54 1525.08 1270.16 1526.13 Q1266.82 1527.18 1263 1529.31 L1263 1522.82 Q1266.89 1521.26 1270.26 1520.46 Q1273.63 1519.66 1276.43 1519.66 Q1283.82 1519.66 1288.21 1523.36 Q1292.6 1527.05 1292.6 1533.22 Q1292.6 1536.15 1291.49 1538.79 Q1290.41 1541.4 1287.51 1544.97 Q1286.71 1545.89 1282.45 1550.32 Q1278.18 1554.71 1270.42 1562.63 Z" fill="#000000" fill-rule="nonzero" fill-opacity="1" /><path clip-path="url(#clip650)" d="M1307.47 1562.63 L1317.97 1562.63 L1317.97 1526.38 L1306.54 1528.67 L1306.54 1522.82 L1317.91 1520.52 L1324.34 1520.52 L1324.34 1562.63 L1334.84 1562.63 L1334.84 1568.04 L1307.47 1568.04 L1307.47 1562.63 Z" fill="#000000" fill-rule="nonzero" fill-opacity="1" /><polyline clip-path="url(#clip650)" style="stroke:#000000; stroke-linecap:round; stroke-linejoin:round; stroke-width:4; stroke-opacity:1; fill:none" points="203.964,1423.18 203.964,47.2441 "/>
<polyline clip-path="url(#clip650)" style="stroke:#000000; stroke-linecap:round; stroke-linejoin:round; stroke-width:4; stroke-opacity:1; fill:none" points="203.964,1256.71 222.861,1256.71 "/>
<polyline clip-path="url(#clip650)" style="stroke:#000000; stroke-linecap:round; stroke-linejoin:round; stroke-width:4; stroke-opacity:1; fill:none" points="203.964,1069.32 222.861,1069.32 "/>
<polyline clip-path="url(#clip650)" style="stroke:#000000; stroke-linecap:round; stroke-linejoin:round; stroke-width:4; stroke-opacity:1; fill:none" points="203.964,881.931 222.861,881.931 "/>
<polyline clip-path="url(#clip650)" style="stroke:#000000; stroke-linecap:round; stroke-linejoin:round; stroke-width:4; stroke-opacity:1; fill:none" points="203.964,694.542 222.861,694.542 "/>
<polyline clip-path="url(#clip650)" style="stroke:#000000; stroke-linecap:round; stroke-linejoin:round; stroke-width:4; stroke-opacity:1; fill:none" points="203.964,507.153 222.861,507.153 "/>
<polyline clip-path="url(#clip650)" style="stroke:#000000; stroke-linecap:round; stroke-linejoin:round; stroke-width:4; stroke-opacity:1; fill:none" points="203.964,319.764 222.861,319.764 "/>
<polyline clip-path="url(#clip650)" style="stroke:#000000; stroke-linecap:round; stroke-linejoin:round; stroke-width:4; stroke-opacity:1; fill:none" points="203.964,132.375 222.861,132.375 "/>
<path clip-path="url(#clip650)" d="M147.061 1239.43 L165.417 1239.43 L165.417 1243.36 L151.343 1243.36 L151.343 1251.84 Q152.362 1251.49 153.38 1251.33 Q154.399 1251.14 155.417 1251.14 Q161.204 1251.14 164.584 1254.31 Q167.964 1257.48 167.964 1262.9 Q167.964 1268.48 164.491 1271.58 Q161.019 1274.66 154.7 1274.66 Q152.524 1274.66 150.255 1274.29 Q148.01 1273.92 145.603 1273.18 L145.603 1268.48 Q147.686 1269.61 149.908 1270.17 Q152.13 1270.73 154.607 1270.73 Q158.612 1270.73 160.95 1268.62 Q163.288 1266.51 163.288 1262.9 Q163.288 1259.29 160.95 1257.18 Q158.612 1255.08 154.607 1255.08 Q152.732 1255.08 150.857 1255.49 Q149.005 1255.91 147.061 1256.79 L147.061 1239.43 Z" fill="#000000" fill-rule="nonzero" fill-opacity="1" /><path clip-path="url(#clip650)" d="M116.668 1082.66 L124.306 1082.66 L124.306 1056.3 L115.996 1057.97 L115.996 1053.71 L124.26 1052.04 L128.936 1052.04 L128.936 1082.66 L136.575 1082.66 L136.575 1086.6 L116.668 1086.6 L116.668 1082.66 Z" fill="#000000" fill-rule="nonzero" fill-opacity="1" /><path clip-path="url(#clip650)" d="M156.019 1055.12 Q152.408 1055.12 150.579 1058.68 Q148.774 1062.23 148.774 1069.35 Q148.774 1076.46 150.579 1080.03 Q152.408 1083.57 156.019 1083.57 Q159.653 1083.57 161.459 1080.03 Q163.288 1076.46 163.288 1069.35 Q163.288 1062.23 161.459 1058.68 Q159.653 1055.12 156.019 1055.12 M156.019 1051.42 Q161.829 1051.42 164.885 1056.02 Q167.964 1060.6 167.964 1069.35 Q167.964 1078.08 164.885 1082.69 Q161.829 1087.27 156.019 1087.27 Q150.209 1087.27 147.13 1082.69 Q144.075 1078.08 144.075 1069.35 Q144.075 1060.6 147.13 1056.02 Q150.209 1051.42 156.019 1051.42 Z" fill="#000000" fill-rule="nonzero" fill-opacity="1" /><path clip-path="url(#clip650)" d="M117.663 895.276 L125.302 895.276 L125.302 868.91 L116.992 870.577 L116.992 866.318 L125.255 864.651 L129.931 864.651 L129.931 895.276 L137.57 895.276 L137.57 899.211 L117.663 899.211 L117.663 895.276 Z" fill="#000000" fill-rule="nonzero" fill-opacity="1" /><path clip-path="url(#clip650)" d="M147.061 864.651 L165.417 864.651 L165.417 868.586 L151.343 868.586 L151.343 877.058 Q152.362 876.711 153.38 876.549 Q154.399 876.364 155.417 876.364 Q161.204 876.364 164.584 879.535 Q167.964 882.707 167.964 888.123 Q167.964 893.702 164.491 896.804 Q161.019 899.882 154.7 899.882 Q152.524 899.882 150.255 899.512 Q148.01 899.142 145.603 898.401 L145.603 893.702 Q147.686 894.836 149.908 895.392 Q152.13 895.947 154.607 895.947 Q158.612 895.947 160.95 893.841 Q163.288 891.734 163.288 888.123 Q163.288 884.512 160.95 882.406 Q158.612 880.299 154.607 880.299 Q152.732 880.299 150.857 880.716 Q149.005 881.133 147.061 882.012 L147.061 864.651 Z" fill="#000000" fill-rule="nonzero" fill-opacity="1" /><path clip-path="url(#clip650)" d="M119.885 707.887 L136.204 707.887 L136.204 711.822 L114.26 711.822 L114.26 707.887 Q116.922 705.132 121.505 700.503 Q126.112 695.85 127.292 694.507 Q129.538 691.984 130.417 690.248 Q131.32 688.489 131.32 686.799 Q131.32 684.044 129.376 682.308 Q127.455 680.572 124.353 680.572 Q122.154 680.572 119.7 681.336 Q117.269 682.1 114.492 683.651 L114.492 678.929 Q117.316 677.795 119.769 677.216 Q122.223 676.637 124.26 676.637 Q129.63 676.637 132.825 679.322 Q136.019 682.007 136.019 686.498 Q136.019 688.628 135.209 690.549 Q134.422 692.447 132.316 695.04 Q131.737 695.711 128.635 698.929 Q125.533 702.123 119.885 707.887 Z" fill="#000000" fill-rule="nonzero" fill-opacity="1" /><path clip-path="url(#clip650)" d="M156.019 680.341 Q152.408 680.341 150.579 683.906 Q148.774 687.447 148.774 694.577 Q148.774 701.683 150.579 705.248 Q152.408 708.79 156.019 708.79 Q159.653 708.79 161.459 705.248 Q163.288 701.683 163.288 694.577 Q163.288 687.447 161.459 683.906 Q159.653 680.341 156.019 680.341 M156.019 676.637 Q161.829 676.637 164.885 681.244 Q167.964 685.827 167.964 694.577 Q167.964 703.304 164.885 707.91 Q161.829 712.493 156.019 712.493 Q150.209 712.493 147.13 707.91 Q144.075 703.304 144.075 694.577 Q144.075 685.827 147.13 681.244 Q150.209 676.637 156.019 676.637 Z" fill="#000000" fill-rule="nonzero" fill-opacity="1" /><path clip-path="url(#clip650)" d="M120.88 520.498 L137.2 520.498 L137.2 524.433 L115.256 524.433 L115.256 520.498 Q117.918 517.743 122.501 513.114 Q127.107 508.461 128.288 507.118 Q130.533 504.595 131.413 502.859 Q132.316 501.1 132.316 499.41 Q132.316 496.655 130.371 494.919 Q128.45 493.183 125.348 493.183 Q123.149 493.183 120.695 493.947 Q118.265 494.711 115.487 496.262 L115.487 491.54 Q118.311 490.405 120.765 489.827 Q123.218 489.248 125.255 489.248 Q130.626 489.248 133.82 491.933 Q137.015 494.618 137.015 499.109 Q137.015 501.239 136.204 503.16 Q135.417 505.058 133.311 507.651 Q132.732 508.322 129.63 511.54 Q126.529 514.734 120.88 520.498 Z" fill="#000000" fill-rule="nonzero" fill-opacity="1" /><path clip-path="url(#clip650)" d="M147.061 489.873 L165.417 489.873 L165.417 493.808 L151.343 493.808 L151.343 502.28 Q152.362 501.933 153.38 501.771 Q154.399 501.586 155.417 501.586 Q161.204 501.586 164.584 504.757 Q167.964 507.929 167.964 513.345 Q167.964 518.924 164.491 522.026 Q161.019 525.104 154.7 525.104 Q152.524 525.104 150.255 524.734 Q148.01 524.364 145.603 523.623 L145.603 518.924 Q147.686 520.058 149.908 520.614 Q152.13 521.169 154.607 521.169 Q158.612 521.169 160.95 519.063 Q163.288 516.956 163.288 513.345 Q163.288 509.734 160.95 507.628 Q158.612 505.521 154.607 505.521 Q152.732 505.521 150.857 505.938 Q149.005 506.354 147.061 507.234 L147.061 489.873 Z" fill="#000000" fill-rule="nonzero" fill-opacity="1" /><path clip-path="url(#clip650)" d="M130.024 318.41 Q133.38 319.127 135.255 321.396 Q137.154 323.664 137.154 326.998 Q137.154 332.114 133.635 334.914 Q130.117 337.715 123.635 337.715 Q121.459 337.715 119.144 337.276 Q116.853 336.859 114.399 336.002 L114.399 331.489 Q116.343 332.623 118.658 333.201 Q120.973 333.78 123.496 333.78 Q127.894 333.78 130.186 332.044 Q132.501 330.308 132.501 326.998 Q132.501 323.942 130.348 322.229 Q128.218 320.493 124.399 320.493 L120.371 320.493 L120.371 316.651 L124.584 316.651 Q128.033 316.651 129.862 315.285 Q131.691 313.896 131.691 311.303 Q131.691 308.641 129.792 307.229 Q127.917 305.794 124.399 305.794 Q122.478 305.794 120.279 306.211 Q118.08 306.628 115.441 307.507 L115.441 303.341 Q118.103 302.6 120.418 302.229 Q122.755 301.859 124.816 301.859 Q130.14 301.859 133.242 304.29 Q136.343 306.697 136.343 310.817 Q136.343 313.688 134.7 315.678 Q133.056 317.646 130.024 318.41 Z" fill="#000000" fill-rule="nonzero" fill-opacity="1" /><path clip-path="url(#clip650)" d="M156.019 305.563 Q152.408 305.563 150.579 309.128 Q148.774 312.669 148.774 319.799 Q148.774 326.905 150.579 330.47 Q152.408 334.012 156.019 334.012 Q159.653 334.012 161.459 330.47 Q163.288 326.905 163.288 319.799 Q163.288 312.669 161.459 309.128 Q159.653 305.563 156.019 305.563 M156.019 301.859 Q161.829 301.859 164.885 306.465 Q167.964 311.049 167.964 319.799 Q167.964 328.526 164.885 333.132 Q161.829 337.715 156.019 337.715 Q150.209 337.715 147.13 333.132 Q144.075 328.526 144.075 319.799 Q144.075 311.049 147.13 306.465 Q150.209 301.859 156.019 301.859 Z" fill="#000000" fill-rule="nonzero" fill-opacity="1" /><path clip-path="url(#clip650)" d="M131.019 131.021 Q134.376 131.738 136.251 134.007 Q138.149 136.275 138.149 139.609 Q138.149 144.724 134.63 147.525 Q131.112 150.326 124.63 150.326 Q122.455 150.326 120.14 149.886 Q117.848 149.47 115.394 148.613 L115.394 144.099 Q117.339 145.234 119.654 145.812 Q121.968 146.391 124.492 146.391 Q128.89 146.391 131.181 144.655 Q133.496 142.919 133.496 139.609 Q133.496 136.553 131.343 134.84 Q129.214 133.104 125.394 133.104 L121.367 133.104 L121.367 129.262 L125.58 129.262 Q129.029 129.262 130.857 127.896 Q132.686 126.507 132.686 123.914 Q132.686 121.252 130.788 119.84 Q128.913 118.405 125.394 118.405 Q123.473 118.405 121.274 118.822 Q119.075 119.238 116.436 120.118 L116.436 115.951 Q119.098 115.211 121.413 114.84 Q123.751 114.47 125.811 114.47 Q131.135 114.47 134.237 116.901 Q137.339 119.308 137.339 123.428 Q137.339 126.299 135.695 128.289 Q134.052 130.257 131.019 131.021 Z" fill="#000000" fill-rule="nonzero" fill-opacity="1" /><path clip-path="url(#clip650)" d="M147.061 115.095 L165.417 115.095 L165.417 119.03 L151.343 119.03 L151.343 127.502 Q152.362 127.155 153.38 126.993 Q154.399 126.808 155.417 126.808 Q161.204 126.808 164.584 129.979 Q167.964 133.15 167.964 138.567 Q167.964 144.146 164.491 147.248 Q161.019 150.326 154.7 150.326 Q152.524 150.326 150.255 149.956 Q148.01 149.586 145.603 148.845 L145.603 144.146 Q147.686 145.28 149.908 145.836 Q152.13 146.391 154.607 146.391 Q158.612 146.391 160.95 144.285 Q163.288 142.178 163.288 138.567 Q163.288 134.956 160.95 132.85 Q158.612 130.743 154.607 130.743 Q152.732 130.743 150.857 131.16 Q149.005 131.576 147.061 132.456 L147.061 115.095 Z" fill="#000000" fill-rule="nonzero" fill-opacity="1" /><path clip-path="url(#clip650)" d="M57.5111 748.198 Q59.0389 747.052 59.0389 743.615 L59.0389 740.782 L64.0042 740.782 L64.0042 744.315 Q64.0042 750.044 60.9486 752.654 Q57.8294 755.264 51.0818 755.264 L34.2127 755.264 L34.2127 768.632 L28.3562 768.632 L28.3562 735.753 L34.2127 735.753 L34.2127 749.28 L51.4319 749.28 Q56.047 749.28 57.5111 748.198 Z" fill="#000000" fill-rule="nonzero" fill-opacity="1" /><path clip-path="url(#clip650)" d="M29.4065 703.702 L34.9447 703.702 Q33.6716 706.184 33.035 708.858 Q32.3984 711.532 32.3984 714.396 Q32.3984 718.757 33.7352 720.953 Q35.072 723.117 37.7456 723.117 Q39.7826 723.117 40.9603 721.558 Q42.1061 719.998 43.1565 715.287 L43.6021 713.282 Q44.9389 707.044 47.3897 704.434 Q49.8086 701.792 54.1691 701.792 Q59.1344 701.792 62.0308 705.739 Q64.9272 709.654 64.9272 716.529 Q64.9272 719.393 64.3543 722.512 Q63.8132 725.6 62.6992 729.037 L56.6518 729.037 Q58.3387 725.791 59.198 722.64 Q60.0256 719.489 60.0256 716.401 Q60.0256 712.264 58.6251 710.036 Q57.1929 707.808 54.6147 707.808 Q52.2276 707.808 50.9545 709.431 Q49.6813 711.022 48.5037 716.465 L48.0262 718.502 Q46.8804 723.945 44.5251 726.364 Q42.138 728.783 38.0002 728.783 Q32.9713 728.783 30.2341 725.218 Q27.4968 721.653 27.4968 715.096 Q27.4968 711.85 27.9743 708.985 Q28.4517 706.121 29.4065 703.702 Z" fill="#000000" fill-rule="nonzero" fill-opacity="1" /><circle clip-path="url(#clip651)" cx="264.782" cy="1353.44" r="10.8" fill="#ff00ff" fill-rule="evenodd" fill-opacity="1" stroke="none"/>
<circle clip-path="url(#clip651)" cx="264.782" cy="1353.43" r="10.8" fill="#008000" fill-rule="evenodd" fill-opacity="1" stroke="none"/>
<circle clip-path="url(#clip651)" cx="1823.23" cy="930.163" r="10.8" fill="#a52a2a" fill-rule="evenodd" fill-opacity="1" stroke="none"/>
<polyline clip-path="url(#clip651)" style="stroke:#c271d2; stroke-linecap:round; stroke-linejoin:round; stroke-width:4; stroke-opacity:1; fill:none" points="743.081,1384.24 716.768,1383.81 679.432,1383.15 627.244,1382.13 575.503,1380.98 524.415,1379.64 474.306,1378.07 425.738,1376.18 379.709,1373.87 338.014,1370.97 303.602,1367.33 279.855,1362.96 267.751,1358.1 264.782,1353.44 264.782,1353.43 267.365,1348.32 273.662,1343.1 282.106,1337.82 291.703,1332.47 301.815,1327.05 312.031,1321.56 322.087,1316.02 331.816,1310.41 341.121,1304.76 349.946,1299.06 358.268,1293.32 366.084,1287.54 373.405,1281.74 380.249,1275.91 386.64,1270.06 392.606,1264.19 398.172,1258.3 403.366,1252.4 408.216,1246.49 412.747,1240.57 416.982,1234.63 420.943,1228.69 424.653,1222.75 428.129,1216.8 431.39,1210.84 434.452,1204.88 437.33,1198.92 440.038,1192.95 442.588,1186.98 444.991,1181 447.259,1175.03 449.401,1169.05 451.426,1163.07 453.342,1157.09 455.157,1151.11 456.877,1145.12 458.509,1139.14 460.058,1133.15 461.53,1127.16 462.93,1121.18 463.081,1120.51 464.407,1114.52 465.669,1108.53 466.872,1102.54 468.02,1096.55 469.116,1090.56 470.162,1084.57 471.163,1078.58 472.12,1072.59 473.036,1066.6 473.913,1060.6 474.753,1054.61 475.559,1048.62 476.332,1042.63 477.074,1036.63 477.786,1030.64 478.471,1024.64 479.129,1018.65 479.762,1012.66 480.371,1006.66 480.958,1000.67 481.523,994.674 482.067,988.679 482.592,982.684 483.099,976.69 483.587,970.695 484.059,964.7 484.514,958.705 484.954,952.709 485.379,946.714 485.79,940.719 486.188,934.723 486.573,928.728 486.945,922.733 487.306,916.737 487.655,910.742 487.993,904.746 488.321,898.75 488.639,892.755 488.947,886.759 489.246,880.763 489.536,874.767 489.818,868.772 490.092,862.776 490.125,862.039 490.389,856.043 490.647,850.047 490.897,844.051 491.14,838.055 491.376,832.059 491.606,826.063 491.829,820.067 492.047,814.071 492.258,808.075 492.464,802.079 492.665,796.083 492.86,790.087 493.051,784.091 493.236,778.095 493.417,772.099 493.594,766.102 493.765,760.106 493.933,754.11 494.097,748.114 494.256,742.118 494.412,736.122 494.564,730.125 494.712,724.129 494.857,718.133 494.999,712.137 495.137,706.141 495.272,700.144 495.404,694.148 495.533,688.152 495.659,682.156 495.782,676.159 495.903,670.163 496.021,664.167 496.136,658.17 496.249,652.174 496.359,646.178 496.467,640.182 496.573,634.185 496.676,628.189 496.777,622.193 496.877,616.196 496.974,610.2 497.069,604.204 497.087,603.044 497.18,597.048 497.271,591.052 497.36,585.055 497.447,579.059 497.533,573.063 497.617,567.066 497.699,561.07 497.78,555.074 497.859,549.077 497.937,543.081 498.013,537.085 498.088,531.088 498.161,525.092 498.233,519.095 498.304,513.099 498.373,507.103 498.441,501.106 498.508,495.11 498.573,489.114 498.638,483.117 498.701,477.121 498.763,471.124 498.824,465.128 498.884,459.132 498.943,453.135 499.001,447.139 499.058,441.142 499.114,435.146 499.169,429.15 499.223,423.153 499.276,417.157 499.328,411.161 499.379,405.164 499.43,399.168 499.479,393.171 499.528,387.175 499.576,381.179 499.623,375.182 499.67,369.186 499.716,363.189 499.76,357.193 499.805,351.196 499.848,345.2 499.857,344.032 499.9,338.035 499.942,332.039 499.983,326.043 500.024,320.046 500.064,314.05 500.104,308.053 500.142,302.057 500.181,296.061 500.219,290.064 500.256,284.068 500.292,278.071 500.329,272.075 500.364,266.078 500.399,260.082 500.434,254.086 500.468,248.089 500.501,242.093 500.534,236.096 500.567,230.1 500.599,224.104 500.631,218.107 500.662,212.111 500.693,206.114 500.723,200.118 500.753,194.121 500.782,188.125 500.811,182.129 500.84,176.132 500.868,170.136 500.896,164.139 500.924,158.143 500.951,152.146 500.978,146.15 501.004,140.154 501.03,134.157 501.056,128.161 501.081,122.164 501.106,116.168 501.131,110.171 501.155,104.175 501.18,98.1785 501.203,92.1821 501.227,86.1857 "/>
<circle clip-path="url(#clip651)" cx="264.782" cy="1353.44" r="10.8" fill="#ff00ff" fill-rule="evenodd" fill-opacity="1" stroke="none"/>
<circle clip-path="url(#clip651)" cx="264.782" cy="1353.43" r="10.8" fill="#008000" fill-rule="evenodd" fill-opacity="1" stroke="none"/>
<circle clip-path="url(#clip651)" cx="463.081" cy="1120.51" r="10.8" fill="#008000" fill-rule="evenodd" fill-opacity="1" stroke="none"/>
<circle clip-path="url(#clip651)" cx="490.125" cy="862.039" r="10.8" fill="#008000" fill-rule="evenodd" fill-opacity="1" stroke="none"/>
<circle clip-path="url(#clip651)" cx="497.087" cy="603.044" r="10.8" fill="#008000" fill-rule="evenodd" fill-opacity="1" stroke="none"/>
<circle clip-path="url(#clip651)" cx="499.857" cy="344.032" r="10.8" fill="#008000" fill-rule="evenodd" fill-opacity="1" stroke="none"/>
<polyline clip-path="url(#clip651)" style="stroke:#00a9ad; stroke-linecap:round; stroke-linejoin:round; stroke-width:4; stroke-opacity:1; fill:none" points="2291.94,379.197 2288.18,394.181 2284.24,409.165 2280.12,424.149 2275.81,439.132 2271.29,454.114 2266.55,469.095 2261.57,484.075 2256.35,499.054 2250.85,514.032 2245.08,529.009 2238.99,543.983 2232.58,558.957 2225.82,573.928 2218.68,588.897 2211.13,603.863 2203.15,618.826 2194.69,633.787 2185.73,648.743 2176.22,663.695 2166.11,678.642 2155.35,693.584 2143.89,708.519 2131.67,723.446 2118.62,738.364 2104.66,753.272 2089.72,768.168 2073.68,783.05 2056.46,797.915 2037.93,812.761 2017.96,827.583 1996.41,842.377 1973.11,857.139 1947.88,871.861 1920.52,886.535 1890.79,901.153 1858.45,915.701 1823.23,930.163 1769.49,949.883 1726.11,964.071 1678.69,978.1 1626.84,991.934 1570.19,1005.53 1508.34,1018.85 1440.92,1031.83 1367.63,1044.41 1288.19,1056.51 1202.45,1068.07 1110.31,1079 1011.79,1089.2 931.715,1096.48 871.694,1101.37 827.231,1104.69 794.552,1106.97 771.275,1108.5 754.762,1109.55 743.081,1110.27 731.335,1110.97 714.504,1111.95 690.317,1113.27 656.304,1114.99 608.214,1117.11 539.707,1119.37 461.343,1120.52 336.92,1115.69 272.323,1097.44 264.778,1082.46 267.833,1067.78 267.843,1067.75 275.146,1053.11 284.339,1038.41 294.261,1023.67 304.309,1008.89 314.161,994.073 323.643,979.233 332.671,964.372 341.206,949.493 349.243,934.598 356.79,919.69 363.867,904.771 370.497,889.842 376.708,874.906 381.018,863.932 386.566,848.984 391.767,834.031 396.647,819.074 401.229,804.112 405.534,789.147 409.583,774.18 413.394,759.21 416.985,744.237 420.371,729.263 423.567,714.286 426.587,699.309 429.443,684.33 432.146,669.35 434.707,654.369 437.134,639.386 439.438,624.404 441.626,609.42 441.873,607.679 443.94,592.694 445.907,577.709 447.779,562.724 449.563,547.738 451.264,532.752 452.887,517.765 454.436,502.778 455.917,487.79 457.332,472.803 458.686,457.815 459.982,442.827 461.223,427.838 "/>
<circle clip-path="url(#clip651)" cx="1823.23" cy="930.163" r="10.8" fill="#a52a2a" fill-rule="evenodd" fill-opacity="1" stroke="none"/>
<circle clip-path="url(#clip651)" cx="461.343" cy="1120.52" r="10.8" fill="#008000" fill-rule="evenodd" fill-opacity="1" stroke="none"/>
<circle clip-path="url(#clip651)" cx="267.833" cy="1067.78" r="10.8" fill="#a52a2a" fill-rule="evenodd" fill-opacity="1" stroke="none"/>
<circle clip-path="url(#clip651)" cx="267.843" cy="1067.75" r="10.8" fill="#a52a2a" fill-rule="evenodd" fill-opacity="1" stroke="none"/>
<circle clip-path="url(#clip651)" cx="381.018" cy="863.932" r="10.8" fill="#008000" fill-rule="evenodd" fill-opacity="1" stroke="none"/>
<circle clip-path="url(#clip651)" cx="441.873" cy="607.679" r="10.8" fill="#008000" fill-rule="evenodd" fill-opacity="1" stroke="none"/>
<path clip-path="url(#clip650)" d="M1144.17 300.469 L1412.55 300.469 L1412.55 93.1086 L1144.17 93.1086  Z" fill="#ffffff" fill-rule="evenodd" fill-opacity="1"/>
<polyline clip-path="url(#clip650)" style="stroke:#000000; stroke-linecap:round; stroke-linejoin:round; stroke-width:4; stroke-opacity:1; fill:none" points="1144.17,300.469 1412.55,300.469 1412.55,93.1086 1144.17,93.1086 1144.17,300.469 "/>
<circle clip-path="url(#clip650)" cx="1239.67" cy="144.949" r="23.04" fill="#ff00ff" fill-rule="evenodd" fill-opacity="1" stroke="none"/>
<path clip-path="url(#clip650)" d="M1356.89 146.581 L1356.89 162.229 L1352.63 162.229 L1352.63 146.719 Q1352.63 143.039 1351.19 141.21 Q1349.76 139.382 1346.89 139.382 Q1343.44 139.382 1341.45 141.581 Q1339.46 143.78 1339.46 147.576 L1339.46 162.229 L1335.18 162.229 L1335.18 136.303 L1339.46 136.303 L1339.46 140.331 Q1340.99 137.993 1343.05 136.835 Q1345.13 135.678 1347.84 135.678 Q1352.31 135.678 1354.6 138.456 Q1356.89 141.21 1356.89 146.581 Z" fill="#000000" fill-rule="nonzero" fill-opacity="1" /><path clip-path="url(#clip650)" d="M1382.44 140.238 L1382.44 126.21 L1386.7 126.21 L1386.7 162.229 L1382.44 162.229 L1382.44 158.34 Q1381.1 160.655 1379.04 161.789 Q1377 162.9 1374.13 162.9 Q1369.44 162.9 1366.47 159.15 Q1363.53 155.4 1363.53 149.289 Q1363.53 143.178 1366.47 139.428 Q1369.44 135.678 1374.13 135.678 Q1377 135.678 1379.04 136.812 Q1381.1 137.923 1382.44 140.238 M1367.93 149.289 Q1367.93 153.988 1369.85 156.673 Q1371.8 159.335 1375.18 159.335 Q1378.56 159.335 1380.5 156.673 Q1382.44 153.988 1382.44 149.289 Q1382.44 144.59 1380.5 141.928 Q1378.56 139.243 1375.18 139.243 Q1371.8 139.243 1369.85 141.928 Q1367.93 144.59 1367.93 149.289 Z" fill="#000000" fill-rule="nonzero" fill-opacity="1" /><circle clip-path="url(#clip650)" cx="1239.67" cy="196.789" r="23.04" fill="#008000" fill-rule="evenodd" fill-opacity="1" stroke="none"/>
<path clip-path="url(#clip650)" d="M1356.89 198.421 L1356.89 214.069 L1352.63 214.069 L1352.63 198.559 Q1352.63 194.879 1351.19 193.05 Q1349.76 191.222 1346.89 191.222 Q1343.44 191.222 1341.45 193.421 Q1339.46 195.62 1339.46 199.416 L1339.46 214.069 L1335.18 214.069 L1335.18 178.05 L1339.46 178.05 L1339.46 192.171 Q1340.99 189.833 1343.05 188.675 Q1345.13 187.518 1347.84 187.518 Q1352.31 187.518 1354.6 190.296 Q1356.89 193.05 1356.89 198.421 Z" fill="#000000" fill-rule="nonzero" fill-opacity="1" /><path clip-path="url(#clip650)" d="M1386.94 198.421 L1386.94 214.069 L1382.68 214.069 L1382.68 198.559 Q1382.68 194.879 1381.24 193.05 Q1379.81 191.222 1376.94 191.222 Q1373.49 191.222 1371.5 193.421 Q1369.5 195.62 1369.5 199.416 L1369.5 214.069 L1365.22 214.069 L1365.22 178.05 L1369.5 178.05 L1369.5 192.171 Q1371.03 189.833 1373.09 188.675 Q1375.18 187.518 1377.88 187.518 Q1382.35 187.518 1384.64 190.296 Q1386.94 193.05 1386.94 198.421 Z" fill="#000000" fill-rule="nonzero" fill-opacity="1" /><circle clip-path="url(#clip650)" cx="1239.67" cy="248.629" r="23.04" fill="#a52a2a" fill-rule="evenodd" fill-opacity="1" stroke="none"/>
<path clip-path="url(#clip650)" d="M1354.09 252.645 Q1354.09 248.015 1352.17 245.469 Q1350.27 242.923 1346.82 242.923 Q1343.39 242.923 1341.47 245.469 Q1339.57 248.015 1339.57 252.645 Q1339.57 257.251 1341.47 259.798 Q1343.39 262.344 1346.82 262.344 Q1350.27 262.344 1352.17 259.798 Q1354.09 257.251 1354.09 252.645 M1358.35 262.691 Q1358.35 269.311 1355.41 272.529 Q1352.47 275.77 1346.4 275.77 Q1344.16 275.77 1342.17 275.422 Q1340.18 275.098 1338.3 274.404 L1338.3 270.26 Q1340.18 271.279 1342.01 271.765 Q1343.83 272.251 1345.73 272.251 Q1349.92 272.251 1352 270.052 Q1354.09 267.876 1354.09 263.455 L1354.09 261.348 Q1352.77 263.64 1350.71 264.774 Q1348.65 265.909 1345.78 265.909 Q1341.01 265.909 1338.09 262.274 Q1335.18 258.64 1335.18 252.645 Q1335.18 246.626 1338.09 242.992 Q1341.01 239.358 1345.78 239.358 Q1348.65 239.358 1350.71 240.492 Q1352.77 241.626 1354.09 243.918 L1354.09 239.983 L1358.35 239.983 L1358.35 262.691 Z" fill="#000000" fill-rule="nonzero" fill-opacity="1" /><path clip-path="url(#clip650)" d="M1388.67 250.261 L1388.67 265.909 L1384.41 265.909 L1384.41 250.399 Q1384.41 246.719 1382.98 244.89 Q1381.54 243.062 1378.67 243.062 Q1375.22 243.062 1373.23 245.261 Q1371.24 247.46 1371.24 251.256 L1371.24 265.909 L1366.96 265.909 L1366.96 229.89 L1371.24 229.89 L1371.24 244.011 Q1372.77 241.673 1374.83 240.515 Q1376.91 239.358 1379.62 239.358 Q1384.09 239.358 1386.38 242.136 Q1388.67 244.89 1388.67 250.261 Z" fill="#000000" fill-rule="nonzero" fill-opacity="1" /></svg>
